%TF.GenerationSoftware,KiCad,Pcbnew,9.0.7*%
%TF.CreationDate,2026-04-17T11:03:11-07:00*%
%TF.ProjectId,MotionMod-FrontPanel,4d6f7469-6f6e-44d6-9f64-2d46726f6e74,rev?*%
%TF.SameCoordinates,Original*%
%TF.FileFunction,Copper,L2,Bot*%
%TF.FilePolarity,Positive*%
%FSLAX46Y46*%
G04 Gerber Fmt 4.6, Leading zero omitted, Abs format (unit mm)*
G04 Created by KiCad (PCBNEW 9.0.7) date 2026-04-17 11:03:11*
%MOMM*%
%LPD*%
G01*
G04 APERTURE LIST*
G04 Aperture macros list*
%AMRoundRect*
0 Rectangle with rounded corners*
0 $1 Rounding radius*
0 $2 $3 $4 $5 $6 $7 $8 $9 X,Y pos of 4 corners*
0 Add a 4 corners polygon primitive as box body*
4,1,4,$2,$3,$4,$5,$6,$7,$8,$9,$2,$3,0*
0 Add four circle primitives for the rounded corners*
1,1,$1+$1,$2,$3*
1,1,$1+$1,$4,$5*
1,1,$1+$1,$6,$7*
1,1,$1+$1,$8,$9*
0 Add four rect primitives between the rounded corners*
20,1,$1+$1,$2,$3,$4,$5,0*
20,1,$1+$1,$4,$5,$6,$7,0*
20,1,$1+$1,$6,$7,$8,$9,0*
20,1,$1+$1,$8,$9,$2,$3,0*%
G04 Aperture macros list end*
%TA.AperFunction,ComponentPad*%
%ADD10C,1.397000*%
%TD*%
%TA.AperFunction,ComponentPad*%
%ADD11C,1.803400*%
%TD*%
%TA.AperFunction,ComponentPad*%
%ADD12C,2.667000*%
%TD*%
%TA.AperFunction,ComponentPad*%
%ADD13C,2.200000*%
%TD*%
%TA.AperFunction,ComponentPad*%
%ADD14RoundRect,0.250000X-0.850000X-0.850000X0.850000X-0.850000X0.850000X0.850000X-0.850000X0.850000X0*%
%TD*%
%TA.AperFunction,ComponentPad*%
%ADD15R,1.830000X1.930000*%
%TD*%
%TA.AperFunction,ComponentPad*%
%ADD16C,2.130000*%
%TD*%
%TA.AperFunction,ComponentPad*%
%ADD17R,1.524000X2.524000*%
%TD*%
%TA.AperFunction,ComponentPad*%
%ADD18O,1.524000X2.524000*%
%TD*%
%TA.AperFunction,ComponentPad*%
%ADD19R,1.700000X1.700000*%
%TD*%
%TA.AperFunction,ComponentPad*%
%ADD20C,1.700000*%
%TD*%
%TA.AperFunction,ViaPad*%
%ADD21C,0.600000*%
%TD*%
%TA.AperFunction,Conductor*%
%ADD22C,0.300000*%
%TD*%
%TA.AperFunction,Conductor*%
%ADD23C,0.500000*%
%TD*%
G04 APERTURE END LIST*
D10*
%TO.P,R23,1*%
%TO.N,/Top Board/CV2*%
X158000000Y-108390500D03*
%TO.P,R23,2*%
%TO.N,Net-(J10-PadT)*%
X158000000Y-116010500D03*
%TD*%
D11*
%TO.P,SW2,A,A*%
%TO.N,EncA_p*%
X147790000Y-109507100D03*
%TO.P,SW2,B,B*%
%TO.N,/Top Board/EncB*%
X142710000Y-109507100D03*
%TO.P,SW2,C,C*%
%TO.N,GND*%
X145250000Y-109507100D03*
D12*
%TO.P,SW2,NC*%
%TO.N,N/C*%
X151500000Y-117000100D03*
X139000000Y-117000100D03*
D11*
%TO.P,SW2,S1,S1*%
%TO.N,GND*%
X147790000Y-124010500D03*
%TO.P,SW2,S2,S2*%
%TO.N,/Top Board/EncSW*%
X142710000Y-124010500D03*
%TD*%
D10*
%TO.P,R26,1*%
%TO.N,/Top Board/CV1*%
X135705227Y-116512013D03*
%TO.P,R26,2*%
%TO.N,Net-(J9-PadT)*%
X135705227Y-124132013D03*
%TD*%
%TO.P,R16,1*%
%TO.N,/Top Board/DispD*%
X136250000Y-87140500D03*
%TO.P,R16,2*%
%TO.N,Net-(AFF1-d)*%
X136250000Y-94760500D03*
%TD*%
D13*
%TO.P,J1,1,Vcc*%
%TO.N,+5V*%
X136750000Y-58700500D03*
%TO.P,J1,2,Trig*%
%TO.N,/Top Board/Trig*%
X136750000Y-61240500D03*
%TO.P,J1,3,Echo*%
%TO.N,Net-(J1-Echo)*%
X136750000Y-63780500D03*
D14*
%TO.P,J1,4,Gnd*%
%TO.N,GND*%
X136750000Y-66320500D03*
%TD*%
D10*
%TO.P,R24,1*%
%TO.N,/Top Board/CV3*%
X150630000Y-125510500D03*
%TO.P,R24,2*%
%TO.N,Net-(J11-PadT)*%
X158250000Y-125510500D03*
%TD*%
D15*
%TO.P,J11,S*%
%TO.N,GND*%
X145250000Y-142760500D03*
D16*
%TO.P,J11,T*%
%TO.N,Net-(J11-PadT)*%
X133850000Y-142760500D03*
%TO.P,J11,TN*%
%TO.N,N/C*%
X142150000Y-142760500D03*
%TD*%
D15*
%TO.P,J12,S*%
%TO.N,GND*%
X145250000Y-142760500D03*
D16*
%TO.P,J12,T*%
%TO.N,Net-(J12-PadT)*%
X156650000Y-142760500D03*
%TO.P,J12,TN*%
%TO.N,N/C*%
X148350000Y-142760500D03*
%TD*%
D10*
%TO.P,R15,1*%
%TO.N,/Top Board/DispC*%
X154000000Y-88760500D03*
%TO.P,R15,2*%
%TO.N,Net-(AFF1-c)*%
X154000000Y-96380500D03*
%TD*%
D17*
%TO.P,AFF1,1,e*%
%TO.N,Net-(AFF1-e)*%
X140170000Y-104880500D03*
D18*
%TO.P,AFF1,2,d*%
%TO.N,Net-(AFF1-d)*%
X142710000Y-104880500D03*
%TO.P,AFF1,3,C.A.*%
%TO.N,unconnected-(AFF1-C.A.-Pad3)*%
X145250000Y-104880500D03*
%TO.P,AFF1,4,c*%
%TO.N,Net-(AFF1-c)*%
X147790000Y-104880500D03*
%TO.P,AFF1,5,DP*%
%TO.N,Net-(AFF1-DP)*%
X150330000Y-104880500D03*
%TO.P,AFF1,6,b*%
%TO.N,Net-(AFF1-b)*%
X150330000Y-89640500D03*
%TO.P,AFF1,7,a*%
%TO.N,Net-(AFF1-a)*%
X147790000Y-89640500D03*
%TO.P,AFF1,8,C.A.*%
%TO.N,+5V*%
X145250000Y-89640500D03*
%TO.P,AFF1,9,f*%
%TO.N,Net-(AFF1-f)*%
X142710000Y-89640500D03*
%TO.P,AFF1,10,g*%
%TO.N,Net-(AFF1-g)*%
X140170000Y-89640500D03*
%TD*%
D10*
%TO.P,R1,1*%
%TO.N,/Top Board/Echo*%
X133250000Y-50940000D03*
%TO.P,R1,2*%
%TO.N,Net-(J1-Echo)*%
X133250000Y-58560000D03*
%TD*%
%TO.P,R25,1*%
%TO.N,/Top Board/CV4*%
X155000000Y-112950500D03*
%TO.P,R25,2*%
%TO.N,Net-(J12-PadT)*%
X155000000Y-120570500D03*
%TD*%
D15*
%TO.P,J10,S*%
%TO.N,GND*%
X145250000Y-131980500D03*
D16*
%TO.P,J10,T*%
%TO.N,Net-(J10-PadT)*%
X156650000Y-131980500D03*
%TO.P,J10,TN*%
%TO.N,N/C*%
X148350000Y-131980500D03*
%TD*%
D15*
%TO.P,J9,S*%
%TO.N,GND*%
X145250000Y-131980500D03*
D16*
%TO.P,J9,T*%
%TO.N,Net-(J9-PadT)*%
X133850000Y-131980500D03*
%TO.P,J9,TN*%
%TO.N,N/C*%
X142150000Y-131980500D03*
%TD*%
D10*
%TO.P,R17,1*%
%TO.N,/Top Board/DispE*%
X132500000Y-87140500D03*
%TO.P,R17,2*%
%TO.N,Net-(AFF1-e)*%
X132500000Y-94760500D03*
%TD*%
%TO.P,R3,1*%
%TO.N,Net-(AFF1-DP)*%
X157500000Y-100820500D03*
%TO.P,R3,2*%
%TO.N,/Top Board/DispDot*%
X157500000Y-93200500D03*
%TD*%
%TO.P,R13,1*%
%TO.N,/Top Board/DispA*%
X147530000Y-78450500D03*
%TO.P,R13,2*%
%TO.N,Net-(AFF1-a)*%
X147530000Y-86070500D03*
%TD*%
D19*
%TO.P,J14,1,Pin_1*%
%TO.N,/Top Board/DispA*%
X157800000Y-84010500D03*
D20*
%TO.P,J14,2,Pin_2*%
%TO.N,/Top Board/DispB*%
X157800000Y-81470500D03*
%TO.P,J14,3,Pin_3*%
%TO.N,/Top Board/DispC*%
X157800000Y-78930500D03*
%TO.P,J14,4,Pin_4*%
%TO.N,/Top Board/DispD*%
X157800000Y-76390500D03*
%TO.P,J14,5,Pin_5*%
%TO.N,/Top Board/DispE*%
X157800000Y-73850500D03*
%TO.P,J14,6,Pin_6*%
%TO.N,/Top Board/DispF*%
X157800000Y-71310500D03*
%TO.P,J14,7,Pin_7*%
%TO.N,/Top Board/DispG*%
X157800000Y-68770500D03*
%TO.P,J14,8,Pin_8*%
%TO.N,/Top Board/DispDot*%
X157800000Y-66230500D03*
%TO.P,J14,9,Pin_9*%
%TO.N,/Top Board/Trig*%
X157800000Y-63690500D03*
%TO.P,J14,10,Pin_10*%
%TO.N,/Top Board/Echo*%
X157800000Y-61150500D03*
%TD*%
D19*
%TO.P,J5,1,Pin_1*%
%TO.N,EncA_p*%
X132800000Y-100510500D03*
D20*
%TO.P,J5,2,Pin_2*%
%TO.N,/Top Board/EncB*%
X132800000Y-103050500D03*
%TO.P,J5,3,Pin_3*%
%TO.N,/Top Board/EncSW*%
X132800000Y-105590500D03*
%TO.P,J5,4,Pin_4*%
%TO.N,/Top Board/CV1*%
X132800000Y-108130500D03*
%TO.P,J5,5,Pin_5*%
%TO.N,/Top Board/CV2*%
X132800000Y-110670500D03*
%TO.P,J5,6,Pin_6*%
%TO.N,/Top Board/CV3*%
X132800000Y-113210500D03*
%TO.P,J5,7,Pin_7*%
%TO.N,/Top Board/CV4*%
X132800000Y-115750500D03*
%TO.P,J5,8,Pin_8*%
%TO.N,unconnected-(J5-Pin_8-Pad8)*%
X132800000Y-118290500D03*
%TO.P,J5,9,Pin_9*%
%TO.N,GND*%
X132800000Y-120830500D03*
%TO.P,J5,10,Pin_10*%
%TO.N,+5V*%
X132800000Y-123370500D03*
%TD*%
D10*
%TO.P,R18,1*%
%TO.N,/Top Board/DispF*%
X142930000Y-78390500D03*
%TO.P,R18,2*%
%TO.N,Net-(AFF1-f)*%
X142930000Y-86010500D03*
%TD*%
%TO.P,R19,1*%
%TO.N,/Top Board/DispG*%
X139750000Y-78390500D03*
%TO.P,R19,2*%
%TO.N,Net-(AFF1-g)*%
X139750000Y-86010500D03*
%TD*%
%TO.P,R14,1*%
%TO.N,/Top Board/DispB*%
X150680000Y-78450500D03*
%TO.P,R14,2*%
%TO.N,Net-(AFF1-b)*%
X150680000Y-86070500D03*
%TD*%
D21*
%TO.N,GND*%
X135400000Y-120150000D03*
X151250000Y-70010500D03*
X154000000Y-78760500D03*
X151250000Y-72510500D03*
X151250000Y-75010500D03*
%TO.N,Net-(AFF1-e)*%
X139250000Y-98510500D03*
%TO.N,Net-(AFF1-d)*%
X142000000Y-98510500D03*
%TO.N,+5V*%
X136899500Y-119611000D03*
%TO.N,/Top Board/EncSW*%
X141000000Y-111010500D03*
%TO.N,/Top Board/CV3*%
X137750000Y-125510500D03*
%TO.N,/Top Board/EncB*%
X135625000Y-107635500D03*
%TO.N,EncA_p*%
X135685997Y-106598902D03*
%TO.N,Net-(J11-PadT)*%
X138000000Y-128010500D03*
%TD*%
D22*
%TO.N,Net-(AFF1-DP)*%
X153630000Y-104880500D02*
X157500000Y-101010500D01*
X157500000Y-101010500D02*
X157500000Y-100820500D01*
X150330000Y-104880500D02*
X153630000Y-104880500D01*
%TO.N,Net-(AFF1-e)*%
X139920000Y-99180500D02*
X139920000Y-104880500D01*
X139250000Y-98510500D02*
X139920000Y-99180500D01*
%TO.N,Net-(AFF1-d)*%
X142500000Y-104840500D02*
X142460000Y-104880500D01*
X142000000Y-98510500D02*
X142500000Y-99010500D01*
X142500000Y-99010500D02*
X142500000Y-104840500D01*
%TO.N,Net-(AFF1-c)*%
X154000000Y-98670500D02*
X147790000Y-104880500D01*
X154000000Y-96380500D02*
X154000000Y-98670500D01*
%TO.N,Net-(AFF1-f)*%
X142750000Y-86070500D02*
X142750000Y-89600500D01*
X142750000Y-89600500D02*
X142710000Y-89640500D01*
%TO.N,Net-(AFF1-b)*%
X150500000Y-89470500D02*
X150330000Y-89640500D01*
X150500000Y-86070500D02*
X150500000Y-89470500D01*
%TO.N,Net-(AFF1-a)*%
X147750000Y-89600500D02*
X147790000Y-89640500D01*
X147750000Y-86070500D02*
X147750000Y-89600500D01*
%TO.N,Net-(AFF1-g)*%
X139750000Y-89220500D02*
X140170000Y-89640500D01*
X139750000Y-86010500D02*
X139750000Y-89220500D01*
%TO.N,+5V*%
X143440000Y-58700500D02*
X136750000Y-58700500D01*
X145250000Y-89390500D02*
X145250000Y-60510500D01*
X145000000Y-89640500D02*
X145250000Y-89390500D01*
D23*
X136899500Y-97741000D02*
X145000000Y-89640500D01*
X136899500Y-119611000D02*
X136899500Y-97741000D01*
D22*
X145250000Y-60510500D02*
X143440000Y-58700500D01*
%TO.N,/Top Board/DispDot*%
X157500000Y-93200500D02*
X157500000Y-87260500D01*
X159250000Y-85510500D02*
X159250000Y-67730500D01*
X157500000Y-87260500D02*
X159250000Y-85510500D01*
X159250000Y-67730500D02*
X157750000Y-66230500D01*
%TO.N,/Top Board/EncSW*%
X142710000Y-112720500D02*
X142710000Y-124010500D01*
X141000000Y-111010500D02*
X142710000Y-112720500D01*
%TO.N,/Top Board/CV3*%
X137750000Y-125510500D02*
X135360500Y-125510500D01*
X134250000Y-124400000D02*
X134250000Y-114710500D01*
X134250000Y-114710500D02*
X132750000Y-113210500D01*
X135360500Y-125510500D02*
X134250000Y-124400000D01*
%TO.N,/Top Board/EncB*%
X134500000Y-104800500D02*
X132750000Y-103050500D01*
X134500000Y-106510500D02*
X134500000Y-104800500D01*
X135625000Y-107635500D02*
X134500000Y-106510500D01*
%TO.N,/Top Board/CV1*%
X135750000Y-111130500D02*
X135750000Y-116480000D01*
X135750000Y-116480000D02*
X135800000Y-116530000D01*
X132750000Y-108130500D02*
X135750000Y-111130500D01*
%TO.N,Net-(J10-PadT)*%
X156750000Y-131930500D02*
X156700000Y-131980500D01*
X158000000Y-116010500D02*
X156750000Y-117260500D01*
X156750000Y-117260500D02*
X156750000Y-131930500D01*
%TO.N,/Top Board/DispC*%
X157750000Y-78930500D02*
X154000000Y-82680500D01*
X154000000Y-82680500D02*
X154000000Y-88760500D01*
%TO.N,EncA_p*%
X135250000Y-106162905D02*
X135250000Y-103010500D01*
X135685997Y-106598902D02*
X135250000Y-106162905D01*
X135250000Y-103010500D02*
X132750000Y-100510500D01*
%TO.N,Net-(J12-PadT)*%
X155000000Y-141130500D02*
X156630000Y-142760500D01*
X155000000Y-120570500D02*
X155000000Y-141130500D01*
%TO.N,Net-(J11-PadT)*%
X136250000Y-129510500D02*
X136250000Y-140360500D01*
X137750000Y-128010500D02*
X136250000Y-129510500D01*
X138000000Y-128010500D02*
X137750000Y-128010500D01*
X136250000Y-140360500D02*
X133850000Y-142760500D01*
%TD*%
%TA.AperFunction,Conductor*%
%TO.N,GND*%
G36*
X144663442Y-142582569D02*
G01*
X144640000Y-142700420D01*
X144640000Y-142820580D01*
X144663442Y-142938431D01*
X144693294Y-143010500D01*
X143839500Y-143010500D01*
X143772461Y-142990815D01*
X143726706Y-142938011D01*
X143715500Y-142886500D01*
X143715500Y-142634500D01*
X143735185Y-142567461D01*
X143787989Y-142521706D01*
X143839500Y-142510500D01*
X144693294Y-142510500D01*
X144663442Y-142582569D01*
G37*
%TD.AperFunction*%
%TA.AperFunction,Conductor*%
G36*
X144663442Y-131802569D02*
G01*
X144640000Y-131920420D01*
X144640000Y-132040580D01*
X144663442Y-132158431D01*
X144693294Y-132230500D01*
X143839500Y-132230500D01*
X143772461Y-132210815D01*
X143726706Y-132158011D01*
X143715500Y-132106500D01*
X143715500Y-131854500D01*
X143735185Y-131787461D01*
X143787989Y-131741706D01*
X143839500Y-131730500D01*
X144693294Y-131730500D01*
X144663442Y-131802569D01*
G37*
%TD.AperFunction*%
%TA.AperFunction,Conductor*%
G36*
X159442539Y-40030685D02*
G01*
X159488294Y-40083489D01*
X159499500Y-40135000D01*
X159499500Y-66760692D01*
X159479815Y-66827731D01*
X159427011Y-66873486D01*
X159357853Y-66883430D01*
X159294297Y-66854405D01*
X159287819Y-66848373D01*
X159138836Y-66699390D01*
X159105351Y-66638067D01*
X159108587Y-66573389D01*
X159117246Y-66546743D01*
X159150500Y-66336787D01*
X159150500Y-66124213D01*
X159117246Y-65914257D01*
X159051557Y-65712088D01*
X158955051Y-65522684D01*
X158955049Y-65522681D01*
X158955048Y-65522679D01*
X158830109Y-65350713D01*
X158679786Y-65200390D01*
X158507820Y-65075451D01*
X158507115Y-65075091D01*
X158499054Y-65070985D01*
X158448259Y-65023012D01*
X158431463Y-64955192D01*
X158453999Y-64889056D01*
X158499054Y-64850015D01*
X158507816Y-64845551D01*
X158538640Y-64823156D01*
X158679786Y-64720609D01*
X158679788Y-64720606D01*
X158679792Y-64720604D01*
X158830104Y-64570292D01*
X158830106Y-64570288D01*
X158830109Y-64570286D01*
X158955048Y-64398320D01*
X158955047Y-64398320D01*
X158955051Y-64398316D01*
X159051557Y-64208912D01*
X159117246Y-64006743D01*
X159150500Y-63796787D01*
X159150500Y-63584213D01*
X159117246Y-63374257D01*
X159051557Y-63172088D01*
X158955051Y-62982684D01*
X158955049Y-62982681D01*
X158955048Y-62982679D01*
X158830109Y-62810713D01*
X158679786Y-62660390D01*
X158507820Y-62535451D01*
X158507115Y-62535091D01*
X158499054Y-62530985D01*
X158448259Y-62483012D01*
X158431463Y-62415192D01*
X158453999Y-62349056D01*
X158499054Y-62310015D01*
X158507816Y-62305551D01*
X158538650Y-62283149D01*
X158679786Y-62180609D01*
X158679788Y-62180606D01*
X158679792Y-62180604D01*
X158830104Y-62030292D01*
X158830106Y-62030288D01*
X158830109Y-62030286D01*
X158955048Y-61858320D01*
X158955047Y-61858320D01*
X158955051Y-61858316D01*
X159051557Y-61668912D01*
X159117246Y-61466743D01*
X159150500Y-61256787D01*
X159150500Y-61044213D01*
X159117246Y-60834257D01*
X159051557Y-60632088D01*
X158955051Y-60442684D01*
X158955049Y-60442681D01*
X158955048Y-60442679D01*
X158830109Y-60270713D01*
X158679786Y-60120390D01*
X158507820Y-59995451D01*
X158318414Y-59898944D01*
X158318413Y-59898943D01*
X158318412Y-59898943D01*
X158116243Y-59833254D01*
X158116241Y-59833253D01*
X158116240Y-59833253D01*
X157954957Y-59807708D01*
X157906287Y-59800000D01*
X157693713Y-59800000D01*
X157645042Y-59807708D01*
X157483760Y-59833253D01*
X157281585Y-59898944D01*
X157092179Y-59995451D01*
X156920213Y-60120390D01*
X156769890Y-60270713D01*
X156644951Y-60442679D01*
X156548444Y-60632085D01*
X156482753Y-60834260D01*
X156449500Y-61044213D01*
X156449500Y-61256787D01*
X156482754Y-61466743D01*
X156531018Y-61615285D01*
X156548444Y-61668914D01*
X156644951Y-61858320D01*
X156769890Y-62030286D01*
X156920213Y-62180609D01*
X157092182Y-62305550D01*
X157100946Y-62310016D01*
X157151742Y-62357991D01*
X157168536Y-62425812D01*
X157145998Y-62491947D01*
X157100946Y-62530984D01*
X157092182Y-62535449D01*
X156920213Y-62660390D01*
X156769890Y-62810713D01*
X156644951Y-62982679D01*
X156548444Y-63172085D01*
X156482753Y-63374260D01*
X156449500Y-63584213D01*
X156449500Y-63796787D01*
X156482754Y-64006743D01*
X156531018Y-64155285D01*
X156548444Y-64208914D01*
X156644951Y-64398320D01*
X156769890Y-64570286D01*
X156920213Y-64720609D01*
X157092182Y-64845550D01*
X157100946Y-64850016D01*
X157151742Y-64897991D01*
X157168536Y-64965812D01*
X157145998Y-65031947D01*
X157100946Y-65070984D01*
X157092182Y-65075449D01*
X156920213Y-65200390D01*
X156769890Y-65350713D01*
X156644951Y-65522679D01*
X156548444Y-65712085D01*
X156482753Y-65914260D01*
X156458007Y-66070500D01*
X156449500Y-66124213D01*
X156449500Y-66336787D01*
X156482754Y-66546743D01*
X156532352Y-66699390D01*
X156548444Y-66748914D01*
X156644951Y-66938320D01*
X156769890Y-67110286D01*
X156920213Y-67260609D01*
X157092182Y-67385550D01*
X157100946Y-67390016D01*
X157151742Y-67437991D01*
X157168536Y-67505812D01*
X157145998Y-67571947D01*
X157100946Y-67610984D01*
X157092182Y-67615449D01*
X156920213Y-67740390D01*
X156769890Y-67890713D01*
X156644951Y-68062679D01*
X156548444Y-68252085D01*
X156482753Y-68454260D01*
X156449500Y-68664213D01*
X156449500Y-68876786D01*
X156482753Y-69086739D01*
X156548444Y-69288914D01*
X156644951Y-69478320D01*
X156769890Y-69650286D01*
X156920213Y-69800609D01*
X157092182Y-69925550D01*
X157100946Y-69930016D01*
X157151742Y-69977991D01*
X157168536Y-70045812D01*
X157145998Y-70111947D01*
X157100946Y-70150984D01*
X157092182Y-70155449D01*
X156920213Y-70280390D01*
X156769890Y-70430713D01*
X156644951Y-70602679D01*
X156548444Y-70792085D01*
X156482753Y-70994260D01*
X156449500Y-71204213D01*
X156449500Y-71416786D01*
X156482753Y-71626739D01*
X156548444Y-71828914D01*
X156644951Y-72018320D01*
X156769890Y-72190286D01*
X156920213Y-72340609D01*
X157092182Y-72465550D01*
X157100946Y-72470016D01*
X157151742Y-72517991D01*
X157168536Y-72585812D01*
X157145998Y-72651947D01*
X157100946Y-72690984D01*
X157092182Y-72695449D01*
X156920213Y-72820390D01*
X156769890Y-72970713D01*
X156644951Y-73142679D01*
X156548444Y-73332085D01*
X156482753Y-73534260D01*
X156449500Y-73744213D01*
X156449500Y-73956786D01*
X156482753Y-74166739D01*
X156548444Y-74368914D01*
X156644951Y-74558320D01*
X156769890Y-74730286D01*
X156920213Y-74880609D01*
X157092182Y-75005550D01*
X157100946Y-75010016D01*
X157151742Y-75057991D01*
X157168536Y-75125812D01*
X157145998Y-75191947D01*
X157100946Y-75230984D01*
X157092182Y-75235449D01*
X156920213Y-75360390D01*
X156769890Y-75510713D01*
X156644951Y-75682679D01*
X156548444Y-75872085D01*
X156482753Y-76074260D01*
X156449500Y-76284213D01*
X156449500Y-76496786D01*
X156482753Y-76706739D01*
X156548444Y-76908914D01*
X156644951Y-77098320D01*
X156769890Y-77270286D01*
X156920213Y-77420609D01*
X157092182Y-77545550D01*
X157100946Y-77550016D01*
X157151742Y-77597991D01*
X157168536Y-77665812D01*
X157145998Y-77731947D01*
X157100946Y-77770984D01*
X157092182Y-77775449D01*
X156920213Y-77900390D01*
X156769890Y-78050713D01*
X156644951Y-78222679D01*
X156548444Y-78412085D01*
X156482753Y-78614260D01*
X156449500Y-78824213D01*
X156449500Y-79036786D01*
X156477116Y-79211149D01*
X156468161Y-79280443D01*
X156442324Y-79318228D01*
X153494726Y-82265826D01*
X153438290Y-82350291D01*
X153438288Y-82350293D01*
X153423539Y-82372365D01*
X153423533Y-82372375D01*
X153374499Y-82490755D01*
X153374497Y-82490761D01*
X153349500Y-82616428D01*
X153349500Y-87687888D01*
X153329815Y-87754927D01*
X153298387Y-87788205D01*
X153218904Y-87845953D01*
X153085456Y-87979401D01*
X153085456Y-87979402D01*
X153085454Y-87979404D01*
X153068393Y-88002887D01*
X152974523Y-88132086D01*
X152888844Y-88300241D01*
X152830522Y-88479736D01*
X152801000Y-88666131D01*
X152801000Y-88854868D01*
X152830522Y-89041263D01*
X152830523Y-89041267D01*
X152888843Y-89220756D01*
X152974523Y-89388913D01*
X153085454Y-89541596D01*
X153218904Y-89675046D01*
X153371587Y-89785977D01*
X153539744Y-89871657D01*
X153719233Y-89929977D01*
X153789134Y-89941048D01*
X153905632Y-89959500D01*
X153905637Y-89959500D01*
X154094368Y-89959500D01*
X154197920Y-89943098D01*
X154280767Y-89929977D01*
X154460256Y-89871657D01*
X154628413Y-89785977D01*
X154781096Y-89675046D01*
X154914546Y-89541596D01*
X155025477Y-89388913D01*
X155111157Y-89220756D01*
X155169477Y-89041267D01*
X155182598Y-88958420D01*
X155199000Y-88854868D01*
X155199000Y-88666131D01*
X155179318Y-88541867D01*
X155169477Y-88479733D01*
X155111157Y-88300244D01*
X155025477Y-88132087D01*
X154914546Y-87979404D01*
X154781096Y-87845954D01*
X154781095Y-87845953D01*
X154701613Y-87788205D01*
X154658948Y-87732875D01*
X154650500Y-87687888D01*
X154650500Y-83001307D01*
X154670185Y-82934268D01*
X154686814Y-82913631D01*
X156237819Y-81362625D01*
X156299142Y-81329141D01*
X156368834Y-81334125D01*
X156424767Y-81375997D01*
X156449184Y-81441461D01*
X156449500Y-81450307D01*
X156449500Y-81576786D01*
X156482753Y-81786739D01*
X156548444Y-81988914D01*
X156644951Y-82178320D01*
X156769890Y-82350286D01*
X156883430Y-82463826D01*
X156916915Y-82525149D01*
X156911931Y-82594841D01*
X156870059Y-82650774D01*
X156839083Y-82667689D01*
X156707669Y-82716703D01*
X156707664Y-82716706D01*
X156592455Y-82802952D01*
X156592452Y-82802955D01*
X156506206Y-82918164D01*
X156506202Y-82918171D01*
X156455908Y-83053017D01*
X156449501Y-83112616D01*
X156449500Y-83112635D01*
X156449500Y-84908370D01*
X156449501Y-84908376D01*
X156455908Y-84967983D01*
X156506202Y-85102828D01*
X156506206Y-85102835D01*
X156592452Y-85218044D01*
X156592455Y-85218047D01*
X156707664Y-85304293D01*
X156707671Y-85304297D01*
X156842517Y-85354591D01*
X156842516Y-85354591D01*
X156849444Y-85355335D01*
X156902127Y-85361000D01*
X158180191Y-85360999D01*
X158247230Y-85380684D01*
X158292985Y-85433487D01*
X158302929Y-85502646D01*
X158273904Y-85566202D01*
X158267872Y-85572680D01*
X156994724Y-86845828D01*
X156946902Y-86917399D01*
X156946903Y-86917400D01*
X156923534Y-86952374D01*
X156874499Y-87070755D01*
X156874497Y-87070761D01*
X156849500Y-87196428D01*
X156849500Y-92127888D01*
X156829815Y-92194927D01*
X156798387Y-92228205D01*
X156718904Y-92285953D01*
X156585456Y-92419401D01*
X156585456Y-92419402D01*
X156585454Y-92419404D01*
X156537813Y-92484975D01*
X156474523Y-92572086D01*
X156388844Y-92740241D01*
X156330522Y-92919736D01*
X156301000Y-93106131D01*
X156301000Y-93294868D01*
X156330522Y-93481263D01*
X156330523Y-93481267D01*
X156388843Y-93660756D01*
X156474523Y-93828913D01*
X156585454Y-93981596D01*
X156718904Y-94115046D01*
X156871587Y-94225977D01*
X157039744Y-94311657D01*
X157219233Y-94369977D01*
X157289134Y-94381048D01*
X157405632Y-94399500D01*
X157405637Y-94399500D01*
X157594368Y-94399500D01*
X157697920Y-94383098D01*
X157780767Y-94369977D01*
X157960256Y-94311657D01*
X158128413Y-94225977D01*
X158281096Y-94115046D01*
X158414546Y-93981596D01*
X158525477Y-93828913D01*
X158611157Y-93660756D01*
X158669477Y-93481267D01*
X158682598Y-93398420D01*
X158699000Y-93294868D01*
X158699000Y-93106131D01*
X158669477Y-92919736D01*
X158669477Y-92919733D01*
X158611157Y-92740244D01*
X158525477Y-92572087D01*
X158414546Y-92419404D01*
X158281096Y-92285954D01*
X158281095Y-92285953D01*
X158201613Y-92228205D01*
X158158948Y-92172875D01*
X158150500Y-92127888D01*
X158150500Y-87581308D01*
X158170185Y-87514269D01*
X158186819Y-87493627D01*
X159287819Y-86392627D01*
X159349142Y-86359142D01*
X159418834Y-86364126D01*
X159474767Y-86405998D01*
X159499184Y-86471462D01*
X159499500Y-86480308D01*
X159499500Y-124808795D01*
X159479815Y-124875834D01*
X159427011Y-124921589D01*
X159357853Y-124931533D01*
X159294297Y-124902508D01*
X159275182Y-124881681D01*
X159259415Y-124859980D01*
X159164546Y-124729404D01*
X159031096Y-124595954D01*
X158878413Y-124485023D01*
X158710256Y-124399343D01*
X158530767Y-124341023D01*
X158530765Y-124341022D01*
X158530763Y-124341022D01*
X158344368Y-124311500D01*
X158344363Y-124311500D01*
X158155637Y-124311500D01*
X158155632Y-124311500D01*
X157969236Y-124341022D01*
X157789741Y-124399344D01*
X157621583Y-124485025D01*
X157597385Y-124502606D01*
X157531579Y-124526086D01*
X157463525Y-124510260D01*
X157414830Y-124460155D01*
X157400500Y-124402288D01*
X157400500Y-117581307D01*
X157420185Y-117514268D01*
X157436815Y-117493630D01*
X157701524Y-117228920D01*
X157762845Y-117195437D01*
X157808596Y-117194130D01*
X157905637Y-117209500D01*
X157905639Y-117209500D01*
X158094368Y-117209500D01*
X158197920Y-117193098D01*
X158280767Y-117179977D01*
X158460256Y-117121657D01*
X158628413Y-117035977D01*
X158781096Y-116925046D01*
X158914546Y-116791596D01*
X159025477Y-116638913D01*
X159111157Y-116470756D01*
X159169477Y-116291267D01*
X159185960Y-116187194D01*
X159199000Y-116104868D01*
X159199000Y-115916131D01*
X159178746Y-115788259D01*
X159169477Y-115729733D01*
X159111157Y-115550244D01*
X159025477Y-115382087D01*
X158914546Y-115229404D01*
X158781096Y-115095954D01*
X158628413Y-114985023D01*
X158460256Y-114899343D01*
X158280767Y-114841023D01*
X158280765Y-114841022D01*
X158280763Y-114841022D01*
X158094368Y-114811500D01*
X158094363Y-114811500D01*
X157905637Y-114811500D01*
X157905632Y-114811500D01*
X157719236Y-114841022D01*
X157539741Y-114899344D01*
X157371586Y-114985023D01*
X157292224Y-115042684D01*
X157218904Y-115095954D01*
X157218902Y-115095956D01*
X157218901Y-115095956D01*
X157085456Y-115229401D01*
X157085456Y-115229402D01*
X157085454Y-115229404D01*
X157083504Y-115232088D01*
X156974523Y-115382086D01*
X156888844Y-115550241D01*
X156830522Y-115729736D01*
X156801000Y-115916131D01*
X156801000Y-116104868D01*
X156816368Y-116201897D01*
X156807414Y-116271190D01*
X156781576Y-116308976D01*
X156244724Y-116845828D01*
X156204819Y-116905550D01*
X156204820Y-116905551D01*
X156173534Y-116952374D01*
X156124499Y-117070755D01*
X156124497Y-117070761D01*
X156099500Y-117196428D01*
X156099500Y-119674996D01*
X156079815Y-119742035D01*
X156027011Y-119787790D01*
X155957853Y-119797734D01*
X155894297Y-119768709D01*
X155887819Y-119762677D01*
X155781098Y-119655956D01*
X155781096Y-119655954D01*
X155628413Y-119545023D01*
X155460256Y-119459343D01*
X155280767Y-119401023D01*
X155280765Y-119401022D01*
X155280763Y-119401022D01*
X155094368Y-119371500D01*
X155094363Y-119371500D01*
X154905637Y-119371500D01*
X154905632Y-119371500D01*
X154719236Y-119401022D01*
X154539741Y-119459344D01*
X154371586Y-119545023D01*
X154285256Y-119607746D01*
X154218904Y-119655954D01*
X154218902Y-119655956D01*
X154218901Y-119655956D01*
X154085456Y-119789401D01*
X154085456Y-119789402D01*
X154085454Y-119789404D01*
X154045424Y-119844501D01*
X153974523Y-119942086D01*
X153888844Y-120110241D01*
X153830522Y-120289736D01*
X153801000Y-120476131D01*
X153801000Y-120664868D01*
X153830522Y-120851263D01*
X153830523Y-120851267D01*
X153888843Y-121030756D01*
X153974523Y-121198913D01*
X154085454Y-121351596D01*
X154085456Y-121351598D01*
X154218907Y-121485049D01*
X154298384Y-121542791D01*
X154341051Y-121598121D01*
X154349500Y-121643110D01*
X154349500Y-141194569D01*
X154349500Y-141194571D01*
X154349499Y-141194571D01*
X154374497Y-141320238D01*
X154374499Y-141320244D01*
X154423534Y-141438625D01*
X154494726Y-141545173D01*
X154494727Y-141545174D01*
X155123370Y-142173816D01*
X155156855Y-142235139D01*
X155153620Y-142299814D01*
X155123048Y-142393907D01*
X155084500Y-142637292D01*
X155084500Y-142883707D01*
X155123048Y-143127090D01*
X155123048Y-143127093D01*
X155199192Y-143361440D01*
X155311064Y-143581001D01*
X155455903Y-143780355D01*
X155630145Y-143954597D01*
X155829499Y-144099436D01*
X155965740Y-144168854D01*
X156049059Y-144211307D01*
X156283407Y-144287451D01*
X156283408Y-144287451D01*
X156283411Y-144287452D01*
X156526792Y-144326000D01*
X156526793Y-144326000D01*
X156773207Y-144326000D01*
X156773208Y-144326000D01*
X157016589Y-144287452D01*
X157016592Y-144287451D01*
X157016593Y-144287451D01*
X157250940Y-144211307D01*
X157250940Y-144211306D01*
X157250943Y-144211306D01*
X157470501Y-144099436D01*
X157669855Y-143954597D01*
X157844097Y-143780355D01*
X157988936Y-143581001D01*
X158100806Y-143361443D01*
X158176952Y-143127089D01*
X158215500Y-142883708D01*
X158215500Y-142637292D01*
X158176952Y-142393911D01*
X158176951Y-142393907D01*
X158176951Y-142393906D01*
X158100807Y-142159559D01*
X158096191Y-142150500D01*
X157988936Y-141939999D01*
X157844097Y-141740645D01*
X157669855Y-141566403D01*
X157470501Y-141421564D01*
X157334266Y-141352149D01*
X157250940Y-141309692D01*
X157016592Y-141233548D01*
X156834053Y-141204637D01*
X156773208Y-141195000D01*
X156526792Y-141195000D01*
X156445665Y-141207849D01*
X156283409Y-141233548D01*
X156159125Y-141273930D01*
X156089283Y-141275925D01*
X156033126Y-141243680D01*
X155686819Y-140897373D01*
X155653334Y-140836050D01*
X155650500Y-140809692D01*
X155650500Y-133430581D01*
X155670185Y-133363542D01*
X155722989Y-133317787D01*
X155792147Y-133307843D01*
X155830793Y-133320095D01*
X155965732Y-133388850D01*
X156049059Y-133431307D01*
X156283407Y-133507451D01*
X156283408Y-133507451D01*
X156283411Y-133507452D01*
X156526792Y-133546000D01*
X156526793Y-133546000D01*
X156773207Y-133546000D01*
X156773208Y-133546000D01*
X157016589Y-133507452D01*
X157016592Y-133507451D01*
X157016593Y-133507451D01*
X157250940Y-133431307D01*
X157250940Y-133431306D01*
X157250943Y-133431306D01*
X157470501Y-133319436D01*
X157669855Y-133174597D01*
X157844097Y-133000355D01*
X157988936Y-132801001D01*
X158100806Y-132581443D01*
X158142111Y-132454318D01*
X158176951Y-132347093D01*
X158176951Y-132347092D01*
X158176952Y-132347089D01*
X158215500Y-132103708D01*
X158215500Y-131857292D01*
X158176952Y-131613911D01*
X158176951Y-131613907D01*
X158176951Y-131613906D01*
X158100807Y-131379559D01*
X158096191Y-131370500D01*
X157988936Y-131159999D01*
X157844097Y-130960645D01*
X157669855Y-130786403D01*
X157470501Y-130641564D01*
X157470502Y-130641564D01*
X157470500Y-130641563D01*
X157468201Y-130640392D01*
X157467483Y-130639714D01*
X157466349Y-130639019D01*
X157466495Y-130638780D01*
X157417407Y-130592416D01*
X157400500Y-130529909D01*
X157400500Y-126618711D01*
X157420185Y-126551672D01*
X157472989Y-126505917D01*
X157542147Y-126495973D01*
X157597383Y-126518392D01*
X157621587Y-126535977D01*
X157789744Y-126621657D01*
X157969233Y-126679977D01*
X158039134Y-126691048D01*
X158155632Y-126709500D01*
X158155637Y-126709500D01*
X158344368Y-126709500D01*
X158447920Y-126693098D01*
X158530767Y-126679977D01*
X158710256Y-126621657D01*
X158878413Y-126535977D01*
X159031096Y-126425046D01*
X159164546Y-126291596D01*
X159275182Y-126139318D01*
X159330512Y-126096653D01*
X159400125Y-126090674D01*
X159461920Y-126123280D01*
X159496278Y-126184119D01*
X159499500Y-126212204D01*
X159499500Y-148886000D01*
X159479815Y-148953039D01*
X159427011Y-148998794D01*
X159375500Y-149010000D01*
X131624500Y-149010000D01*
X131557461Y-148990315D01*
X131511706Y-148937511D01*
X131500500Y-148886000D01*
X131500500Y-131857292D01*
X132284500Y-131857292D01*
X132284500Y-132103707D01*
X132323048Y-132347090D01*
X132323048Y-132347093D01*
X132399192Y-132581440D01*
X132511064Y-132801001D01*
X132655903Y-133000355D01*
X132830145Y-133174597D01*
X133029499Y-133319436D01*
X133165740Y-133388854D01*
X133249059Y-133431307D01*
X133483407Y-133507451D01*
X133483408Y-133507451D01*
X133483411Y-133507452D01*
X133726792Y-133546000D01*
X133726793Y-133546000D01*
X133973207Y-133546000D01*
X133973208Y-133546000D01*
X134216589Y-133507452D01*
X134216592Y-133507451D01*
X134216593Y-133507451D01*
X134450940Y-133431307D01*
X134450940Y-133431306D01*
X134450943Y-133431306D01*
X134670501Y-133319436D01*
X134869855Y-133174597D01*
X135044097Y-133000355D01*
X135188936Y-132801001D01*
X135300806Y-132581443D01*
X135322582Y-132514423D01*
X135357569Y-132406745D01*
X135397006Y-132349070D01*
X135461365Y-132321871D01*
X135530211Y-132333785D01*
X135581687Y-132381029D01*
X135599500Y-132445063D01*
X135599500Y-140039691D01*
X135579815Y-140106730D01*
X135563181Y-140127372D01*
X134451777Y-141238775D01*
X134390454Y-141272260D01*
X134325778Y-141269025D01*
X134216592Y-141233548D01*
X134034053Y-141204637D01*
X133973208Y-141195000D01*
X133726792Y-141195000D01*
X133645665Y-141207849D01*
X133483409Y-141233548D01*
X133483406Y-141233548D01*
X133249059Y-141309692D01*
X133029498Y-141421564D01*
X132830142Y-141566405D01*
X132655905Y-141740642D01*
X132511064Y-141939998D01*
X132399192Y-142159559D01*
X132323048Y-142393906D01*
X132323048Y-142393909D01*
X132284500Y-142637292D01*
X132284500Y-142883707D01*
X132323048Y-143127090D01*
X132323048Y-143127093D01*
X132399192Y-143361440D01*
X132511064Y-143581001D01*
X132655903Y-143780355D01*
X132830145Y-143954597D01*
X133029499Y-144099436D01*
X133165740Y-144168854D01*
X133249059Y-144211307D01*
X133483407Y-144287451D01*
X133483408Y-144287451D01*
X133483411Y-144287452D01*
X133726792Y-144326000D01*
X133726793Y-144326000D01*
X133973207Y-144326000D01*
X133973208Y-144326000D01*
X134216589Y-144287452D01*
X134216592Y-144287451D01*
X134216593Y-144287451D01*
X134450940Y-144211307D01*
X134450940Y-144211306D01*
X134450943Y-144211306D01*
X134670501Y-144099436D01*
X134869855Y-143954597D01*
X135044097Y-143780355D01*
X135188936Y-143581001D01*
X135300806Y-143361443D01*
X135376952Y-143127089D01*
X135415500Y-142883708D01*
X135415500Y-142637292D01*
X140584500Y-142637292D01*
X140584500Y-142883707D01*
X140623048Y-143127090D01*
X140623048Y-143127093D01*
X140699192Y-143361440D01*
X140811064Y-143581001D01*
X140955903Y-143780355D01*
X141130145Y-143954597D01*
X141329499Y-144099436D01*
X141465740Y-144168854D01*
X141549059Y-144211307D01*
X141783407Y-144287451D01*
X141783408Y-144287451D01*
X141783411Y-144287452D01*
X142026792Y-144326000D01*
X142026793Y-144326000D01*
X142273207Y-144326000D01*
X142273208Y-144326000D01*
X142516589Y-144287452D01*
X142516592Y-144287451D01*
X142516593Y-144287451D01*
X142750940Y-144211307D01*
X142750940Y-144211306D01*
X142750943Y-144211306D01*
X142970501Y-144099436D01*
X143169855Y-143954597D01*
X143344097Y-143780355D01*
X143488936Y-143581001D01*
X143600515Y-143362013D01*
X143648489Y-143311218D01*
X143716310Y-143294423D01*
X143782445Y-143316960D01*
X143825897Y-143371675D01*
X143835000Y-143418309D01*
X143835000Y-143773344D01*
X143841401Y-143832872D01*
X143841403Y-143832879D01*
X143891645Y-143967586D01*
X143891649Y-143967593D01*
X143977809Y-144082687D01*
X143977812Y-144082690D01*
X144092906Y-144168850D01*
X144092913Y-144168854D01*
X144227620Y-144219096D01*
X144227627Y-144219098D01*
X144287155Y-144225499D01*
X144287172Y-144225500D01*
X145000000Y-144225500D01*
X145000000Y-143317206D01*
X145072069Y-143347058D01*
X145189920Y-143370500D01*
X145310080Y-143370500D01*
X145427931Y-143347058D01*
X145500000Y-143317206D01*
X145500000Y-144225500D01*
X146212828Y-144225500D01*
X146212844Y-144225499D01*
X146272372Y-144219098D01*
X146272379Y-144219096D01*
X146407086Y-144168854D01*
X146407093Y-144168850D01*
X146522187Y-144082690D01*
X146522190Y-144082687D01*
X146608350Y-143967593D01*
X146608354Y-143967586D01*
X146658596Y-143832879D01*
X146658598Y-143832872D01*
X146664999Y-143773344D01*
X146665000Y-143773327D01*
X146665000Y-143418309D01*
X146684685Y-143351270D01*
X146737489Y-143305515D01*
X146806647Y-143295571D01*
X146870203Y-143324596D01*
X146899484Y-143362013D01*
X147011064Y-143581001D01*
X147155903Y-143780355D01*
X147330145Y-143954597D01*
X147529499Y-144099436D01*
X147665740Y-144168854D01*
X147749059Y-144211307D01*
X147983407Y-144287451D01*
X147983408Y-144287451D01*
X147983411Y-144287452D01*
X148226792Y-144326000D01*
X148226793Y-144326000D01*
X148473207Y-144326000D01*
X148473208Y-144326000D01*
X148716589Y-144287452D01*
X148716592Y-144287451D01*
X148716593Y-144287451D01*
X148950940Y-144211307D01*
X148950940Y-144211306D01*
X148950943Y-144211306D01*
X149170501Y-144099436D01*
X149369855Y-143954597D01*
X149544097Y-143780355D01*
X149688936Y-143581001D01*
X149800806Y-143361443D01*
X149876952Y-143127089D01*
X149915500Y-142883708D01*
X149915500Y-142637292D01*
X149876952Y-142393911D01*
X149876951Y-142393907D01*
X149876951Y-142393906D01*
X149800807Y-142159559D01*
X149796191Y-142150500D01*
X149688936Y-141939999D01*
X149544097Y-141740645D01*
X149369855Y-141566403D01*
X149170501Y-141421564D01*
X149034266Y-141352149D01*
X148950940Y-141309692D01*
X148716592Y-141233548D01*
X148534053Y-141204637D01*
X148473208Y-141195000D01*
X148226792Y-141195000D01*
X148145665Y-141207849D01*
X147983409Y-141233548D01*
X147983406Y-141233548D01*
X147749059Y-141309692D01*
X147529498Y-141421564D01*
X147330142Y-141566405D01*
X147155905Y-141740642D01*
X147011064Y-141939998D01*
X146899485Y-142158985D01*
X146851510Y-142209781D01*
X146783689Y-142226576D01*
X146717554Y-142204039D01*
X146674103Y-142149323D01*
X146665000Y-142102690D01*
X146665000Y-141747672D01*
X146664999Y-141747655D01*
X146658598Y-141688127D01*
X146658596Y-141688120D01*
X146608354Y-141553413D01*
X146608350Y-141553406D01*
X146522190Y-141438312D01*
X146522187Y-141438309D01*
X146407093Y-141352149D01*
X146407086Y-141352145D01*
X146272379Y-141301903D01*
X146272372Y-141301901D01*
X146212844Y-141295500D01*
X145500000Y-141295500D01*
X145500000Y-142203793D01*
X145427931Y-142173942D01*
X145310080Y-142150500D01*
X145189920Y-142150500D01*
X145072069Y-142173942D01*
X145000000Y-142203793D01*
X145000000Y-141295500D01*
X144287155Y-141295500D01*
X144227627Y-141301901D01*
X144227620Y-141301903D01*
X144092913Y-141352145D01*
X144092906Y-141352149D01*
X143977812Y-141438309D01*
X143977809Y-141438312D01*
X143891649Y-141553406D01*
X143891645Y-141553413D01*
X143841403Y-141688120D01*
X143841401Y-141688127D01*
X143835000Y-141747655D01*
X143835000Y-142102690D01*
X143815315Y-142169729D01*
X143762511Y-142215484D01*
X143693353Y-142225428D01*
X143629797Y-142196403D01*
X143600515Y-142158985D01*
X143488935Y-141939998D01*
X143349202Y-141747672D01*
X143344097Y-141740645D01*
X143169855Y-141566403D01*
X142970501Y-141421564D01*
X142834266Y-141352149D01*
X142750940Y-141309692D01*
X142516592Y-141233548D01*
X142334053Y-141204637D01*
X142273208Y-141195000D01*
X142026792Y-141195000D01*
X141945665Y-141207849D01*
X141783409Y-141233548D01*
X141783406Y-141233548D01*
X141549059Y-141309692D01*
X141329498Y-141421564D01*
X141130142Y-141566405D01*
X140955905Y-141740642D01*
X140811064Y-141939998D01*
X140699192Y-142159559D01*
X140623048Y-142393906D01*
X140623048Y-142393909D01*
X140584500Y-142637292D01*
X135415500Y-142637292D01*
X135376952Y-142393911D01*
X135341472Y-142284719D01*
X135339478Y-142214879D01*
X135371721Y-142158723D01*
X136755277Y-140775169D01*
X136826466Y-140668626D01*
X136855189Y-140599279D01*
X136875501Y-140550244D01*
X136900500Y-140424569D01*
X136900500Y-131857292D01*
X140584500Y-131857292D01*
X140584500Y-132103707D01*
X140623048Y-132347090D01*
X140623048Y-132347093D01*
X140699192Y-132581440D01*
X140811064Y-132801001D01*
X140955903Y-133000355D01*
X141130145Y-133174597D01*
X141329499Y-133319436D01*
X141465740Y-133388854D01*
X141549059Y-133431307D01*
X141783407Y-133507451D01*
X141783408Y-133507451D01*
X141783411Y-133507452D01*
X142026792Y-133546000D01*
X142026793Y-133546000D01*
X142273207Y-133546000D01*
X142273208Y-133546000D01*
X142516589Y-133507452D01*
X142516592Y-133507451D01*
X142516593Y-133507451D01*
X142750940Y-133431307D01*
X142750940Y-133431306D01*
X142750943Y-133431306D01*
X142970501Y-133319436D01*
X143169855Y-133174597D01*
X143344097Y-133000355D01*
X143488936Y-132801001D01*
X143600515Y-132582013D01*
X143648489Y-132531218D01*
X143716310Y-132514423D01*
X143782445Y-132536960D01*
X143825897Y-132591675D01*
X143835000Y-132638309D01*
X143835000Y-132993344D01*
X143841401Y-133052872D01*
X143841403Y-133052879D01*
X143891645Y-133187586D01*
X143891649Y-133187593D01*
X143977809Y-133302687D01*
X143977812Y-133302690D01*
X144092906Y-133388850D01*
X144092913Y-133388854D01*
X144227620Y-133439096D01*
X144227627Y-133439098D01*
X144287155Y-133445499D01*
X144287172Y-133445500D01*
X145000000Y-133445500D01*
X145000000Y-132537206D01*
X145072069Y-132567058D01*
X145189920Y-132590500D01*
X145310080Y-132590500D01*
X145427931Y-132567058D01*
X145500000Y-132537206D01*
X145500000Y-133445500D01*
X146212828Y-133445500D01*
X146212844Y-133445499D01*
X146272372Y-133439098D01*
X146272379Y-133439096D01*
X146407086Y-133388854D01*
X146407093Y-133388850D01*
X146522187Y-133302690D01*
X146522190Y-133302687D01*
X146608350Y-133187593D01*
X146608354Y-133187586D01*
X146658596Y-133052879D01*
X146658598Y-133052872D01*
X146664999Y-132993344D01*
X146665000Y-132993327D01*
X146665000Y-132638309D01*
X146684685Y-132571270D01*
X146737489Y-132525515D01*
X146806647Y-132515571D01*
X146870203Y-132544596D01*
X146899484Y-132582013D01*
X147011064Y-132801001D01*
X147155903Y-133000355D01*
X147330145Y-133174597D01*
X147529499Y-133319436D01*
X147665740Y-133388854D01*
X147749059Y-133431307D01*
X147983407Y-133507451D01*
X147983408Y-133507451D01*
X147983411Y-133507452D01*
X148226792Y-133546000D01*
X148226793Y-133546000D01*
X148473207Y-133546000D01*
X148473208Y-133546000D01*
X148716589Y-133507452D01*
X148716592Y-133507451D01*
X148716593Y-133507451D01*
X148950940Y-133431307D01*
X148950940Y-133431306D01*
X148950943Y-133431306D01*
X149170501Y-133319436D01*
X149369855Y-133174597D01*
X149544097Y-133000355D01*
X149688936Y-132801001D01*
X149800806Y-132581443D01*
X149842111Y-132454318D01*
X149876951Y-132347093D01*
X149876951Y-132347092D01*
X149876952Y-132347089D01*
X149915500Y-132103708D01*
X149915500Y-131857292D01*
X149876952Y-131613911D01*
X149876951Y-131613907D01*
X149876951Y-131613906D01*
X149800807Y-131379559D01*
X149796191Y-131370500D01*
X149688936Y-131159999D01*
X149544097Y-130960645D01*
X149369855Y-130786403D01*
X149170501Y-130641564D01*
X149142942Y-130627522D01*
X148950940Y-130529692D01*
X148716592Y-130453548D01*
X148534053Y-130424637D01*
X148473208Y-130415000D01*
X148226792Y-130415000D01*
X148145665Y-130427849D01*
X147983409Y-130453548D01*
X147983406Y-130453548D01*
X147749059Y-130529692D01*
X147529498Y-130641564D01*
X147330142Y-130786405D01*
X147155905Y-130960642D01*
X147011064Y-131159998D01*
X146899485Y-131378985D01*
X146851510Y-131429781D01*
X146783689Y-131446576D01*
X146717554Y-131424039D01*
X146674103Y-131369323D01*
X146665000Y-131322690D01*
X146665000Y-130967672D01*
X146664999Y-130967655D01*
X146658598Y-130908127D01*
X146658596Y-130908120D01*
X146608354Y-130773413D01*
X146608350Y-130773406D01*
X146522190Y-130658312D01*
X146522187Y-130658309D01*
X146407093Y-130572149D01*
X146407086Y-130572145D01*
X146272379Y-130521903D01*
X146272372Y-130521901D01*
X146212844Y-130515500D01*
X145500000Y-130515500D01*
X145500000Y-131423793D01*
X145427931Y-131393942D01*
X145310080Y-131370500D01*
X145189920Y-131370500D01*
X145072069Y-131393942D01*
X145000000Y-131423793D01*
X145000000Y-130515500D01*
X144287155Y-130515500D01*
X144227627Y-130521901D01*
X144227620Y-130521903D01*
X144092913Y-130572145D01*
X144092906Y-130572149D01*
X143977812Y-130658309D01*
X143977809Y-130658312D01*
X143891649Y-130773406D01*
X143891645Y-130773413D01*
X143841403Y-130908120D01*
X143841401Y-130908127D01*
X143835000Y-130967655D01*
X143835000Y-131322690D01*
X143815315Y-131389729D01*
X143762511Y-131435484D01*
X143693353Y-131445428D01*
X143629797Y-131416403D01*
X143600515Y-131378985D01*
X143488935Y-131159998D01*
X143349202Y-130967672D01*
X143344097Y-130960645D01*
X143169855Y-130786403D01*
X142970501Y-130641564D01*
X142942942Y-130627522D01*
X142750940Y-130529692D01*
X142516592Y-130453548D01*
X142334053Y-130424637D01*
X142273208Y-130415000D01*
X142026792Y-130415000D01*
X141945665Y-130427849D01*
X141783409Y-130453548D01*
X141783406Y-130453548D01*
X141549059Y-130529692D01*
X141329498Y-130641564D01*
X141130142Y-130786405D01*
X140955905Y-130960642D01*
X140811064Y-131159998D01*
X140699192Y-131379559D01*
X140623048Y-131613906D01*
X140623048Y-131613909D01*
X140584500Y-131857292D01*
X136900500Y-131857292D01*
X136900500Y-129831307D01*
X136920185Y-129764268D01*
X136936815Y-129743630D01*
X137833126Y-128847318D01*
X137894449Y-128813834D01*
X137920807Y-128811000D01*
X138078844Y-128811000D01*
X138078845Y-128810999D01*
X138233497Y-128780237D01*
X138379179Y-128719894D01*
X138510289Y-128632289D01*
X138621789Y-128520789D01*
X138709394Y-128389679D01*
X138769737Y-128243997D01*
X138800500Y-128089342D01*
X138800500Y-127931658D01*
X138800500Y-127931655D01*
X138800499Y-127931653D01*
X138769738Y-127777010D01*
X138769737Y-127777003D01*
X138769735Y-127776998D01*
X138709397Y-127631327D01*
X138709390Y-127631314D01*
X138621789Y-127500211D01*
X138621786Y-127500207D01*
X138510292Y-127388713D01*
X138510288Y-127388710D01*
X138379185Y-127301109D01*
X138379172Y-127301102D01*
X138233501Y-127240764D01*
X138233489Y-127240761D01*
X138078845Y-127210000D01*
X138078842Y-127210000D01*
X137921158Y-127210000D01*
X137921155Y-127210000D01*
X137766510Y-127240761D01*
X137766498Y-127240764D01*
X137620827Y-127301102D01*
X137620814Y-127301109D01*
X137489714Y-127388708D01*
X137489709Y-127388712D01*
X137458083Y-127420338D01*
X137439294Y-127435758D01*
X137335327Y-127505225D01*
X135744726Y-129095826D01*
X135673534Y-129202374D01*
X135624499Y-129320755D01*
X135624497Y-129320761D01*
X135599500Y-129446428D01*
X135599500Y-131515936D01*
X135579815Y-131582975D01*
X135527011Y-131628730D01*
X135457853Y-131638674D01*
X135394297Y-131609649D01*
X135357569Y-131554254D01*
X135300807Y-131379559D01*
X135296191Y-131370500D01*
X135188936Y-131159999D01*
X135044097Y-130960645D01*
X134869855Y-130786403D01*
X134670501Y-130641564D01*
X134642942Y-130627522D01*
X134450940Y-130529692D01*
X134216592Y-130453548D01*
X134034053Y-130424637D01*
X133973208Y-130415000D01*
X133726792Y-130415000D01*
X133645665Y-130427849D01*
X133483409Y-130453548D01*
X133483406Y-130453548D01*
X133249059Y-130529692D01*
X133029498Y-130641564D01*
X132830142Y-130786405D01*
X132655905Y-130960642D01*
X132511064Y-131159998D01*
X132399192Y-131379559D01*
X132323048Y-131613906D01*
X132323048Y-131613909D01*
X132284500Y-131857292D01*
X131500500Y-131857292D01*
X131500500Y-124261133D01*
X131520185Y-124194094D01*
X131572989Y-124148339D01*
X131642147Y-124138395D01*
X131705703Y-124167420D01*
X131724819Y-124188248D01*
X131769896Y-124250292D01*
X131920213Y-124400609D01*
X132092179Y-124525548D01*
X132092181Y-124525549D01*
X132092184Y-124525551D01*
X132281588Y-124622057D01*
X132483757Y-124687746D01*
X132693713Y-124721000D01*
X132693714Y-124721000D01*
X132906286Y-124721000D01*
X132906287Y-124721000D01*
X133116243Y-124687746D01*
X133318412Y-124622057D01*
X133462688Y-124548544D01*
X133531355Y-124535649D01*
X133596095Y-124561925D01*
X133633542Y-124611577D01*
X133673533Y-124708124D01*
X133744726Y-124814673D01*
X133744727Y-124814674D01*
X134855224Y-125925169D01*
X134900811Y-125970756D01*
X134945832Y-126015777D01*
X135052366Y-126086961D01*
X135052372Y-126086964D01*
X135052373Y-126086965D01*
X135170756Y-126136001D01*
X135170760Y-126136001D01*
X135170761Y-126136002D01*
X135296428Y-126161000D01*
X135296431Y-126161000D01*
X137245065Y-126161000D01*
X137312104Y-126180685D01*
X137313909Y-126181866D01*
X137370821Y-126219894D01*
X137370823Y-126219895D01*
X137370827Y-126219897D01*
X137516498Y-126280235D01*
X137516503Y-126280237D01*
X137671153Y-126310999D01*
X137671156Y-126311000D01*
X137671158Y-126311000D01*
X137828844Y-126311000D01*
X137828845Y-126310999D01*
X137983497Y-126280237D01*
X138129179Y-126219894D01*
X138260289Y-126132289D01*
X138371789Y-126020789D01*
X138459394Y-125889679D01*
X138519737Y-125743997D01*
X138550500Y-125589342D01*
X138550500Y-125431658D01*
X138550500Y-125431655D01*
X138550499Y-125431653D01*
X138547411Y-125416131D01*
X149431000Y-125416131D01*
X149431000Y-125604868D01*
X149460522Y-125791263D01*
X149460523Y-125791267D01*
X149518843Y-125970756D01*
X149604523Y-126138913D01*
X149715454Y-126291596D01*
X149848904Y-126425046D01*
X150001587Y-126535977D01*
X150169744Y-126621657D01*
X150349233Y-126679977D01*
X150419134Y-126691048D01*
X150535632Y-126709500D01*
X150535637Y-126709500D01*
X150724368Y-126709500D01*
X150827920Y-126693098D01*
X150910767Y-126679977D01*
X151090256Y-126621657D01*
X151258413Y-126535977D01*
X151411096Y-126425046D01*
X151544546Y-126291596D01*
X151655477Y-126138913D01*
X151741157Y-125970756D01*
X151799477Y-125791267D01*
X151812598Y-125708420D01*
X151829000Y-125604868D01*
X151829000Y-125416131D01*
X151799477Y-125229736D01*
X151799477Y-125229733D01*
X151741157Y-125050244D01*
X151655477Y-124882087D01*
X151544546Y-124729404D01*
X151411096Y-124595954D01*
X151258413Y-124485023D01*
X151090256Y-124399343D01*
X150910767Y-124341023D01*
X150910765Y-124341022D01*
X150910763Y-124341022D01*
X150724368Y-124311500D01*
X150724363Y-124311500D01*
X150535637Y-124311500D01*
X150535632Y-124311500D01*
X150349236Y-124341022D01*
X150169741Y-124399344D01*
X150001586Y-124485023D01*
X149931906Y-124535649D01*
X149848904Y-124595954D01*
X149848902Y-124595956D01*
X149848901Y-124595956D01*
X149715456Y-124729401D01*
X149715456Y-124729402D01*
X149715454Y-124729404D01*
X149703823Y-124745413D01*
X149604523Y-124882086D01*
X149518844Y-125050241D01*
X149460522Y-125229736D01*
X149431000Y-125416131D01*
X138547411Y-125416131D01*
X138546729Y-125412700D01*
X138519737Y-125277003D01*
X138491711Y-125209342D01*
X138459397Y-125131327D01*
X138459390Y-125131314D01*
X138371789Y-125000211D01*
X138371786Y-125000207D01*
X138260292Y-124888713D01*
X138260288Y-124888710D01*
X138129185Y-124801109D01*
X138129172Y-124801102D01*
X137983501Y-124740764D01*
X137983489Y-124740761D01*
X137828845Y-124710000D01*
X137828842Y-124710000D01*
X137671158Y-124710000D01*
X137671155Y-124710000D01*
X137516510Y-124740761D01*
X137516498Y-124740764D01*
X137370827Y-124801102D01*
X137370820Y-124801106D01*
X137350515Y-124814674D01*
X137313955Y-124839102D01*
X137247279Y-124859980D01*
X137245065Y-124860000D01*
X136882318Y-124860000D01*
X136815279Y-124840315D01*
X136769524Y-124787511D01*
X136759580Y-124718353D01*
X136771833Y-124679705D01*
X136801207Y-124622055D01*
X136816384Y-124592269D01*
X136874704Y-124412780D01*
X136895191Y-124283430D01*
X136904227Y-124226381D01*
X136904227Y-124037644D01*
X136882455Y-123900184D01*
X136874704Y-123851246D01*
X136816384Y-123671757D01*
X136730704Y-123503600D01*
X136619773Y-123350917D01*
X136486323Y-123217467D01*
X136333640Y-123106536D01*
X136165483Y-123020856D01*
X135985994Y-122962536D01*
X135985992Y-122962535D01*
X135985990Y-122962535D01*
X135799595Y-122933013D01*
X135799590Y-122933013D01*
X135610864Y-122933013D01*
X135610859Y-122933013D01*
X135424463Y-122962535D01*
X135244965Y-123020858D01*
X135080794Y-123104507D01*
X135012125Y-123117403D01*
X134947385Y-123091126D01*
X134907128Y-123034020D01*
X134900500Y-122994022D01*
X134900500Y-117650003D01*
X134920185Y-117582964D01*
X134972989Y-117537209D01*
X135042147Y-117527265D01*
X135080792Y-117539517D01*
X135244971Y-117623170D01*
X135424460Y-117681490D01*
X135494361Y-117692561D01*
X135610859Y-117711013D01*
X135610864Y-117711013D01*
X135799595Y-117711013D01*
X135903147Y-117694611D01*
X135985994Y-117681490D01*
X135986680Y-117681266D01*
X135986955Y-117681259D01*
X135990729Y-117680353D01*
X135990919Y-117681145D01*
X136056521Y-117679270D01*
X136116354Y-117715350D01*
X136147184Y-117778050D01*
X136149000Y-117799197D01*
X136149000Y-119306396D01*
X136139562Y-119353844D01*
X136129763Y-119377503D01*
X136129762Y-119377506D01*
X136129760Y-119377511D01*
X136099000Y-119532153D01*
X136099000Y-119689846D01*
X136129761Y-119844489D01*
X136129764Y-119844501D01*
X136190102Y-119990172D01*
X136190109Y-119990185D01*
X136277710Y-120121288D01*
X136277713Y-120121292D01*
X136389207Y-120232786D01*
X136389211Y-120232789D01*
X136520314Y-120320390D01*
X136520327Y-120320397D01*
X136626984Y-120364575D01*
X136666003Y-120380737D01*
X136820653Y-120411499D01*
X136820656Y-120411500D01*
X136820658Y-120411500D01*
X136978344Y-120411500D01*
X136978345Y-120411499D01*
X137132997Y-120380737D01*
X137278679Y-120320394D01*
X137409789Y-120232789D01*
X137521289Y-120121289D01*
X137608894Y-119990179D01*
X137669237Y-119844497D01*
X137700000Y-119689842D01*
X137700000Y-119532158D01*
X137700000Y-119532155D01*
X137699999Y-119532153D01*
X137669239Y-119377511D01*
X137669238Y-119377508D01*
X137669237Y-119377503D01*
X137659437Y-119353844D01*
X137650000Y-119306396D01*
X137650000Y-118527362D01*
X137669685Y-118460323D01*
X137722489Y-118414568D01*
X137791647Y-118404624D01*
X137849485Y-118428985D01*
X137978898Y-118528287D01*
X137978905Y-118528291D01*
X138187094Y-118648490D01*
X138187099Y-118648492D01*
X138187102Y-118648494D01*
X138409215Y-118740496D01*
X138641437Y-118802720D01*
X138879793Y-118834100D01*
X138879800Y-118834100D01*
X139120200Y-118834100D01*
X139120207Y-118834100D01*
X139358563Y-118802720D01*
X139590785Y-118740496D01*
X139812898Y-118648494D01*
X140021102Y-118528287D01*
X140211835Y-118381933D01*
X140381833Y-118211935D01*
X140528187Y-118021202D01*
X140648394Y-117812998D01*
X140740396Y-117590885D01*
X140802620Y-117358663D01*
X140834000Y-117120307D01*
X140834000Y-116879893D01*
X140802620Y-116641537D01*
X140740396Y-116409315D01*
X140648394Y-116187202D01*
X140648392Y-116187199D01*
X140648390Y-116187194D01*
X140528191Y-115979005D01*
X140528187Y-115978998D01*
X140381833Y-115788265D01*
X140381828Y-115788259D01*
X140211840Y-115618271D01*
X140211833Y-115618265D01*
X140021110Y-115471919D01*
X140021108Y-115471917D01*
X140021102Y-115471913D01*
X140021097Y-115471910D01*
X140021094Y-115471908D01*
X139812905Y-115351709D01*
X139812894Y-115351704D01*
X139590789Y-115259705D01*
X139358559Y-115197479D01*
X139120217Y-115166101D01*
X139120212Y-115166100D01*
X139120207Y-115166100D01*
X138879793Y-115166100D01*
X138879787Y-115166100D01*
X138879782Y-115166101D01*
X138641440Y-115197479D01*
X138409210Y-115259705D01*
X138187105Y-115351704D01*
X138187094Y-115351709D01*
X137978905Y-115471908D01*
X137978888Y-115471919D01*
X137849486Y-115571213D01*
X137784317Y-115596407D01*
X137715872Y-115582368D01*
X137665882Y-115533554D01*
X137650000Y-115472837D01*
X137650000Y-110931653D01*
X140199500Y-110931653D01*
X140199500Y-111089346D01*
X140230261Y-111243989D01*
X140230264Y-111244001D01*
X140290602Y-111389672D01*
X140290609Y-111389685D01*
X140378210Y-111520788D01*
X140378213Y-111520792D01*
X140489707Y-111632286D01*
X140489711Y-111632289D01*
X140620814Y-111719890D01*
X140620827Y-111719897D01*
X140697125Y-111751500D01*
X140766503Y-111780237D01*
X140833581Y-111793579D01*
X140895490Y-111825963D01*
X140897070Y-111827515D01*
X142023181Y-112953626D01*
X142056666Y-113014949D01*
X142059500Y-113041307D01*
X142059500Y-122692232D01*
X142039815Y-122759271D01*
X141991799Y-122802715D01*
X141975087Y-122811230D01*
X141910419Y-122858215D01*
X141796528Y-122940962D01*
X141796526Y-122940964D01*
X141796525Y-122940964D01*
X141640464Y-123097025D01*
X141640464Y-123097026D01*
X141640462Y-123097028D01*
X141633554Y-123106536D01*
X141510731Y-123275586D01*
X141410529Y-123472241D01*
X141410528Y-123472244D01*
X141342327Y-123682149D01*
X141307800Y-123900144D01*
X141307800Y-124120855D01*
X141342327Y-124338850D01*
X141410528Y-124548755D01*
X141410529Y-124548758D01*
X141469431Y-124664358D01*
X141510731Y-124745413D01*
X141640462Y-124923972D01*
X141796528Y-125080038D01*
X141975087Y-125209769D01*
X142071540Y-125258914D01*
X142171741Y-125309970D01*
X142171744Y-125309971D01*
X142276696Y-125344071D01*
X142381651Y-125378173D01*
X142599644Y-125412700D01*
X142599645Y-125412700D01*
X142820355Y-125412700D01*
X142820356Y-125412700D01*
X143038349Y-125378173D01*
X143248258Y-125309970D01*
X143444913Y-125209769D01*
X143623472Y-125080038D01*
X143779538Y-124923972D01*
X143909269Y-124745413D01*
X144009470Y-124548758D01*
X144077673Y-124338849D01*
X144112200Y-124120856D01*
X144112200Y-123900184D01*
X146388300Y-123900184D01*
X146388300Y-124120815D01*
X146422815Y-124338733D01*
X146422815Y-124338736D01*
X146490992Y-124548563D01*
X146591157Y-124745147D01*
X146637715Y-124809230D01*
X147352352Y-124094593D01*
X147375792Y-124182071D01*
X147434311Y-124283430D01*
X147517070Y-124366189D01*
X147618429Y-124424708D01*
X147705905Y-124448147D01*
X146991268Y-125162782D01*
X146991268Y-125162783D01*
X147055352Y-125209342D01*
X147251936Y-125309507D01*
X147461764Y-125377684D01*
X147679685Y-125412200D01*
X147900315Y-125412200D01*
X148118233Y-125377684D01*
X148118236Y-125377684D01*
X148328063Y-125309507D01*
X148345192Y-125300780D01*
X148524651Y-125209340D01*
X148588730Y-125162783D01*
X148588731Y-125162783D01*
X147874094Y-124448147D01*
X147961571Y-124424708D01*
X148062930Y-124366189D01*
X148145689Y-124283430D01*
X148204208Y-124182071D01*
X148227647Y-124094595D01*
X148942283Y-124809231D01*
X148942283Y-124809230D01*
X148988840Y-124745151D01*
X149089007Y-124548563D01*
X149157184Y-124338736D01*
X149157184Y-124338733D01*
X149191700Y-124120815D01*
X149191700Y-123900184D01*
X149157184Y-123682266D01*
X149157184Y-123682263D01*
X149089007Y-123472436D01*
X148988842Y-123275852D01*
X148942283Y-123211768D01*
X148942282Y-123211768D01*
X148227647Y-123926404D01*
X148204208Y-123838929D01*
X148145689Y-123737570D01*
X148062930Y-123654811D01*
X147961571Y-123596292D01*
X147874092Y-123572852D01*
X148588730Y-122858215D01*
X148524647Y-122811657D01*
X148328063Y-122711492D01*
X148118235Y-122643315D01*
X147900315Y-122608800D01*
X147679685Y-122608800D01*
X147461766Y-122643315D01*
X147461763Y-122643315D01*
X147251936Y-122711492D01*
X147055342Y-122811662D01*
X146991268Y-122858214D01*
X146991268Y-122858215D01*
X147705905Y-123572852D01*
X147618429Y-123596292D01*
X147517070Y-123654811D01*
X147434311Y-123737570D01*
X147375792Y-123838929D01*
X147352352Y-123926405D01*
X146637715Y-123211768D01*
X146637714Y-123211768D01*
X146591162Y-123275842D01*
X146490992Y-123472436D01*
X146422815Y-123682263D01*
X146422815Y-123682266D01*
X146388300Y-123900184D01*
X144112200Y-123900184D01*
X144112200Y-123900144D01*
X144077673Y-123682151D01*
X144019659Y-123503600D01*
X144009471Y-123472244D01*
X144009470Y-123472241D01*
X143909404Y-123275852D01*
X143909269Y-123275587D01*
X143779538Y-123097028D01*
X143623472Y-122940962D01*
X143501148Y-122852088D01*
X143444912Y-122811230D01*
X143428201Y-122802715D01*
X143377407Y-122754738D01*
X143360500Y-122692232D01*
X143360500Y-116879899D01*
X149666000Y-116879899D01*
X149666000Y-117120300D01*
X149666001Y-117120317D01*
X149676021Y-117196431D01*
X149697380Y-117358663D01*
X149711326Y-117410709D01*
X149759605Y-117590889D01*
X149851604Y-117812994D01*
X149851609Y-117813005D01*
X149971808Y-118021194D01*
X149971819Y-118021210D01*
X150118165Y-118211933D01*
X150118171Y-118211940D01*
X150288159Y-118381928D01*
X150288166Y-118381934D01*
X150330696Y-118414568D01*
X150478898Y-118528287D01*
X150478905Y-118528291D01*
X150687094Y-118648490D01*
X150687099Y-118648492D01*
X150687102Y-118648494D01*
X150909215Y-118740496D01*
X151141437Y-118802720D01*
X151379793Y-118834100D01*
X151379800Y-118834100D01*
X151620200Y-118834100D01*
X151620207Y-118834100D01*
X151858563Y-118802720D01*
X152090785Y-118740496D01*
X152312898Y-118648494D01*
X152521102Y-118528287D01*
X152711835Y-118381933D01*
X152881833Y-118211935D01*
X153028187Y-118021202D01*
X153148394Y-117812998D01*
X153240396Y-117590885D01*
X153302620Y-117358663D01*
X153334000Y-117120307D01*
X153334000Y-116879893D01*
X153302620Y-116641537D01*
X153240396Y-116409315D01*
X153148394Y-116187202D01*
X153148392Y-116187199D01*
X153148390Y-116187194D01*
X153028191Y-115979005D01*
X153028187Y-115978998D01*
X152881833Y-115788265D01*
X152881828Y-115788259D01*
X152711840Y-115618271D01*
X152711833Y-115618265D01*
X152521110Y-115471919D01*
X152521108Y-115471917D01*
X152521102Y-115471913D01*
X152521097Y-115471910D01*
X152521094Y-115471908D01*
X152312905Y-115351709D01*
X152312894Y-115351704D01*
X152090789Y-115259705D01*
X151858559Y-115197479D01*
X151620217Y-115166101D01*
X151620212Y-115166100D01*
X151620207Y-115166100D01*
X151379793Y-115166100D01*
X151379787Y-115166100D01*
X151379782Y-115166101D01*
X151141440Y-115197479D01*
X150909210Y-115259705D01*
X150687105Y-115351704D01*
X150687094Y-115351709D01*
X150478905Y-115471908D01*
X150478889Y-115471919D01*
X150288166Y-115618265D01*
X150288159Y-115618271D01*
X150118171Y-115788259D01*
X150118165Y-115788266D01*
X149971819Y-115978989D01*
X149971808Y-115979005D01*
X149851609Y-116187194D01*
X149851604Y-116187205D01*
X149759605Y-116409310D01*
X149697379Y-116641540D01*
X149666001Y-116879882D01*
X149666000Y-116879899D01*
X143360500Y-116879899D01*
X143360500Y-112856131D01*
X153801000Y-112856131D01*
X153801000Y-113044868D01*
X153830522Y-113231263D01*
X153830523Y-113231267D01*
X153888843Y-113410756D01*
X153974523Y-113578913D01*
X154085454Y-113731596D01*
X154218904Y-113865046D01*
X154371587Y-113975977D01*
X154539744Y-114061657D01*
X154719233Y-114119977D01*
X154789134Y-114131048D01*
X154905632Y-114149500D01*
X154905637Y-114149500D01*
X155094368Y-114149500D01*
X155197920Y-114133098D01*
X155280767Y-114119977D01*
X155460256Y-114061657D01*
X155628413Y-113975977D01*
X155781096Y-113865046D01*
X155914546Y-113731596D01*
X156025477Y-113578913D01*
X156111157Y-113410756D01*
X156169477Y-113231267D01*
X156189600Y-113104213D01*
X156199000Y-113044868D01*
X156199000Y-112856131D01*
X156179318Y-112731867D01*
X156169477Y-112669733D01*
X156111157Y-112490244D01*
X156025477Y-112322087D01*
X155914546Y-112169404D01*
X155781096Y-112035954D01*
X155628413Y-111925023D01*
X155460256Y-111839343D01*
X155280767Y-111781023D01*
X155280765Y-111781022D01*
X155280763Y-111781022D01*
X155094368Y-111751500D01*
X155094363Y-111751500D01*
X154905637Y-111751500D01*
X154905632Y-111751500D01*
X154719236Y-111781022D01*
X154719233Y-111781023D01*
X154568456Y-111830014D01*
X154539741Y-111839344D01*
X154371586Y-111925023D01*
X154342973Y-111945812D01*
X154218904Y-112035954D01*
X154218902Y-112035956D01*
X154218901Y-112035956D01*
X154085456Y-112169401D01*
X154085456Y-112169402D01*
X154085454Y-112169404D01*
X154077468Y-112180396D01*
X153974523Y-112322086D01*
X153888844Y-112490241D01*
X153830522Y-112669736D01*
X153801000Y-112856131D01*
X143360500Y-112856131D01*
X143360500Y-112656428D01*
X143335502Y-112530761D01*
X143335501Y-112530760D01*
X143335501Y-112530756D01*
X143286465Y-112412373D01*
X143286464Y-112412372D01*
X143286461Y-112412366D01*
X143215277Y-112305832D01*
X143215276Y-112305831D01*
X143124669Y-112215224D01*
X141817015Y-110907570D01*
X141807952Y-110890973D01*
X141794820Y-110877363D01*
X141784413Y-110847865D01*
X141783530Y-110846247D01*
X141783095Y-110844160D01*
X141780430Y-110830763D01*
X141786659Y-110761175D01*
X141829522Y-110705998D01*
X141895412Y-110682754D01*
X141963409Y-110698822D01*
X141974930Y-110706256D01*
X141975081Y-110706366D01*
X142171741Y-110806570D01*
X142171744Y-110806571D01*
X142246210Y-110830766D01*
X142381651Y-110874773D01*
X142599644Y-110909300D01*
X142599645Y-110909300D01*
X142820355Y-110909300D01*
X142820356Y-110909300D01*
X143038349Y-110874773D01*
X143248258Y-110806570D01*
X143444913Y-110706369D01*
X143623472Y-110576638D01*
X143779538Y-110420572D01*
X143879992Y-110282309D01*
X143935321Y-110239645D01*
X144004934Y-110233666D01*
X144066729Y-110266272D01*
X144080628Y-110282311D01*
X144097715Y-110305830D01*
X144812352Y-109591193D01*
X144835792Y-109678671D01*
X144894311Y-109780030D01*
X144977070Y-109862789D01*
X145078429Y-109921308D01*
X145165905Y-109944747D01*
X144451268Y-110659382D01*
X144451268Y-110659383D01*
X144515352Y-110705942D01*
X144711936Y-110806107D01*
X144921764Y-110874284D01*
X145139685Y-110908800D01*
X145360315Y-110908800D01*
X145578233Y-110874284D01*
X145578236Y-110874284D01*
X145788063Y-110806107D01*
X145984651Y-110705940D01*
X146048730Y-110659383D01*
X146048731Y-110659383D01*
X145334094Y-109944747D01*
X145421571Y-109921308D01*
X145522930Y-109862789D01*
X145605689Y-109780030D01*
X145664208Y-109678671D01*
X145687647Y-109591195D01*
X146402283Y-110305831D01*
X146402283Y-110305830D01*
X146419372Y-110282311D01*
X146474701Y-110239645D01*
X146544315Y-110233666D01*
X146606110Y-110266271D01*
X146620008Y-110282310D01*
X146640266Y-110310192D01*
X146720462Y-110420572D01*
X146876528Y-110576638D01*
X147055087Y-110706369D01*
X147141322Y-110750308D01*
X147251741Y-110806570D01*
X147251744Y-110806571D01*
X147326210Y-110830766D01*
X147461651Y-110874773D01*
X147679644Y-110909300D01*
X147679645Y-110909300D01*
X147900355Y-110909300D01*
X147900356Y-110909300D01*
X148118349Y-110874773D01*
X148328258Y-110806570D01*
X148524913Y-110706369D01*
X148703472Y-110576638D01*
X148859538Y-110420572D01*
X148989269Y-110242013D01*
X149089470Y-110045358D01*
X149157673Y-109835449D01*
X149192200Y-109617456D01*
X149192200Y-109396744D01*
X149157673Y-109178751D01*
X149089470Y-108968842D01*
X149089470Y-108968841D01*
X149029302Y-108850756D01*
X148989269Y-108772187D01*
X148859538Y-108593628D01*
X148703472Y-108437562D01*
X148524913Y-108307831D01*
X148501951Y-108296131D01*
X156801000Y-108296131D01*
X156801000Y-108484868D01*
X156826982Y-108648912D01*
X156830523Y-108671267D01*
X156888843Y-108850756D01*
X156974523Y-109018913D01*
X157085454Y-109171596D01*
X157218904Y-109305046D01*
X157371587Y-109415977D01*
X157539744Y-109501657D01*
X157719233Y-109559977D01*
X157789134Y-109571048D01*
X157905632Y-109589500D01*
X157905637Y-109589500D01*
X158094368Y-109589500D01*
X158197920Y-109573098D01*
X158280767Y-109559977D01*
X158460256Y-109501657D01*
X158628413Y-109415977D01*
X158781096Y-109305046D01*
X158914546Y-109171596D01*
X159025477Y-109018913D01*
X159111157Y-108850756D01*
X159169477Y-108671267D01*
X159189371Y-108545659D01*
X159199000Y-108484868D01*
X159199000Y-108296131D01*
X159175188Y-108145792D01*
X159169477Y-108109733D01*
X159111157Y-107930244D01*
X159025477Y-107762087D01*
X158914546Y-107609404D01*
X158781096Y-107475954D01*
X158628413Y-107365023D01*
X158460256Y-107279343D01*
X158280767Y-107221023D01*
X158280765Y-107221022D01*
X158280763Y-107221022D01*
X158094368Y-107191500D01*
X158094363Y-107191500D01*
X157905637Y-107191500D01*
X157905632Y-107191500D01*
X157719236Y-107221022D01*
X157539741Y-107279344D01*
X157371586Y-107365023D01*
X157292224Y-107422684D01*
X157218904Y-107475954D01*
X157218902Y-107475956D01*
X157218901Y-107475956D01*
X157085456Y-107609401D01*
X157085456Y-107609402D01*
X157085454Y-107609404D01*
X157083504Y-107612088D01*
X156974523Y-107762086D01*
X156888844Y-107930241D01*
X156830522Y-108109736D01*
X156801000Y-108296131D01*
X148501951Y-108296131D01*
X148328258Y-108207629D01*
X148328255Y-108207628D01*
X148118350Y-108139427D01*
X148009352Y-108122163D01*
X147900356Y-108104900D01*
X147679644Y-108104900D01*
X147606979Y-108116409D01*
X147461649Y-108139427D01*
X147251744Y-108207628D01*
X147251741Y-108207629D01*
X147055086Y-108307831D01*
X146990419Y-108354815D01*
X146876528Y-108437562D01*
X146876526Y-108437564D01*
X146876525Y-108437564D01*
X146720464Y-108593625D01*
X146720457Y-108593634D01*
X146620007Y-108731889D01*
X146564677Y-108774555D01*
X146495064Y-108780533D01*
X146433269Y-108747926D01*
X146419371Y-108731888D01*
X146402283Y-108708368D01*
X146402282Y-108708368D01*
X145687647Y-109423004D01*
X145664208Y-109335529D01*
X145605689Y-109234170D01*
X145522930Y-109151411D01*
X145421571Y-109092892D01*
X145334092Y-109069452D01*
X146048730Y-108354815D01*
X145984647Y-108308257D01*
X145788063Y-108208092D01*
X145578235Y-108139915D01*
X145360315Y-108105400D01*
X145139685Y-108105400D01*
X144921766Y-108139915D01*
X144921763Y-108139915D01*
X144711936Y-108208092D01*
X144515342Y-108308262D01*
X144451268Y-108354814D01*
X144451268Y-108354815D01*
X145165905Y-109069452D01*
X145078429Y-109092892D01*
X144977070Y-109151411D01*
X144894311Y-109234170D01*
X144835792Y-109335529D01*
X144812352Y-109423005D01*
X144097715Y-108708368D01*
X144097714Y-108708368D01*
X144080627Y-108731888D01*
X144025297Y-108774554D01*
X143955684Y-108780533D01*
X143893888Y-108747928D01*
X143879990Y-108731888D01*
X143779540Y-108593631D01*
X143779535Y-108593625D01*
X143623474Y-108437564D01*
X143623472Y-108437562D01*
X143444913Y-108307831D01*
X143248258Y-108207629D01*
X143248255Y-108207628D01*
X143038350Y-108139427D01*
X142929352Y-108122163D01*
X142820356Y-108104900D01*
X142599644Y-108104900D01*
X142526979Y-108116409D01*
X142381649Y-108139427D01*
X142171744Y-108207628D01*
X142171741Y-108207629D01*
X141975086Y-108307831D01*
X141910419Y-108354815D01*
X141796528Y-108437562D01*
X141796526Y-108437564D01*
X141796525Y-108437564D01*
X141640464Y-108593625D01*
X141640464Y-108593626D01*
X141640462Y-108593628D01*
X141640460Y-108593631D01*
X141510731Y-108772186D01*
X141410529Y-108968841D01*
X141410528Y-108968844D01*
X141342327Y-109178749D01*
X141317106Y-109337991D01*
X141307800Y-109396744D01*
X141307800Y-109617456D01*
X141311433Y-109640396D01*
X141342327Y-109835450D01*
X141410528Y-110045355D01*
X141410532Y-110045363D01*
X141431492Y-110086500D01*
X141444388Y-110155169D01*
X141418111Y-110219909D01*
X141361005Y-110260166D01*
X141291199Y-110263158D01*
X141273555Y-110257355D01*
X141233501Y-110240764D01*
X141233489Y-110240761D01*
X141078845Y-110210000D01*
X141078842Y-110210000D01*
X140921158Y-110210000D01*
X140921155Y-110210000D01*
X140766510Y-110240761D01*
X140766498Y-110240764D01*
X140620827Y-110301102D01*
X140620814Y-110301109D01*
X140489711Y-110388710D01*
X140489707Y-110388713D01*
X140378213Y-110500207D01*
X140378210Y-110500211D01*
X140290609Y-110631314D01*
X140290602Y-110631327D01*
X140230264Y-110776998D01*
X140230261Y-110777010D01*
X140199500Y-110931653D01*
X137650000Y-110931653D01*
X137650000Y-98431653D01*
X138449500Y-98431653D01*
X138449500Y-98589346D01*
X138480261Y-98743989D01*
X138480264Y-98744001D01*
X138540602Y-98889672D01*
X138540609Y-98889685D01*
X138628210Y-99020788D01*
X138628213Y-99020792D01*
X138739707Y-99132286D01*
X138739711Y-99132289D01*
X138870814Y-99219890D01*
X138870827Y-99219897D01*
X138958230Y-99256099D01*
X139016503Y-99280237D01*
X139083580Y-99293579D01*
X139100337Y-99302344D01*
X139118815Y-99306364D01*
X139143849Y-99325104D01*
X139145490Y-99325963D01*
X139147069Y-99327515D01*
X139233181Y-99413627D01*
X139266666Y-99474950D01*
X139269500Y-99501308D01*
X139269500Y-103049882D01*
X139249815Y-103116921D01*
X139197011Y-103162676D01*
X139188836Y-103166063D01*
X139165665Y-103174705D01*
X139050455Y-103260952D01*
X139050452Y-103260955D01*
X138964206Y-103376164D01*
X138964202Y-103376171D01*
X138913908Y-103511017D01*
X138907684Y-103568912D01*
X138907501Y-103570623D01*
X138907500Y-103570635D01*
X138907500Y-106190370D01*
X138907501Y-106190376D01*
X138913908Y-106249983D01*
X138964202Y-106384828D01*
X138964206Y-106384835D01*
X139050452Y-106500044D01*
X139050455Y-106500047D01*
X139165664Y-106586293D01*
X139165671Y-106586297D01*
X139300517Y-106636591D01*
X139300516Y-106636591D01*
X139307444Y-106637335D01*
X139360127Y-106643000D01*
X140979872Y-106642999D01*
X141039483Y-106636591D01*
X141174331Y-106586296D01*
X141289546Y-106500046D01*
X141375796Y-106384831D01*
X141426091Y-106249983D01*
X141432500Y-106190373D01*
X141432499Y-106151697D01*
X141452182Y-106084661D01*
X141504985Y-106038905D01*
X141574143Y-106028960D01*
X141637699Y-106057983D01*
X141656817Y-106078812D01*
X141747019Y-106202964D01*
X141887536Y-106343481D01*
X142048306Y-106460287D01*
X142126333Y-106500044D01*
X142225367Y-106550505D01*
X142225370Y-106550506D01*
X142299430Y-106574569D01*
X142414364Y-106611913D01*
X142610639Y-106643000D01*
X142610640Y-106643000D01*
X142809360Y-106643000D01*
X142809361Y-106643000D01*
X143005636Y-106611913D01*
X143194632Y-106550505D01*
X143371694Y-106460287D01*
X143532464Y-106343481D01*
X143672981Y-106202964D01*
X143789787Y-106042194D01*
X143869515Y-105885718D01*
X143917490Y-105834923D01*
X143985311Y-105818128D01*
X144051446Y-105840665D01*
X144090484Y-105885718D01*
X144170213Y-106042194D01*
X144287019Y-106202964D01*
X144427536Y-106343481D01*
X144588306Y-106460287D01*
X144666333Y-106500044D01*
X144765367Y-106550505D01*
X144765370Y-106550506D01*
X144839430Y-106574569D01*
X144954364Y-106611913D01*
X145150639Y-106643000D01*
X145150640Y-106643000D01*
X145349360Y-106643000D01*
X145349361Y-106643000D01*
X145545636Y-106611913D01*
X145734632Y-106550505D01*
X145911694Y-106460287D01*
X146072464Y-106343481D01*
X146212981Y-106202964D01*
X146329787Y-106042194D01*
X146409515Y-105885718D01*
X146457490Y-105834923D01*
X146525311Y-105818128D01*
X146591446Y-105840665D01*
X146630484Y-105885718D01*
X146710213Y-106042194D01*
X146827019Y-106202964D01*
X146967536Y-106343481D01*
X147128306Y-106460287D01*
X147206333Y-106500044D01*
X147305367Y-106550505D01*
X147305370Y-106550506D01*
X147379430Y-106574569D01*
X147494364Y-106611913D01*
X147690639Y-106643000D01*
X147690640Y-106643000D01*
X147889360Y-106643000D01*
X147889361Y-106643000D01*
X148085636Y-106611913D01*
X148274632Y-106550505D01*
X148451694Y-106460287D01*
X148612464Y-106343481D01*
X148752981Y-106202964D01*
X148869787Y-106042194D01*
X148949515Y-105885718D01*
X148997490Y-105834923D01*
X149065311Y-105818128D01*
X149131446Y-105840665D01*
X149170484Y-105885718D01*
X149250213Y-106042194D01*
X149367019Y-106202964D01*
X149507536Y-106343481D01*
X149668306Y-106460287D01*
X149746333Y-106500044D01*
X149845367Y-106550505D01*
X149845370Y-106550506D01*
X149919430Y-106574569D01*
X150034364Y-106611913D01*
X150230639Y-106643000D01*
X150230640Y-106643000D01*
X150429360Y-106643000D01*
X150429361Y-106643000D01*
X150625636Y-106611913D01*
X150814632Y-106550505D01*
X150991694Y-106460287D01*
X151152464Y-106343481D01*
X151292981Y-106202964D01*
X151409787Y-106042194D01*
X151500005Y-105865132D01*
X151501222Y-105861388D01*
X151541168Y-105738443D01*
X151561413Y-105676136D01*
X151567833Y-105635602D01*
X151597762Y-105572468D01*
X151657073Y-105535536D01*
X151690306Y-105531000D01*
X153694071Y-105531000D01*
X153778615Y-105514182D01*
X153819744Y-105506001D01*
X153938127Y-105456965D01*
X153947047Y-105451004D01*
X153947055Y-105451002D01*
X153947054Y-105451000D01*
X154044669Y-105385777D01*
X157374627Y-102055819D01*
X157435950Y-102022334D01*
X157462308Y-102019500D01*
X157594368Y-102019500D01*
X157697920Y-102003098D01*
X157780767Y-101989977D01*
X157960256Y-101931657D01*
X158128413Y-101845977D01*
X158281096Y-101735046D01*
X158414546Y-101601596D01*
X158525477Y-101448913D01*
X158611157Y-101280756D01*
X158669477Y-101101267D01*
X158686933Y-100991053D01*
X158699000Y-100914868D01*
X158699000Y-100726131D01*
X158669477Y-100539736D01*
X158669477Y-100539733D01*
X158611157Y-100360244D01*
X158525477Y-100192087D01*
X158414546Y-100039404D01*
X158281096Y-99905954D01*
X158128413Y-99795023D01*
X157960256Y-99709343D01*
X157780767Y-99651023D01*
X157780765Y-99651022D01*
X157780763Y-99651022D01*
X157594368Y-99621500D01*
X157594363Y-99621500D01*
X157405637Y-99621500D01*
X157405632Y-99621500D01*
X157219236Y-99651022D01*
X157039741Y-99709344D01*
X156871586Y-99795023D01*
X156784475Y-99858313D01*
X156718904Y-99905954D01*
X156718902Y-99905956D01*
X156718901Y-99905956D01*
X156585456Y-100039401D01*
X156585456Y-100039402D01*
X156585454Y-100039404D01*
X156537813Y-100104975D01*
X156474523Y-100192086D01*
X156388844Y-100360241D01*
X156330522Y-100539736D01*
X156301000Y-100726131D01*
X156301000Y-100914868D01*
X156330522Y-101101263D01*
X156330523Y-101101268D01*
X156345976Y-101148828D01*
X156347971Y-101218669D01*
X156315726Y-101274826D01*
X153396873Y-104193681D01*
X153335550Y-104227166D01*
X153309192Y-104230000D01*
X151690306Y-104230000D01*
X151623267Y-104210315D01*
X151577512Y-104157511D01*
X151567833Y-104125398D01*
X151566843Y-104119152D01*
X151561413Y-104084864D01*
X151515277Y-103942871D01*
X151500006Y-103895870D01*
X151500005Y-103895867D01*
X151452905Y-103803430D01*
X151409787Y-103718806D01*
X151292981Y-103558036D01*
X151152464Y-103417519D01*
X150991694Y-103300713D01*
X150931156Y-103269867D01*
X150814632Y-103210494D01*
X150814629Y-103210493D01*
X150678995Y-103166423D01*
X150621319Y-103126985D01*
X150594121Y-103062627D01*
X150606036Y-102993780D01*
X150629629Y-102960814D01*
X154505276Y-99085169D01*
X154576465Y-98978627D01*
X154625501Y-98860244D01*
X154633682Y-98819115D01*
X154650500Y-98734571D01*
X154650500Y-97453110D01*
X154670185Y-97386071D01*
X154701616Y-97352791D01*
X154724356Y-97336270D01*
X154781096Y-97295046D01*
X154914546Y-97161596D01*
X155025477Y-97008913D01*
X155111157Y-96840756D01*
X155169477Y-96661267D01*
X155182598Y-96578420D01*
X155199000Y-96474868D01*
X155199000Y-96286131D01*
X155169477Y-96099736D01*
X155169477Y-96099733D01*
X155111157Y-95920244D01*
X155025477Y-95752087D01*
X154914546Y-95599404D01*
X154781096Y-95465954D01*
X154628413Y-95355023D01*
X154460256Y-95269343D01*
X154280767Y-95211023D01*
X154280765Y-95211022D01*
X154280763Y-95211022D01*
X154094368Y-95181500D01*
X154094363Y-95181500D01*
X153905637Y-95181500D01*
X153905632Y-95181500D01*
X153719236Y-95211022D01*
X153539741Y-95269344D01*
X153371586Y-95355023D01*
X153284475Y-95418313D01*
X153218904Y-95465954D01*
X153218902Y-95465956D01*
X153218901Y-95465956D01*
X153085456Y-95599401D01*
X153085456Y-95599402D01*
X153085454Y-95599404D01*
X153060852Y-95633266D01*
X152974523Y-95752086D01*
X152888844Y-95920241D01*
X152830522Y-96099736D01*
X152801000Y-96286131D01*
X152801000Y-96474868D01*
X152830522Y-96661263D01*
X152830523Y-96661267D01*
X152888843Y-96840756D01*
X152974523Y-97008913D01*
X153085454Y-97161596D01*
X153085456Y-97161598D01*
X153218907Y-97295049D01*
X153298384Y-97352791D01*
X153341051Y-97408121D01*
X153349500Y-97453110D01*
X153349500Y-98349691D01*
X153329815Y-98416730D01*
X153313181Y-98437372D01*
X148514170Y-103236382D01*
X148452847Y-103269867D01*
X148383155Y-103264883D01*
X148370194Y-103259186D01*
X148274632Y-103210495D01*
X148274629Y-103210493D01*
X148085637Y-103149087D01*
X147967070Y-103130308D01*
X147889361Y-103118000D01*
X147690639Y-103118000D01*
X147633910Y-103126985D01*
X147494362Y-103149087D01*
X147305370Y-103210493D01*
X147305367Y-103210494D01*
X147128305Y-103300713D01*
X146967533Y-103417521D01*
X146827021Y-103558033D01*
X146710213Y-103718805D01*
X146630485Y-103875280D01*
X146582510Y-103926076D01*
X146514689Y-103942871D01*
X146448554Y-103920333D01*
X146409515Y-103875280D01*
X146372905Y-103803430D01*
X146329787Y-103718806D01*
X146212981Y-103558036D01*
X146072464Y-103417519D01*
X145911694Y-103300713D01*
X145851156Y-103269867D01*
X145734632Y-103210494D01*
X145734629Y-103210493D01*
X145545637Y-103149087D01*
X145427070Y-103130308D01*
X145349361Y-103118000D01*
X145150639Y-103118000D01*
X145093910Y-103126985D01*
X144954362Y-103149087D01*
X144765370Y-103210493D01*
X144765367Y-103210494D01*
X144588305Y-103300713D01*
X144427533Y-103417521D01*
X144287021Y-103558033D01*
X144170213Y-103718805D01*
X144090485Y-103875280D01*
X144042510Y-103926076D01*
X143974689Y-103942871D01*
X143908554Y-103920333D01*
X143869515Y-103875280D01*
X143832905Y-103803430D01*
X143789787Y-103718806D01*
X143672981Y-103558036D01*
X143532464Y-103417519D01*
X143371694Y-103300713D01*
X143218205Y-103222506D01*
X143167409Y-103174531D01*
X143150500Y-103112021D01*
X143150500Y-98946428D01*
X143125502Y-98820761D01*
X143125501Y-98820760D01*
X143125501Y-98820756D01*
X143076465Y-98702373D01*
X143058325Y-98675224D01*
X143005277Y-98595831D01*
X143005275Y-98595828D01*
X143005272Y-98595825D01*
X142817014Y-98407568D01*
X142783529Y-98346245D01*
X142783105Y-98344214D01*
X142769737Y-98277003D01*
X142745599Y-98218730D01*
X142709397Y-98131327D01*
X142709390Y-98131314D01*
X142621789Y-98000211D01*
X142621786Y-98000207D01*
X142510292Y-97888713D01*
X142510288Y-97888710D01*
X142379185Y-97801109D01*
X142379172Y-97801102D01*
X142233501Y-97740764D01*
X142233489Y-97740761D01*
X142078845Y-97710000D01*
X142078842Y-97710000D01*
X141921158Y-97710000D01*
X141921155Y-97710000D01*
X141766510Y-97740761D01*
X141766498Y-97740764D01*
X141620827Y-97801102D01*
X141620814Y-97801109D01*
X141489711Y-97888710D01*
X141489707Y-97888713D01*
X141378213Y-98000207D01*
X141378210Y-98000211D01*
X141290609Y-98131314D01*
X141290602Y-98131327D01*
X141230264Y-98276998D01*
X141230261Y-98277010D01*
X141199500Y-98431653D01*
X141199500Y-98589346D01*
X141230261Y-98743989D01*
X141230264Y-98744001D01*
X141290602Y-98889672D01*
X141290609Y-98889685D01*
X141378210Y-99020788D01*
X141378213Y-99020792D01*
X141489707Y-99132286D01*
X141489711Y-99132289D01*
X141620814Y-99219890D01*
X141620827Y-99219897D01*
X141733554Y-99266589D01*
X141766498Y-99280235D01*
X141772131Y-99282568D01*
X141771114Y-99285022D01*
X141819930Y-99317010D01*
X141848390Y-99380821D01*
X141849500Y-99397378D01*
X141849500Y-103404193D01*
X141829815Y-103471232D01*
X141813181Y-103491874D01*
X141747021Y-103558033D01*
X141747021Y-103558034D01*
X141747019Y-103558036D01*
X141709772Y-103609302D01*
X141656817Y-103682188D01*
X141601487Y-103724853D01*
X141531873Y-103730832D01*
X141470078Y-103698226D01*
X141435721Y-103637387D01*
X141432499Y-103609302D01*
X141432499Y-103570629D01*
X141432498Y-103570623D01*
X141432497Y-103570616D01*
X141426091Y-103511017D01*
X141411252Y-103471232D01*
X141375797Y-103376171D01*
X141375793Y-103376164D01*
X141289547Y-103260955D01*
X141289544Y-103260952D01*
X141174335Y-103174706D01*
X141174328Y-103174702D01*
X141039482Y-103124408D01*
X141039483Y-103124408D01*
X140979883Y-103118001D01*
X140979881Y-103118000D01*
X140979873Y-103118000D01*
X140979865Y-103118000D01*
X140694500Y-103118000D01*
X140627461Y-103098315D01*
X140581706Y-103045511D01*
X140570500Y-102994000D01*
X140570500Y-99116428D01*
X140545502Y-98990761D01*
X140545501Y-98990760D01*
X140545501Y-98990756D01*
X140496465Y-98872373D01*
X140488361Y-98860244D01*
X140425277Y-98765831D01*
X140425275Y-98765829D01*
X140425273Y-98765826D01*
X140425272Y-98765825D01*
X140067014Y-98407568D01*
X140033529Y-98346245D01*
X140033105Y-98344214D01*
X140019737Y-98277003D01*
X139995599Y-98218730D01*
X139959397Y-98131327D01*
X139959390Y-98131314D01*
X139871789Y-98000211D01*
X139871786Y-98000207D01*
X139760292Y-97888713D01*
X139760288Y-97888710D01*
X139629185Y-97801109D01*
X139629172Y-97801102D01*
X139483501Y-97740764D01*
X139483489Y-97740761D01*
X139328845Y-97710000D01*
X139328842Y-97710000D01*
X139171158Y-97710000D01*
X139171155Y-97710000D01*
X139016510Y-97740761D01*
X139016498Y-97740764D01*
X138870827Y-97801102D01*
X138870814Y-97801109D01*
X138739711Y-97888710D01*
X138739707Y-97888713D01*
X138628213Y-98000207D01*
X138628210Y-98000211D01*
X138540609Y-98131314D01*
X138540602Y-98131327D01*
X138480264Y-98276998D01*
X138480261Y-98277010D01*
X138449500Y-98431653D01*
X137650000Y-98431653D01*
X137650000Y-98103229D01*
X137669685Y-98036190D01*
X137686314Y-98015553D01*
X144453901Y-91247965D01*
X144515222Y-91214482D01*
X144584914Y-91219466D01*
X144597875Y-91225163D01*
X144765367Y-91310505D01*
X144765370Y-91310506D01*
X144798016Y-91321113D01*
X144954364Y-91371913D01*
X145150639Y-91403000D01*
X145150640Y-91403000D01*
X145349360Y-91403000D01*
X145349361Y-91403000D01*
X145545636Y-91371913D01*
X145734632Y-91310505D01*
X145911694Y-91220287D01*
X146072464Y-91103481D01*
X146212981Y-90962964D01*
X146329787Y-90802194D01*
X146409515Y-90645718D01*
X146457490Y-90594923D01*
X146525311Y-90578128D01*
X146591446Y-90600665D01*
X146630484Y-90645718D01*
X146710213Y-90802194D01*
X146827019Y-90962964D01*
X146967536Y-91103481D01*
X147128306Y-91220287D01*
X147181958Y-91247624D01*
X147305367Y-91310505D01*
X147305370Y-91310506D01*
X147338016Y-91321113D01*
X147494364Y-91371913D01*
X147690639Y-91403000D01*
X147690640Y-91403000D01*
X147889360Y-91403000D01*
X147889361Y-91403000D01*
X148085636Y-91371913D01*
X148274632Y-91310505D01*
X148451694Y-91220287D01*
X148612464Y-91103481D01*
X148752981Y-90962964D01*
X148869787Y-90802194D01*
X148949515Y-90645718D01*
X148997490Y-90594923D01*
X149065311Y-90578128D01*
X149131446Y-90600665D01*
X149170484Y-90645718D01*
X149250213Y-90802194D01*
X149367019Y-90962964D01*
X149507536Y-91103481D01*
X149668306Y-91220287D01*
X149721958Y-91247624D01*
X149845367Y-91310505D01*
X149845370Y-91310506D01*
X149878016Y-91321113D01*
X150034364Y-91371913D01*
X150230639Y-91403000D01*
X150230640Y-91403000D01*
X150429360Y-91403000D01*
X150429361Y-91403000D01*
X150625636Y-91371913D01*
X150814632Y-91310505D01*
X150991694Y-91220287D01*
X151152464Y-91103481D01*
X151292981Y-90962964D01*
X151409787Y-90802194D01*
X151500005Y-90625132D01*
X151561413Y-90436136D01*
X151592500Y-90239861D01*
X151592500Y-89041139D01*
X151561413Y-88844864D01*
X151500005Y-88655868D01*
X151500005Y-88655867D01*
X151454035Y-88565649D01*
X151409787Y-88478806D01*
X151292981Y-88318036D01*
X151186818Y-88211873D01*
X151153334Y-88150550D01*
X151150500Y-88124192D01*
X151150500Y-87252424D01*
X151170185Y-87185385D01*
X151218205Y-87141939D01*
X151308413Y-87095977D01*
X151461096Y-86985046D01*
X151594546Y-86851596D01*
X151705477Y-86698913D01*
X151791157Y-86530756D01*
X151849477Y-86351267D01*
X151862956Y-86266162D01*
X151879000Y-86164868D01*
X151879000Y-85976131D01*
X151849477Y-85789736D01*
X151849477Y-85789733D01*
X151791157Y-85610244D01*
X151705477Y-85442087D01*
X151594546Y-85289404D01*
X151461096Y-85155954D01*
X151308413Y-85045023D01*
X151140256Y-84959343D01*
X150960767Y-84901023D01*
X150960765Y-84901022D01*
X150960763Y-84901022D01*
X150774368Y-84871500D01*
X150774363Y-84871500D01*
X150585637Y-84871500D01*
X150585632Y-84871500D01*
X150399236Y-84901022D01*
X150219741Y-84959344D01*
X150051586Y-85045023D01*
X149981484Y-85095956D01*
X149898904Y-85155954D01*
X149898902Y-85155956D01*
X149898901Y-85155956D01*
X149765456Y-85289401D01*
X149765456Y-85289402D01*
X149765454Y-85289404D01*
X149754634Y-85304297D01*
X149654523Y-85442086D01*
X149568844Y-85610241D01*
X149510522Y-85789736D01*
X149481000Y-85976131D01*
X149481000Y-86164868D01*
X149501019Y-86291263D01*
X149510523Y-86351267D01*
X149568843Y-86530756D01*
X149654523Y-86698913D01*
X149765454Y-86851596D01*
X149765456Y-86851598D01*
X149813181Y-86899323D01*
X149846666Y-86960646D01*
X149849500Y-86987004D01*
X149849500Y-87892402D01*
X149829815Y-87959441D01*
X149781795Y-88002887D01*
X149668305Y-88060713D01*
X149507533Y-88177521D01*
X149367021Y-88318033D01*
X149250213Y-88478805D01*
X149170485Y-88635280D01*
X149122510Y-88686076D01*
X149054689Y-88702871D01*
X148988554Y-88680333D01*
X148949515Y-88635280D01*
X148930179Y-88597332D01*
X148869787Y-88478806D01*
X148752981Y-88318036D01*
X148612464Y-88177519D01*
X148485808Y-88085498D01*
X148451614Y-88060654D01*
X148408949Y-88005324D01*
X148400500Y-87960336D01*
X148400500Y-86947004D01*
X148420185Y-86879965D01*
X148436819Y-86859323D01*
X148444546Y-86851596D01*
X148555477Y-86698913D01*
X148641157Y-86530756D01*
X148699477Y-86351267D01*
X148712956Y-86266162D01*
X148729000Y-86164868D01*
X148729000Y-85976131D01*
X148699477Y-85789736D01*
X148699477Y-85789733D01*
X148641157Y-85610244D01*
X148555477Y-85442087D01*
X148444546Y-85289404D01*
X148311096Y-85155954D01*
X148158413Y-85045023D01*
X147990256Y-84959343D01*
X147810767Y-84901023D01*
X147810765Y-84901022D01*
X147810763Y-84901022D01*
X147624368Y-84871500D01*
X147624363Y-84871500D01*
X147435637Y-84871500D01*
X147435632Y-84871500D01*
X147249236Y-84901022D01*
X147069741Y-84959344D01*
X146901586Y-85045023D01*
X146831484Y-85095956D01*
X146748904Y-85155954D01*
X146748902Y-85155956D01*
X146748901Y-85155956D01*
X146615456Y-85289401D01*
X146615456Y-85289402D01*
X146615454Y-85289404D01*
X146604634Y-85304297D01*
X146504523Y-85442086D01*
X146418844Y-85610241D01*
X146360522Y-85789736D01*
X146331000Y-85976131D01*
X146331000Y-86164868D01*
X146351019Y-86291263D01*
X146360523Y-86351267D01*
X146418843Y-86530756D01*
X146504523Y-86698913D01*
X146615454Y-86851596D01*
X146748904Y-86985046D01*
X146863416Y-87068244D01*
X146901588Y-87095978D01*
X146941742Y-87116437D01*
X147031795Y-87162321D01*
X147082590Y-87210294D01*
X147099500Y-87272805D01*
X147099500Y-88018459D01*
X147079815Y-88085498D01*
X147048387Y-88118776D01*
X146967536Y-88177518D01*
X146827021Y-88318033D01*
X146710213Y-88478805D01*
X146630485Y-88635280D01*
X146582510Y-88686076D01*
X146514689Y-88702871D01*
X146448554Y-88680333D01*
X146409515Y-88635280D01*
X146390179Y-88597332D01*
X146329787Y-88478806D01*
X146212981Y-88318036D01*
X146072464Y-88177519D01*
X146056578Y-88165977D01*
X145951615Y-88089717D01*
X145908949Y-88034387D01*
X145900500Y-87989399D01*
X145900500Y-78356131D01*
X146331000Y-78356131D01*
X146331000Y-78544868D01*
X146341991Y-78614260D01*
X146360523Y-78731267D01*
X146418843Y-78910756D01*
X146504523Y-79078913D01*
X146615454Y-79231596D01*
X146748904Y-79365046D01*
X146901587Y-79475977D01*
X147069744Y-79561657D01*
X147249233Y-79619977D01*
X147319134Y-79631048D01*
X147435632Y-79649500D01*
X147435637Y-79649500D01*
X147624368Y-79649500D01*
X147727920Y-79633098D01*
X147810767Y-79619977D01*
X147990256Y-79561657D01*
X148158413Y-79475977D01*
X148311096Y-79365046D01*
X148444546Y-79231596D01*
X148555477Y-79078913D01*
X148641157Y-78910756D01*
X148699477Y-78731267D01*
X148718009Y-78614260D01*
X148729000Y-78544868D01*
X148729000Y-78356131D01*
X149481000Y-78356131D01*
X149481000Y-78544868D01*
X149491991Y-78614260D01*
X149510523Y-78731267D01*
X149568843Y-78910756D01*
X149654523Y-79078913D01*
X149765454Y-79231596D01*
X149898904Y-79365046D01*
X150051587Y-79475977D01*
X150219744Y-79561657D01*
X150399233Y-79619977D01*
X150469134Y-79631048D01*
X150585632Y-79649500D01*
X150585637Y-79649500D01*
X150774368Y-79649500D01*
X150877920Y-79633098D01*
X150960767Y-79619977D01*
X151140256Y-79561657D01*
X151308413Y-79475977D01*
X151461096Y-79365046D01*
X151594546Y-79231596D01*
X151705477Y-79078913D01*
X151791157Y-78910756D01*
X151849477Y-78731267D01*
X151868009Y-78614260D01*
X151879000Y-78544868D01*
X151879000Y-78356131D01*
X151849477Y-78169736D01*
X151849477Y-78169733D01*
X151791157Y-77990244D01*
X151705477Y-77822087D01*
X151594546Y-77669404D01*
X151461096Y-77535954D01*
X151308413Y-77425023D01*
X151140256Y-77339343D01*
X150960767Y-77281023D01*
X150960765Y-77281022D01*
X150960763Y-77281022D01*
X150774368Y-77251500D01*
X150774363Y-77251500D01*
X150585637Y-77251500D01*
X150585632Y-77251500D01*
X150399236Y-77281022D01*
X150219741Y-77339344D01*
X150051586Y-77425023D01*
X149981484Y-77475956D01*
X149898904Y-77535954D01*
X149898902Y-77535956D01*
X149898901Y-77535956D01*
X149765456Y-77669401D01*
X149765456Y-77669402D01*
X149765454Y-77669404D01*
X149720014Y-77731947D01*
X149654523Y-77822086D01*
X149568844Y-77990241D01*
X149510522Y-78169736D01*
X149481000Y-78356131D01*
X148729000Y-78356131D01*
X148699477Y-78169736D01*
X148699477Y-78169733D01*
X148641157Y-77990244D01*
X148555477Y-77822087D01*
X148444546Y-77669404D01*
X148311096Y-77535954D01*
X148158413Y-77425023D01*
X147990256Y-77339343D01*
X147810767Y-77281023D01*
X147810765Y-77281022D01*
X147810763Y-77281022D01*
X147624368Y-77251500D01*
X147624363Y-77251500D01*
X147435637Y-77251500D01*
X147435632Y-77251500D01*
X147249236Y-77281022D01*
X147069741Y-77339344D01*
X146901586Y-77425023D01*
X146831484Y-77475956D01*
X146748904Y-77535954D01*
X146748902Y-77535956D01*
X146748901Y-77535956D01*
X146615456Y-77669401D01*
X146615456Y-77669402D01*
X146615454Y-77669404D01*
X146570014Y-77731947D01*
X146504523Y-77822086D01*
X146418844Y-77990241D01*
X146360522Y-78169736D01*
X146331000Y-78356131D01*
X145900500Y-78356131D01*
X145900500Y-60446428D01*
X145875502Y-60320762D01*
X145875501Y-60320756D01*
X145850994Y-60261590D01*
X145826466Y-60202374D01*
X145823443Y-60197850D01*
X145755278Y-60095832D01*
X145755272Y-60095825D01*
X143854673Y-58195226D01*
X143854669Y-58195223D01*
X143748127Y-58124035D01*
X143629744Y-58074999D01*
X143611153Y-58071301D01*
X143504071Y-58050000D01*
X143504069Y-58050000D01*
X138290824Y-58050000D01*
X138223785Y-58030315D01*
X138180339Y-57982295D01*
X138154501Y-57931586D01*
X138118870Y-57861655D01*
X138058746Y-57778901D01*
X137970798Y-57657850D01*
X137970794Y-57657845D01*
X137792654Y-57479705D01*
X137792649Y-57479701D01*
X137588848Y-57331632D01*
X137588847Y-57331631D01*
X137588845Y-57331630D01*
X137518747Y-57295913D01*
X137364383Y-57217260D01*
X137124785Y-57139410D01*
X136875962Y-57100000D01*
X136624038Y-57100000D01*
X136499626Y-57119705D01*
X136375214Y-57139410D01*
X136135616Y-57217260D01*
X135911151Y-57331632D01*
X135707350Y-57479701D01*
X135707345Y-57479705D01*
X135529205Y-57657845D01*
X135529201Y-57657850D01*
X135381132Y-57861651D01*
X135266760Y-58086116D01*
X135188910Y-58325714D01*
X135149500Y-58574538D01*
X135149500Y-58826461D01*
X135188910Y-59075285D01*
X135266760Y-59314883D01*
X135381132Y-59539348D01*
X135529201Y-59743149D01*
X135529205Y-59743154D01*
X135668870Y-59882819D01*
X135702355Y-59944142D01*
X135697371Y-60013834D01*
X135668870Y-60058181D01*
X135529205Y-60197845D01*
X135529201Y-60197850D01*
X135381132Y-60401651D01*
X135266760Y-60626116D01*
X135199131Y-60834257D01*
X135188910Y-60865715D01*
X135149500Y-61114538D01*
X135149500Y-61366462D01*
X135165383Y-61466743D01*
X135188910Y-61615285D01*
X135266760Y-61854883D01*
X135381132Y-62079348D01*
X135529201Y-62283149D01*
X135529205Y-62283154D01*
X135668870Y-62422819D01*
X135702355Y-62484142D01*
X135697371Y-62553834D01*
X135668870Y-62598181D01*
X135529205Y-62737845D01*
X135529201Y-62737850D01*
X135381132Y-62941651D01*
X135266760Y-63166116D01*
X135264821Y-63172085D01*
X135188910Y-63405715D01*
X135149500Y-63654538D01*
X135149500Y-63906462D01*
X135165383Y-64006743D01*
X135188910Y-64155285D01*
X135266760Y-64394883D01*
X135381132Y-64619348D01*
X135449062Y-64712847D01*
X135472542Y-64778653D01*
X135456716Y-64846707D01*
X135436426Y-64873413D01*
X135307682Y-65002157D01*
X135215643Y-65151375D01*
X135215641Y-65151380D01*
X135160494Y-65317802D01*
X135160493Y-65317809D01*
X135150000Y-65420513D01*
X135150000Y-66070500D01*
X136095879Y-66070500D01*
X136076901Y-66116318D01*
X136050000Y-66251556D01*
X136050000Y-66389444D01*
X136076901Y-66524682D01*
X136095879Y-66570500D01*
X135150001Y-66570500D01*
X135150001Y-67220486D01*
X135160494Y-67323197D01*
X135215641Y-67489619D01*
X135215643Y-67489624D01*
X135307684Y-67638845D01*
X135431654Y-67762815D01*
X135580875Y-67854856D01*
X135580880Y-67854858D01*
X135747302Y-67910005D01*
X135747309Y-67910006D01*
X135850019Y-67920499D01*
X136499999Y-67920499D01*
X136500000Y-67920498D01*
X136500000Y-66974620D01*
X136545818Y-66993599D01*
X136681056Y-67020500D01*
X136818944Y-67020500D01*
X136954182Y-66993599D01*
X137000000Y-66974620D01*
X137000000Y-67920499D01*
X137649972Y-67920499D01*
X137649986Y-67920498D01*
X137752697Y-67910005D01*
X137919119Y-67854858D01*
X137919124Y-67854856D01*
X138068345Y-67762815D01*
X138192315Y-67638845D01*
X138284356Y-67489624D01*
X138284358Y-67489619D01*
X138339505Y-67323197D01*
X138339506Y-67323190D01*
X138349999Y-67220486D01*
X138350000Y-67220473D01*
X138350000Y-66570500D01*
X137404121Y-66570500D01*
X137423099Y-66524682D01*
X137450000Y-66389444D01*
X137450000Y-66251556D01*
X137423099Y-66116318D01*
X137404121Y-66070500D01*
X138349999Y-66070500D01*
X138349999Y-65420528D01*
X138349998Y-65420513D01*
X138339505Y-65317802D01*
X138284358Y-65151380D01*
X138284356Y-65151375D01*
X138192315Y-65002154D01*
X138063574Y-64873413D01*
X138030089Y-64812090D01*
X138035073Y-64742398D01*
X138050934Y-64712849D01*
X138118870Y-64619345D01*
X138233241Y-64394879D01*
X138311090Y-64155285D01*
X138350500Y-63906462D01*
X138350500Y-63654538D01*
X138311090Y-63405715D01*
X138233241Y-63166121D01*
X138233239Y-63166118D01*
X138233239Y-63166116D01*
X138139775Y-62982684D01*
X138118870Y-62941655D01*
X138099952Y-62915617D01*
X137970798Y-62737850D01*
X137970794Y-62737845D01*
X137831130Y-62598181D01*
X137797645Y-62536858D01*
X137802629Y-62467166D01*
X137831130Y-62422819D01*
X137895958Y-62357991D01*
X137970793Y-62283156D01*
X138118870Y-62079345D01*
X138233241Y-61854879D01*
X138311090Y-61615285D01*
X138350500Y-61366462D01*
X138350500Y-61114538D01*
X138311090Y-60865715D01*
X138233241Y-60626121D01*
X138233239Y-60626118D01*
X138233239Y-60626116D01*
X138141684Y-60446431D01*
X138118870Y-60401655D01*
X138060092Y-60320754D01*
X137970798Y-60197850D01*
X137970794Y-60197845D01*
X137831130Y-60058181D01*
X137797645Y-59996858D01*
X137802629Y-59927166D01*
X137831130Y-59882819D01*
X137880696Y-59833253D01*
X137970793Y-59743156D01*
X138118870Y-59539345D01*
X138180339Y-59418705D01*
X138228314Y-59367909D01*
X138290824Y-59351000D01*
X143119192Y-59351000D01*
X143186231Y-59370685D01*
X143206873Y-59387319D01*
X144563181Y-60743627D01*
X144596666Y-60804950D01*
X144599500Y-60831308D01*
X144599500Y-87989399D01*
X144579815Y-88056438D01*
X144548385Y-88089717D01*
X144427539Y-88177516D01*
X144427533Y-88177521D01*
X144287021Y-88318033D01*
X144170213Y-88478805D01*
X144090485Y-88635280D01*
X144042510Y-88686076D01*
X143974689Y-88702871D01*
X143908554Y-88680333D01*
X143869515Y-88635280D01*
X143850179Y-88597332D01*
X143789787Y-88478806D01*
X143672981Y-88318036D01*
X143532464Y-88177519D01*
X143495345Y-88150550D01*
X143451613Y-88118776D01*
X143408948Y-88063446D01*
X143400500Y-88018459D01*
X143400500Y-87192424D01*
X143420185Y-87125385D01*
X143468205Y-87081939D01*
X143558413Y-87035977D01*
X143711096Y-86925046D01*
X143844546Y-86791596D01*
X143955477Y-86638913D01*
X144041157Y-86470756D01*
X144099477Y-86291267D01*
X144116950Y-86180946D01*
X144129000Y-86104868D01*
X144129000Y-85916131D01*
X144099477Y-85729736D01*
X144099477Y-85729733D01*
X144041157Y-85550244D01*
X143955477Y-85382087D01*
X143844546Y-85229404D01*
X143711096Y-85095954D01*
X143558413Y-84985023D01*
X143390256Y-84899343D01*
X143210767Y-84841023D01*
X143210765Y-84841022D01*
X143210763Y-84841022D01*
X143024368Y-84811500D01*
X143024363Y-84811500D01*
X142835637Y-84811500D01*
X142835632Y-84811500D01*
X142649236Y-84841022D01*
X142469741Y-84899344D01*
X142301586Y-84985023D01*
X142219004Y-85045023D01*
X142148904Y-85095954D01*
X142148902Y-85095956D01*
X142148901Y-85095956D01*
X142015456Y-85229401D01*
X142015456Y-85229402D01*
X142015454Y-85229404D01*
X141971864Y-85289401D01*
X141904523Y-85382086D01*
X141818844Y-85550241D01*
X141760522Y-85729736D01*
X141731000Y-85916131D01*
X141731000Y-86104868D01*
X141760522Y-86291263D01*
X141760523Y-86291267D01*
X141818843Y-86470756D01*
X141904523Y-86638913D01*
X142015454Y-86791596D01*
X142015456Y-86791598D01*
X142063181Y-86839323D01*
X142096666Y-86900646D01*
X142099500Y-86927004D01*
X142099500Y-87960336D01*
X142079815Y-88027375D01*
X142048386Y-88060654D01*
X142014192Y-88085498D01*
X141887536Y-88177519D01*
X141887534Y-88177521D01*
X141887533Y-88177521D01*
X141747021Y-88318033D01*
X141630213Y-88478805D01*
X141550485Y-88635280D01*
X141502510Y-88686076D01*
X141434689Y-88702871D01*
X141368554Y-88680333D01*
X141329515Y-88635280D01*
X141310179Y-88597332D01*
X141249787Y-88478806D01*
X141132981Y-88318036D01*
X140992464Y-88177519D01*
X140831694Y-88060713D01*
X140820499Y-88055009D01*
X140654632Y-87970494D01*
X140654629Y-87970493D01*
X140486182Y-87915762D01*
X140428506Y-87876325D01*
X140401308Y-87811966D01*
X140400500Y-87797831D01*
X140400500Y-87083110D01*
X140420185Y-87016071D01*
X140451616Y-86982791D01*
X140482097Y-86960646D01*
X140531096Y-86925046D01*
X140664546Y-86791596D01*
X140775477Y-86638913D01*
X140861157Y-86470756D01*
X140919477Y-86291267D01*
X140936950Y-86180946D01*
X140949000Y-86104868D01*
X140949000Y-85916131D01*
X140919477Y-85729736D01*
X140919477Y-85729733D01*
X140861157Y-85550244D01*
X140775477Y-85382087D01*
X140664546Y-85229404D01*
X140531096Y-85095954D01*
X140378413Y-84985023D01*
X140210256Y-84899343D01*
X140030767Y-84841023D01*
X140030765Y-84841022D01*
X140030763Y-84841022D01*
X139844368Y-84811500D01*
X139844363Y-84811500D01*
X139655637Y-84811500D01*
X139655632Y-84811500D01*
X139469236Y-84841022D01*
X139289741Y-84899344D01*
X139121586Y-84985023D01*
X139039004Y-85045023D01*
X138968904Y-85095954D01*
X138968902Y-85095956D01*
X138968901Y-85095956D01*
X138835456Y-85229401D01*
X138835456Y-85229402D01*
X138835454Y-85229404D01*
X138791864Y-85289401D01*
X138724523Y-85382086D01*
X138638844Y-85550241D01*
X138580522Y-85729736D01*
X138551000Y-85916131D01*
X138551000Y-86104868D01*
X138580522Y-86291263D01*
X138580523Y-86291267D01*
X138638843Y-86470756D01*
X138724523Y-86638913D01*
X138835454Y-86791596D01*
X138835456Y-86791598D01*
X138968907Y-86925049D01*
X139048384Y-86982791D01*
X139091051Y-87038121D01*
X139099500Y-87083110D01*
X139099500Y-88430810D01*
X139085985Y-88487102D01*
X139062394Y-88533402D01*
X138999994Y-88655867D01*
X138999993Y-88655870D01*
X138938587Y-88844862D01*
X138907500Y-89041139D01*
X138907500Y-90239860D01*
X138938587Y-90436137D01*
X138999993Y-90625129D01*
X138999994Y-90625132D01*
X139090213Y-90802194D01*
X139207019Y-90962964D01*
X139347536Y-91103481D01*
X139508306Y-91220287D01*
X139561958Y-91247624D01*
X139685367Y-91310505D01*
X139685370Y-91310506D01*
X139718016Y-91321113D01*
X139874364Y-91371913D01*
X140070639Y-91403000D01*
X140070640Y-91403000D01*
X140269360Y-91403000D01*
X140269361Y-91403000D01*
X140465636Y-91371913D01*
X140654632Y-91310505D01*
X140831694Y-91220287D01*
X140992464Y-91103481D01*
X141132981Y-90962964D01*
X141249787Y-90802194D01*
X141329515Y-90645718D01*
X141377490Y-90594923D01*
X141445311Y-90578128D01*
X141511446Y-90600665D01*
X141550484Y-90645718D01*
X141630213Y-90802194D01*
X141747019Y-90962964D01*
X141887536Y-91103481D01*
X141986491Y-91175376D01*
X142048307Y-91220288D01*
X142101956Y-91247624D01*
X142152751Y-91295598D01*
X142169546Y-91363420D01*
X142147008Y-91429554D01*
X142133341Y-91445789D01*
X136316550Y-97262580D01*
X136316544Y-97262588D01*
X136267312Y-97336268D01*
X136267313Y-97336269D01*
X136234421Y-97385496D01*
X136234414Y-97385508D01*
X136177842Y-97522086D01*
X136177840Y-97522092D01*
X136149000Y-97667079D01*
X136149000Y-105738650D01*
X136139759Y-105770119D01*
X136131653Y-105801904D01*
X136129964Y-105803476D01*
X136129315Y-105805689D01*
X136104540Y-105827156D01*
X136080525Y-105849524D01*
X136078253Y-105849934D01*
X136076511Y-105851444D01*
X136044052Y-105856111D01*
X136011767Y-105861942D01*
X136008786Y-105861181D01*
X136007353Y-105861388D01*
X135977568Y-105853220D01*
X135977067Y-105853012D01*
X135922657Y-105809182D01*
X135900580Y-105742891D01*
X135900500Y-105738443D01*
X135900500Y-102946428D01*
X135875502Y-102820761D01*
X135875501Y-102820760D01*
X135875501Y-102820756D01*
X135826465Y-102702373D01*
X135755277Y-102595831D01*
X135755275Y-102595829D01*
X135755273Y-102595826D01*
X134186818Y-101027371D01*
X134153333Y-100966048D01*
X134150499Y-100939690D01*
X134150499Y-99612629D01*
X134150498Y-99612623D01*
X134144091Y-99553016D01*
X134093797Y-99418171D01*
X134093793Y-99418164D01*
X134007547Y-99302955D01*
X134007544Y-99302952D01*
X133892335Y-99216706D01*
X133892328Y-99216702D01*
X133757482Y-99166408D01*
X133757483Y-99166408D01*
X133697883Y-99160001D01*
X133697881Y-99160000D01*
X133697873Y-99160000D01*
X133697864Y-99160000D01*
X131902129Y-99160000D01*
X131902123Y-99160001D01*
X131842516Y-99166408D01*
X131707671Y-99216702D01*
X131707665Y-99216706D01*
X131698810Y-99223335D01*
X131633346Y-99247752D01*
X131565073Y-99232900D01*
X131515668Y-99183495D01*
X131500500Y-99124068D01*
X131500500Y-95756004D01*
X131520185Y-95688965D01*
X131572989Y-95643210D01*
X131642147Y-95633266D01*
X131705703Y-95662291D01*
X131712181Y-95668323D01*
X131718904Y-95675046D01*
X131871587Y-95785977D01*
X132039744Y-95871657D01*
X132219233Y-95929977D01*
X132289134Y-95941048D01*
X132405632Y-95959500D01*
X132405637Y-95959500D01*
X132594368Y-95959500D01*
X132697920Y-95943098D01*
X132780767Y-95929977D01*
X132960256Y-95871657D01*
X133128413Y-95785977D01*
X133281096Y-95675046D01*
X133414546Y-95541596D01*
X133525477Y-95388913D01*
X133611157Y-95220756D01*
X133669477Y-95041267D01*
X133682598Y-94958420D01*
X133699000Y-94854868D01*
X133699000Y-94666131D01*
X135051000Y-94666131D01*
X135051000Y-94854868D01*
X135080522Y-95041263D01*
X135080523Y-95041267D01*
X135138843Y-95220756D01*
X135224523Y-95388913D01*
X135335454Y-95541596D01*
X135468904Y-95675046D01*
X135621587Y-95785977D01*
X135789744Y-95871657D01*
X135969233Y-95929977D01*
X136039134Y-95941048D01*
X136155632Y-95959500D01*
X136155637Y-95959500D01*
X136344368Y-95959500D01*
X136447920Y-95943098D01*
X136530767Y-95929977D01*
X136710256Y-95871657D01*
X136878413Y-95785977D01*
X137031096Y-95675046D01*
X137164546Y-95541596D01*
X137275477Y-95388913D01*
X137361157Y-95220756D01*
X137419477Y-95041267D01*
X137432598Y-94958420D01*
X137449000Y-94854868D01*
X137449000Y-94666131D01*
X137419477Y-94479736D01*
X137419477Y-94479733D01*
X137361157Y-94300244D01*
X137275477Y-94132087D01*
X137164546Y-93979404D01*
X137031096Y-93845954D01*
X136878413Y-93735023D01*
X136710256Y-93649343D01*
X136530767Y-93591023D01*
X136530765Y-93591022D01*
X136530763Y-93591022D01*
X136344368Y-93561500D01*
X136344363Y-93561500D01*
X136155637Y-93561500D01*
X136155632Y-93561500D01*
X135969236Y-93591022D01*
X135789741Y-93649344D01*
X135621586Y-93735023D01*
X135568157Y-93773842D01*
X135468904Y-93845954D01*
X135468902Y-93845956D01*
X135468901Y-93845956D01*
X135335456Y-93979401D01*
X135335456Y-93979402D01*
X135335454Y-93979404D01*
X135333861Y-93981597D01*
X135224523Y-94132086D01*
X135138844Y-94300241D01*
X135080522Y-94479736D01*
X135051000Y-94666131D01*
X133699000Y-94666131D01*
X133669477Y-94479736D01*
X133669477Y-94479733D01*
X133611157Y-94300244D01*
X133525477Y-94132087D01*
X133414546Y-93979404D01*
X133281096Y-93845954D01*
X133128413Y-93735023D01*
X132960256Y-93649343D01*
X132780767Y-93591023D01*
X132780765Y-93591022D01*
X132780763Y-93591022D01*
X132594368Y-93561500D01*
X132594363Y-93561500D01*
X132405637Y-93561500D01*
X132405632Y-93561500D01*
X132219236Y-93591022D01*
X132039741Y-93649344D01*
X131871586Y-93735023D01*
X131818157Y-93773842D01*
X131718904Y-93845954D01*
X131718902Y-93845956D01*
X131718901Y-93845956D01*
X131712181Y-93852677D01*
X131650858Y-93886162D01*
X131581166Y-93881178D01*
X131525233Y-93839306D01*
X131500816Y-93773842D01*
X131500500Y-93764996D01*
X131500500Y-88136004D01*
X131520185Y-88068965D01*
X131572989Y-88023210D01*
X131642147Y-88013266D01*
X131705703Y-88042291D01*
X131712181Y-88048323D01*
X131718904Y-88055046D01*
X131871587Y-88165977D01*
X132039744Y-88251657D01*
X132219233Y-88309977D01*
X132289134Y-88321048D01*
X132405632Y-88339500D01*
X132405637Y-88339500D01*
X132594368Y-88339500D01*
X132697920Y-88323098D01*
X132780767Y-88309977D01*
X132960256Y-88251657D01*
X133128413Y-88165977D01*
X133281096Y-88055046D01*
X133414546Y-87921596D01*
X133525477Y-87768913D01*
X133611157Y-87600756D01*
X133669477Y-87421267D01*
X133696219Y-87252424D01*
X133699000Y-87234868D01*
X133699000Y-87046131D01*
X135051000Y-87046131D01*
X135051000Y-87234868D01*
X135053781Y-87252424D01*
X135080523Y-87421267D01*
X135138843Y-87600756D01*
X135224523Y-87768913D01*
X135335454Y-87921596D01*
X135468904Y-88055046D01*
X135621587Y-88165977D01*
X135789744Y-88251657D01*
X135969233Y-88309977D01*
X136039134Y-88321048D01*
X136155632Y-88339500D01*
X136155637Y-88339500D01*
X136344368Y-88339500D01*
X136447920Y-88323098D01*
X136530767Y-88309977D01*
X136710256Y-88251657D01*
X136878413Y-88165977D01*
X137031096Y-88055046D01*
X137164546Y-87921596D01*
X137275477Y-87768913D01*
X137361157Y-87600756D01*
X137419477Y-87421267D01*
X137446219Y-87252424D01*
X137449000Y-87234868D01*
X137449000Y-87046131D01*
X137422681Y-86879965D01*
X137419477Y-86859733D01*
X137361157Y-86680244D01*
X137275477Y-86512087D01*
X137164546Y-86359404D01*
X137031096Y-86225954D01*
X136878413Y-86115023D01*
X136710256Y-86029343D01*
X136530767Y-85971023D01*
X136530765Y-85971022D01*
X136530763Y-85971022D01*
X136344368Y-85941500D01*
X136344363Y-85941500D01*
X136155637Y-85941500D01*
X136155632Y-85941500D01*
X135969236Y-85971022D01*
X135789741Y-86029344D01*
X135621586Y-86115023D01*
X135568157Y-86153842D01*
X135468904Y-86225954D01*
X135468902Y-86225956D01*
X135468901Y-86225956D01*
X135335456Y-86359401D01*
X135335456Y-86359402D01*
X135335454Y-86359404D01*
X135287813Y-86424975D01*
X135224523Y-86512086D01*
X135138844Y-86680241D01*
X135080522Y-86859736D01*
X135051000Y-87046131D01*
X133699000Y-87046131D01*
X133672681Y-86879965D01*
X133669477Y-86859733D01*
X133611157Y-86680244D01*
X133525477Y-86512087D01*
X133414546Y-86359404D01*
X133281096Y-86225954D01*
X133128413Y-86115023D01*
X132960256Y-86029343D01*
X132780767Y-85971023D01*
X132780765Y-85971022D01*
X132780763Y-85971022D01*
X132594368Y-85941500D01*
X132594363Y-85941500D01*
X132405637Y-85941500D01*
X132405632Y-85941500D01*
X132219236Y-85971022D01*
X132039741Y-86029344D01*
X131871586Y-86115023D01*
X131818157Y-86153842D01*
X131718904Y-86225954D01*
X131718902Y-86225956D01*
X131718901Y-86225956D01*
X131712181Y-86232677D01*
X131650858Y-86266162D01*
X131581166Y-86261178D01*
X131525233Y-86219306D01*
X131500816Y-86153842D01*
X131500500Y-86144996D01*
X131500500Y-78296131D01*
X138551000Y-78296131D01*
X138551000Y-78484868D01*
X138571494Y-78614260D01*
X138580523Y-78671267D01*
X138638843Y-78850756D01*
X138724523Y-79018913D01*
X138835454Y-79171596D01*
X138968904Y-79305046D01*
X139121587Y-79415977D01*
X139289744Y-79501657D01*
X139469233Y-79559977D01*
X139539134Y-79571048D01*
X139655632Y-79589500D01*
X139655637Y-79589500D01*
X139844368Y-79589500D01*
X139947920Y-79573098D01*
X140030767Y-79559977D01*
X140210256Y-79501657D01*
X140378413Y-79415977D01*
X140531096Y-79305046D01*
X140664546Y-79171596D01*
X140775477Y-79018913D01*
X140861157Y-78850756D01*
X140919477Y-78671267D01*
X140932598Y-78588420D01*
X140949000Y-78484868D01*
X140949000Y-78296131D01*
X141731000Y-78296131D01*
X141731000Y-78484868D01*
X141751494Y-78614260D01*
X141760523Y-78671267D01*
X141818843Y-78850756D01*
X141904523Y-79018913D01*
X142015454Y-79171596D01*
X142148904Y-79305046D01*
X142301587Y-79415977D01*
X142469744Y-79501657D01*
X142649233Y-79559977D01*
X142719134Y-79571048D01*
X142835632Y-79589500D01*
X142835637Y-79589500D01*
X143024368Y-79589500D01*
X143127920Y-79573098D01*
X143210767Y-79559977D01*
X143390256Y-79501657D01*
X143558413Y-79415977D01*
X143711096Y-79305046D01*
X143844546Y-79171596D01*
X143955477Y-79018913D01*
X144041157Y-78850756D01*
X144099477Y-78671267D01*
X144112598Y-78588420D01*
X144129000Y-78484868D01*
X144129000Y-78296131D01*
X144099477Y-78109736D01*
X144099477Y-78109733D01*
X144041157Y-77930244D01*
X143955477Y-77762087D01*
X143844546Y-77609404D01*
X143711096Y-77475954D01*
X143558413Y-77365023D01*
X143390256Y-77279343D01*
X143210767Y-77221023D01*
X143210765Y-77221022D01*
X143210763Y-77221022D01*
X143024368Y-77191500D01*
X143024363Y-77191500D01*
X142835637Y-77191500D01*
X142835632Y-77191500D01*
X142649236Y-77221022D01*
X142469741Y-77279344D01*
X142301586Y-77365023D01*
X142225080Y-77420609D01*
X142148904Y-77475954D01*
X142148902Y-77475956D01*
X142148901Y-77475956D01*
X142015456Y-77609401D01*
X142015456Y-77609402D01*
X142015454Y-77609404D01*
X141974471Y-77665812D01*
X141904523Y-77762086D01*
X141818844Y-77930241D01*
X141760522Y-78109736D01*
X141731000Y-78296131D01*
X140949000Y-78296131D01*
X140919477Y-78109736D01*
X140919477Y-78109733D01*
X140861157Y-77930244D01*
X140775477Y-77762087D01*
X140664546Y-77609404D01*
X140531096Y-77475954D01*
X140378413Y-77365023D01*
X140210256Y-77279343D01*
X140030767Y-77221023D01*
X140030765Y-77221022D01*
X140030763Y-77221022D01*
X139844368Y-77191500D01*
X139844363Y-77191500D01*
X139655637Y-77191500D01*
X139655632Y-77191500D01*
X139469236Y-77221022D01*
X139289741Y-77279344D01*
X139121586Y-77365023D01*
X139045080Y-77420609D01*
X138968904Y-77475954D01*
X138968902Y-77475956D01*
X138968901Y-77475956D01*
X138835456Y-77609401D01*
X138835456Y-77609402D01*
X138835454Y-77609404D01*
X138794471Y-77665812D01*
X138724523Y-77762086D01*
X138638844Y-77930241D01*
X138580522Y-78109736D01*
X138551000Y-78296131D01*
X131500500Y-78296131D01*
X131500500Y-58465631D01*
X132051000Y-58465631D01*
X132051000Y-58654368D01*
X132078257Y-58826461D01*
X132080523Y-58840767D01*
X132138843Y-59020256D01*
X132224523Y-59188413D01*
X132335454Y-59341096D01*
X132468904Y-59474546D01*
X132621587Y-59585477D01*
X132789744Y-59671157D01*
X132969233Y-59729477D01*
X133039134Y-59740548D01*
X133155632Y-59759000D01*
X133155637Y-59759000D01*
X133344368Y-59759000D01*
X133447920Y-59742598D01*
X133530767Y-59729477D01*
X133710256Y-59671157D01*
X133878413Y-59585477D01*
X134031096Y-59474546D01*
X134164546Y-59341096D01*
X134275477Y-59188413D01*
X134361157Y-59020256D01*
X134419477Y-58840767D01*
X134432598Y-58757920D01*
X134449000Y-58654368D01*
X134449000Y-58465631D01*
X134419477Y-58279236D01*
X134419477Y-58279233D01*
X134361157Y-58099744D01*
X134275477Y-57931587D01*
X134164546Y-57778904D01*
X134031096Y-57645454D01*
X133878413Y-57534523D01*
X133710256Y-57448843D01*
X133530767Y-57390523D01*
X133530765Y-57390522D01*
X133530763Y-57390522D01*
X133344368Y-57361000D01*
X133344363Y-57361000D01*
X133155637Y-57361000D01*
X133155632Y-57361000D01*
X132969236Y-57390522D01*
X132789741Y-57448844D01*
X132621586Y-57534523D01*
X132534475Y-57597813D01*
X132468904Y-57645454D01*
X132468902Y-57645456D01*
X132468901Y-57645456D01*
X132335456Y-57778901D01*
X132335456Y-57778902D01*
X132335454Y-57778904D01*
X132287813Y-57844475D01*
X132224523Y-57931586D01*
X132138844Y-58099741D01*
X132080522Y-58279236D01*
X132051000Y-58465631D01*
X131500500Y-58465631D01*
X131500500Y-50845631D01*
X132051000Y-50845631D01*
X132051000Y-51034368D01*
X132080522Y-51220763D01*
X132080523Y-51220767D01*
X132138843Y-51400256D01*
X132224523Y-51568413D01*
X132335454Y-51721096D01*
X132468904Y-51854546D01*
X132621587Y-51965477D01*
X132789744Y-52051157D01*
X132969233Y-52109477D01*
X133039134Y-52120548D01*
X133155632Y-52139000D01*
X133155637Y-52139000D01*
X133344368Y-52139000D01*
X133447920Y-52122598D01*
X133530767Y-52109477D01*
X133710256Y-52051157D01*
X133878413Y-51965477D01*
X134031096Y-51854546D01*
X134164546Y-51721096D01*
X134275477Y-51568413D01*
X134361157Y-51400256D01*
X134419477Y-51220767D01*
X134432598Y-51137920D01*
X134449000Y-51034368D01*
X134449000Y-50845631D01*
X134419477Y-50659236D01*
X134419477Y-50659233D01*
X134361157Y-50479744D01*
X134275477Y-50311587D01*
X134164546Y-50158904D01*
X134031096Y-50025454D01*
X133878413Y-49914523D01*
X133710256Y-49828843D01*
X133530767Y-49770523D01*
X133530765Y-49770522D01*
X133530763Y-49770522D01*
X133344368Y-49741000D01*
X133344363Y-49741000D01*
X133155637Y-49741000D01*
X133155632Y-49741000D01*
X132969236Y-49770522D01*
X132789741Y-49828844D01*
X132621586Y-49914523D01*
X132534475Y-49977813D01*
X132468904Y-50025454D01*
X132468902Y-50025456D01*
X132468901Y-50025456D01*
X132335456Y-50158901D01*
X132335456Y-50158902D01*
X132335454Y-50158904D01*
X132287813Y-50224475D01*
X132224523Y-50311586D01*
X132138844Y-50479741D01*
X132080522Y-50659236D01*
X132051000Y-50845631D01*
X131500500Y-50845631D01*
X131500500Y-40135000D01*
X131520185Y-40067961D01*
X131572989Y-40022206D01*
X131624500Y-40011000D01*
X159375500Y-40011000D01*
X159442539Y-40030685D01*
G37*
%TD.AperFunction*%
%TA.AperFunction,Conductor*%
G36*
X132334075Y-121023493D02*
G01*
X132399901Y-121137507D01*
X132492993Y-121230599D01*
X132607007Y-121296425D01*
X132670589Y-121313462D01*
X132038282Y-121945769D01*
X132038282Y-121945770D01*
X132092452Y-121985126D01*
X132092451Y-121985126D01*
X132101495Y-121989734D01*
X132152292Y-122037708D01*
X132169087Y-122105529D01*
X132146550Y-122171664D01*
X132101499Y-122210702D01*
X132092182Y-122215449D01*
X131920213Y-122340390D01*
X131769894Y-122490709D01*
X131769890Y-122490714D01*
X131724818Y-122552751D01*
X131669488Y-122595417D01*
X131599875Y-122601396D01*
X131538080Y-122568790D01*
X131503722Y-122507951D01*
X131500500Y-122479866D01*
X131500500Y-121711859D01*
X131520185Y-121644820D01*
X131572989Y-121599065D01*
X131634231Y-121588241D01*
X131684729Y-121592216D01*
X132317037Y-120959908D01*
X132334075Y-121023493D01*
G37*
%TD.AperFunction*%
%TA.AperFunction,Conductor*%
G36*
X131705703Y-119087420D02*
G01*
X131724819Y-119108248D01*
X131769896Y-119170292D01*
X131920213Y-119320609D01*
X132092179Y-119445548D01*
X132092181Y-119445549D01*
X132092184Y-119445551D01*
X132101493Y-119450294D01*
X132152290Y-119498266D01*
X132169087Y-119566087D01*
X132146552Y-119632222D01*
X132101505Y-119671260D01*
X132092446Y-119675876D01*
X132092440Y-119675880D01*
X132038282Y-119715227D01*
X132038282Y-119715228D01*
X132670591Y-120347537D01*
X132607007Y-120364575D01*
X132492993Y-120430401D01*
X132399901Y-120523493D01*
X132334075Y-120637507D01*
X132317037Y-120701091D01*
X131684728Y-120068782D01*
X131634230Y-120072757D01*
X131565852Y-120058393D01*
X131516095Y-120009342D01*
X131500500Y-119949139D01*
X131500500Y-119181133D01*
X131520185Y-119114094D01*
X131572989Y-119068339D01*
X131642147Y-119058395D01*
X131705703Y-119087420D01*
G37*
%TD.AperFunction*%
%TD*%
M02*
