%TF.GenerationSoftware,KiCad,Pcbnew,9.0.7*%
%TF.CreationDate,2026-04-17T11:03:12-07:00*%
%TF.ProjectId,MotionMod-FrontPanel,4d6f7469-6f6e-44d6-9f64-2d46726f6e74,rev?*%
%TF.SameCoordinates,Original*%
%TF.FileFunction,Soldermask,Top*%
%TF.FilePolarity,Negative*%
%FSLAX46Y46*%
G04 Gerber Fmt 4.6, Leading zero omitted, Abs format (unit mm)*
G04 Created by KiCad (PCBNEW 9.0.7) date 2026-04-17 11:03:12*
%MOMM*%
%LPD*%
G01*
G04 APERTURE LIST*
G04 Aperture macros list*
%AMRoundRect*
0 Rectangle with rounded corners*
0 $1 Rounding radius*
0 $2 $3 $4 $5 $6 $7 $8 $9 X,Y pos of 4 corners*
0 Add a 4 corners polygon primitive as box body*
4,1,4,$2,$3,$4,$5,$6,$7,$8,$9,$2,$3,0*
0 Add four circle primitives for the rounded corners*
1,1,$1+$1,$2,$3*
1,1,$1+$1,$4,$5*
1,1,$1+$1,$6,$7*
1,1,$1+$1,$8,$9*
0 Add four rect primitives between the rounded corners*
20,1,$1+$1,$2,$3,$4,$5,0*
20,1,$1+$1,$4,$5,$6,$7,0*
20,1,$1+$1,$6,$7,$8,$9,0*
20,1,$1+$1,$8,$9,$2,$3,0*%
G04 Aperture macros list end*
%ADD10C,1.397000*%
%ADD11C,1.803400*%
%ADD12C,2.667000*%
%ADD13C,2.200000*%
%ADD14RoundRect,0.250000X-0.850000X-0.850000X0.850000X-0.850000X0.850000X0.850000X-0.850000X0.850000X0*%
%ADD15R,1.830000X1.930000*%
%ADD16C,2.130000*%
%ADD17R,1.524000X2.524000*%
%ADD18O,1.524000X2.524000*%
%ADD19R,1.700000X1.700000*%
%ADD20C,1.700000*%
G04 APERTURE END LIST*
D10*
%TO.C,R23*%
X158000000Y-108390500D03*
X158000000Y-116010500D03*
%TD*%
D11*
%TO.C,SW2*%
X147790000Y-109507100D03*
X142710000Y-109507100D03*
X145250000Y-109507100D03*
D12*
X151500000Y-117000100D03*
X139000000Y-117000100D03*
D11*
X147790000Y-124010500D03*
X142710000Y-124010500D03*
%TD*%
D10*
%TO.C,R26*%
X135705227Y-116512013D03*
X135705227Y-124132013D03*
%TD*%
%TO.C,R16*%
X136250000Y-87140500D03*
X136250000Y-94760500D03*
%TD*%
D13*
%TO.C,J1*%
X136750000Y-58700500D03*
X136750000Y-61240500D03*
X136750000Y-63780500D03*
D14*
X136750000Y-66320500D03*
%TD*%
D10*
%TO.C,R24*%
X150630000Y-125510500D03*
X158250000Y-125510500D03*
%TD*%
D15*
%TO.C,J11*%
X145250000Y-142760500D03*
D16*
X133850000Y-142760500D03*
X142150000Y-142760500D03*
%TD*%
D15*
%TO.C,J12*%
X145250000Y-142760500D03*
D16*
X156650000Y-142760500D03*
X148350000Y-142760500D03*
%TD*%
D10*
%TO.C,R15*%
X154000000Y-88760500D03*
X154000000Y-96380500D03*
%TD*%
D17*
%TO.C,AFF1*%
X140170000Y-104880500D03*
D18*
X142710000Y-104880500D03*
X145250000Y-104880500D03*
X147790000Y-104880500D03*
X150330000Y-104880500D03*
X150330000Y-89640500D03*
X147790000Y-89640500D03*
X145250000Y-89640500D03*
X142710000Y-89640500D03*
X140170000Y-89640500D03*
%TD*%
D10*
%TO.C,R1*%
X133250000Y-50940000D03*
X133250000Y-58560000D03*
%TD*%
%TO.C,R25*%
X155000000Y-112950500D03*
X155000000Y-120570500D03*
%TD*%
D15*
%TO.C,J10*%
X145250000Y-131980500D03*
D16*
X156650000Y-131980500D03*
X148350000Y-131980500D03*
%TD*%
D15*
%TO.C,J9*%
X145250000Y-131980500D03*
D16*
X133850000Y-131980500D03*
X142150000Y-131980500D03*
%TD*%
D10*
%TO.C,R17*%
X132500000Y-87140500D03*
X132500000Y-94760500D03*
%TD*%
%TO.C,R3*%
X157500000Y-100820500D03*
X157500000Y-93200500D03*
%TD*%
%TO.C,R13*%
X147530000Y-78450500D03*
X147530000Y-86070500D03*
%TD*%
D19*
%TO.C,J14*%
X157800000Y-84010500D03*
D20*
X157800000Y-81470500D03*
X157800000Y-78930500D03*
X157800000Y-76390500D03*
X157800000Y-73850500D03*
X157800000Y-71310500D03*
X157800000Y-68770500D03*
X157800000Y-66230500D03*
X157800000Y-63690500D03*
X157800000Y-61150500D03*
%TD*%
D19*
%TO.C,J5*%
X132800000Y-100510500D03*
D20*
X132800000Y-103050500D03*
X132800000Y-105590500D03*
X132800000Y-108130500D03*
X132800000Y-110670500D03*
X132800000Y-113210500D03*
X132800000Y-115750500D03*
X132800000Y-118290500D03*
X132800000Y-120830500D03*
X132800000Y-123370500D03*
%TD*%
D10*
%TO.C,R18*%
X142930000Y-78390500D03*
X142930000Y-86010500D03*
%TD*%
%TO.C,R19*%
X139750000Y-78390500D03*
X139750000Y-86010500D03*
%TD*%
%TO.C,R14*%
X150680000Y-78450500D03*
X150680000Y-86070500D03*
%TD*%
M02*
