%TF.GenerationSoftware,KiCad,Pcbnew,9.0.7*%
%TF.CreationDate,2026-04-17T11:03:11-07:00*%
%TF.ProjectId,MotionMod-FrontPanel,4d6f7469-6f6e-44d6-9f64-2d46726f6e74,rev?*%
%TF.SameCoordinates,Original*%
%TF.FileFunction,Copper,L1,Top*%
%TF.FilePolarity,Positive*%
%FSLAX46Y46*%
G04 Gerber Fmt 4.6, Leading zero omitted, Abs format (unit mm)*
G04 Created by KiCad (PCBNEW 9.0.7) date 2026-04-17 11:03:11*
%MOMM*%
%LPD*%
G01*
G04 APERTURE LIST*
G04 Aperture macros list*
%AMRoundRect*
0 Rectangle with rounded corners*
0 $1 Rounding radius*
0 $2 $3 $4 $5 $6 $7 $8 $9 X,Y pos of 4 corners*
0 Add a 4 corners polygon primitive as box body*
4,1,4,$2,$3,$4,$5,$6,$7,$8,$9,$2,$3,0*
0 Add four circle primitives for the rounded corners*
1,1,$1+$1,$2,$3*
1,1,$1+$1,$4,$5*
1,1,$1+$1,$6,$7*
1,1,$1+$1,$8,$9*
0 Add four rect primitives between the rounded corners*
20,1,$1+$1,$2,$3,$4,$5,0*
20,1,$1+$1,$4,$5,$6,$7,0*
20,1,$1+$1,$6,$7,$8,$9,0*
20,1,$1+$1,$8,$9,$2,$3,0*%
G04 Aperture macros list end*
%TA.AperFunction,ComponentPad*%
%ADD10C,1.397000*%
%TD*%
%TA.AperFunction,ComponentPad*%
%ADD11C,1.803400*%
%TD*%
%TA.AperFunction,ComponentPad*%
%ADD12C,2.667000*%
%TD*%
%TA.AperFunction,ComponentPad*%
%ADD13C,2.200000*%
%TD*%
%TA.AperFunction,ComponentPad*%
%ADD14RoundRect,0.250000X-0.850000X-0.850000X0.850000X-0.850000X0.850000X0.850000X-0.850000X0.850000X0*%
%TD*%
%TA.AperFunction,ComponentPad*%
%ADD15R,1.830000X1.930000*%
%TD*%
%TA.AperFunction,ComponentPad*%
%ADD16C,2.130000*%
%TD*%
%TA.AperFunction,ComponentPad*%
%ADD17R,1.524000X2.524000*%
%TD*%
%TA.AperFunction,ComponentPad*%
%ADD18O,1.524000X2.524000*%
%TD*%
%TA.AperFunction,ComponentPad*%
%ADD19R,1.700000X1.700000*%
%TD*%
%TA.AperFunction,ComponentPad*%
%ADD20C,1.700000*%
%TD*%
%TA.AperFunction,ViaPad*%
%ADD21C,0.600000*%
%TD*%
%TA.AperFunction,Conductor*%
%ADD22C,0.500000*%
%TD*%
%TA.AperFunction,Conductor*%
%ADD23C,0.300000*%
%TD*%
G04 APERTURE END LIST*
D10*
%TO.P,R23,1*%
%TO.N,/Top Board/CV2*%
X158000000Y-108390500D03*
%TO.P,R23,2*%
%TO.N,Net-(J10-PadT)*%
X158000000Y-116010500D03*
%TD*%
D11*
%TO.P,SW2,A,A*%
%TO.N,EncA_p*%
X147790000Y-109507100D03*
%TO.P,SW2,B,B*%
%TO.N,/Top Board/EncB*%
X142710000Y-109507100D03*
%TO.P,SW2,C,C*%
%TO.N,GND*%
X145250000Y-109507100D03*
D12*
%TO.P,SW2,NC*%
%TO.N,N/C*%
X151500000Y-117000100D03*
X139000000Y-117000100D03*
D11*
%TO.P,SW2,S1,S1*%
%TO.N,GND*%
X147790000Y-124010500D03*
%TO.P,SW2,S2,S2*%
%TO.N,/Top Board/EncSW*%
X142710000Y-124010500D03*
%TD*%
D10*
%TO.P,R26,1*%
%TO.N,/Top Board/CV1*%
X135705227Y-116512013D03*
%TO.P,R26,2*%
%TO.N,Net-(J9-PadT)*%
X135705227Y-124132013D03*
%TD*%
%TO.P,R16,1*%
%TO.N,/Top Board/DispD*%
X136250000Y-87140500D03*
%TO.P,R16,2*%
%TO.N,Net-(AFF1-d)*%
X136250000Y-94760500D03*
%TD*%
D13*
%TO.P,J1,1,Vcc*%
%TO.N,+5V*%
X136750000Y-58700500D03*
%TO.P,J1,2,Trig*%
%TO.N,/Top Board/Trig*%
X136750000Y-61240500D03*
%TO.P,J1,3,Echo*%
%TO.N,Net-(J1-Echo)*%
X136750000Y-63780500D03*
D14*
%TO.P,J1,4,Gnd*%
%TO.N,GND*%
X136750000Y-66320500D03*
%TD*%
D10*
%TO.P,R24,1*%
%TO.N,/Top Board/CV3*%
X150630000Y-125510500D03*
%TO.P,R24,2*%
%TO.N,Net-(J11-PadT)*%
X158250000Y-125510500D03*
%TD*%
D15*
%TO.P,J11,S*%
%TO.N,GND*%
X145250000Y-142760500D03*
D16*
%TO.P,J11,T*%
%TO.N,Net-(J11-PadT)*%
X133850000Y-142760500D03*
%TO.P,J11,TN*%
%TO.N,N/C*%
X142150000Y-142760500D03*
%TD*%
D15*
%TO.P,J12,S*%
%TO.N,GND*%
X145250000Y-142760500D03*
D16*
%TO.P,J12,T*%
%TO.N,Net-(J12-PadT)*%
X156650000Y-142760500D03*
%TO.P,J12,TN*%
%TO.N,N/C*%
X148350000Y-142760500D03*
%TD*%
D10*
%TO.P,R15,1*%
%TO.N,/Top Board/DispC*%
X154000000Y-88760500D03*
%TO.P,R15,2*%
%TO.N,Net-(AFF1-c)*%
X154000000Y-96380500D03*
%TD*%
D17*
%TO.P,AFF1,1,e*%
%TO.N,Net-(AFF1-e)*%
X140170000Y-104880500D03*
D18*
%TO.P,AFF1,2,d*%
%TO.N,Net-(AFF1-d)*%
X142710000Y-104880500D03*
%TO.P,AFF1,3,C.A.*%
%TO.N,unconnected-(AFF1-C.A.-Pad3)*%
X145250000Y-104880500D03*
%TO.P,AFF1,4,c*%
%TO.N,Net-(AFF1-c)*%
X147790000Y-104880500D03*
%TO.P,AFF1,5,DP*%
%TO.N,Net-(AFF1-DP)*%
X150330000Y-104880500D03*
%TO.P,AFF1,6,b*%
%TO.N,Net-(AFF1-b)*%
X150330000Y-89640500D03*
%TO.P,AFF1,7,a*%
%TO.N,Net-(AFF1-a)*%
X147790000Y-89640500D03*
%TO.P,AFF1,8,C.A.*%
%TO.N,+5V*%
X145250000Y-89640500D03*
%TO.P,AFF1,9,f*%
%TO.N,Net-(AFF1-f)*%
X142710000Y-89640500D03*
%TO.P,AFF1,10,g*%
%TO.N,Net-(AFF1-g)*%
X140170000Y-89640500D03*
%TD*%
D10*
%TO.P,R1,1*%
%TO.N,/Top Board/Echo*%
X133250000Y-50940000D03*
%TO.P,R1,2*%
%TO.N,Net-(J1-Echo)*%
X133250000Y-58560000D03*
%TD*%
%TO.P,R25,1*%
%TO.N,/Top Board/CV4*%
X155000000Y-112950500D03*
%TO.P,R25,2*%
%TO.N,Net-(J12-PadT)*%
X155000000Y-120570500D03*
%TD*%
D15*
%TO.P,J10,S*%
%TO.N,GND*%
X145250000Y-131980500D03*
D16*
%TO.P,J10,T*%
%TO.N,Net-(J10-PadT)*%
X156650000Y-131980500D03*
%TO.P,J10,TN*%
%TO.N,N/C*%
X148350000Y-131980500D03*
%TD*%
D15*
%TO.P,J9,S*%
%TO.N,GND*%
X145250000Y-131980500D03*
D16*
%TO.P,J9,T*%
%TO.N,Net-(J9-PadT)*%
X133850000Y-131980500D03*
%TO.P,J9,TN*%
%TO.N,N/C*%
X142150000Y-131980500D03*
%TD*%
D10*
%TO.P,R17,1*%
%TO.N,/Top Board/DispE*%
X132500000Y-87140500D03*
%TO.P,R17,2*%
%TO.N,Net-(AFF1-e)*%
X132500000Y-94760500D03*
%TD*%
%TO.P,R3,1*%
%TO.N,Net-(AFF1-DP)*%
X157500000Y-100820500D03*
%TO.P,R3,2*%
%TO.N,/Top Board/DispDot*%
X157500000Y-93200500D03*
%TD*%
%TO.P,R13,1*%
%TO.N,/Top Board/DispA*%
X147530000Y-78450500D03*
%TO.P,R13,2*%
%TO.N,Net-(AFF1-a)*%
X147530000Y-86070500D03*
%TD*%
D19*
%TO.P,J14,1,Pin_1*%
%TO.N,/Top Board/DispA*%
X157800000Y-84010500D03*
D20*
%TO.P,J14,2,Pin_2*%
%TO.N,/Top Board/DispB*%
X157800000Y-81470500D03*
%TO.P,J14,3,Pin_3*%
%TO.N,/Top Board/DispC*%
X157800000Y-78930500D03*
%TO.P,J14,4,Pin_4*%
%TO.N,/Top Board/DispD*%
X157800000Y-76390500D03*
%TO.P,J14,5,Pin_5*%
%TO.N,/Top Board/DispE*%
X157800000Y-73850500D03*
%TO.P,J14,6,Pin_6*%
%TO.N,/Top Board/DispF*%
X157800000Y-71310500D03*
%TO.P,J14,7,Pin_7*%
%TO.N,/Top Board/DispG*%
X157800000Y-68770500D03*
%TO.P,J14,8,Pin_8*%
%TO.N,/Top Board/DispDot*%
X157800000Y-66230500D03*
%TO.P,J14,9,Pin_9*%
%TO.N,/Top Board/Trig*%
X157800000Y-63690500D03*
%TO.P,J14,10,Pin_10*%
%TO.N,/Top Board/Echo*%
X157800000Y-61150500D03*
%TD*%
D19*
%TO.P,J5,1,Pin_1*%
%TO.N,EncA_p*%
X132800000Y-100510500D03*
D20*
%TO.P,J5,2,Pin_2*%
%TO.N,/Top Board/EncB*%
X132800000Y-103050500D03*
%TO.P,J5,3,Pin_3*%
%TO.N,/Top Board/EncSW*%
X132800000Y-105590500D03*
%TO.P,J5,4,Pin_4*%
%TO.N,/Top Board/CV1*%
X132800000Y-108130500D03*
%TO.P,J5,5,Pin_5*%
%TO.N,/Top Board/CV2*%
X132800000Y-110670500D03*
%TO.P,J5,6,Pin_6*%
%TO.N,/Top Board/CV3*%
X132800000Y-113210500D03*
%TO.P,J5,7,Pin_7*%
%TO.N,/Top Board/CV4*%
X132800000Y-115750500D03*
%TO.P,J5,8,Pin_8*%
%TO.N,unconnected-(J5-Pin_8-Pad8)*%
X132800000Y-118290500D03*
%TO.P,J5,9,Pin_9*%
%TO.N,GND*%
X132800000Y-120830500D03*
%TO.P,J5,10,Pin_10*%
%TO.N,+5V*%
X132800000Y-123370500D03*
%TD*%
D10*
%TO.P,R18,1*%
%TO.N,/Top Board/DispF*%
X142930000Y-78390500D03*
%TO.P,R18,2*%
%TO.N,Net-(AFF1-f)*%
X142930000Y-86010500D03*
%TD*%
%TO.P,R19,1*%
%TO.N,/Top Board/DispG*%
X139750000Y-78390500D03*
%TO.P,R19,2*%
%TO.N,Net-(AFF1-g)*%
X139750000Y-86010500D03*
%TD*%
%TO.P,R14,1*%
%TO.N,/Top Board/DispB*%
X150680000Y-78450500D03*
%TO.P,R14,2*%
%TO.N,Net-(AFF1-b)*%
X150680000Y-86070500D03*
%TD*%
D21*
%TO.N,GND*%
X135400000Y-120150000D03*
X151250000Y-70010500D03*
X154000000Y-78760500D03*
X151250000Y-72510500D03*
X151250000Y-75010500D03*
%TO.N,Net-(AFF1-e)*%
X139250000Y-98510500D03*
%TO.N,Net-(AFF1-d)*%
X142000000Y-98510500D03*
%TO.N,+5V*%
X136899500Y-119611000D03*
%TO.N,/Top Board/EncSW*%
X141000000Y-111010500D03*
%TO.N,/Top Board/CV3*%
X137750000Y-125510500D03*
%TO.N,/Top Board/EncB*%
X135625000Y-107635500D03*
%TO.N,EncA_p*%
X135685997Y-106598902D03*
%TO.N,Net-(J11-PadT)*%
X138000000Y-128010500D03*
%TD*%
D22*
%TO.N,GND*%
X133800000Y-120150000D02*
X133119500Y-120830500D01*
X133119500Y-120830500D02*
X132800000Y-120830500D01*
X135400000Y-120150000D02*
X133800000Y-120150000D01*
D23*
%TO.N,Net-(AFF1-e)*%
X135750000Y-98010500D02*
X138750000Y-98010500D01*
X132500000Y-94760500D02*
X135750000Y-98010500D01*
X138750000Y-98010500D02*
X139250000Y-98510500D01*
%TO.N,Net-(AFF1-d)*%
X142000000Y-98510500D02*
X138250000Y-94760500D01*
X138250000Y-94760500D02*
X136250000Y-94760500D01*
D22*
%TO.N,+5V*%
X134179500Y-123370500D02*
X132750000Y-123370500D01*
X136899500Y-119611000D02*
X136899500Y-120650500D01*
X136899500Y-120650500D02*
X134179500Y-123370500D01*
D23*
%TO.N,Net-(J1-Echo)*%
X136750000Y-63780500D02*
X136520000Y-63780500D01*
X136520000Y-63780500D02*
X133250000Y-60510500D01*
X133250000Y-60510500D02*
X133250000Y-58560000D01*
X136730000Y-63760500D02*
X136750000Y-63780500D01*
%TO.N,/Top Board/Trig*%
X155300000Y-61240500D02*
X157750000Y-63690500D01*
X136750000Y-61240500D02*
X155300000Y-61240500D01*
%TO.N,/Top Board/EncSW*%
X140500000Y-110510500D02*
X137250000Y-110510500D01*
X132750000Y-106010500D02*
X132750000Y-105590500D01*
X137250000Y-110510500D02*
X132750000Y-106010500D01*
X141000000Y-111010500D02*
X140500000Y-110510500D01*
%TO.N,/Top Board/CV3*%
X137750000Y-125510500D02*
X150630000Y-125510500D01*
%TO.N,/Top Board/EncB*%
X142706600Y-109510500D02*
X142710000Y-109507100D01*
X135625000Y-107635500D02*
X137500000Y-109510500D01*
X137500000Y-109510500D02*
X142706600Y-109510500D01*
%TO.N,/Top Board/CV4*%
X133257471Y-115253029D02*
X135560000Y-112950500D01*
X132750000Y-115750500D02*
X133247471Y-115253029D01*
X135560000Y-112950500D02*
X155000000Y-112950500D01*
X133247471Y-115253029D02*
X133257471Y-115253029D01*
%TO.N,/Top Board/CV2*%
X132750000Y-110670500D02*
X133840000Y-111760500D01*
X157620000Y-108390500D02*
X158000000Y-108390500D01*
X133840000Y-111760500D02*
X154250000Y-111760500D01*
X154250000Y-111760500D02*
X157620000Y-108390500D01*
%TO.N,/Top Board/DispB*%
X153520000Y-81470500D02*
X157750000Y-81470500D01*
X150500000Y-78450500D02*
X153520000Y-81470500D01*
%TO.N,/Top Board/DispG*%
X149380000Y-68760500D02*
X157740000Y-68760500D01*
X139750000Y-78390500D02*
X149380000Y-68760500D01*
X157740000Y-68760500D02*
X157750000Y-68770500D01*
%TO.N,/Top Board/DispD*%
X140000000Y-80760500D02*
X143000000Y-80760500D01*
X136250000Y-87140500D02*
X136250000Y-84510500D01*
X147500000Y-76260500D02*
X157620000Y-76260500D01*
X157620000Y-76260500D02*
X157750000Y-76390500D01*
X143000000Y-80760500D02*
X147500000Y-76260500D01*
X136250000Y-84510500D02*
X140000000Y-80760500D01*
%TO.N,/Top Board/DispF*%
X142750000Y-78390500D02*
X149830000Y-71310500D01*
X149830000Y-71310500D02*
X157750000Y-71310500D01*
%TO.N,/Top Board/DispE*%
X149160000Y-73850500D02*
X157750000Y-73850500D01*
X142750000Y-80260500D02*
X149160000Y-73850500D01*
X139380000Y-80260500D02*
X142750000Y-80260500D01*
X132500000Y-87140500D02*
X139380000Y-80260500D01*
%TO.N,/Top Board/DispA*%
X147750000Y-78450500D02*
X153310000Y-84010500D01*
X153310000Y-84010500D02*
X157750000Y-84010500D01*
%TO.N,/Top Board/DispC*%
X157340000Y-78450500D02*
X157750000Y-78040500D01*
%TO.N,/Top Board/Echo*%
X133250000Y-50940000D02*
X143049500Y-60739500D01*
X143049500Y-60739500D02*
X155507520Y-60739500D01*
X155918520Y-61150500D02*
X157750000Y-61150500D01*
X155507520Y-60739500D02*
X155918520Y-61150500D01*
%TO.N,EncA_p*%
X137000000Y-108010500D02*
X146293400Y-108010500D01*
X135685997Y-106598902D02*
X135685997Y-106696497D01*
X146293400Y-108010500D02*
X147790000Y-109507100D01*
X135685997Y-106696497D02*
X137000000Y-108010500D01*
%TO.N,Net-(J11-PadT)*%
X138750000Y-127260500D02*
X156500000Y-127260500D01*
X138000000Y-128010500D02*
X138750000Y-127260500D01*
X156500000Y-127260500D02*
X158250000Y-125510500D01*
D22*
%TO.N,Net-(J9-PadT)*%
X134500000Y-131430500D02*
X133950000Y-131980500D01*
D23*
X133850000Y-131980500D02*
X133850000Y-128910500D01*
X133850000Y-128910500D02*
X135800000Y-126960500D01*
X135800000Y-124150000D02*
X135800000Y-126960500D01*
%TD*%
%TA.AperFunction,Conductor*%
%TO.N,GND*%
G36*
X144663442Y-142582569D02*
G01*
X144640000Y-142700420D01*
X144640000Y-142820580D01*
X144663442Y-142938431D01*
X144693294Y-143010500D01*
X143839500Y-143010500D01*
X143772461Y-142990815D01*
X143726706Y-142938011D01*
X143715500Y-142886500D01*
X143715500Y-142634500D01*
X143735185Y-142567461D01*
X143787989Y-142521706D01*
X143839500Y-142510500D01*
X144693294Y-142510500D01*
X144663442Y-142582569D01*
G37*
%TD.AperFunction*%
%TA.AperFunction,Conductor*%
G36*
X144663442Y-131802569D02*
G01*
X144640000Y-131920420D01*
X144640000Y-132040580D01*
X144663442Y-132158431D01*
X144693294Y-132230500D01*
X143839500Y-132230500D01*
X143772461Y-132210815D01*
X143726706Y-132158011D01*
X143715500Y-132106500D01*
X143715500Y-131854500D01*
X143735185Y-131787461D01*
X143787989Y-131741706D01*
X143839500Y-131730500D01*
X144693294Y-131730500D01*
X144663442Y-131802569D01*
G37*
%TD.AperFunction*%
%TA.AperFunction,Conductor*%
G36*
X159442539Y-40030685D02*
G01*
X159488294Y-40083489D01*
X159499500Y-40135000D01*
X159499500Y-124808795D01*
X159479815Y-124875834D01*
X159427011Y-124921589D01*
X159357853Y-124931533D01*
X159294297Y-124902508D01*
X159275182Y-124881681D01*
X159253291Y-124851551D01*
X159164546Y-124729404D01*
X159031096Y-124595954D01*
X158878413Y-124485023D01*
X158710256Y-124399343D01*
X158530767Y-124341023D01*
X158530765Y-124341022D01*
X158530763Y-124341022D01*
X158344368Y-124311500D01*
X158344363Y-124311500D01*
X158155637Y-124311500D01*
X158155632Y-124311500D01*
X157969236Y-124341022D01*
X157789741Y-124399344D01*
X157621586Y-124485023D01*
X157565809Y-124525548D01*
X157468904Y-124595954D01*
X157468902Y-124595956D01*
X157468901Y-124595956D01*
X157335456Y-124729401D01*
X157335456Y-124729402D01*
X157335454Y-124729404D01*
X157312915Y-124760426D01*
X157224523Y-124882086D01*
X157138844Y-125050241D01*
X157080522Y-125229736D01*
X157051000Y-125416131D01*
X157051000Y-125604868D01*
X157066368Y-125701897D01*
X157057414Y-125771190D01*
X157031576Y-125808976D01*
X156266873Y-126573681D01*
X156205550Y-126607166D01*
X156179192Y-126610000D01*
X151525504Y-126610000D01*
X151458465Y-126590315D01*
X151412710Y-126537511D01*
X151402766Y-126468353D01*
X151431791Y-126404797D01*
X151437823Y-126398319D01*
X151544546Y-126291596D01*
X151655477Y-126138913D01*
X151741157Y-125970756D01*
X151799477Y-125791267D01*
X151813632Y-125701897D01*
X151829000Y-125604868D01*
X151829000Y-125416131D01*
X151806963Y-125276998D01*
X151799477Y-125229733D01*
X151741157Y-125050244D01*
X151655477Y-124882087D01*
X151544546Y-124729404D01*
X151411096Y-124595954D01*
X151258413Y-124485023D01*
X151090256Y-124399343D01*
X150910767Y-124341023D01*
X150910765Y-124341022D01*
X150910763Y-124341022D01*
X150724368Y-124311500D01*
X150724363Y-124311500D01*
X150535637Y-124311500D01*
X150535632Y-124311500D01*
X150349236Y-124341022D01*
X150169741Y-124399344D01*
X150001586Y-124485023D01*
X149945809Y-124525548D01*
X149848904Y-124595954D01*
X149848902Y-124595956D01*
X149848901Y-124595956D01*
X149715456Y-124729401D01*
X149715456Y-124729402D01*
X149715454Y-124729404D01*
X149663357Y-124801109D01*
X149657707Y-124808886D01*
X149602377Y-124851551D01*
X149557389Y-124860000D01*
X149132672Y-124860000D01*
X149065633Y-124840315D01*
X149019878Y-124787511D01*
X149009934Y-124718353D01*
X149022187Y-124679705D01*
X149089007Y-124548563D01*
X149157184Y-124338736D01*
X149157184Y-124338733D01*
X149191700Y-124120815D01*
X149191700Y-123900184D01*
X149157184Y-123682266D01*
X149157184Y-123682263D01*
X149089007Y-123472436D01*
X148988842Y-123275852D01*
X148942283Y-123211768D01*
X148942282Y-123211768D01*
X148227647Y-123926404D01*
X148204208Y-123838929D01*
X148145689Y-123737570D01*
X148062930Y-123654811D01*
X147961571Y-123596292D01*
X147874092Y-123572852D01*
X148588730Y-122858215D01*
X148524647Y-122811657D01*
X148328063Y-122711492D01*
X148118235Y-122643315D01*
X147900315Y-122608800D01*
X147679685Y-122608800D01*
X147461766Y-122643315D01*
X147461763Y-122643315D01*
X147251936Y-122711492D01*
X147055342Y-122811662D01*
X146991268Y-122858214D01*
X146991268Y-122858215D01*
X147705905Y-123572852D01*
X147618429Y-123596292D01*
X147517070Y-123654811D01*
X147434311Y-123737570D01*
X147375792Y-123838929D01*
X147352352Y-123926405D01*
X146637715Y-123211768D01*
X146637714Y-123211768D01*
X146591162Y-123275842D01*
X146490992Y-123472436D01*
X146422815Y-123682263D01*
X146422815Y-123682266D01*
X146388300Y-123900184D01*
X146388300Y-124120815D01*
X146422815Y-124338733D01*
X146422815Y-124338736D01*
X146490992Y-124548563D01*
X146557813Y-124679705D01*
X146570709Y-124748374D01*
X146544433Y-124813115D01*
X146487327Y-124853372D01*
X146447328Y-124860000D01*
X144053234Y-124860000D01*
X143986195Y-124840315D01*
X143940440Y-124787511D01*
X143930496Y-124718353D01*
X143942749Y-124679705D01*
X144009470Y-124548758D01*
X144009471Y-124548755D01*
X144017011Y-124525548D01*
X144077673Y-124338849D01*
X144112200Y-124120856D01*
X144112200Y-123900144D01*
X144077673Y-123682151D01*
X144019659Y-123503600D01*
X144009471Y-123472244D01*
X144009470Y-123472241D01*
X143909404Y-123275852D01*
X143909269Y-123275587D01*
X143779538Y-123097028D01*
X143623472Y-122940962D01*
X143444913Y-122811231D01*
X143413847Y-122795402D01*
X143248258Y-122711029D01*
X143248255Y-122711028D01*
X143038350Y-122642827D01*
X142929352Y-122625563D01*
X142820356Y-122608300D01*
X142599644Y-122608300D01*
X142526979Y-122619809D01*
X142381649Y-122642827D01*
X142171744Y-122711028D01*
X142171741Y-122711029D01*
X141975086Y-122811231D01*
X141873212Y-122885247D01*
X141796528Y-122940962D01*
X141796526Y-122940964D01*
X141796525Y-122940964D01*
X141640464Y-123097025D01*
X141640464Y-123097026D01*
X141640462Y-123097028D01*
X141633554Y-123106536D01*
X141510731Y-123275586D01*
X141410529Y-123472241D01*
X141410528Y-123472244D01*
X141342327Y-123682149D01*
X141307800Y-123900144D01*
X141307800Y-124120855D01*
X141342327Y-124338850D01*
X141410528Y-124548755D01*
X141410529Y-124548758D01*
X141477251Y-124679705D01*
X141490147Y-124748374D01*
X141463871Y-124813115D01*
X141406764Y-124853372D01*
X141366766Y-124860000D01*
X138254935Y-124860000D01*
X138187896Y-124840315D01*
X138186090Y-124839133D01*
X138129179Y-124801106D01*
X138129172Y-124801102D01*
X137983501Y-124740764D01*
X137983489Y-124740761D01*
X137828845Y-124710000D01*
X137828842Y-124710000D01*
X137671158Y-124710000D01*
X137671155Y-124710000D01*
X137516510Y-124740761D01*
X137516498Y-124740764D01*
X137370827Y-124801102D01*
X137370814Y-124801109D01*
X137239711Y-124888710D01*
X137239707Y-124888713D01*
X137128213Y-125000207D01*
X137128210Y-125000211D01*
X137040609Y-125131314D01*
X137040602Y-125131327D01*
X136980264Y-125276998D01*
X136980261Y-125277010D01*
X136949500Y-125431653D01*
X136949500Y-125589346D01*
X136980261Y-125743989D01*
X136980264Y-125744001D01*
X137040602Y-125889672D01*
X137040609Y-125889685D01*
X137128210Y-126020788D01*
X137128213Y-126020792D01*
X137239707Y-126132286D01*
X137239711Y-126132289D01*
X137370814Y-126219890D01*
X137370827Y-126219897D01*
X137516498Y-126280235D01*
X137516503Y-126280237D01*
X137671153Y-126310999D01*
X137671156Y-126311000D01*
X137671158Y-126311000D01*
X137828844Y-126311000D01*
X137828845Y-126310999D01*
X137983497Y-126280237D01*
X138129179Y-126219894D01*
X138186044Y-126181897D01*
X138252721Y-126161020D01*
X138254935Y-126161000D01*
X149557389Y-126161000D01*
X149624428Y-126180685D01*
X149657705Y-126212113D01*
X149715454Y-126291596D01*
X149715456Y-126291598D01*
X149822177Y-126398319D01*
X149855662Y-126459642D01*
X149850678Y-126529334D01*
X149808806Y-126585267D01*
X149743342Y-126609684D01*
X149734496Y-126610000D01*
X138685929Y-126610000D01*
X138560261Y-126634997D01*
X138560255Y-126634999D01*
X138441875Y-126684033D01*
X138441866Y-126684038D01*
X138335331Y-126755223D01*
X138335327Y-126755226D01*
X137897069Y-127193484D01*
X137835746Y-127226969D01*
X137833580Y-127227420D01*
X137766508Y-127240761D01*
X137766498Y-127240764D01*
X137620827Y-127301102D01*
X137620814Y-127301109D01*
X137489711Y-127388710D01*
X137489707Y-127388713D01*
X137378213Y-127500207D01*
X137378210Y-127500211D01*
X137290609Y-127631314D01*
X137290602Y-127631327D01*
X137230264Y-127776998D01*
X137230261Y-127777010D01*
X137199500Y-127931653D01*
X137199500Y-128089346D01*
X137230261Y-128243989D01*
X137230264Y-128244001D01*
X137290602Y-128389672D01*
X137290609Y-128389685D01*
X137378210Y-128520788D01*
X137378213Y-128520792D01*
X137489707Y-128632286D01*
X137489711Y-128632289D01*
X137620814Y-128719890D01*
X137620827Y-128719897D01*
X137766498Y-128780235D01*
X137766503Y-128780237D01*
X137921153Y-128810999D01*
X137921156Y-128811000D01*
X137921158Y-128811000D01*
X138078844Y-128811000D01*
X138078845Y-128810999D01*
X138233497Y-128780237D01*
X138377098Y-128720756D01*
X138379172Y-128719897D01*
X138379172Y-128719896D01*
X138379179Y-128719894D01*
X138510289Y-128632289D01*
X138621789Y-128520789D01*
X138709394Y-128389679D01*
X138769737Y-128243997D01*
X138783079Y-128176917D01*
X138791843Y-128160161D01*
X138795864Y-128141681D01*
X138814605Y-128116646D01*
X138815462Y-128115008D01*
X138816897Y-128113546D01*
X138983127Y-127947316D01*
X139044450Y-127913834D01*
X139070807Y-127911000D01*
X156564071Y-127911000D01*
X156648615Y-127894182D01*
X156689744Y-127886001D01*
X156808127Y-127836965D01*
X156832386Y-127820756D01*
X156914669Y-127765777D01*
X157951524Y-126728920D01*
X158012845Y-126695437D01*
X158058596Y-126694130D01*
X158155637Y-126709500D01*
X158155639Y-126709500D01*
X158344368Y-126709500D01*
X158460828Y-126691054D01*
X158530767Y-126679977D01*
X158710256Y-126621657D01*
X158878413Y-126535977D01*
X159031096Y-126425046D01*
X159164546Y-126291596D01*
X159275182Y-126139318D01*
X159330512Y-126096653D01*
X159400125Y-126090674D01*
X159461920Y-126123280D01*
X159496278Y-126184119D01*
X159499500Y-126212204D01*
X159499500Y-148886000D01*
X159479815Y-148953039D01*
X159427011Y-148998794D01*
X159375500Y-149010000D01*
X131624500Y-149010000D01*
X131557461Y-148990315D01*
X131511706Y-148937511D01*
X131500500Y-148886000D01*
X131500500Y-142637292D01*
X132284500Y-142637292D01*
X132284500Y-142883707D01*
X132323048Y-143127090D01*
X132323048Y-143127093D01*
X132399192Y-143361440D01*
X132485688Y-143531197D01*
X132511064Y-143581001D01*
X132655903Y-143780355D01*
X132830145Y-143954597D01*
X133029499Y-144099436D01*
X133249057Y-144211306D01*
X133249059Y-144211307D01*
X133483407Y-144287451D01*
X133483408Y-144287451D01*
X133483411Y-144287452D01*
X133726792Y-144326000D01*
X133726793Y-144326000D01*
X133973207Y-144326000D01*
X133973208Y-144326000D01*
X134216589Y-144287452D01*
X134216592Y-144287451D01*
X134216593Y-144287451D01*
X134450940Y-144211307D01*
X134450940Y-144211306D01*
X134450943Y-144211306D01*
X134670501Y-144099436D01*
X134869855Y-143954597D01*
X135044097Y-143780355D01*
X135188936Y-143581001D01*
X135300806Y-143361443D01*
X135317623Y-143309686D01*
X135376951Y-143127093D01*
X135376951Y-143127092D01*
X135376952Y-143127089D01*
X135415500Y-142883708D01*
X135415500Y-142828782D01*
X137266408Y-142828782D01*
X137297750Y-143073437D01*
X137368627Y-143309684D01*
X137368628Y-143309686D01*
X137368630Y-143309691D01*
X137418187Y-143410850D01*
X137477144Y-143531197D01*
X137620374Y-143731999D01*
X137620380Y-143732006D01*
X137794487Y-143906722D01*
X137794492Y-143906726D01*
X137994791Y-144050656D01*
X137994797Y-144050659D01*
X138215918Y-144159944D01*
X138215919Y-144159944D01*
X138215921Y-144159945D01*
X138451926Y-144231649D01*
X138696474Y-144263844D01*
X138762914Y-144265467D01*
X138769995Y-144265641D01*
X138769996Y-144265640D01*
X138770000Y-144265641D01*
X139015829Y-144245430D01*
X139255055Y-144185341D01*
X139481256Y-144086986D01*
X139688355Y-143953008D01*
X139870790Y-143787004D01*
X140023664Y-143593432D01*
X140142869Y-143377492D01*
X140148351Y-143362014D01*
X140225203Y-143144991D01*
X140225203Y-143144989D01*
X140225206Y-143144982D01*
X140225208Y-143144971D01*
X140268461Y-142902148D01*
X140268909Y-142865493D01*
X140271475Y-142655507D01*
X140271264Y-142654129D01*
X140270812Y-142651171D01*
X140270812Y-142651170D01*
X140268688Y-142637292D01*
X140584500Y-142637292D01*
X140584500Y-142883707D01*
X140623048Y-143127090D01*
X140623048Y-143127093D01*
X140699192Y-143361440D01*
X140785688Y-143531197D01*
X140811064Y-143581001D01*
X140955903Y-143780355D01*
X141130145Y-143954597D01*
X141329499Y-144099436D01*
X141549057Y-144211306D01*
X141549059Y-144211307D01*
X141783407Y-144287451D01*
X141783408Y-144287451D01*
X141783411Y-144287452D01*
X142026792Y-144326000D01*
X142026793Y-144326000D01*
X142273207Y-144326000D01*
X142273208Y-144326000D01*
X142516589Y-144287452D01*
X142516592Y-144287451D01*
X142516593Y-144287451D01*
X142750940Y-144211307D01*
X142750940Y-144211306D01*
X142750943Y-144211306D01*
X142970501Y-144099436D01*
X143169855Y-143954597D01*
X143344097Y-143780355D01*
X143488936Y-143581001D01*
X143600515Y-143362013D01*
X143648489Y-143311218D01*
X143716310Y-143294423D01*
X143782445Y-143316960D01*
X143825897Y-143371675D01*
X143835000Y-143418309D01*
X143835000Y-143773344D01*
X143841401Y-143832872D01*
X143841403Y-143832879D01*
X143891645Y-143967586D01*
X143891649Y-143967593D01*
X143977809Y-144082687D01*
X143977812Y-144082690D01*
X144092906Y-144168850D01*
X144092913Y-144168854D01*
X144227620Y-144219096D01*
X144227627Y-144219098D01*
X144287155Y-144225499D01*
X144287172Y-144225500D01*
X145000000Y-144225500D01*
X145000000Y-143317206D01*
X145072069Y-143347058D01*
X145189920Y-143370500D01*
X145310080Y-143370500D01*
X145427931Y-143347058D01*
X145500000Y-143317206D01*
X145500000Y-144225500D01*
X146212828Y-144225500D01*
X146212844Y-144225499D01*
X146272372Y-144219098D01*
X146272379Y-144219096D01*
X146407086Y-144168854D01*
X146407093Y-144168850D01*
X146522187Y-144082690D01*
X146522190Y-144082687D01*
X146608350Y-143967593D01*
X146608354Y-143967586D01*
X146658596Y-143832879D01*
X146658598Y-143832872D01*
X146664999Y-143773344D01*
X146665000Y-143773327D01*
X146665000Y-143418309D01*
X146684685Y-143351270D01*
X146737489Y-143305515D01*
X146806647Y-143295571D01*
X146870203Y-143324596D01*
X146899484Y-143362013D01*
X147011064Y-143581001D01*
X147155903Y-143780355D01*
X147330145Y-143954597D01*
X147529499Y-144099436D01*
X147749057Y-144211306D01*
X147749059Y-144211307D01*
X147983407Y-144287451D01*
X147983408Y-144287451D01*
X147983411Y-144287452D01*
X148226792Y-144326000D01*
X148226793Y-144326000D01*
X148473207Y-144326000D01*
X148473208Y-144326000D01*
X148716589Y-144287452D01*
X148716592Y-144287451D01*
X148716593Y-144287451D01*
X148950940Y-144211307D01*
X148950940Y-144211306D01*
X148950943Y-144211306D01*
X149170501Y-144099436D01*
X149369855Y-143954597D01*
X149544097Y-143780355D01*
X149688936Y-143581001D01*
X149800806Y-143361443D01*
X149817623Y-143309686D01*
X149876951Y-143127093D01*
X149876951Y-143127092D01*
X149876952Y-143127089D01*
X149915500Y-142883708D01*
X149915500Y-142865494D01*
X150228525Y-142865494D01*
X150228525Y-142865495D01*
X150265834Y-143109309D01*
X150265837Y-143109319D01*
X150342466Y-143343767D01*
X150456356Y-143562548D01*
X150456358Y-143562551D01*
X150456360Y-143562554D01*
X150479544Y-143593432D01*
X150604456Y-143759801D01*
X150782779Y-143930210D01*
X150782792Y-143930220D01*
X150986547Y-144069212D01*
X150986552Y-144069214D01*
X151210268Y-144173060D01*
X151210275Y-144173062D01*
X151210278Y-144173064D01*
X151447965Y-144238981D01*
X151693226Y-144265192D01*
X151939475Y-144250993D01*
X151939479Y-144250992D01*
X152180092Y-144196768D01*
X152180094Y-144196767D01*
X152180099Y-144196766D01*
X152408634Y-144103968D01*
X152618945Y-143975089D01*
X152805382Y-143813592D01*
X152962939Y-143623813D01*
X153087385Y-143410850D01*
X153175377Y-143180421D01*
X153224553Y-142938715D01*
X153233592Y-142692222D01*
X153228889Y-142655507D01*
X153227950Y-142648176D01*
X153226556Y-142637292D01*
X155084500Y-142637292D01*
X155084500Y-142883707D01*
X155123048Y-143127090D01*
X155123048Y-143127093D01*
X155199192Y-143361440D01*
X155285688Y-143531197D01*
X155311064Y-143581001D01*
X155455903Y-143780355D01*
X155630145Y-143954597D01*
X155829499Y-144099436D01*
X156049057Y-144211306D01*
X156049059Y-144211307D01*
X156283407Y-144287451D01*
X156283408Y-144287451D01*
X156283411Y-144287452D01*
X156526792Y-144326000D01*
X156526793Y-144326000D01*
X156773207Y-144326000D01*
X156773208Y-144326000D01*
X157016589Y-144287452D01*
X157016592Y-144287451D01*
X157016593Y-144287451D01*
X157250940Y-144211307D01*
X157250940Y-144211306D01*
X157250943Y-144211306D01*
X157470501Y-144099436D01*
X157669855Y-143954597D01*
X157844097Y-143780355D01*
X157988936Y-143581001D01*
X158100806Y-143361443D01*
X158117623Y-143309686D01*
X158176951Y-143127093D01*
X158176951Y-143127092D01*
X158176952Y-143127089D01*
X158215500Y-142883708D01*
X158215500Y-142637292D01*
X158176952Y-142393911D01*
X158176951Y-142393907D01*
X158176951Y-142393906D01*
X158100807Y-142159559D01*
X158096191Y-142150500D01*
X157988936Y-141939999D01*
X157844097Y-141740645D01*
X157669855Y-141566403D01*
X157470501Y-141421564D01*
X157351745Y-141361055D01*
X157250940Y-141309692D01*
X157016592Y-141233548D01*
X156834053Y-141204637D01*
X156773208Y-141195000D01*
X156526792Y-141195000D01*
X156445665Y-141207849D01*
X156283409Y-141233548D01*
X156283406Y-141233548D01*
X156049059Y-141309692D01*
X155829498Y-141421564D01*
X155630142Y-141566405D01*
X155455905Y-141740642D01*
X155311064Y-141939998D01*
X155199192Y-142159559D01*
X155123048Y-142393906D01*
X155123048Y-142393909D01*
X155084500Y-142637292D01*
X153226556Y-142637292D01*
X153210312Y-142510500D01*
X153202250Y-142447564D01*
X153131370Y-142211309D01*
X153022856Y-141989803D01*
X152879621Y-141788995D01*
X152705512Y-141614277D01*
X152705507Y-141614273D01*
X152505208Y-141470343D01*
X152505202Y-141470340D01*
X152284081Y-141361055D01*
X152284076Y-141361054D01*
X152200491Y-141335659D01*
X152048074Y-141289351D01*
X152048070Y-141289350D01*
X152048072Y-141289350D01*
X151803540Y-141257157D01*
X151803529Y-141257156D01*
X151803526Y-141257156D01*
X151793606Y-141256913D01*
X151730004Y-141255358D01*
X151729992Y-141255359D01*
X151484168Y-141275570D01*
X151244944Y-141335659D01*
X151244936Y-141335662D01*
X151018746Y-141434012D01*
X150811644Y-141567992D01*
X150811643Y-141567993D01*
X150629211Y-141733994D01*
X150476338Y-141927564D01*
X150476336Y-141927567D01*
X150357130Y-142143508D01*
X150357126Y-142143517D01*
X150274796Y-142376008D01*
X150274791Y-142376028D01*
X150231538Y-142618851D01*
X150228525Y-142865494D01*
X149915500Y-142865494D01*
X149915500Y-142637292D01*
X149876952Y-142393911D01*
X149876951Y-142393907D01*
X149876951Y-142393906D01*
X149800807Y-142159559D01*
X149796191Y-142150500D01*
X149688936Y-141939999D01*
X149544097Y-141740645D01*
X149369855Y-141566403D01*
X149170501Y-141421564D01*
X149051745Y-141361055D01*
X148950940Y-141309692D01*
X148716592Y-141233548D01*
X148534053Y-141204637D01*
X148473208Y-141195000D01*
X148226792Y-141195000D01*
X148145665Y-141207849D01*
X147983409Y-141233548D01*
X147983406Y-141233548D01*
X147749059Y-141309692D01*
X147529498Y-141421564D01*
X147330142Y-141566405D01*
X147155905Y-141740642D01*
X147011064Y-141939998D01*
X146899485Y-142158985D01*
X146851510Y-142209781D01*
X146783689Y-142226576D01*
X146717554Y-142204039D01*
X146674103Y-142149323D01*
X146665000Y-142102690D01*
X146665000Y-141747672D01*
X146664999Y-141747655D01*
X146658598Y-141688127D01*
X146658596Y-141688120D01*
X146608354Y-141553413D01*
X146608350Y-141553406D01*
X146522190Y-141438312D01*
X146522187Y-141438309D01*
X146407093Y-141352149D01*
X146407086Y-141352145D01*
X146272379Y-141301903D01*
X146272372Y-141301901D01*
X146212844Y-141295500D01*
X145500000Y-141295500D01*
X145500000Y-142203793D01*
X145427931Y-142173942D01*
X145310080Y-142150500D01*
X145189920Y-142150500D01*
X145072069Y-142173942D01*
X145000000Y-142203793D01*
X145000000Y-141295500D01*
X144287155Y-141295500D01*
X144227627Y-141301901D01*
X144227620Y-141301903D01*
X144092913Y-141352145D01*
X144092906Y-141352149D01*
X143977812Y-141438309D01*
X143977809Y-141438312D01*
X143891649Y-141553406D01*
X143891645Y-141553413D01*
X143841403Y-141688120D01*
X143841401Y-141688127D01*
X143835000Y-141747655D01*
X143835000Y-142102690D01*
X143815315Y-142169729D01*
X143762511Y-142215484D01*
X143693353Y-142225428D01*
X143629797Y-142196403D01*
X143600515Y-142158985D01*
X143514312Y-141989802D01*
X143488936Y-141939999D01*
X143344097Y-141740645D01*
X143169855Y-141566403D01*
X142970501Y-141421564D01*
X142851745Y-141361055D01*
X142750940Y-141309692D01*
X142516592Y-141233548D01*
X142334053Y-141204637D01*
X142273208Y-141195000D01*
X142026792Y-141195000D01*
X141945665Y-141207849D01*
X141783409Y-141233548D01*
X141783406Y-141233548D01*
X141549059Y-141309692D01*
X141329498Y-141421564D01*
X141130142Y-141566405D01*
X140955905Y-141740642D01*
X140811064Y-141939998D01*
X140699192Y-142159559D01*
X140623048Y-142393906D01*
X140623048Y-142393909D01*
X140584500Y-142637292D01*
X140268688Y-142637292D01*
X140234165Y-142411690D01*
X140234165Y-142411687D01*
X140157534Y-142177234D01*
X140143617Y-142150500D01*
X140043643Y-141958451D01*
X140043641Y-141958448D01*
X140043640Y-141958446D01*
X139895542Y-141761197D01*
X139819071Y-141688120D01*
X139717220Y-141590789D01*
X139717207Y-141590779D01*
X139513452Y-141451787D01*
X139513447Y-141451785D01*
X139289731Y-141347939D01*
X139289723Y-141347936D01*
X139052039Y-141282020D01*
X139052038Y-141282019D01*
X139052035Y-141282019D01*
X138991691Y-141275570D01*
X138806774Y-141255807D01*
X138560525Y-141270007D01*
X138560520Y-141270007D01*
X138319907Y-141324231D01*
X138091363Y-141417033D01*
X137881052Y-141545912D01*
X137694619Y-141707407D01*
X137537062Y-141897185D01*
X137537054Y-141897196D01*
X137412614Y-142110150D01*
X137324624Y-142340572D01*
X137275447Y-142582285D01*
X137266408Y-142828782D01*
X135415500Y-142828782D01*
X135415500Y-142637292D01*
X135376952Y-142393911D01*
X135376951Y-142393907D01*
X135376951Y-142393906D01*
X135300807Y-142159559D01*
X135296191Y-142150500D01*
X135188936Y-141939999D01*
X135044097Y-141740645D01*
X134869855Y-141566403D01*
X134670501Y-141421564D01*
X134551745Y-141361055D01*
X134450940Y-141309692D01*
X134216592Y-141233548D01*
X134034053Y-141204637D01*
X133973208Y-141195000D01*
X133726792Y-141195000D01*
X133645665Y-141207849D01*
X133483409Y-141233548D01*
X133483406Y-141233548D01*
X133249059Y-141309692D01*
X133029498Y-141421564D01*
X132830142Y-141566405D01*
X132655905Y-141740642D01*
X132511064Y-141939998D01*
X132399192Y-142159559D01*
X132323048Y-142393906D01*
X132323048Y-142393909D01*
X132284500Y-142637292D01*
X131500500Y-142637292D01*
X131500500Y-124261133D01*
X131520185Y-124194094D01*
X131572989Y-124148339D01*
X131642147Y-124138395D01*
X131705703Y-124167420D01*
X131724819Y-124188248D01*
X131769896Y-124250292D01*
X131920213Y-124400609D01*
X132092179Y-124525548D01*
X132092181Y-124525549D01*
X132092184Y-124525551D01*
X132281588Y-124622057D01*
X132483757Y-124687746D01*
X132693713Y-124721000D01*
X132693714Y-124721000D01*
X132906286Y-124721000D01*
X132906287Y-124721000D01*
X133116243Y-124687746D01*
X133318412Y-124622057D01*
X133507816Y-124525551D01*
X133529789Y-124509586D01*
X133679786Y-124400609D01*
X133679788Y-124400606D01*
X133679792Y-124400604D01*
X133830104Y-124250292D01*
X133847480Y-124226376D01*
X133886903Y-124172115D01*
X133942233Y-124129449D01*
X133987221Y-124121000D01*
X134253420Y-124121000D01*
X134358035Y-124100190D01*
X134427626Y-124106417D01*
X134482804Y-124149279D01*
X134506049Y-124215169D01*
X134506227Y-124221807D01*
X134506227Y-124226381D01*
X134533822Y-124400609D01*
X134535750Y-124412780D01*
X134594070Y-124592269D01*
X134679750Y-124760426D01*
X134790681Y-124913109D01*
X134924131Y-125046559D01*
X135076814Y-125157490D01*
X135081792Y-125160026D01*
X135132589Y-125207999D01*
X135149500Y-125270512D01*
X135149500Y-126639691D01*
X135129815Y-126706730D01*
X135113181Y-126727372D01*
X133344727Y-128495825D01*
X133344724Y-128495828D01*
X133283830Y-128586963D01*
X133283831Y-128586964D01*
X133273536Y-128602371D01*
X133273533Y-128602377D01*
X133224499Y-128720755D01*
X133224497Y-128720761D01*
X133199500Y-128846428D01*
X133199500Y-130478956D01*
X133179815Y-130545995D01*
X133131795Y-130589441D01*
X133029498Y-130641564D01*
X132830142Y-130786405D01*
X132655905Y-130960642D01*
X132511064Y-131159998D01*
X132399192Y-131379559D01*
X132323048Y-131613906D01*
X132323048Y-131613909D01*
X132284500Y-131857292D01*
X132284500Y-132103707D01*
X132323048Y-132347090D01*
X132323048Y-132347093D01*
X132399192Y-132581440D01*
X132485688Y-132751197D01*
X132511064Y-132801001D01*
X132655903Y-133000355D01*
X132830145Y-133174597D01*
X133029499Y-133319436D01*
X133249057Y-133431306D01*
X133249059Y-133431307D01*
X133483407Y-133507451D01*
X133483408Y-133507451D01*
X133483411Y-133507452D01*
X133726792Y-133546000D01*
X133726793Y-133546000D01*
X133973207Y-133546000D01*
X133973208Y-133546000D01*
X134216589Y-133507452D01*
X134216592Y-133507451D01*
X134216593Y-133507451D01*
X134450940Y-133431307D01*
X134450940Y-133431306D01*
X134450943Y-133431306D01*
X134670501Y-133319436D01*
X134869855Y-133174597D01*
X135044097Y-133000355D01*
X135188936Y-132801001D01*
X135300806Y-132581443D01*
X135317623Y-132529686D01*
X135376951Y-132347093D01*
X135376951Y-132347092D01*
X135376952Y-132347089D01*
X135415500Y-132103708D01*
X135415500Y-132048782D01*
X137266408Y-132048782D01*
X137297750Y-132293437D01*
X137368627Y-132529684D01*
X137368628Y-132529686D01*
X137368630Y-132529691D01*
X137418187Y-132630850D01*
X137477144Y-132751197D01*
X137620374Y-132951999D01*
X137620380Y-132952006D01*
X137794487Y-133126722D01*
X137794492Y-133126726D01*
X137994791Y-133270656D01*
X137994797Y-133270659D01*
X138215918Y-133379944D01*
X138215919Y-133379944D01*
X138215921Y-133379945D01*
X138451926Y-133451649D01*
X138696474Y-133483844D01*
X138762914Y-133485467D01*
X138769995Y-133485641D01*
X138769996Y-133485640D01*
X138770000Y-133485641D01*
X139015829Y-133465430D01*
X139255055Y-133405341D01*
X139481256Y-133306986D01*
X139688355Y-133173008D01*
X139870790Y-133007004D01*
X140023664Y-132813432D01*
X140142869Y-132597492D01*
X140148351Y-132582014D01*
X140225203Y-132364991D01*
X140225203Y-132364989D01*
X140225206Y-132364982D01*
X140225208Y-132364971D01*
X140268461Y-132122148D01*
X140268909Y-132085493D01*
X140271475Y-131875507D01*
X140271264Y-131874129D01*
X140270812Y-131871171D01*
X140270812Y-131871170D01*
X140268688Y-131857292D01*
X140584500Y-131857292D01*
X140584500Y-132103707D01*
X140623048Y-132347090D01*
X140623048Y-132347093D01*
X140699192Y-132581440D01*
X140785688Y-132751197D01*
X140811064Y-132801001D01*
X140955903Y-133000355D01*
X141130145Y-133174597D01*
X141329499Y-133319436D01*
X141549057Y-133431306D01*
X141549059Y-133431307D01*
X141783407Y-133507451D01*
X141783408Y-133507451D01*
X141783411Y-133507452D01*
X142026792Y-133546000D01*
X142026793Y-133546000D01*
X142273207Y-133546000D01*
X142273208Y-133546000D01*
X142516589Y-133507452D01*
X142516592Y-133507451D01*
X142516593Y-133507451D01*
X142750940Y-133431307D01*
X142750940Y-133431306D01*
X142750943Y-133431306D01*
X142970501Y-133319436D01*
X143169855Y-133174597D01*
X143344097Y-133000355D01*
X143488936Y-132801001D01*
X143600515Y-132582013D01*
X143648489Y-132531218D01*
X143716310Y-132514423D01*
X143782445Y-132536960D01*
X143825897Y-132591675D01*
X143835000Y-132638309D01*
X143835000Y-132993344D01*
X143841401Y-133052872D01*
X143841403Y-133052879D01*
X143891645Y-133187586D01*
X143891649Y-133187593D01*
X143977809Y-133302687D01*
X143977812Y-133302690D01*
X144092906Y-133388850D01*
X144092913Y-133388854D01*
X144227620Y-133439096D01*
X144227627Y-133439098D01*
X144287155Y-133445499D01*
X144287172Y-133445500D01*
X145000000Y-133445500D01*
X145000000Y-132537206D01*
X145072069Y-132567058D01*
X145189920Y-132590500D01*
X145310080Y-132590500D01*
X145427931Y-132567058D01*
X145500000Y-132537206D01*
X145500000Y-133445500D01*
X146212828Y-133445500D01*
X146212844Y-133445499D01*
X146272372Y-133439098D01*
X146272379Y-133439096D01*
X146407086Y-133388854D01*
X146407093Y-133388850D01*
X146522187Y-133302690D01*
X146522190Y-133302687D01*
X146608350Y-133187593D01*
X146608354Y-133187586D01*
X146658596Y-133052879D01*
X146658598Y-133052872D01*
X146664999Y-132993344D01*
X146665000Y-132993327D01*
X146665000Y-132638309D01*
X146684685Y-132571270D01*
X146737489Y-132525515D01*
X146806647Y-132515571D01*
X146870203Y-132544596D01*
X146899484Y-132582013D01*
X147011064Y-132801001D01*
X147155903Y-133000355D01*
X147330145Y-133174597D01*
X147529499Y-133319436D01*
X147749057Y-133431306D01*
X147749059Y-133431307D01*
X147983407Y-133507451D01*
X147983408Y-133507451D01*
X147983411Y-133507452D01*
X148226792Y-133546000D01*
X148226793Y-133546000D01*
X148473207Y-133546000D01*
X148473208Y-133546000D01*
X148716589Y-133507452D01*
X148716592Y-133507451D01*
X148716593Y-133507451D01*
X148950940Y-133431307D01*
X148950940Y-133431306D01*
X148950943Y-133431306D01*
X149170501Y-133319436D01*
X149369855Y-133174597D01*
X149544097Y-133000355D01*
X149688936Y-132801001D01*
X149800806Y-132581443D01*
X149817623Y-132529686D01*
X149876951Y-132347093D01*
X149876951Y-132347092D01*
X149876952Y-132347089D01*
X149915500Y-132103708D01*
X149915500Y-132085494D01*
X150228525Y-132085494D01*
X150228525Y-132085495D01*
X150265834Y-132329309D01*
X150265837Y-132329319D01*
X150342466Y-132563767D01*
X150456356Y-132782548D01*
X150456358Y-132782551D01*
X150456360Y-132782554D01*
X150479544Y-132813432D01*
X150604456Y-132979801D01*
X150782779Y-133150210D01*
X150782792Y-133150220D01*
X150986547Y-133289212D01*
X150986552Y-133289214D01*
X151210268Y-133393060D01*
X151210275Y-133393062D01*
X151210278Y-133393064D01*
X151447965Y-133458981D01*
X151693226Y-133485192D01*
X151939475Y-133470993D01*
X151939479Y-133470992D01*
X152180092Y-133416768D01*
X152180094Y-133416767D01*
X152180099Y-133416766D01*
X152408634Y-133323968D01*
X152618945Y-133195089D01*
X152805382Y-133033592D01*
X152962939Y-132843813D01*
X153087385Y-132630850D01*
X153175377Y-132400421D01*
X153224553Y-132158715D01*
X153233592Y-131912222D01*
X153228889Y-131875507D01*
X153227950Y-131868176D01*
X153226556Y-131857292D01*
X155084500Y-131857292D01*
X155084500Y-132103707D01*
X155123048Y-132347090D01*
X155123048Y-132347093D01*
X155199192Y-132581440D01*
X155285688Y-132751197D01*
X155311064Y-132801001D01*
X155455903Y-133000355D01*
X155630145Y-133174597D01*
X155829499Y-133319436D01*
X156049057Y-133431306D01*
X156049059Y-133431307D01*
X156283407Y-133507451D01*
X156283408Y-133507451D01*
X156283411Y-133507452D01*
X156526792Y-133546000D01*
X156526793Y-133546000D01*
X156773207Y-133546000D01*
X156773208Y-133546000D01*
X157016589Y-133507452D01*
X157016592Y-133507451D01*
X157016593Y-133507451D01*
X157250940Y-133431307D01*
X157250940Y-133431306D01*
X157250943Y-133431306D01*
X157470501Y-133319436D01*
X157669855Y-133174597D01*
X157844097Y-133000355D01*
X157988936Y-132801001D01*
X158100806Y-132581443D01*
X158117623Y-132529686D01*
X158176951Y-132347093D01*
X158176951Y-132347092D01*
X158176952Y-132347089D01*
X158215500Y-132103708D01*
X158215500Y-131857292D01*
X158176952Y-131613911D01*
X158176951Y-131613907D01*
X158176951Y-131613906D01*
X158100807Y-131379559D01*
X158096191Y-131370500D01*
X157988936Y-131159999D01*
X157844097Y-130960645D01*
X157669855Y-130786403D01*
X157470501Y-130641564D01*
X157461606Y-130637032D01*
X157250940Y-130529692D01*
X157016592Y-130453548D01*
X156834053Y-130424637D01*
X156773208Y-130415000D01*
X156526792Y-130415000D01*
X156445665Y-130427849D01*
X156283409Y-130453548D01*
X156283406Y-130453548D01*
X156049059Y-130529692D01*
X155829498Y-130641564D01*
X155630142Y-130786405D01*
X155455905Y-130960642D01*
X155311064Y-131159998D01*
X155199192Y-131379559D01*
X155123048Y-131613906D01*
X155123048Y-131613909D01*
X155084500Y-131857292D01*
X153226556Y-131857292D01*
X153210312Y-131730500D01*
X153202250Y-131667564D01*
X153131370Y-131431309D01*
X153022856Y-131209803D01*
X152956792Y-131117185D01*
X152879625Y-131009000D01*
X152879619Y-131008993D01*
X152705512Y-130834277D01*
X152705507Y-130834273D01*
X152505208Y-130690343D01*
X152505202Y-130690340D01*
X152284081Y-130581055D01*
X152284076Y-130581054D01*
X152200491Y-130555659D01*
X152048074Y-130509351D01*
X152048070Y-130509350D01*
X152048072Y-130509350D01*
X151803540Y-130477157D01*
X151803529Y-130477156D01*
X151803526Y-130477156D01*
X151793606Y-130476913D01*
X151730004Y-130475358D01*
X151729992Y-130475359D01*
X151484168Y-130495570D01*
X151244944Y-130555659D01*
X151244936Y-130555662D01*
X151018746Y-130654012D01*
X150811644Y-130787992D01*
X150811643Y-130787993D01*
X150629211Y-130953994D01*
X150476338Y-131147564D01*
X150476336Y-131147567D01*
X150357130Y-131363508D01*
X150357126Y-131363517D01*
X150274796Y-131596008D01*
X150274791Y-131596028D01*
X150231538Y-131838851D01*
X150228525Y-132085494D01*
X149915500Y-132085494D01*
X149915500Y-131857292D01*
X149876952Y-131613911D01*
X149876951Y-131613907D01*
X149876951Y-131613906D01*
X149800807Y-131379559D01*
X149796191Y-131370500D01*
X149688936Y-131159999D01*
X149544097Y-130960645D01*
X149369855Y-130786403D01*
X149170501Y-130641564D01*
X149161606Y-130637032D01*
X148950940Y-130529692D01*
X148716592Y-130453548D01*
X148534053Y-130424637D01*
X148473208Y-130415000D01*
X148226792Y-130415000D01*
X148145665Y-130427849D01*
X147983409Y-130453548D01*
X147983406Y-130453548D01*
X147749059Y-130529692D01*
X147529498Y-130641564D01*
X147330142Y-130786405D01*
X147155905Y-130960642D01*
X147011064Y-131159998D01*
X146899485Y-131378985D01*
X146851510Y-131429781D01*
X146783689Y-131446576D01*
X146717554Y-131424039D01*
X146674103Y-131369323D01*
X146665000Y-131322690D01*
X146665000Y-130967672D01*
X146664999Y-130967655D01*
X146658598Y-130908127D01*
X146658596Y-130908120D01*
X146608354Y-130773413D01*
X146608350Y-130773406D01*
X146522190Y-130658312D01*
X146522187Y-130658309D01*
X146407093Y-130572149D01*
X146407086Y-130572145D01*
X146272379Y-130521903D01*
X146272372Y-130521901D01*
X146212844Y-130515500D01*
X145500000Y-130515500D01*
X145500000Y-131423793D01*
X145427931Y-131393942D01*
X145310080Y-131370500D01*
X145189920Y-131370500D01*
X145072069Y-131393942D01*
X145000000Y-131423793D01*
X145000000Y-130515500D01*
X144287155Y-130515500D01*
X144227627Y-130521901D01*
X144227620Y-130521903D01*
X144092913Y-130572145D01*
X144092906Y-130572149D01*
X143977812Y-130658309D01*
X143977809Y-130658312D01*
X143891649Y-130773406D01*
X143891645Y-130773413D01*
X143841403Y-130908120D01*
X143841401Y-130908127D01*
X143835000Y-130967655D01*
X143835000Y-131322690D01*
X143815315Y-131389729D01*
X143762511Y-131435484D01*
X143693353Y-131445428D01*
X143629797Y-131416403D01*
X143600515Y-131378985D01*
X143514312Y-131209802D01*
X143488936Y-131159999D01*
X143344097Y-130960645D01*
X143169855Y-130786403D01*
X142970501Y-130641564D01*
X142961606Y-130637032D01*
X142750940Y-130529692D01*
X142516592Y-130453548D01*
X142334053Y-130424637D01*
X142273208Y-130415000D01*
X142026792Y-130415000D01*
X141945665Y-130427849D01*
X141783409Y-130453548D01*
X141783406Y-130453548D01*
X141549059Y-130529692D01*
X141329498Y-130641564D01*
X141130142Y-130786405D01*
X140955905Y-130960642D01*
X140811064Y-131159998D01*
X140699192Y-131379559D01*
X140623048Y-131613906D01*
X140623048Y-131613909D01*
X140584500Y-131857292D01*
X140268688Y-131857292D01*
X140234165Y-131631690D01*
X140234165Y-131631687D01*
X140157534Y-131397234D01*
X140143617Y-131370500D01*
X140043643Y-131178451D01*
X140043641Y-131178448D01*
X140043640Y-131178446D01*
X139895542Y-130981197D01*
X139755687Y-130847549D01*
X139717220Y-130810789D01*
X139717207Y-130810779D01*
X139513452Y-130671787D01*
X139513447Y-130671785D01*
X139289731Y-130567939D01*
X139289723Y-130567936D01*
X139052039Y-130502020D01*
X139052038Y-130502019D01*
X139052035Y-130502019D01*
X138991691Y-130495570D01*
X138806774Y-130475807D01*
X138560525Y-130490007D01*
X138560520Y-130490007D01*
X138319907Y-130544231D01*
X138091363Y-130637033D01*
X137881052Y-130765912D01*
X137694619Y-130927407D01*
X137537062Y-131117185D01*
X137537054Y-131117196D01*
X137412614Y-131330150D01*
X137324624Y-131560572D01*
X137275447Y-131802285D01*
X137266408Y-132048782D01*
X135415500Y-132048782D01*
X135415500Y-131857292D01*
X135376952Y-131613911D01*
X135376951Y-131613907D01*
X135376951Y-131613906D01*
X135300807Y-131379559D01*
X135233565Y-131247589D01*
X135222432Y-131215482D01*
X135221658Y-131211588D01*
X135165084Y-131075006D01*
X135165082Y-131075003D01*
X135165080Y-131074999D01*
X135082951Y-130952085D01*
X135082948Y-130952081D01*
X134978418Y-130847551D01*
X134978414Y-130847548D01*
X134855500Y-130765419D01*
X134855485Y-130765411D01*
X134835261Y-130757034D01*
X134809830Y-130742792D01*
X134670504Y-130641566D01*
X134670503Y-130641565D01*
X134670501Y-130641564D01*
X134620127Y-130615897D01*
X134568205Y-130589441D01*
X134517409Y-130541466D01*
X134500500Y-130478956D01*
X134500500Y-129231308D01*
X134520185Y-129164269D01*
X134536819Y-129143627D01*
X136305271Y-127375175D01*
X136305276Y-127375170D01*
X136340870Y-127321898D01*
X136376464Y-127268629D01*
X136388006Y-127240764D01*
X136425501Y-127150244D01*
X136441312Y-127070757D01*
X136450500Y-127024569D01*
X136450500Y-125133744D01*
X136470185Y-125066705D01*
X136486819Y-125046063D01*
X136532675Y-125000207D01*
X136619773Y-124913109D01*
X136730704Y-124760426D01*
X136816384Y-124592269D01*
X136874704Y-124412780D01*
X136895191Y-124283430D01*
X136904227Y-124226381D01*
X136904227Y-124037644D01*
X136882455Y-123900184D01*
X136874704Y-123851246D01*
X136816384Y-123671757D01*
X136730704Y-123503600D01*
X136619773Y-123350917D01*
X136486323Y-123217467D01*
X136333640Y-123106536D01*
X136165483Y-123020856D01*
X135985994Y-122962536D01*
X135985992Y-122962535D01*
X135935297Y-122954506D01*
X135872163Y-122924576D01*
X135835232Y-122865265D01*
X135836230Y-122795402D01*
X135867013Y-122744354D01*
X137482452Y-121128916D01*
X137548039Y-121030756D01*
X137564584Y-121005995D01*
X137621158Y-120869413D01*
X137630596Y-120821962D01*
X137650000Y-120724420D01*
X137650000Y-120476131D01*
X153801000Y-120476131D01*
X153801000Y-120664868D01*
X153830522Y-120851263D01*
X153830523Y-120851267D01*
X153888843Y-121030756D01*
X153974523Y-121198913D01*
X154085454Y-121351596D01*
X154218904Y-121485046D01*
X154371587Y-121595977D01*
X154539744Y-121681657D01*
X154719233Y-121739977D01*
X154789134Y-121751048D01*
X154905632Y-121769500D01*
X154905637Y-121769500D01*
X155094368Y-121769500D01*
X155197920Y-121753098D01*
X155280767Y-121739977D01*
X155460256Y-121681657D01*
X155628413Y-121595977D01*
X155781096Y-121485046D01*
X155914546Y-121351596D01*
X156025477Y-121198913D01*
X156111157Y-121030756D01*
X156169477Y-120851267D01*
X156183192Y-120764674D01*
X156199000Y-120664868D01*
X156199000Y-120476131D01*
X156169477Y-120289736D01*
X156169477Y-120289733D01*
X156111157Y-120110244D01*
X156025477Y-119942087D01*
X155914546Y-119789404D01*
X155781096Y-119655954D01*
X155628413Y-119545023D01*
X155460256Y-119459343D01*
X155280767Y-119401023D01*
X155280765Y-119401022D01*
X155280763Y-119401022D01*
X155094368Y-119371500D01*
X155094363Y-119371500D01*
X154905637Y-119371500D01*
X154905632Y-119371500D01*
X154719236Y-119401022D01*
X154539741Y-119459344D01*
X154371586Y-119545023D01*
X154285256Y-119607746D01*
X154218904Y-119655954D01*
X154218902Y-119655956D01*
X154218901Y-119655956D01*
X154085456Y-119789401D01*
X154085456Y-119789402D01*
X154085454Y-119789404D01*
X154037813Y-119854975D01*
X153974523Y-119942086D01*
X153888844Y-120110241D01*
X153830522Y-120289736D01*
X153801000Y-120476131D01*
X137650000Y-120476131D01*
X137650000Y-119915604D01*
X137659439Y-119868151D01*
X137669237Y-119844497D01*
X137700000Y-119689842D01*
X137700000Y-119532158D01*
X137700000Y-119532155D01*
X137699999Y-119532153D01*
X137683716Y-119450292D01*
X137669237Y-119377503D01*
X137669235Y-119377498D01*
X137608897Y-119231827D01*
X137608890Y-119231814D01*
X137521289Y-119100711D01*
X137521286Y-119100707D01*
X137409792Y-118989213D01*
X137409788Y-118989210D01*
X137278685Y-118901609D01*
X137278672Y-118901602D01*
X137133001Y-118841264D01*
X137132989Y-118841261D01*
X136978345Y-118810500D01*
X136978342Y-118810500D01*
X136820658Y-118810500D01*
X136820655Y-118810500D01*
X136666010Y-118841261D01*
X136665998Y-118841264D01*
X136520327Y-118901602D01*
X136520314Y-118901609D01*
X136389211Y-118989210D01*
X136389207Y-118989213D01*
X136277713Y-119100707D01*
X136277710Y-119100711D01*
X136190109Y-119231814D01*
X136190102Y-119231827D01*
X136129764Y-119377498D01*
X136129761Y-119377510D01*
X136099000Y-119532153D01*
X136099000Y-119689846D01*
X136129761Y-119844489D01*
X136129763Y-119844497D01*
X136139561Y-119868151D01*
X136149000Y-119915604D01*
X136149000Y-120288269D01*
X136129315Y-120355308D01*
X136112681Y-120375950D01*
X134001694Y-122486936D01*
X133940371Y-122520421D01*
X133870679Y-122515437D01*
X133826332Y-122486936D01*
X133679786Y-122340390D01*
X133507817Y-122215449D01*
X133498504Y-122210704D01*
X133447707Y-122162730D01*
X133430912Y-122094909D01*
X133453449Y-122028774D01*
X133498507Y-121989732D01*
X133507555Y-121985122D01*
X133561716Y-121945770D01*
X133561717Y-121945770D01*
X132929408Y-121313462D01*
X132992993Y-121296425D01*
X133107007Y-121230599D01*
X133200099Y-121137507D01*
X133265925Y-121023493D01*
X133282962Y-120959908D01*
X133915270Y-121592217D01*
X133915270Y-121592216D01*
X133954622Y-121538054D01*
X134051095Y-121348717D01*
X134116757Y-121146630D01*
X134116757Y-121146627D01*
X134150000Y-120936746D01*
X134150000Y-120724253D01*
X134116757Y-120514372D01*
X134116757Y-120514369D01*
X134051095Y-120312282D01*
X133954624Y-120122949D01*
X133915270Y-120068782D01*
X133915269Y-120068782D01*
X133282962Y-120701090D01*
X133265925Y-120637507D01*
X133200099Y-120523493D01*
X133107007Y-120430401D01*
X132992993Y-120364575D01*
X132929409Y-120347537D01*
X133561716Y-119715228D01*
X133507547Y-119675873D01*
X133507547Y-119675872D01*
X133498500Y-119671263D01*
X133447706Y-119623288D01*
X133430912Y-119555466D01*
X133453451Y-119489332D01*
X133498508Y-119450293D01*
X133507816Y-119445551D01*
X133609739Y-119371500D01*
X133679786Y-119320609D01*
X133679788Y-119320606D01*
X133679792Y-119320604D01*
X133830104Y-119170292D01*
X133830106Y-119170288D01*
X133830109Y-119170286D01*
X133955048Y-118998320D01*
X133955047Y-118998320D01*
X133955051Y-118998316D01*
X134051557Y-118808912D01*
X134117246Y-118606743D01*
X134150500Y-118396787D01*
X134150500Y-118184213D01*
X134117246Y-117974257D01*
X134051557Y-117772088D01*
X133955051Y-117582684D01*
X133955049Y-117582681D01*
X133955048Y-117582679D01*
X133830109Y-117410713D01*
X133679786Y-117260390D01*
X133507820Y-117135451D01*
X133507115Y-117135091D01*
X133499054Y-117130985D01*
X133448259Y-117083012D01*
X133431463Y-117015192D01*
X133453999Y-116949056D01*
X133499054Y-116910015D01*
X133507816Y-116905551D01*
X133543123Y-116879899D01*
X133679786Y-116780609D01*
X133679788Y-116780606D01*
X133679792Y-116780604D01*
X133830104Y-116630292D01*
X133830106Y-116630288D01*
X133830109Y-116630286D01*
X133955048Y-116458320D01*
X133955047Y-116458320D01*
X133955051Y-116458316D01*
X133975774Y-116417644D01*
X134506227Y-116417644D01*
X134506227Y-116606381D01*
X134535749Y-116792776D01*
X134535750Y-116792780D01*
X134594070Y-116972269D01*
X134679750Y-117140426D01*
X134790681Y-117293109D01*
X134924131Y-117426559D01*
X135076814Y-117537490D01*
X135244971Y-117623170D01*
X135424460Y-117681490D01*
X135494361Y-117692561D01*
X135610859Y-117711013D01*
X135610864Y-117711013D01*
X135799595Y-117711013D01*
X135903147Y-117694611D01*
X135985994Y-117681490D01*
X136165483Y-117623170D01*
X136333640Y-117537490D01*
X136486323Y-117426559D01*
X136619773Y-117293109D01*
X136730704Y-117140426D01*
X136816384Y-116972269D01*
X136846397Y-116879899D01*
X137166000Y-116879899D01*
X137166000Y-117120300D01*
X137166001Y-117120317D01*
X137188749Y-117293110D01*
X137197380Y-117358663D01*
X137211326Y-117410709D01*
X137259605Y-117590889D01*
X137351604Y-117812994D01*
X137351609Y-117813005D01*
X137471808Y-118021194D01*
X137471819Y-118021210D01*
X137618165Y-118211933D01*
X137618171Y-118211940D01*
X137788159Y-118381928D01*
X137788165Y-118381933D01*
X137978898Y-118528287D01*
X137978905Y-118528291D01*
X138187094Y-118648490D01*
X138187099Y-118648492D01*
X138187102Y-118648494D01*
X138409215Y-118740496D01*
X138641437Y-118802720D01*
X138879793Y-118834100D01*
X138879800Y-118834100D01*
X139120200Y-118834100D01*
X139120207Y-118834100D01*
X139358563Y-118802720D01*
X139590785Y-118740496D01*
X139812898Y-118648494D01*
X140021102Y-118528287D01*
X140211835Y-118381933D01*
X140381833Y-118211935D01*
X140528187Y-118021202D01*
X140648394Y-117812998D01*
X140740396Y-117590885D01*
X140802620Y-117358663D01*
X140834000Y-117120307D01*
X140834000Y-116879899D01*
X149666000Y-116879899D01*
X149666000Y-117120300D01*
X149666001Y-117120317D01*
X149688749Y-117293110D01*
X149697380Y-117358663D01*
X149711326Y-117410709D01*
X149759605Y-117590889D01*
X149851604Y-117812994D01*
X149851609Y-117813005D01*
X149971808Y-118021194D01*
X149971819Y-118021210D01*
X150118165Y-118211933D01*
X150118171Y-118211940D01*
X150288159Y-118381928D01*
X150288165Y-118381933D01*
X150478898Y-118528287D01*
X150478905Y-118528291D01*
X150687094Y-118648490D01*
X150687099Y-118648492D01*
X150687102Y-118648494D01*
X150909215Y-118740496D01*
X151141437Y-118802720D01*
X151379793Y-118834100D01*
X151379800Y-118834100D01*
X151620200Y-118834100D01*
X151620207Y-118834100D01*
X151858563Y-118802720D01*
X152090785Y-118740496D01*
X152312898Y-118648494D01*
X152521102Y-118528287D01*
X152711835Y-118381933D01*
X152881833Y-118211935D01*
X153028187Y-118021202D01*
X153148394Y-117812998D01*
X153240396Y-117590885D01*
X153302620Y-117358663D01*
X153334000Y-117120307D01*
X153334000Y-116879893D01*
X153302620Y-116641537D01*
X153240396Y-116409315D01*
X153148394Y-116187202D01*
X153148392Y-116187199D01*
X153148390Y-116187194D01*
X153078844Y-116066739D01*
X153028187Y-115978998D01*
X152979948Y-115916131D01*
X156801000Y-115916131D01*
X156801000Y-116104868D01*
X156830522Y-116291263D01*
X156830523Y-116291267D01*
X156888843Y-116470756D01*
X156974523Y-116638913D01*
X157085454Y-116791596D01*
X157218904Y-116925046D01*
X157371587Y-117035977D01*
X157539744Y-117121657D01*
X157719233Y-117179977D01*
X157789134Y-117191048D01*
X157905632Y-117209500D01*
X157905637Y-117209500D01*
X158094368Y-117209500D01*
X158197920Y-117193098D01*
X158280767Y-117179977D01*
X158460256Y-117121657D01*
X158628413Y-117035977D01*
X158781096Y-116925046D01*
X158914546Y-116791596D01*
X159025477Y-116638913D01*
X159111157Y-116470756D01*
X159169477Y-116291267D01*
X159185960Y-116187194D01*
X159199000Y-116104868D01*
X159199000Y-115916131D01*
X159178746Y-115788259D01*
X159169477Y-115729733D01*
X159111157Y-115550244D01*
X159025477Y-115382087D01*
X158914546Y-115229404D01*
X158781096Y-115095954D01*
X158628413Y-114985023D01*
X158460256Y-114899343D01*
X158280767Y-114841023D01*
X158280765Y-114841022D01*
X158280763Y-114841022D01*
X158094368Y-114811500D01*
X158094363Y-114811500D01*
X157905637Y-114811500D01*
X157905632Y-114811500D01*
X157719236Y-114841022D01*
X157539741Y-114899344D01*
X157371586Y-114985023D01*
X157292224Y-115042684D01*
X157218904Y-115095954D01*
X157218902Y-115095956D01*
X157218901Y-115095956D01*
X157085456Y-115229401D01*
X157085456Y-115229402D01*
X157085454Y-115229404D01*
X157083504Y-115232088D01*
X156974523Y-115382086D01*
X156888844Y-115550241D01*
X156830522Y-115729736D01*
X156801000Y-115916131D01*
X152979948Y-115916131D01*
X152881833Y-115788265D01*
X152881828Y-115788259D01*
X152711840Y-115618271D01*
X152711833Y-115618265D01*
X152521110Y-115471919D01*
X152521108Y-115471917D01*
X152521102Y-115471913D01*
X152521097Y-115471910D01*
X152521094Y-115471908D01*
X152312905Y-115351709D01*
X152312894Y-115351704D01*
X152090789Y-115259705D01*
X151858559Y-115197479D01*
X151620217Y-115166101D01*
X151620212Y-115166100D01*
X151620207Y-115166100D01*
X151379793Y-115166100D01*
X151379787Y-115166100D01*
X151379782Y-115166101D01*
X151141440Y-115197479D01*
X150909210Y-115259705D01*
X150687105Y-115351704D01*
X150687094Y-115351709D01*
X150478905Y-115471908D01*
X150478889Y-115471919D01*
X150288166Y-115618265D01*
X150288159Y-115618271D01*
X150118171Y-115788259D01*
X150118165Y-115788266D01*
X149971819Y-115978989D01*
X149971808Y-115979005D01*
X149851609Y-116187194D01*
X149851604Y-116187205D01*
X149759605Y-116409310D01*
X149697379Y-116641540D01*
X149666001Y-116879882D01*
X149666000Y-116879899D01*
X140834000Y-116879899D01*
X140834000Y-116879893D01*
X140802620Y-116641537D01*
X140740396Y-116409315D01*
X140648394Y-116187202D01*
X140648392Y-116187199D01*
X140648390Y-116187194D01*
X140528191Y-115979005D01*
X140528187Y-115978998D01*
X140381833Y-115788265D01*
X140381828Y-115788259D01*
X140211840Y-115618271D01*
X140211833Y-115618265D01*
X140021110Y-115471919D01*
X140021108Y-115471917D01*
X140021102Y-115471913D01*
X140021097Y-115471910D01*
X140021094Y-115471908D01*
X139812905Y-115351709D01*
X139812894Y-115351704D01*
X139590789Y-115259705D01*
X139358559Y-115197479D01*
X139120217Y-115166101D01*
X139120212Y-115166100D01*
X139120207Y-115166100D01*
X138879793Y-115166100D01*
X138879787Y-115166100D01*
X138879782Y-115166101D01*
X138641440Y-115197479D01*
X138409210Y-115259705D01*
X138187105Y-115351704D01*
X138187094Y-115351709D01*
X137978905Y-115471908D01*
X137978889Y-115471919D01*
X137788166Y-115618265D01*
X137788159Y-115618271D01*
X137618171Y-115788259D01*
X137618165Y-115788266D01*
X137471819Y-115978989D01*
X137471808Y-115979005D01*
X137351609Y-116187194D01*
X137351604Y-116187205D01*
X137259605Y-116409310D01*
X137197379Y-116641540D01*
X137166001Y-116879882D01*
X137166000Y-116879899D01*
X136846397Y-116879899D01*
X136874704Y-116792780D01*
X136898658Y-116641540D01*
X136904227Y-116606381D01*
X136904227Y-116417644D01*
X136880670Y-116268914D01*
X136874704Y-116231246D01*
X136816384Y-116051757D01*
X136730704Y-115883600D01*
X136619773Y-115730917D01*
X136486323Y-115597467D01*
X136333640Y-115486536D01*
X136165483Y-115400856D01*
X135985994Y-115342536D01*
X135985992Y-115342535D01*
X135985990Y-115342535D01*
X135799595Y-115313013D01*
X135799590Y-115313013D01*
X135610864Y-115313013D01*
X135610859Y-115313013D01*
X135424463Y-115342535D01*
X135244968Y-115400857D01*
X135076813Y-115486536D01*
X134989702Y-115549826D01*
X134924131Y-115597467D01*
X134924129Y-115597469D01*
X134924128Y-115597469D01*
X134790683Y-115730914D01*
X134790683Y-115730915D01*
X134790681Y-115730917D01*
X134749015Y-115788265D01*
X134679750Y-115883599D01*
X134594071Y-116051754D01*
X134535749Y-116231249D01*
X134506227Y-116417644D01*
X133975774Y-116417644D01*
X134051557Y-116268912D01*
X134117246Y-116066743D01*
X134150500Y-115856787D01*
X134150500Y-115644213D01*
X134117246Y-115434257D01*
X134111039Y-115415153D01*
X134109044Y-115345312D01*
X134141287Y-115289157D01*
X135793127Y-113637319D01*
X135854450Y-113603834D01*
X135880808Y-113601000D01*
X153927389Y-113601000D01*
X153994428Y-113620685D01*
X154027705Y-113652113D01*
X154085454Y-113731596D01*
X154218904Y-113865046D01*
X154371587Y-113975977D01*
X154539744Y-114061657D01*
X154719233Y-114119977D01*
X154789134Y-114131048D01*
X154905632Y-114149500D01*
X154905637Y-114149500D01*
X155094368Y-114149500D01*
X155197920Y-114133098D01*
X155280767Y-114119977D01*
X155460256Y-114061657D01*
X155628413Y-113975977D01*
X155781096Y-113865046D01*
X155914546Y-113731596D01*
X156025477Y-113578913D01*
X156111157Y-113410756D01*
X156169477Y-113231267D01*
X156189600Y-113104213D01*
X156199000Y-113044868D01*
X156199000Y-112856131D01*
X156179318Y-112731867D01*
X156169477Y-112669733D01*
X156111157Y-112490244D01*
X156025477Y-112322087D01*
X155914546Y-112169404D01*
X155781096Y-112035954D01*
X155628413Y-111925023D01*
X155460256Y-111839343D01*
X155374075Y-111811341D01*
X155316401Y-111771904D01*
X155289203Y-111707546D01*
X155301118Y-111638700D01*
X155324711Y-111605733D01*
X157402701Y-109527743D01*
X157464022Y-109494260D01*
X157533714Y-109499244D01*
X157537834Y-109500865D01*
X157539732Y-109501651D01*
X157539744Y-109501657D01*
X157719233Y-109559977D01*
X157789134Y-109571048D01*
X157905632Y-109589500D01*
X157905637Y-109589500D01*
X158094368Y-109589500D01*
X158197920Y-109573098D01*
X158280767Y-109559977D01*
X158460256Y-109501657D01*
X158628413Y-109415977D01*
X158781096Y-109305046D01*
X158914546Y-109171596D01*
X159025477Y-109018913D01*
X159111157Y-108850756D01*
X159169477Y-108671267D01*
X159182598Y-108588420D01*
X159199000Y-108484868D01*
X159199000Y-108296131D01*
X159174180Y-108139427D01*
X159169477Y-108109733D01*
X159111157Y-107930244D01*
X159025477Y-107762087D01*
X158914546Y-107609404D01*
X158781096Y-107475954D01*
X158628413Y-107365023D01*
X158557302Y-107328790D01*
X158460258Y-107279344D01*
X158460257Y-107279343D01*
X158460256Y-107279343D01*
X158280767Y-107221023D01*
X158280765Y-107221022D01*
X158280763Y-107221022D01*
X158094368Y-107191500D01*
X158094363Y-107191500D01*
X157905637Y-107191500D01*
X157905632Y-107191500D01*
X157719236Y-107221022D01*
X157539741Y-107279344D01*
X157371586Y-107365023D01*
X157344095Y-107384997D01*
X157218904Y-107475954D01*
X157218902Y-107475956D01*
X157218901Y-107475956D01*
X157085456Y-107609401D01*
X157085456Y-107609402D01*
X157085454Y-107609404D01*
X157083504Y-107612088D01*
X156974523Y-107762086D01*
X156888844Y-107930241D01*
X156830522Y-108109735D01*
X156808540Y-108248522D01*
X156778610Y-108311656D01*
X156773748Y-108316804D01*
X154016873Y-111073681D01*
X153955550Y-111107166D01*
X153929192Y-111110000D01*
X148177301Y-111110000D01*
X148110262Y-111090315D01*
X148064507Y-111037511D01*
X148054563Y-110968353D01*
X148083588Y-110904797D01*
X148138983Y-110868069D01*
X148328255Y-110806571D01*
X148328258Y-110806570D01*
X148329167Y-110806107D01*
X148524913Y-110706369D01*
X148703472Y-110576638D01*
X148859538Y-110420572D01*
X148989269Y-110242013D01*
X149089470Y-110045358D01*
X149157673Y-109835449D01*
X149192200Y-109617456D01*
X149192200Y-109396744D01*
X149157673Y-109178751D01*
X149089470Y-108968842D01*
X149089470Y-108968841D01*
X149029302Y-108850756D01*
X148989269Y-108772187D01*
X148859538Y-108593628D01*
X148703472Y-108437562D01*
X148524913Y-108307831D01*
X148328258Y-108207629D01*
X148328255Y-108207628D01*
X148118350Y-108139427D01*
X147963941Y-108114971D01*
X147900356Y-108104900D01*
X147679644Y-108104900D01*
X147616059Y-108114971D01*
X147461649Y-108139427D01*
X147443813Y-108145222D01*
X147373972Y-108147215D01*
X147317817Y-108114971D01*
X146708074Y-107505227D01*
X146708073Y-107505226D01*
X146664264Y-107475954D01*
X146601527Y-107434035D01*
X146574123Y-107422684D01*
X146483144Y-107384999D01*
X146483138Y-107384997D01*
X146357471Y-107360000D01*
X146357469Y-107360000D01*
X137320808Y-107360000D01*
X137253769Y-107340315D01*
X137233127Y-107323681D01*
X136522816Y-106613370D01*
X136489331Y-106552047D01*
X136486497Y-106525689D01*
X136486497Y-106520057D01*
X136486496Y-106520055D01*
X136482516Y-106500046D01*
X136455734Y-106365405D01*
X136446652Y-106343478D01*
X136395394Y-106219729D01*
X136395387Y-106219716D01*
X136307786Y-106088613D01*
X136307783Y-106088609D01*
X136196289Y-105977115D01*
X136196285Y-105977112D01*
X136065182Y-105889511D01*
X136065169Y-105889504D01*
X135919498Y-105829166D01*
X135919486Y-105829163D01*
X135764842Y-105798402D01*
X135764839Y-105798402D01*
X135607155Y-105798402D01*
X135607152Y-105798402D01*
X135452507Y-105829163D01*
X135452495Y-105829166D01*
X135306824Y-105889504D01*
X135306811Y-105889511D01*
X135175708Y-105977112D01*
X135175704Y-105977115D01*
X135064210Y-106088609D01*
X135064207Y-106088613D01*
X134976606Y-106219716D01*
X134976599Y-106219729D01*
X134916261Y-106365400D01*
X134916258Y-106365412D01*
X134885497Y-106520055D01*
X134885497Y-106677748D01*
X134916258Y-106832391D01*
X134916261Y-106832403D01*
X134977805Y-106980984D01*
X134985274Y-107050453D01*
X134953999Y-107112932D01*
X134893910Y-107148584D01*
X134824084Y-107146090D01*
X134775563Y-107116117D01*
X134019670Y-106360224D01*
X133986185Y-106298901D01*
X133991169Y-106229209D01*
X133996862Y-106216256D01*
X134051557Y-106108912D01*
X134117246Y-105906743D01*
X134150500Y-105696787D01*
X134150500Y-105484213D01*
X134117246Y-105274257D01*
X134051557Y-105072088D01*
X133955051Y-104882684D01*
X133955049Y-104882681D01*
X133955048Y-104882679D01*
X133830109Y-104710713D01*
X133679786Y-104560390D01*
X133507820Y-104435451D01*
X133507115Y-104435091D01*
X133499054Y-104430985D01*
X133448259Y-104383012D01*
X133431463Y-104315192D01*
X133453999Y-104249056D01*
X133499054Y-104210015D01*
X133507816Y-104205551D01*
X133673929Y-104084864D01*
X133679786Y-104080609D01*
X133679788Y-104080606D01*
X133679792Y-104080604D01*
X133830104Y-103930292D01*
X133830106Y-103930288D01*
X133830109Y-103930286D01*
X133955048Y-103758320D01*
X133955047Y-103758320D01*
X133955051Y-103758316D01*
X134050679Y-103570635D01*
X138907500Y-103570635D01*
X138907500Y-106190370D01*
X138907501Y-106190376D01*
X138913908Y-106249983D01*
X138964202Y-106384828D01*
X138964206Y-106384835D01*
X139050452Y-106500044D01*
X139050455Y-106500047D01*
X139165664Y-106586293D01*
X139165671Y-106586297D01*
X139300517Y-106636591D01*
X139300516Y-106636591D01*
X139307444Y-106637335D01*
X139360127Y-106643000D01*
X140979872Y-106642999D01*
X141039483Y-106636591D01*
X141174331Y-106586296D01*
X141289546Y-106500046D01*
X141375796Y-106384831D01*
X141426091Y-106249983D01*
X141432500Y-106190373D01*
X141432499Y-106151697D01*
X141452182Y-106084661D01*
X141504985Y-106038905D01*
X141574143Y-106028960D01*
X141637699Y-106057983D01*
X141656817Y-106078812D01*
X141747019Y-106202964D01*
X141887536Y-106343481D01*
X142048306Y-106460287D01*
X142126333Y-106500044D01*
X142225367Y-106550505D01*
X142225370Y-106550506D01*
X142307069Y-106577051D01*
X142414364Y-106611913D01*
X142610639Y-106643000D01*
X142610640Y-106643000D01*
X142809360Y-106643000D01*
X142809361Y-106643000D01*
X143005636Y-106611913D01*
X143194632Y-106550505D01*
X143371694Y-106460287D01*
X143532464Y-106343481D01*
X143672981Y-106202964D01*
X143789787Y-106042194D01*
X143869515Y-105885718D01*
X143917490Y-105834923D01*
X143985311Y-105818128D01*
X144051446Y-105840665D01*
X144090484Y-105885718D01*
X144170213Y-106042194D01*
X144287019Y-106202964D01*
X144427536Y-106343481D01*
X144588306Y-106460287D01*
X144666333Y-106500044D01*
X144765367Y-106550505D01*
X144765370Y-106550506D01*
X144847069Y-106577051D01*
X144954364Y-106611913D01*
X145150639Y-106643000D01*
X145150640Y-106643000D01*
X145349360Y-106643000D01*
X145349361Y-106643000D01*
X145545636Y-106611913D01*
X145734632Y-106550505D01*
X145911694Y-106460287D01*
X146072464Y-106343481D01*
X146212981Y-106202964D01*
X146329787Y-106042194D01*
X146409515Y-105885718D01*
X146457490Y-105834923D01*
X146525311Y-105818128D01*
X146591446Y-105840665D01*
X146630484Y-105885718D01*
X146710213Y-106042194D01*
X146827019Y-106202964D01*
X146967536Y-106343481D01*
X147128306Y-106460287D01*
X147206333Y-106500044D01*
X147305367Y-106550505D01*
X147305370Y-106550506D01*
X147387069Y-106577051D01*
X147494364Y-106611913D01*
X147690639Y-106643000D01*
X147690640Y-106643000D01*
X147889360Y-106643000D01*
X147889361Y-106643000D01*
X148085636Y-106611913D01*
X148274632Y-106550505D01*
X148451694Y-106460287D01*
X148612464Y-106343481D01*
X148752981Y-106202964D01*
X148869787Y-106042194D01*
X148949515Y-105885718D01*
X148997490Y-105834923D01*
X149065311Y-105818128D01*
X149131446Y-105840665D01*
X149170484Y-105885718D01*
X149250213Y-106042194D01*
X149367019Y-106202964D01*
X149507536Y-106343481D01*
X149668306Y-106460287D01*
X149746333Y-106500044D01*
X149845367Y-106550505D01*
X149845370Y-106550506D01*
X149927069Y-106577051D01*
X150034364Y-106611913D01*
X150230639Y-106643000D01*
X150230640Y-106643000D01*
X150429360Y-106643000D01*
X150429361Y-106643000D01*
X150625636Y-106611913D01*
X150814632Y-106550505D01*
X150991694Y-106460287D01*
X151152464Y-106343481D01*
X151292981Y-106202964D01*
X151409787Y-106042194D01*
X151500005Y-105865132D01*
X151561413Y-105676136D01*
X151592500Y-105479861D01*
X151592500Y-104281139D01*
X151561413Y-104084864D01*
X151515277Y-103942871D01*
X151500006Y-103895870D01*
X151500005Y-103895867D01*
X151429918Y-103758316D01*
X151409787Y-103718806D01*
X151292981Y-103558036D01*
X151152464Y-103417519D01*
X150991694Y-103300713D01*
X150814632Y-103210494D01*
X150814629Y-103210493D01*
X150625637Y-103149087D01*
X150527498Y-103133543D01*
X150429361Y-103118000D01*
X150230639Y-103118000D01*
X150165214Y-103128362D01*
X150034362Y-103149087D01*
X149845370Y-103210493D01*
X149845367Y-103210494D01*
X149668305Y-103300713D01*
X149507533Y-103417521D01*
X149367021Y-103558033D01*
X149250213Y-103718805D01*
X149170485Y-103875280D01*
X149122510Y-103926076D01*
X149054689Y-103942871D01*
X148988554Y-103920333D01*
X148949515Y-103875280D01*
X148889918Y-103758316D01*
X148869787Y-103718806D01*
X148752981Y-103558036D01*
X148612464Y-103417519D01*
X148451694Y-103300713D01*
X148274632Y-103210494D01*
X148274629Y-103210493D01*
X148085637Y-103149087D01*
X147987498Y-103133543D01*
X147889361Y-103118000D01*
X147690639Y-103118000D01*
X147625214Y-103128362D01*
X147494362Y-103149087D01*
X147305370Y-103210493D01*
X147305367Y-103210494D01*
X147128305Y-103300713D01*
X146967533Y-103417521D01*
X146827021Y-103558033D01*
X146710213Y-103718805D01*
X146630485Y-103875280D01*
X146582510Y-103926076D01*
X146514689Y-103942871D01*
X146448554Y-103920333D01*
X146409515Y-103875280D01*
X146349918Y-103758316D01*
X146329787Y-103718806D01*
X146212981Y-103558036D01*
X146072464Y-103417519D01*
X145911694Y-103300713D01*
X145734632Y-103210494D01*
X145734629Y-103210493D01*
X145545637Y-103149087D01*
X145447498Y-103133543D01*
X145349361Y-103118000D01*
X145150639Y-103118000D01*
X145085214Y-103128362D01*
X144954362Y-103149087D01*
X144765370Y-103210493D01*
X144765367Y-103210494D01*
X144588305Y-103300713D01*
X144427533Y-103417521D01*
X144287021Y-103558033D01*
X144170213Y-103718805D01*
X144090485Y-103875280D01*
X144042510Y-103926076D01*
X143974689Y-103942871D01*
X143908554Y-103920333D01*
X143869515Y-103875280D01*
X143809918Y-103758316D01*
X143789787Y-103718806D01*
X143672981Y-103558036D01*
X143532464Y-103417519D01*
X143371694Y-103300713D01*
X143194632Y-103210494D01*
X143194629Y-103210493D01*
X143005637Y-103149087D01*
X142907498Y-103133543D01*
X142809361Y-103118000D01*
X142610639Y-103118000D01*
X142545214Y-103128362D01*
X142414362Y-103149087D01*
X142225370Y-103210493D01*
X142225367Y-103210494D01*
X142048305Y-103300713D01*
X141887533Y-103417521D01*
X141747021Y-103558033D01*
X141747021Y-103558034D01*
X141747019Y-103558036D01*
X141709772Y-103609302D01*
X141656817Y-103682188D01*
X141601487Y-103724853D01*
X141531873Y-103730832D01*
X141470078Y-103698226D01*
X141435721Y-103637387D01*
X141432499Y-103609302D01*
X141432499Y-103570629D01*
X141432498Y-103570623D01*
X141432497Y-103570616D01*
X141426091Y-103511017D01*
X141391219Y-103417521D01*
X141375797Y-103376171D01*
X141375793Y-103376164D01*
X141289547Y-103260955D01*
X141289544Y-103260952D01*
X141174335Y-103174706D01*
X141174328Y-103174702D01*
X141039482Y-103124408D01*
X141039483Y-103124408D01*
X140979883Y-103118001D01*
X140979881Y-103118000D01*
X140979873Y-103118000D01*
X140979864Y-103118000D01*
X139360129Y-103118000D01*
X139360123Y-103118001D01*
X139300516Y-103124408D01*
X139165671Y-103174702D01*
X139165664Y-103174706D01*
X139050455Y-103260952D01*
X139050452Y-103260955D01*
X138964206Y-103376164D01*
X138964202Y-103376171D01*
X138913908Y-103511017D01*
X138907684Y-103568912D01*
X138907501Y-103570623D01*
X138907500Y-103570635D01*
X134050679Y-103570635D01*
X134051557Y-103568912D01*
X134117246Y-103366743D01*
X134150500Y-103156787D01*
X134150500Y-102944213D01*
X134117246Y-102734257D01*
X134051557Y-102532088D01*
X133955051Y-102342684D01*
X133955049Y-102342681D01*
X133955048Y-102342679D01*
X133830109Y-102170713D01*
X133716569Y-102057173D01*
X133683084Y-101995850D01*
X133688068Y-101926158D01*
X133729940Y-101870225D01*
X133760915Y-101853310D01*
X133892331Y-101804296D01*
X134007546Y-101718046D01*
X134093796Y-101602831D01*
X134144091Y-101467983D01*
X134150500Y-101408373D01*
X134150499Y-100726131D01*
X156301000Y-100726131D01*
X156301000Y-100914868D01*
X156330522Y-101101263D01*
X156330523Y-101101267D01*
X156388843Y-101280756D01*
X156474523Y-101448913D01*
X156585454Y-101601596D01*
X156718904Y-101735046D01*
X156871587Y-101845977D01*
X157039744Y-101931657D01*
X157219233Y-101989977D01*
X157289134Y-102001048D01*
X157405632Y-102019500D01*
X157405637Y-102019500D01*
X157594368Y-102019500D01*
X157697920Y-102003098D01*
X157780767Y-101989977D01*
X157960256Y-101931657D01*
X158128413Y-101845977D01*
X158281096Y-101735046D01*
X158414546Y-101601596D01*
X158525477Y-101448913D01*
X158611157Y-101280756D01*
X158669477Y-101101267D01*
X158682598Y-101018420D01*
X158699000Y-100914868D01*
X158699000Y-100726131D01*
X158669477Y-100539736D01*
X158669477Y-100539733D01*
X158611157Y-100360244D01*
X158525477Y-100192087D01*
X158414546Y-100039404D01*
X158281096Y-99905954D01*
X158128413Y-99795023D01*
X157960256Y-99709343D01*
X157780767Y-99651023D01*
X157780765Y-99651022D01*
X157780763Y-99651022D01*
X157594368Y-99621500D01*
X157594363Y-99621500D01*
X157405637Y-99621500D01*
X157405632Y-99621500D01*
X157219236Y-99651022D01*
X157039741Y-99709344D01*
X156871586Y-99795023D01*
X156784475Y-99858313D01*
X156718904Y-99905954D01*
X156718902Y-99905956D01*
X156718901Y-99905956D01*
X156585456Y-100039401D01*
X156585456Y-100039402D01*
X156585454Y-100039404D01*
X156537813Y-100104975D01*
X156474523Y-100192086D01*
X156388844Y-100360241D01*
X156330522Y-100539736D01*
X156301000Y-100726131D01*
X134150499Y-100726131D01*
X134150499Y-100360244D01*
X134150499Y-99612629D01*
X134150498Y-99612623D01*
X134144091Y-99553016D01*
X134093797Y-99418171D01*
X134093793Y-99418164D01*
X134007547Y-99302955D01*
X134007544Y-99302952D01*
X133892335Y-99216706D01*
X133892328Y-99216702D01*
X133757482Y-99166408D01*
X133757483Y-99166408D01*
X133697883Y-99160001D01*
X133697881Y-99160000D01*
X133697873Y-99160000D01*
X133697864Y-99160000D01*
X131902129Y-99160000D01*
X131902123Y-99160001D01*
X131842516Y-99166408D01*
X131707671Y-99216702D01*
X131707665Y-99216706D01*
X131698810Y-99223335D01*
X131633346Y-99247752D01*
X131565073Y-99232900D01*
X131515668Y-99183495D01*
X131500500Y-99124068D01*
X131500500Y-95756004D01*
X131520185Y-95688965D01*
X131572989Y-95643210D01*
X131642147Y-95633266D01*
X131705703Y-95662291D01*
X131712181Y-95668323D01*
X131718904Y-95675046D01*
X131871587Y-95785977D01*
X132039744Y-95871657D01*
X132219233Y-95929977D01*
X132289134Y-95941048D01*
X132405632Y-95959500D01*
X132405637Y-95959500D01*
X132594361Y-95959500D01*
X132594363Y-95959500D01*
X132691400Y-95944130D01*
X132760689Y-95953084D01*
X132798476Y-95978922D01*
X135335325Y-98515772D01*
X135335332Y-98515778D01*
X135423320Y-98574569D01*
X135423321Y-98574569D01*
X135441873Y-98586965D01*
X135560256Y-98636001D01*
X135560260Y-98636001D01*
X135560261Y-98636002D01*
X135685928Y-98661000D01*
X135685931Y-98661000D01*
X138363122Y-98661000D01*
X138430161Y-98680685D01*
X138475916Y-98733489D01*
X138477784Y-98738430D01*
X138477932Y-98738369D01*
X138540602Y-98889672D01*
X138540609Y-98889685D01*
X138628210Y-99020788D01*
X138628213Y-99020792D01*
X138739707Y-99132286D01*
X138739711Y-99132289D01*
X138870814Y-99219890D01*
X138870827Y-99219897D01*
X139016498Y-99280235D01*
X139016503Y-99280237D01*
X139171153Y-99310999D01*
X139171156Y-99311000D01*
X139171158Y-99311000D01*
X139328844Y-99311000D01*
X139328845Y-99310999D01*
X139483497Y-99280237D01*
X139596166Y-99233567D01*
X139629172Y-99219897D01*
X139629172Y-99219896D01*
X139629179Y-99219894D01*
X139760289Y-99132289D01*
X139871789Y-99020789D01*
X139959394Y-98889679D01*
X140019737Y-98743997D01*
X140050500Y-98589342D01*
X140050500Y-98431658D01*
X140050500Y-98431655D01*
X140050499Y-98431653D01*
X140019738Y-98277010D01*
X140019737Y-98277003D01*
X140019735Y-98276998D01*
X139959397Y-98131327D01*
X139959390Y-98131314D01*
X139871789Y-98000211D01*
X139871786Y-98000207D01*
X139760292Y-97888713D01*
X139760288Y-97888710D01*
X139629185Y-97801109D01*
X139629172Y-97801102D01*
X139483501Y-97740764D01*
X139483489Y-97740761D01*
X139416420Y-97727420D01*
X139354509Y-97695035D01*
X139352930Y-97693484D01*
X139164674Y-97505227D01*
X139164673Y-97505226D01*
X139164669Y-97505223D01*
X139058127Y-97434035D01*
X138939744Y-97384999D01*
X138939738Y-97384997D01*
X138814071Y-97360000D01*
X138814069Y-97360000D01*
X136070808Y-97360000D01*
X136003769Y-97340315D01*
X135983127Y-97323681D01*
X133718422Y-95058976D01*
X133684937Y-94997653D01*
X133683630Y-94951902D01*
X133699000Y-94854863D01*
X133699000Y-94666137D01*
X133699000Y-94666131D01*
X135051000Y-94666131D01*
X135051000Y-94854868D01*
X135066368Y-94951896D01*
X135080523Y-95041267D01*
X135138843Y-95220756D01*
X135224523Y-95388913D01*
X135335454Y-95541596D01*
X135468904Y-95675046D01*
X135621587Y-95785977D01*
X135789744Y-95871657D01*
X135969233Y-95929977D01*
X136039134Y-95941048D01*
X136155632Y-95959500D01*
X136155637Y-95959500D01*
X136344368Y-95959500D01*
X136447920Y-95943098D01*
X136530767Y-95929977D01*
X136710256Y-95871657D01*
X136878413Y-95785977D01*
X137031096Y-95675046D01*
X137164546Y-95541596D01*
X137222293Y-95462113D01*
X137277623Y-95419449D01*
X137322611Y-95411000D01*
X137929192Y-95411000D01*
X137996231Y-95430685D01*
X138016873Y-95447319D01*
X141182984Y-98613430D01*
X141216469Y-98674753D01*
X141216920Y-98676920D01*
X141230261Y-98743989D01*
X141230264Y-98744001D01*
X141290602Y-98889672D01*
X141290609Y-98889685D01*
X141378210Y-99020788D01*
X141378213Y-99020792D01*
X141489707Y-99132286D01*
X141489711Y-99132289D01*
X141620814Y-99219890D01*
X141620827Y-99219897D01*
X141766498Y-99280235D01*
X141766503Y-99280237D01*
X141921153Y-99310999D01*
X141921156Y-99311000D01*
X141921158Y-99311000D01*
X142078844Y-99311000D01*
X142078845Y-99310999D01*
X142233497Y-99280237D01*
X142346166Y-99233567D01*
X142379172Y-99219897D01*
X142379172Y-99219896D01*
X142379179Y-99219894D01*
X142510289Y-99132289D01*
X142621789Y-99020789D01*
X142709394Y-98889679D01*
X142769737Y-98743997D01*
X142800500Y-98589342D01*
X142800500Y-98431658D01*
X142800500Y-98431655D01*
X142800499Y-98431653D01*
X142769738Y-98277010D01*
X142769737Y-98277003D01*
X142769735Y-98276998D01*
X142709397Y-98131327D01*
X142709390Y-98131314D01*
X142621789Y-98000211D01*
X142621786Y-98000207D01*
X142510292Y-97888713D01*
X142510288Y-97888710D01*
X142379185Y-97801109D01*
X142379172Y-97801102D01*
X142233501Y-97740764D01*
X142233489Y-97740761D01*
X142166420Y-97727420D01*
X142104509Y-97695035D01*
X142102930Y-97693484D01*
X140778392Y-96368946D01*
X140695577Y-96286131D01*
X152801000Y-96286131D01*
X152801000Y-96474868D01*
X152830522Y-96661263D01*
X152830523Y-96661267D01*
X152888843Y-96840756D01*
X152974523Y-97008913D01*
X153085454Y-97161596D01*
X153218904Y-97295046D01*
X153371587Y-97405977D01*
X153539744Y-97491657D01*
X153719233Y-97549977D01*
X153789134Y-97561048D01*
X153905632Y-97579500D01*
X153905637Y-97579500D01*
X154094368Y-97579500D01*
X154197920Y-97563098D01*
X154280767Y-97549977D01*
X154460256Y-97491657D01*
X154628413Y-97405977D01*
X154781096Y-97295046D01*
X154914546Y-97161596D01*
X155025477Y-97008913D01*
X155111157Y-96840756D01*
X155169477Y-96661267D01*
X155182598Y-96578420D01*
X155199000Y-96474868D01*
X155199000Y-96286131D01*
X155169477Y-96099736D01*
X155169477Y-96099733D01*
X155111157Y-95920244D01*
X155025477Y-95752087D01*
X154914546Y-95599404D01*
X154781096Y-95465954D01*
X154628413Y-95355023D01*
X154460256Y-95269343D01*
X154280767Y-95211023D01*
X154280765Y-95211022D01*
X154280763Y-95211022D01*
X154094368Y-95181500D01*
X154094363Y-95181500D01*
X153905637Y-95181500D01*
X153905632Y-95181500D01*
X153719236Y-95211022D01*
X153539741Y-95269344D01*
X153371586Y-95355023D01*
X153294541Y-95411000D01*
X153218904Y-95465954D01*
X153218902Y-95465956D01*
X153218901Y-95465956D01*
X153085456Y-95599401D01*
X153085456Y-95599402D01*
X153085454Y-95599404D01*
X153060852Y-95633266D01*
X152974523Y-95752086D01*
X152888844Y-95920241D01*
X152830522Y-96099736D01*
X152801000Y-96286131D01*
X140695577Y-96286131D01*
X138664674Y-94255227D01*
X138664673Y-94255226D01*
X138664669Y-94255223D01*
X138558127Y-94184035D01*
X138439744Y-94134999D01*
X138439738Y-94134997D01*
X138314071Y-94110000D01*
X138314069Y-94110000D01*
X137322611Y-94110000D01*
X137255572Y-94090315D01*
X137222293Y-94058886D01*
X137164546Y-93979404D01*
X137031096Y-93845954D01*
X136878413Y-93735023D01*
X136710256Y-93649343D01*
X136530767Y-93591023D01*
X136530765Y-93591022D01*
X136530763Y-93591022D01*
X136344368Y-93561500D01*
X136344363Y-93561500D01*
X136155637Y-93561500D01*
X136155632Y-93561500D01*
X135969236Y-93591022D01*
X135789741Y-93649344D01*
X135621586Y-93735023D01*
X135568157Y-93773842D01*
X135468904Y-93845954D01*
X135468902Y-93845956D01*
X135468901Y-93845956D01*
X135335456Y-93979401D01*
X135335456Y-93979402D01*
X135335454Y-93979404D01*
X135333861Y-93981597D01*
X135224523Y-94132086D01*
X135138844Y-94300241D01*
X135080522Y-94479736D01*
X135051000Y-94666131D01*
X133699000Y-94666131D01*
X133669477Y-94479736D01*
X133669477Y-94479733D01*
X133611157Y-94300244D01*
X133525477Y-94132087D01*
X133414546Y-93979404D01*
X133281096Y-93845954D01*
X133128413Y-93735023D01*
X132960256Y-93649343D01*
X132780767Y-93591023D01*
X132780765Y-93591022D01*
X132780763Y-93591022D01*
X132594368Y-93561500D01*
X132594363Y-93561500D01*
X132405637Y-93561500D01*
X132405632Y-93561500D01*
X132219236Y-93591022D01*
X132039741Y-93649344D01*
X131871586Y-93735023D01*
X131818157Y-93773842D01*
X131718904Y-93845954D01*
X131718902Y-93845956D01*
X131718901Y-93845956D01*
X131712181Y-93852677D01*
X131650858Y-93886162D01*
X131581166Y-93881178D01*
X131525233Y-93839306D01*
X131500816Y-93773842D01*
X131500500Y-93764996D01*
X131500500Y-93106131D01*
X156301000Y-93106131D01*
X156301000Y-93294868D01*
X156330522Y-93481263D01*
X156330523Y-93481267D01*
X156388843Y-93660756D01*
X156474523Y-93828913D01*
X156585454Y-93981596D01*
X156718904Y-94115046D01*
X156871587Y-94225977D01*
X157039744Y-94311657D01*
X157219233Y-94369977D01*
X157289134Y-94381048D01*
X157405632Y-94399500D01*
X157405637Y-94399500D01*
X157594368Y-94399500D01*
X157697920Y-94383098D01*
X157780767Y-94369977D01*
X157960256Y-94311657D01*
X158128413Y-94225977D01*
X158281096Y-94115046D01*
X158414546Y-93981596D01*
X158525477Y-93828913D01*
X158611157Y-93660756D01*
X158669477Y-93481267D01*
X158682598Y-93398420D01*
X158699000Y-93294868D01*
X158699000Y-93106131D01*
X158669477Y-92919736D01*
X158669477Y-92919733D01*
X158611157Y-92740244D01*
X158525477Y-92572087D01*
X158414546Y-92419404D01*
X158281096Y-92285954D01*
X158128413Y-92175023D01*
X157960256Y-92089343D01*
X157780767Y-92031023D01*
X157780765Y-92031022D01*
X157780763Y-92031022D01*
X157594368Y-92001500D01*
X157594363Y-92001500D01*
X157405637Y-92001500D01*
X157405632Y-92001500D01*
X157219236Y-92031022D01*
X157039741Y-92089344D01*
X156871586Y-92175023D01*
X156784475Y-92238313D01*
X156718904Y-92285954D01*
X156718902Y-92285956D01*
X156718901Y-92285956D01*
X156585456Y-92419401D01*
X156585456Y-92419402D01*
X156585454Y-92419404D01*
X156537813Y-92484975D01*
X156474523Y-92572086D01*
X156388844Y-92740241D01*
X156330522Y-92919736D01*
X156301000Y-93106131D01*
X131500500Y-93106131D01*
X131500500Y-89041139D01*
X138907500Y-89041139D01*
X138907500Y-90239860D01*
X138938587Y-90436137D01*
X138999993Y-90625129D01*
X138999994Y-90625132D01*
X139090213Y-90802194D01*
X139207019Y-90962964D01*
X139347536Y-91103481D01*
X139508306Y-91220287D01*
X139595149Y-91264535D01*
X139685367Y-91310505D01*
X139685370Y-91310506D01*
X139779866Y-91341209D01*
X139874364Y-91371913D01*
X140070639Y-91403000D01*
X140070640Y-91403000D01*
X140269360Y-91403000D01*
X140269361Y-91403000D01*
X140465636Y-91371913D01*
X140654632Y-91310505D01*
X140831694Y-91220287D01*
X140992464Y-91103481D01*
X141132981Y-90962964D01*
X141249787Y-90802194D01*
X141329515Y-90645718D01*
X141377490Y-90594923D01*
X141445311Y-90578128D01*
X141511446Y-90600665D01*
X141550484Y-90645718D01*
X141630213Y-90802194D01*
X141747019Y-90962964D01*
X141887536Y-91103481D01*
X142048306Y-91220287D01*
X142135149Y-91264535D01*
X142225367Y-91310505D01*
X142225370Y-91310506D01*
X142319866Y-91341209D01*
X142414364Y-91371913D01*
X142610639Y-91403000D01*
X142610640Y-91403000D01*
X142809360Y-91403000D01*
X142809361Y-91403000D01*
X143005636Y-91371913D01*
X143194632Y-91310505D01*
X143371694Y-91220287D01*
X143532464Y-91103481D01*
X143672981Y-90962964D01*
X143789787Y-90802194D01*
X143869515Y-90645718D01*
X143917490Y-90594923D01*
X143985311Y-90578128D01*
X144051446Y-90600665D01*
X144090484Y-90645718D01*
X144170213Y-90802194D01*
X144287019Y-90962964D01*
X144427536Y-91103481D01*
X144588306Y-91220287D01*
X144675149Y-91264535D01*
X144765367Y-91310505D01*
X144765370Y-91310506D01*
X144859866Y-91341209D01*
X144954364Y-91371913D01*
X145150639Y-91403000D01*
X145150640Y-91403000D01*
X145349360Y-91403000D01*
X145349361Y-91403000D01*
X145545636Y-91371913D01*
X145734632Y-91310505D01*
X145911694Y-91220287D01*
X146072464Y-91103481D01*
X146212981Y-90962964D01*
X146329787Y-90802194D01*
X146409515Y-90645718D01*
X146457490Y-90594923D01*
X146525311Y-90578128D01*
X146591446Y-90600665D01*
X146630484Y-90645718D01*
X146710213Y-90802194D01*
X146827019Y-90962964D01*
X146967536Y-91103481D01*
X147128306Y-91220287D01*
X147215149Y-91264535D01*
X147305367Y-91310505D01*
X147305370Y-91310506D01*
X147399866Y-91341209D01*
X147494364Y-91371913D01*
X147690639Y-91403000D01*
X147690640Y-91403000D01*
X147889360Y-91403000D01*
X147889361Y-91403000D01*
X148085636Y-91371913D01*
X148274632Y-91310505D01*
X148451694Y-91220287D01*
X148612464Y-91103481D01*
X148752981Y-90962964D01*
X148869787Y-90802194D01*
X148949515Y-90645718D01*
X148997490Y-90594923D01*
X149065311Y-90578128D01*
X149131446Y-90600665D01*
X149170484Y-90645718D01*
X149250213Y-90802194D01*
X149367019Y-90962964D01*
X149507536Y-91103481D01*
X149668306Y-91220287D01*
X149755149Y-91264535D01*
X149845367Y-91310505D01*
X149845370Y-91310506D01*
X149939866Y-91341209D01*
X150034364Y-91371913D01*
X150230639Y-91403000D01*
X150230640Y-91403000D01*
X150429360Y-91403000D01*
X150429361Y-91403000D01*
X150625636Y-91371913D01*
X150814632Y-91310505D01*
X150991694Y-91220287D01*
X151152464Y-91103481D01*
X151292981Y-90962964D01*
X151409787Y-90802194D01*
X151500005Y-90625132D01*
X151561413Y-90436136D01*
X151592500Y-90239861D01*
X151592500Y-89041139D01*
X151561413Y-88844864D01*
X151503340Y-88666131D01*
X152801000Y-88666131D01*
X152801000Y-88854868D01*
X152830522Y-89041263D01*
X152830523Y-89041267D01*
X152888843Y-89220756D01*
X152974523Y-89388913D01*
X153085454Y-89541596D01*
X153218904Y-89675046D01*
X153371587Y-89785977D01*
X153539744Y-89871657D01*
X153719233Y-89929977D01*
X153789134Y-89941048D01*
X153905632Y-89959500D01*
X153905637Y-89959500D01*
X154094368Y-89959500D01*
X154197920Y-89943098D01*
X154280767Y-89929977D01*
X154460256Y-89871657D01*
X154628413Y-89785977D01*
X154781096Y-89675046D01*
X154914546Y-89541596D01*
X155025477Y-89388913D01*
X155111157Y-89220756D01*
X155169477Y-89041267D01*
X155182598Y-88958420D01*
X155199000Y-88854868D01*
X155199000Y-88666131D01*
X155169477Y-88479736D01*
X155169477Y-88479733D01*
X155111157Y-88300244D01*
X155025477Y-88132087D01*
X154914546Y-87979404D01*
X154781096Y-87845954D01*
X154628413Y-87735023D01*
X154460256Y-87649343D01*
X154280767Y-87591023D01*
X154280765Y-87591022D01*
X154280763Y-87591022D01*
X154094368Y-87561500D01*
X154094363Y-87561500D01*
X153905637Y-87561500D01*
X153905632Y-87561500D01*
X153719236Y-87591022D01*
X153539741Y-87649344D01*
X153371586Y-87735023D01*
X153284475Y-87798313D01*
X153218904Y-87845954D01*
X153218902Y-87845956D01*
X153218901Y-87845956D01*
X153085456Y-87979401D01*
X153085456Y-87979402D01*
X153085454Y-87979404D01*
X153060852Y-88013266D01*
X152974523Y-88132086D01*
X152888844Y-88300241D01*
X152830522Y-88479736D01*
X152801000Y-88666131D01*
X151503340Y-88666131D01*
X151500005Y-88655868D01*
X151500005Y-88655867D01*
X151454035Y-88565649D01*
X151409787Y-88478806D01*
X151292981Y-88318036D01*
X151152464Y-88177519D01*
X150991694Y-88060713D01*
X150980566Y-88055043D01*
X150814632Y-87970494D01*
X150814629Y-87970493D01*
X150625637Y-87909087D01*
X150527498Y-87893543D01*
X150429361Y-87878000D01*
X150230639Y-87878000D01*
X150165214Y-87888362D01*
X150034362Y-87909087D01*
X149845370Y-87970493D01*
X149845367Y-87970494D01*
X149668305Y-88060713D01*
X149507533Y-88177521D01*
X149367021Y-88318033D01*
X149250213Y-88478805D01*
X149170485Y-88635280D01*
X149122510Y-88686076D01*
X149054689Y-88702871D01*
X148988554Y-88680333D01*
X148949515Y-88635280D01*
X148930179Y-88597332D01*
X148869787Y-88478806D01*
X148752981Y-88318036D01*
X148612464Y-88177519D01*
X148451694Y-88060713D01*
X148440566Y-88055043D01*
X148274632Y-87970494D01*
X148274629Y-87970493D01*
X148085637Y-87909087D01*
X147987498Y-87893543D01*
X147889361Y-87878000D01*
X147690639Y-87878000D01*
X147625214Y-87888362D01*
X147494362Y-87909087D01*
X147305370Y-87970493D01*
X147305367Y-87970494D01*
X147128305Y-88060713D01*
X146967533Y-88177521D01*
X146827021Y-88318033D01*
X146710213Y-88478805D01*
X146630485Y-88635280D01*
X146582510Y-88686076D01*
X146514689Y-88702871D01*
X146448554Y-88680333D01*
X146409515Y-88635280D01*
X146390179Y-88597332D01*
X146329787Y-88478806D01*
X146212981Y-88318036D01*
X146072464Y-88177519D01*
X145911694Y-88060713D01*
X145900566Y-88055043D01*
X145734632Y-87970494D01*
X145734629Y-87970493D01*
X145545637Y-87909087D01*
X145447498Y-87893543D01*
X145349361Y-87878000D01*
X145150639Y-87878000D01*
X145085214Y-87888362D01*
X144954362Y-87909087D01*
X144765370Y-87970493D01*
X144765367Y-87970494D01*
X144588305Y-88060713D01*
X144427533Y-88177521D01*
X144287021Y-88318033D01*
X144170213Y-88478805D01*
X144090485Y-88635280D01*
X144042510Y-88686076D01*
X143974689Y-88702871D01*
X143908554Y-88680333D01*
X143869515Y-88635280D01*
X143850179Y-88597332D01*
X143789787Y-88478806D01*
X143672981Y-88318036D01*
X143532464Y-88177519D01*
X143371694Y-88060713D01*
X143360566Y-88055043D01*
X143194632Y-87970494D01*
X143194629Y-87970493D01*
X143005637Y-87909087D01*
X142907498Y-87893543D01*
X142809361Y-87878000D01*
X142610639Y-87878000D01*
X142545214Y-87888362D01*
X142414362Y-87909087D01*
X142225370Y-87970493D01*
X142225367Y-87970494D01*
X142048305Y-88060713D01*
X141887533Y-88177521D01*
X141747021Y-88318033D01*
X141630213Y-88478805D01*
X141550485Y-88635280D01*
X141502510Y-88686076D01*
X141434689Y-88702871D01*
X141368554Y-88680333D01*
X141329515Y-88635280D01*
X141310179Y-88597332D01*
X141249787Y-88478806D01*
X141132981Y-88318036D01*
X140992464Y-88177519D01*
X140831694Y-88060713D01*
X140820566Y-88055043D01*
X140654632Y-87970494D01*
X140654629Y-87970493D01*
X140465637Y-87909087D01*
X140367498Y-87893543D01*
X140269361Y-87878000D01*
X140070639Y-87878000D01*
X140005214Y-87888362D01*
X139874362Y-87909087D01*
X139685370Y-87970493D01*
X139685367Y-87970494D01*
X139508305Y-88060713D01*
X139347533Y-88177521D01*
X139207021Y-88318033D01*
X139090213Y-88478805D01*
X138999994Y-88655867D01*
X138999993Y-88655870D01*
X138938587Y-88844862D01*
X138907500Y-89041139D01*
X131500500Y-89041139D01*
X131500500Y-88136004D01*
X131520185Y-88068965D01*
X131572989Y-88023210D01*
X131642147Y-88013266D01*
X131705703Y-88042291D01*
X131712181Y-88048323D01*
X131718904Y-88055046D01*
X131871587Y-88165977D01*
X132039744Y-88251657D01*
X132219233Y-88309977D01*
X132289134Y-88321048D01*
X132405632Y-88339500D01*
X132405637Y-88339500D01*
X132594368Y-88339500D01*
X132697920Y-88323098D01*
X132780767Y-88309977D01*
X132960256Y-88251657D01*
X133128413Y-88165977D01*
X133281096Y-88055046D01*
X133414546Y-87921596D01*
X133525477Y-87768913D01*
X133611157Y-87600756D01*
X133669477Y-87421267D01*
X133682598Y-87338420D01*
X133699000Y-87234868D01*
X133699000Y-87046139D01*
X133698999Y-87046131D01*
X133683630Y-86949098D01*
X133692584Y-86879808D01*
X133718419Y-86842025D01*
X135387820Y-85172624D01*
X135449142Y-85139141D01*
X135518834Y-85144125D01*
X135574767Y-85185997D01*
X135599184Y-85251461D01*
X135599500Y-85260307D01*
X135599500Y-86067888D01*
X135579815Y-86134927D01*
X135548387Y-86168205D01*
X135468904Y-86225953D01*
X135335456Y-86359401D01*
X135335456Y-86359402D01*
X135335454Y-86359404D01*
X135287813Y-86424975D01*
X135224523Y-86512086D01*
X135138844Y-86680241D01*
X135080522Y-86859736D01*
X135051000Y-87046131D01*
X135051000Y-87234868D01*
X135080522Y-87421263D01*
X135080523Y-87421267D01*
X135138843Y-87600756D01*
X135224523Y-87768913D01*
X135335454Y-87921596D01*
X135468904Y-88055046D01*
X135621587Y-88165977D01*
X135789744Y-88251657D01*
X135969233Y-88309977D01*
X136039134Y-88321048D01*
X136155632Y-88339500D01*
X136155637Y-88339500D01*
X136344368Y-88339500D01*
X136447920Y-88323098D01*
X136530767Y-88309977D01*
X136710256Y-88251657D01*
X136878413Y-88165977D01*
X137031096Y-88055046D01*
X137164546Y-87921596D01*
X137275477Y-87768913D01*
X137361157Y-87600756D01*
X137419477Y-87421267D01*
X137432598Y-87338420D01*
X137449000Y-87234868D01*
X137449000Y-87046131D01*
X137429318Y-86921867D01*
X137419477Y-86859733D01*
X137361157Y-86680244D01*
X137275477Y-86512087D01*
X137164546Y-86359404D01*
X137031096Y-86225954D01*
X137021946Y-86219306D01*
X136951613Y-86168205D01*
X136948272Y-86163873D01*
X136943297Y-86161601D01*
X136927167Y-86136503D01*
X136908948Y-86112875D01*
X136907695Y-86106202D01*
X136905523Y-86102823D01*
X136900500Y-86067888D01*
X136900500Y-85916131D01*
X138551000Y-85916131D01*
X138551000Y-86104868D01*
X138580522Y-86291263D01*
X138580523Y-86291267D01*
X138638843Y-86470756D01*
X138724523Y-86638913D01*
X138835454Y-86791596D01*
X138968904Y-86925046D01*
X139121587Y-87035977D01*
X139289744Y-87121657D01*
X139469233Y-87179977D01*
X139539134Y-87191048D01*
X139655632Y-87209500D01*
X139655637Y-87209500D01*
X139844368Y-87209500D01*
X139947920Y-87193098D01*
X140030767Y-87179977D01*
X140210256Y-87121657D01*
X140378413Y-87035977D01*
X140531096Y-86925046D01*
X140664546Y-86791596D01*
X140775477Y-86638913D01*
X140861157Y-86470756D01*
X140919477Y-86291267D01*
X140938968Y-86168205D01*
X140949000Y-86104868D01*
X140949000Y-85916131D01*
X141731000Y-85916131D01*
X141731000Y-86104868D01*
X141760522Y-86291263D01*
X141760523Y-86291267D01*
X141818843Y-86470756D01*
X141904523Y-86638913D01*
X142015454Y-86791596D01*
X142148904Y-86925046D01*
X142301587Y-87035977D01*
X142469744Y-87121657D01*
X142649233Y-87179977D01*
X142719134Y-87191048D01*
X142835632Y-87209500D01*
X142835637Y-87209500D01*
X143024368Y-87209500D01*
X143127920Y-87193098D01*
X143210767Y-87179977D01*
X143390256Y-87121657D01*
X143558413Y-87035977D01*
X143711096Y-86925046D01*
X143844546Y-86791596D01*
X143955477Y-86638913D01*
X144041157Y-86470756D01*
X144099477Y-86291267D01*
X144118968Y-86168205D01*
X144129000Y-86104868D01*
X144129000Y-85976131D01*
X146331000Y-85976131D01*
X146331000Y-86164868D01*
X146351019Y-86291263D01*
X146360523Y-86351267D01*
X146418843Y-86530756D01*
X146504523Y-86698913D01*
X146615454Y-86851596D01*
X146748904Y-86985046D01*
X146901587Y-87095977D01*
X147069744Y-87181657D01*
X147249233Y-87239977D01*
X147319134Y-87251048D01*
X147435632Y-87269500D01*
X147435637Y-87269500D01*
X147624368Y-87269500D01*
X147727920Y-87253098D01*
X147810767Y-87239977D01*
X147990256Y-87181657D01*
X148158413Y-87095977D01*
X148311096Y-86985046D01*
X148444546Y-86851596D01*
X148555477Y-86698913D01*
X148641157Y-86530756D01*
X148699477Y-86351267D01*
X148712956Y-86266162D01*
X148729000Y-86164868D01*
X148729000Y-85976131D01*
X149481000Y-85976131D01*
X149481000Y-86164868D01*
X149501019Y-86291263D01*
X149510523Y-86351267D01*
X149568843Y-86530756D01*
X149654523Y-86698913D01*
X149765454Y-86851596D01*
X149898904Y-86985046D01*
X150051587Y-87095977D01*
X150219744Y-87181657D01*
X150399233Y-87239977D01*
X150469134Y-87251048D01*
X150585632Y-87269500D01*
X150585637Y-87269500D01*
X150774368Y-87269500D01*
X150877920Y-87253098D01*
X150960767Y-87239977D01*
X151140256Y-87181657D01*
X151308413Y-87095977D01*
X151461096Y-86985046D01*
X151594546Y-86851596D01*
X151705477Y-86698913D01*
X151791157Y-86530756D01*
X151849477Y-86351267D01*
X151862956Y-86266162D01*
X151879000Y-86164868D01*
X151879000Y-85976131D01*
X151849477Y-85789736D01*
X151849477Y-85789733D01*
X151791157Y-85610244D01*
X151705477Y-85442087D01*
X151594546Y-85289404D01*
X151461096Y-85155954D01*
X151308413Y-85045023D01*
X151140256Y-84959343D01*
X150960767Y-84901023D01*
X150960765Y-84901022D01*
X150960763Y-84901022D01*
X150774368Y-84871500D01*
X150774363Y-84871500D01*
X150585637Y-84871500D01*
X150585632Y-84871500D01*
X150399236Y-84901022D01*
X150219741Y-84959344D01*
X150051586Y-85045023D01*
X149981484Y-85095956D01*
X149898904Y-85155954D01*
X149898902Y-85155956D01*
X149898901Y-85155956D01*
X149765456Y-85289401D01*
X149765456Y-85289402D01*
X149765454Y-85289404D01*
X149754634Y-85304297D01*
X149654523Y-85442086D01*
X149568844Y-85610241D01*
X149510522Y-85789736D01*
X149481000Y-85976131D01*
X148729000Y-85976131D01*
X148699477Y-85789736D01*
X148699477Y-85789733D01*
X148641157Y-85610244D01*
X148555477Y-85442087D01*
X148444546Y-85289404D01*
X148311096Y-85155954D01*
X148158413Y-85045023D01*
X147990256Y-84959343D01*
X147810767Y-84901023D01*
X147810765Y-84901022D01*
X147810763Y-84901022D01*
X147624368Y-84871500D01*
X147624363Y-84871500D01*
X147435637Y-84871500D01*
X147435632Y-84871500D01*
X147249236Y-84901022D01*
X147069741Y-84959344D01*
X146901586Y-85045023D01*
X146831484Y-85095956D01*
X146748904Y-85155954D01*
X146748902Y-85155956D01*
X146748901Y-85155956D01*
X146615456Y-85289401D01*
X146615456Y-85289402D01*
X146615454Y-85289404D01*
X146604634Y-85304297D01*
X146504523Y-85442086D01*
X146418844Y-85610241D01*
X146360522Y-85789736D01*
X146331000Y-85976131D01*
X144129000Y-85976131D01*
X144129000Y-85916131D01*
X144099477Y-85729736D01*
X144099477Y-85729733D01*
X144041157Y-85550244D01*
X143955477Y-85382087D01*
X143844546Y-85229404D01*
X143711096Y-85095954D01*
X143558413Y-84985023D01*
X143390256Y-84899343D01*
X143210767Y-84841023D01*
X143210765Y-84841022D01*
X143210763Y-84841022D01*
X143024368Y-84811500D01*
X143024363Y-84811500D01*
X142835637Y-84811500D01*
X142835632Y-84811500D01*
X142649236Y-84841022D01*
X142469741Y-84899344D01*
X142301586Y-84985023D01*
X142219004Y-85045023D01*
X142148904Y-85095954D01*
X142148902Y-85095956D01*
X142148901Y-85095956D01*
X142015456Y-85229401D01*
X142015456Y-85229402D01*
X142015454Y-85229404D01*
X141999429Y-85251461D01*
X141904523Y-85382086D01*
X141818844Y-85550241D01*
X141760522Y-85729736D01*
X141731000Y-85916131D01*
X140949000Y-85916131D01*
X140919477Y-85729736D01*
X140919477Y-85729733D01*
X140861157Y-85550244D01*
X140775477Y-85382087D01*
X140664546Y-85229404D01*
X140531096Y-85095954D01*
X140378413Y-84985023D01*
X140210256Y-84899343D01*
X140030767Y-84841023D01*
X140030765Y-84841022D01*
X140030763Y-84841022D01*
X139844368Y-84811500D01*
X139844363Y-84811500D01*
X139655637Y-84811500D01*
X139655632Y-84811500D01*
X139469236Y-84841022D01*
X139289741Y-84899344D01*
X139121586Y-84985023D01*
X139039004Y-85045023D01*
X138968904Y-85095954D01*
X138968902Y-85095956D01*
X138968901Y-85095956D01*
X138835456Y-85229401D01*
X138835456Y-85229402D01*
X138835454Y-85229404D01*
X138819429Y-85251461D01*
X138724523Y-85382086D01*
X138638844Y-85550241D01*
X138580522Y-85729736D01*
X138551000Y-85916131D01*
X136900500Y-85916131D01*
X136900500Y-84831308D01*
X136920185Y-84764269D01*
X136936819Y-84743627D01*
X140233127Y-81447319D01*
X140294450Y-81413834D01*
X140320808Y-81411000D01*
X143064071Y-81411000D01*
X143148615Y-81394182D01*
X143189744Y-81386001D01*
X143308127Y-81336965D01*
X143414669Y-81265777D01*
X146132198Y-78548246D01*
X146193519Y-78514763D01*
X146263210Y-78519747D01*
X146319144Y-78561619D01*
X146342350Y-78616531D01*
X146360522Y-78731263D01*
X146360523Y-78731267D01*
X146418843Y-78910756D01*
X146504523Y-79078913D01*
X146615454Y-79231596D01*
X146748904Y-79365046D01*
X146901587Y-79475977D01*
X147069744Y-79561657D01*
X147249233Y-79619977D01*
X147319134Y-79631048D01*
X147435632Y-79649500D01*
X147435637Y-79649500D01*
X147624368Y-79649500D01*
X147727920Y-79633098D01*
X147810767Y-79619977D01*
X147880970Y-79597165D01*
X147950809Y-79595169D01*
X148006969Y-79627415D01*
X152895324Y-84515771D01*
X152895327Y-84515774D01*
X152895330Y-84515776D01*
X152983321Y-84574569D01*
X153001873Y-84586965D01*
X153120256Y-84636001D01*
X153120260Y-84636001D01*
X153120261Y-84636002D01*
X153245928Y-84661000D01*
X153245931Y-84661000D01*
X156325501Y-84661000D01*
X156392540Y-84680685D01*
X156438295Y-84733489D01*
X156449501Y-84785000D01*
X156449501Y-84908376D01*
X156455908Y-84967983D01*
X156506202Y-85102828D01*
X156506206Y-85102835D01*
X156592452Y-85218044D01*
X156592455Y-85218047D01*
X156707664Y-85304293D01*
X156707671Y-85304297D01*
X156842517Y-85354591D01*
X156842516Y-85354591D01*
X156849444Y-85355335D01*
X156902127Y-85361000D01*
X158697872Y-85360999D01*
X158757483Y-85354591D01*
X158892331Y-85304296D01*
X159007546Y-85218046D01*
X159093796Y-85102831D01*
X159144091Y-84967983D01*
X159150500Y-84908373D01*
X159150499Y-83112628D01*
X159144091Y-83053017D01*
X159093796Y-82918169D01*
X159093795Y-82918168D01*
X159093793Y-82918164D01*
X159007547Y-82802955D01*
X159007544Y-82802952D01*
X158892335Y-82716706D01*
X158892328Y-82716702D01*
X158760917Y-82667689D01*
X158704983Y-82625818D01*
X158680566Y-82560353D01*
X158695418Y-82492080D01*
X158716563Y-82463832D01*
X158830104Y-82350292D01*
X158955051Y-82178316D01*
X159051557Y-81988912D01*
X159117246Y-81786743D01*
X159150500Y-81576787D01*
X159150500Y-81364213D01*
X159117246Y-81154257D01*
X159051557Y-80952088D01*
X158955051Y-80762684D01*
X158955049Y-80762681D01*
X158955048Y-80762679D01*
X158830109Y-80590713D01*
X158679786Y-80440390D01*
X158507820Y-80315451D01*
X158507115Y-80315091D01*
X158499054Y-80310985D01*
X158448259Y-80263012D01*
X158431463Y-80195192D01*
X158453999Y-80129056D01*
X158499054Y-80090015D01*
X158507816Y-80085551D01*
X158529789Y-80069586D01*
X158679786Y-79960609D01*
X158679788Y-79960606D01*
X158679792Y-79960604D01*
X158830104Y-79810292D01*
X158830106Y-79810288D01*
X158830109Y-79810286D01*
X158955048Y-79638320D01*
X158955047Y-79638320D01*
X158955051Y-79638316D01*
X159051557Y-79448912D01*
X159117246Y-79246743D01*
X159150500Y-79036787D01*
X159150500Y-78824213D01*
X159117246Y-78614257D01*
X159051557Y-78412088D01*
X158955051Y-78222684D01*
X158955049Y-78222681D01*
X158955048Y-78222679D01*
X158830109Y-78050713D01*
X158679786Y-77900390D01*
X158507820Y-77775451D01*
X158507115Y-77775091D01*
X158499054Y-77770985D01*
X158448259Y-77723012D01*
X158431463Y-77655192D01*
X158453999Y-77589056D01*
X158499054Y-77550015D01*
X158507816Y-77545551D01*
X158603609Y-77475954D01*
X158679786Y-77420609D01*
X158679788Y-77420606D01*
X158679792Y-77420604D01*
X158830104Y-77270292D01*
X158830106Y-77270288D01*
X158830109Y-77270286D01*
X158955048Y-77098320D01*
X158955049Y-77098319D01*
X158955051Y-77098316D01*
X159051557Y-76908912D01*
X159117246Y-76706743D01*
X159150500Y-76496787D01*
X159150500Y-76284213D01*
X159117246Y-76074257D01*
X159051557Y-75872088D01*
X158955051Y-75682684D01*
X158955049Y-75682681D01*
X158955048Y-75682679D01*
X158830109Y-75510713D01*
X158679786Y-75360390D01*
X158507820Y-75235451D01*
X158507115Y-75235091D01*
X158499054Y-75230985D01*
X158448259Y-75183012D01*
X158431463Y-75115192D01*
X158453999Y-75049056D01*
X158499054Y-75010015D01*
X158507816Y-75005551D01*
X158529789Y-74989586D01*
X158679786Y-74880609D01*
X158679788Y-74880606D01*
X158679792Y-74880604D01*
X158830104Y-74730292D01*
X158830106Y-74730288D01*
X158830109Y-74730286D01*
X158955048Y-74558320D01*
X158955047Y-74558320D01*
X158955051Y-74558316D01*
X159051557Y-74368912D01*
X159117246Y-74166743D01*
X159150500Y-73956787D01*
X159150500Y-73744213D01*
X159117246Y-73534257D01*
X159051557Y-73332088D01*
X158955051Y-73142684D01*
X158955049Y-73142681D01*
X158955048Y-73142679D01*
X158830109Y-72970713D01*
X158679786Y-72820390D01*
X158507820Y-72695451D01*
X158507115Y-72695091D01*
X158499054Y-72690985D01*
X158448259Y-72643012D01*
X158431463Y-72575192D01*
X158453999Y-72509056D01*
X158499054Y-72470015D01*
X158507816Y-72465551D01*
X158529789Y-72449586D01*
X158679786Y-72340609D01*
X158679788Y-72340606D01*
X158679792Y-72340604D01*
X158830104Y-72190292D01*
X158830106Y-72190288D01*
X158830109Y-72190286D01*
X158955048Y-72018320D01*
X158955047Y-72018320D01*
X158955051Y-72018316D01*
X159051557Y-71828912D01*
X159117246Y-71626743D01*
X159150500Y-71416787D01*
X159150500Y-71204213D01*
X159117246Y-70994257D01*
X159051557Y-70792088D01*
X158955051Y-70602684D01*
X158955049Y-70602681D01*
X158955048Y-70602679D01*
X158830109Y-70430713D01*
X158679786Y-70280390D01*
X158507820Y-70155451D01*
X158507115Y-70155091D01*
X158499054Y-70150985D01*
X158448259Y-70103012D01*
X158431463Y-70035192D01*
X158453999Y-69969056D01*
X158499054Y-69930015D01*
X158507816Y-69925551D01*
X158529789Y-69909586D01*
X158679786Y-69800609D01*
X158679788Y-69800606D01*
X158679792Y-69800604D01*
X158830104Y-69650292D01*
X158830106Y-69650288D01*
X158830109Y-69650286D01*
X158955048Y-69478320D01*
X158955047Y-69478320D01*
X158955051Y-69478316D01*
X159051557Y-69288912D01*
X159117246Y-69086743D01*
X159150500Y-68876787D01*
X159150500Y-68664213D01*
X159117246Y-68454257D01*
X159051557Y-68252088D01*
X158955051Y-68062684D01*
X158955049Y-68062681D01*
X158955048Y-68062679D01*
X158830109Y-67890713D01*
X158679786Y-67740390D01*
X158507820Y-67615451D01*
X158507115Y-67615091D01*
X158499054Y-67610985D01*
X158448259Y-67563012D01*
X158431463Y-67495192D01*
X158453999Y-67429056D01*
X158499054Y-67390015D01*
X158507816Y-67385551D01*
X158593640Y-67323197D01*
X158679786Y-67260609D01*
X158679788Y-67260606D01*
X158679792Y-67260604D01*
X158830104Y-67110292D01*
X158830106Y-67110288D01*
X158830109Y-67110286D01*
X158955048Y-66938320D01*
X158955047Y-66938320D01*
X158955051Y-66938316D01*
X159051557Y-66748912D01*
X159117246Y-66546743D01*
X159150500Y-66336787D01*
X159150500Y-66124213D01*
X159117246Y-65914257D01*
X159051557Y-65712088D01*
X158955051Y-65522684D01*
X158955049Y-65522681D01*
X158955048Y-65522679D01*
X158830109Y-65350713D01*
X158679786Y-65200390D01*
X158507820Y-65075451D01*
X158507115Y-65075091D01*
X158499054Y-65070985D01*
X158448259Y-65023012D01*
X158431463Y-64955192D01*
X158453999Y-64889056D01*
X158499054Y-64850015D01*
X158507816Y-64845551D01*
X158538640Y-64823156D01*
X158679786Y-64720609D01*
X158679788Y-64720606D01*
X158679792Y-64720604D01*
X158830104Y-64570292D01*
X158830106Y-64570288D01*
X158830109Y-64570286D01*
X158955048Y-64398320D01*
X158955047Y-64398320D01*
X158955051Y-64398316D01*
X159051557Y-64208912D01*
X159117246Y-64006743D01*
X159150500Y-63796787D01*
X159150500Y-63584213D01*
X159117246Y-63374257D01*
X159051557Y-63172088D01*
X158955051Y-62982684D01*
X158955049Y-62982681D01*
X158955048Y-62982679D01*
X158830109Y-62810713D01*
X158679786Y-62660390D01*
X158507820Y-62535451D01*
X158507115Y-62535091D01*
X158499054Y-62530985D01*
X158448259Y-62483012D01*
X158431463Y-62415192D01*
X158453999Y-62349056D01*
X158499054Y-62310015D01*
X158507816Y-62305551D01*
X158538650Y-62283149D01*
X158679786Y-62180609D01*
X158679788Y-62180606D01*
X158679792Y-62180604D01*
X158830104Y-62030292D01*
X158830106Y-62030288D01*
X158830109Y-62030286D01*
X158955048Y-61858320D01*
X158955047Y-61858320D01*
X158955051Y-61858316D01*
X159051557Y-61668912D01*
X159117246Y-61466743D01*
X159150500Y-61256787D01*
X159150500Y-61044213D01*
X159117246Y-60834257D01*
X159051557Y-60632088D01*
X158955051Y-60442684D01*
X158955049Y-60442681D01*
X158955048Y-60442679D01*
X158830109Y-60270713D01*
X158679786Y-60120390D01*
X158507820Y-59995451D01*
X158318414Y-59898944D01*
X158318413Y-59898943D01*
X158318412Y-59898943D01*
X158116243Y-59833254D01*
X158116241Y-59833253D01*
X158116240Y-59833253D01*
X157954957Y-59807708D01*
X157906287Y-59800000D01*
X157693713Y-59800000D01*
X157645042Y-59807708D01*
X157483760Y-59833253D01*
X157281585Y-59898944D01*
X157092179Y-59995451D01*
X156920213Y-60120390D01*
X156769890Y-60270713D01*
X156642085Y-60446625D01*
X156640740Y-60445648D01*
X156594295Y-60487666D01*
X156540382Y-60500000D01*
X156239328Y-60500000D01*
X156172289Y-60480315D01*
X156151647Y-60463681D01*
X155922194Y-60234227D01*
X155922193Y-60234226D01*
X155922189Y-60234223D01*
X155815647Y-60163035D01*
X155697264Y-60113999D01*
X155697258Y-60113997D01*
X155571591Y-60089000D01*
X155571589Y-60089000D01*
X143370308Y-60089000D01*
X143303269Y-60069315D01*
X143282627Y-60052681D01*
X134468422Y-51238476D01*
X134434937Y-51177153D01*
X134433630Y-51131402D01*
X134449000Y-51034363D01*
X134449000Y-50845637D01*
X134449000Y-50845631D01*
X134419477Y-50659236D01*
X134419477Y-50659233D01*
X134361157Y-50479744D01*
X134275477Y-50311587D01*
X134164546Y-50158904D01*
X134031096Y-50025454D01*
X133878413Y-49914523D01*
X133710256Y-49828843D01*
X133530767Y-49770523D01*
X133530765Y-49770522D01*
X133530763Y-49770522D01*
X133344368Y-49741000D01*
X133344363Y-49741000D01*
X133155637Y-49741000D01*
X133155632Y-49741000D01*
X132969236Y-49770522D01*
X132789741Y-49828844D01*
X132621586Y-49914523D01*
X132534475Y-49977813D01*
X132468904Y-50025454D01*
X132468902Y-50025456D01*
X132468901Y-50025456D01*
X132335456Y-50158901D01*
X132335456Y-50158902D01*
X132335454Y-50158904D01*
X132287813Y-50224475D01*
X132224523Y-50311586D01*
X132138844Y-50479741D01*
X132080522Y-50659236D01*
X132051000Y-50845631D01*
X132051000Y-51034368D01*
X132066368Y-51131396D01*
X132080523Y-51220767D01*
X132138843Y-51400256D01*
X132224523Y-51568413D01*
X132335454Y-51721096D01*
X132468904Y-51854546D01*
X132621587Y-51965477D01*
X132789744Y-52051157D01*
X132969233Y-52109477D01*
X133039134Y-52120548D01*
X133155632Y-52139000D01*
X133155637Y-52139000D01*
X133344361Y-52139000D01*
X133344363Y-52139000D01*
X133441400Y-52123630D01*
X133510689Y-52132584D01*
X133548476Y-52158422D01*
X141768373Y-60378319D01*
X141801858Y-60439642D01*
X141796874Y-60509334D01*
X141755002Y-60565267D01*
X141689538Y-60589684D01*
X141680692Y-60590000D01*
X138290824Y-60590000D01*
X138223785Y-60570315D01*
X138180339Y-60522295D01*
X138168979Y-60500000D01*
X138118870Y-60401655D01*
X138028574Y-60277373D01*
X137970798Y-60197850D01*
X137970794Y-60197845D01*
X137831130Y-60058181D01*
X137797645Y-59996858D01*
X137802629Y-59927166D01*
X137831130Y-59882819D01*
X137880696Y-59833253D01*
X137970793Y-59743156D01*
X138118870Y-59539345D01*
X138233241Y-59314879D01*
X138311090Y-59075285D01*
X138350500Y-58826462D01*
X138350500Y-58574538D01*
X138311090Y-58325715D01*
X138233241Y-58086121D01*
X138233239Y-58086118D01*
X138233239Y-58086116D01*
X138154502Y-57931587D01*
X138118870Y-57861655D01*
X138058746Y-57778901D01*
X137970798Y-57657850D01*
X137970794Y-57657845D01*
X137792654Y-57479705D01*
X137792649Y-57479701D01*
X137588848Y-57331632D01*
X137588847Y-57331631D01*
X137588845Y-57331630D01*
X137518747Y-57295913D01*
X137364383Y-57217260D01*
X137124785Y-57139410D01*
X136875962Y-57100000D01*
X136624038Y-57100000D01*
X136499626Y-57119705D01*
X136375214Y-57139410D01*
X136135616Y-57217260D01*
X135911151Y-57331632D01*
X135707350Y-57479701D01*
X135707345Y-57479705D01*
X135529205Y-57657845D01*
X135529201Y-57657850D01*
X135381132Y-57861651D01*
X135266760Y-58086116D01*
X135188910Y-58325714D01*
X135149500Y-58574538D01*
X135149500Y-58826461D01*
X135188910Y-59075285D01*
X135266760Y-59314883D01*
X135381132Y-59539348D01*
X135529201Y-59743149D01*
X135529205Y-59743154D01*
X135668870Y-59882819D01*
X135702355Y-59944142D01*
X135697371Y-60013834D01*
X135668870Y-60058181D01*
X135529205Y-60197845D01*
X135529201Y-60197850D01*
X135381132Y-60401651D01*
X135266760Y-60626116D01*
X135188910Y-60865714D01*
X135149500Y-61114538D01*
X135149500Y-61190692D01*
X135129815Y-61257731D01*
X135077011Y-61303486D01*
X135007853Y-61313430D01*
X134944297Y-61284405D01*
X134937819Y-61278373D01*
X133936819Y-60277373D01*
X133903334Y-60216050D01*
X133900500Y-60189692D01*
X133900500Y-59632610D01*
X133920185Y-59565571D01*
X133951616Y-59532291D01*
X134031092Y-59474549D01*
X134031092Y-59474548D01*
X134031096Y-59474546D01*
X134164546Y-59341096D01*
X134275477Y-59188413D01*
X134361157Y-59020256D01*
X134419477Y-58840767D01*
X134432598Y-58757920D01*
X134449000Y-58654368D01*
X134449000Y-58465631D01*
X134419477Y-58279236D01*
X134419477Y-58279233D01*
X134361157Y-58099744D01*
X134275477Y-57931587D01*
X134164546Y-57778904D01*
X134031096Y-57645454D01*
X133878413Y-57534523D01*
X133710256Y-57448843D01*
X133530767Y-57390523D01*
X133530765Y-57390522D01*
X133530763Y-57390522D01*
X133344368Y-57361000D01*
X133344363Y-57361000D01*
X133155637Y-57361000D01*
X133155632Y-57361000D01*
X132969236Y-57390522D01*
X132789741Y-57448844D01*
X132621586Y-57534523D01*
X132534475Y-57597813D01*
X132468904Y-57645454D01*
X132468902Y-57645456D01*
X132468901Y-57645456D01*
X132335456Y-57778901D01*
X132335456Y-57778902D01*
X132335454Y-57778904D01*
X132287813Y-57844475D01*
X132224523Y-57931586D01*
X132138844Y-58099741D01*
X132080522Y-58279236D01*
X132051000Y-58465631D01*
X132051000Y-58654368D01*
X132078257Y-58826461D01*
X132080523Y-58840767D01*
X132138843Y-59020256D01*
X132224523Y-59188413D01*
X132335454Y-59341096D01*
X132335456Y-59341098D01*
X132468907Y-59474549D01*
X132548384Y-59532291D01*
X132591051Y-59587621D01*
X132599500Y-59632610D01*
X132599500Y-60574569D01*
X132599500Y-60574571D01*
X132599499Y-60574571D01*
X132619563Y-60675431D01*
X132619563Y-60675432D01*
X132624496Y-60700237D01*
X132624498Y-60700242D01*
X132624499Y-60700244D01*
X132673535Y-60818627D01*
X132704997Y-60865714D01*
X132744726Y-60925173D01*
X132744727Y-60925174D01*
X135149205Y-63329651D01*
X135182690Y-63390974D01*
X135183997Y-63436730D01*
X135160638Y-63584213D01*
X135149500Y-63654538D01*
X135149500Y-63906462D01*
X135165383Y-64006743D01*
X135188910Y-64155285D01*
X135266760Y-64394883D01*
X135381132Y-64619348D01*
X135449062Y-64712847D01*
X135472542Y-64778653D01*
X135456716Y-64846707D01*
X135436426Y-64873413D01*
X135307682Y-65002157D01*
X135215643Y-65151375D01*
X135215641Y-65151380D01*
X135160494Y-65317802D01*
X135160493Y-65317809D01*
X135150000Y-65420513D01*
X135150000Y-66070500D01*
X136095879Y-66070500D01*
X136076901Y-66116318D01*
X136050000Y-66251556D01*
X136050000Y-66389444D01*
X136076901Y-66524682D01*
X136095879Y-66570500D01*
X135150001Y-66570500D01*
X135150001Y-67220486D01*
X135160494Y-67323197D01*
X135215641Y-67489619D01*
X135215643Y-67489624D01*
X135307684Y-67638845D01*
X135431654Y-67762815D01*
X135580875Y-67854856D01*
X135580880Y-67854858D01*
X135747302Y-67910005D01*
X135747309Y-67910006D01*
X135850019Y-67920499D01*
X136499999Y-67920499D01*
X136500000Y-67920498D01*
X136500000Y-66974620D01*
X136545818Y-66993599D01*
X136681056Y-67020500D01*
X136818944Y-67020500D01*
X136954182Y-66993599D01*
X137000000Y-66974620D01*
X137000000Y-67920499D01*
X137649972Y-67920499D01*
X137649986Y-67920498D01*
X137752697Y-67910005D01*
X137919119Y-67854858D01*
X137919124Y-67854856D01*
X138068345Y-67762815D01*
X138192315Y-67638845D01*
X138284356Y-67489624D01*
X138284358Y-67489619D01*
X138339505Y-67323197D01*
X138339506Y-67323190D01*
X138349999Y-67220486D01*
X138350000Y-67220473D01*
X138350000Y-66570500D01*
X137404121Y-66570500D01*
X137423099Y-66524682D01*
X137450000Y-66389444D01*
X137450000Y-66251556D01*
X137423099Y-66116318D01*
X137404121Y-66070500D01*
X138349999Y-66070500D01*
X138349999Y-65420528D01*
X138349998Y-65420513D01*
X138339505Y-65317802D01*
X138284358Y-65151380D01*
X138284356Y-65151375D01*
X138192315Y-65002154D01*
X138063574Y-64873413D01*
X138030089Y-64812090D01*
X138035073Y-64742398D01*
X138050934Y-64712849D01*
X138118870Y-64619345D01*
X138233241Y-64394879D01*
X138311090Y-64155285D01*
X138350500Y-63906462D01*
X138350500Y-63654538D01*
X138311090Y-63405715D01*
X138233241Y-63166121D01*
X138233239Y-63166118D01*
X138233239Y-63166116D01*
X138139775Y-62982684D01*
X138118870Y-62941655D01*
X138099952Y-62915617D01*
X137970798Y-62737850D01*
X137970794Y-62737845D01*
X137831130Y-62598181D01*
X137797645Y-62536858D01*
X137802629Y-62467166D01*
X137831130Y-62422819D01*
X137851892Y-62402057D01*
X137970793Y-62283156D01*
X138118870Y-62079345D01*
X138180339Y-61958705D01*
X138228314Y-61907909D01*
X138290824Y-61891000D01*
X154979192Y-61891000D01*
X155046231Y-61910685D01*
X155066873Y-61927319D01*
X156442324Y-63302769D01*
X156475809Y-63364092D01*
X156477116Y-63409847D01*
X156449500Y-63584212D01*
X156449500Y-63584213D01*
X156449500Y-63796787D01*
X156482754Y-64006743D01*
X156531018Y-64155285D01*
X156548444Y-64208914D01*
X156644951Y-64398320D01*
X156769890Y-64570286D01*
X156920213Y-64720609D01*
X157092182Y-64845550D01*
X157100946Y-64850016D01*
X157151742Y-64897991D01*
X157168536Y-64965812D01*
X157145998Y-65031947D01*
X157100946Y-65070984D01*
X157092182Y-65075449D01*
X156920213Y-65200390D01*
X156769890Y-65350713D01*
X156644951Y-65522679D01*
X156548444Y-65712085D01*
X156482753Y-65914260D01*
X156458007Y-66070500D01*
X156449500Y-66124213D01*
X156449500Y-66336787D01*
X156482754Y-66546743D01*
X156516978Y-66652074D01*
X156548444Y-66748914D01*
X156644951Y-66938320D01*
X156769890Y-67110286D01*
X156920213Y-67260609D01*
X157092182Y-67385550D01*
X157100946Y-67390016D01*
X157151742Y-67437991D01*
X157168536Y-67505812D01*
X157145998Y-67571947D01*
X157100946Y-67610984D01*
X157092182Y-67615449D01*
X156920213Y-67740390D01*
X156769894Y-67890709D01*
X156769890Y-67890714D01*
X156647708Y-68058885D01*
X156592378Y-68101551D01*
X156547390Y-68110000D01*
X149315929Y-68110000D01*
X149190261Y-68134997D01*
X149190251Y-68135000D01*
X149141220Y-68155310D01*
X149071881Y-68184030D01*
X149071863Y-68184040D01*
X148965332Y-68255221D01*
X148965325Y-68255227D01*
X140048476Y-77172076D01*
X139987153Y-77205561D01*
X139941397Y-77206868D01*
X139844368Y-77191500D01*
X139844363Y-77191500D01*
X139655637Y-77191500D01*
X139655632Y-77191500D01*
X139469236Y-77221022D01*
X139289741Y-77279344D01*
X139121586Y-77365023D01*
X139045080Y-77420609D01*
X138968904Y-77475954D01*
X138968902Y-77475956D01*
X138968901Y-77475956D01*
X138835456Y-77609401D01*
X138835456Y-77609402D01*
X138835454Y-77609404D01*
X138824751Y-77624136D01*
X138724523Y-77762086D01*
X138638844Y-77930241D01*
X138580522Y-78109736D01*
X138551000Y-78296131D01*
X138551000Y-78484868D01*
X138580522Y-78671263D01*
X138580523Y-78671267D01*
X138638843Y-78850756D01*
X138724523Y-79018913D01*
X138835454Y-79171596D01*
X138968904Y-79305046D01*
X139051483Y-79365043D01*
X139121588Y-79415978D01*
X139149821Y-79430363D01*
X139200617Y-79478337D01*
X139217413Y-79546158D01*
X139194876Y-79612293D01*
X139140981Y-79655409D01*
X139071869Y-79684036D01*
X138965331Y-79755222D01*
X138965324Y-79755228D01*
X132798476Y-85922076D01*
X132737153Y-85955561D01*
X132691397Y-85956868D01*
X132594368Y-85941500D01*
X132594363Y-85941500D01*
X132405637Y-85941500D01*
X132405632Y-85941500D01*
X132219236Y-85971022D01*
X132039741Y-86029344D01*
X131871586Y-86115023D01*
X131818157Y-86153842D01*
X131718904Y-86225954D01*
X131718902Y-86225956D01*
X131718901Y-86225956D01*
X131712181Y-86232677D01*
X131650858Y-86266162D01*
X131581166Y-86261178D01*
X131525233Y-86219306D01*
X131500816Y-86153842D01*
X131500500Y-86144996D01*
X131500500Y-40135000D01*
X131520185Y-40067961D01*
X131572989Y-40022206D01*
X131624500Y-40011000D01*
X159375500Y-40011000D01*
X159442539Y-40030685D01*
G37*
%TD.AperFunction*%
%TA.AperFunction,Conductor*%
G36*
X132334075Y-121023493D02*
G01*
X132399901Y-121137507D01*
X132492993Y-121230599D01*
X132607007Y-121296425D01*
X132670590Y-121313462D01*
X132038282Y-121945769D01*
X132038282Y-121945770D01*
X132092452Y-121985126D01*
X132092451Y-121985126D01*
X132101495Y-121989734D01*
X132152292Y-122037708D01*
X132169087Y-122105529D01*
X132146550Y-122171664D01*
X132101499Y-122210702D01*
X132092182Y-122215449D01*
X131920213Y-122340390D01*
X131769894Y-122490709D01*
X131769890Y-122490714D01*
X131724818Y-122552751D01*
X131669488Y-122595417D01*
X131599875Y-122601396D01*
X131538080Y-122568790D01*
X131503722Y-122507951D01*
X131500500Y-122479866D01*
X131500500Y-121711859D01*
X131520185Y-121644820D01*
X131572989Y-121599065D01*
X131634231Y-121588241D01*
X131684729Y-121592216D01*
X132317037Y-120959908D01*
X132334075Y-121023493D01*
G37*
%TD.AperFunction*%
%TA.AperFunction,Conductor*%
G36*
X131705703Y-119087420D02*
G01*
X131724819Y-119108248D01*
X131769896Y-119170292D01*
X131920213Y-119320609D01*
X132092179Y-119445548D01*
X132092181Y-119445549D01*
X132092184Y-119445551D01*
X132101493Y-119450294D01*
X132152290Y-119498266D01*
X132169087Y-119566087D01*
X132146552Y-119632222D01*
X132101505Y-119671260D01*
X132092446Y-119675876D01*
X132092440Y-119675880D01*
X132038282Y-119715227D01*
X132038282Y-119715228D01*
X132670591Y-120347537D01*
X132607007Y-120364575D01*
X132492993Y-120430401D01*
X132399901Y-120523493D01*
X132334075Y-120637507D01*
X132317037Y-120701091D01*
X131684728Y-120068782D01*
X131634230Y-120072757D01*
X131565852Y-120058393D01*
X131516095Y-120009342D01*
X131500500Y-119949139D01*
X131500500Y-119181133D01*
X131520185Y-119114094D01*
X131572989Y-119068339D01*
X131642147Y-119058395D01*
X131705703Y-119087420D01*
G37*
%TD.AperFunction*%
%TA.AperFunction,Conductor*%
G36*
X144835792Y-109678671D02*
G01*
X144894311Y-109780030D01*
X144977070Y-109862789D01*
X145078429Y-109921308D01*
X145165905Y-109944747D01*
X144451268Y-110659382D01*
X144451268Y-110659383D01*
X144515352Y-110705942D01*
X144711936Y-110806107D01*
X144902635Y-110868069D01*
X144960310Y-110907506D01*
X144987509Y-110971865D01*
X144975594Y-111040711D01*
X144928350Y-111092187D01*
X144864317Y-111110000D01*
X143097301Y-111110000D01*
X143030262Y-111090315D01*
X142984507Y-111037511D01*
X142974563Y-110968353D01*
X143003588Y-110904797D01*
X143058983Y-110868069D01*
X143248255Y-110806571D01*
X143248258Y-110806570D01*
X143249167Y-110806107D01*
X143444913Y-110706369D01*
X143623472Y-110576638D01*
X143779538Y-110420572D01*
X143879992Y-110282309D01*
X143935321Y-110239645D01*
X144004934Y-110233666D01*
X144066729Y-110266272D01*
X144080628Y-110282311D01*
X144097715Y-110305830D01*
X144812352Y-109591193D01*
X144835792Y-109678671D01*
G37*
%TD.AperFunction*%
%TA.AperFunction,Conductor*%
G36*
X146402283Y-110305831D02*
G01*
X146402283Y-110305830D01*
X146419372Y-110282311D01*
X146474701Y-110239645D01*
X146544315Y-110233666D01*
X146606110Y-110266271D01*
X146620008Y-110282310D01*
X146672281Y-110354257D01*
X146720462Y-110420572D01*
X146876528Y-110576638D01*
X147055087Y-110706369D01*
X147151540Y-110755514D01*
X147251741Y-110806570D01*
X147251744Y-110806571D01*
X147441017Y-110868069D01*
X147498692Y-110907506D01*
X147525891Y-110971865D01*
X147513977Y-111040711D01*
X147466733Y-111092187D01*
X147402699Y-111110000D01*
X145635683Y-111110000D01*
X145568644Y-111090315D01*
X145522889Y-111037511D01*
X145512945Y-110968353D01*
X145541970Y-110904797D01*
X145597365Y-110868069D01*
X145788063Y-110806107D01*
X145984651Y-110705940D01*
X146048730Y-110659383D01*
X146048731Y-110659383D01*
X145334094Y-109944747D01*
X145421571Y-109921308D01*
X145522930Y-109862789D01*
X145605689Y-109780030D01*
X145664208Y-109678671D01*
X145687647Y-109591194D01*
X146402283Y-110305831D01*
G37*
%TD.AperFunction*%
%TA.AperFunction,Conductor*%
G36*
X156488121Y-76915287D02*
G01*
X156503326Y-76914636D01*
X156520964Y-76924931D01*
X156540558Y-76930685D01*
X156551454Y-76942729D01*
X156563668Y-76949858D01*
X156584004Y-76978705D01*
X156644951Y-77098319D01*
X156769890Y-77270286D01*
X156920213Y-77420609D01*
X157091161Y-77544808D01*
X157092184Y-77545551D01*
X157094337Y-77546648D01*
X157095005Y-77547279D01*
X157096332Y-77548092D01*
X157096161Y-77548370D01*
X157114794Y-77565964D01*
X157137320Y-77582827D01*
X157139856Y-77589628D01*
X157145137Y-77594614D01*
X157151905Y-77621930D01*
X157161737Y-77648291D01*
X157160193Y-77655385D01*
X157161940Y-77662433D01*
X157152865Y-77689070D01*
X157146885Y-77716564D01*
X157140673Y-77724861D01*
X157139410Y-77728571D01*
X157125734Y-77744818D01*
X157109763Y-77760789D01*
X157094967Y-77773426D01*
X156920214Y-77900390D01*
X156920209Y-77900394D01*
X156769890Y-78050713D01*
X156644951Y-78222679D01*
X156548444Y-78412085D01*
X156482753Y-78614260D01*
X156449500Y-78824213D01*
X156449500Y-79036786D01*
X156481774Y-79240559D01*
X156482754Y-79246743D01*
X156543085Y-79432423D01*
X156548444Y-79448914D01*
X156644951Y-79638320D01*
X156769890Y-79810286D01*
X156920213Y-79960609D01*
X157092182Y-80085550D01*
X157100946Y-80090016D01*
X157151742Y-80137991D01*
X157168536Y-80205812D01*
X157145998Y-80271947D01*
X157100946Y-80310984D01*
X157092182Y-80315449D01*
X156920213Y-80440390D01*
X156769890Y-80590713D01*
X156642085Y-80766625D01*
X156640740Y-80765648D01*
X156594295Y-80807666D01*
X156540382Y-80820000D01*
X153840808Y-80820000D01*
X153773769Y-80800315D01*
X153753127Y-80783681D01*
X151866725Y-78897279D01*
X151833240Y-78835956D01*
X151836474Y-78771283D01*
X151849477Y-78731267D01*
X151868009Y-78614260D01*
X151879000Y-78544868D01*
X151879000Y-78356131D01*
X151857863Y-78222679D01*
X151849477Y-78169733D01*
X151791157Y-77990244D01*
X151705477Y-77822087D01*
X151594546Y-77669404D01*
X151461096Y-77535954D01*
X151308413Y-77425023D01*
X151140256Y-77339343D01*
X150960767Y-77281023D01*
X150960765Y-77281022D01*
X150960763Y-77281022D01*
X150774368Y-77251500D01*
X150774363Y-77251500D01*
X150585637Y-77251500D01*
X150585632Y-77251500D01*
X150399236Y-77281022D01*
X150219741Y-77339344D01*
X150051586Y-77425023D01*
X149981484Y-77475956D01*
X149898904Y-77535954D01*
X149898902Y-77535956D01*
X149898901Y-77535956D01*
X149765456Y-77669401D01*
X149765456Y-77669402D01*
X149765454Y-77669404D01*
X149725162Y-77724861D01*
X149654523Y-77822086D01*
X149568844Y-77990241D01*
X149510522Y-78169736D01*
X149481000Y-78356131D01*
X149481000Y-78544868D01*
X149510522Y-78731263D01*
X149510523Y-78731267D01*
X149568843Y-78910756D01*
X149633058Y-79036786D01*
X149654525Y-79078916D01*
X149674710Y-79106699D01*
X149698190Y-79172505D01*
X149682364Y-79240559D01*
X149632259Y-79289254D01*
X149563781Y-79303129D01*
X149498672Y-79277780D01*
X149486711Y-79267265D01*
X148765319Y-78545873D01*
X148731834Y-78484550D01*
X148729000Y-78458192D01*
X148729000Y-78356131D01*
X148707863Y-78222679D01*
X148699477Y-78169733D01*
X148641157Y-77990244D01*
X148555477Y-77822087D01*
X148444546Y-77669404D01*
X148311096Y-77535954D01*
X148158413Y-77425023D01*
X147990256Y-77339343D01*
X147810767Y-77281023D01*
X147810765Y-77281022D01*
X147810763Y-77281022D01*
X147696032Y-77262850D01*
X147632897Y-77232920D01*
X147595966Y-77173609D01*
X147596964Y-77103746D01*
X147627746Y-77052698D01*
X147733128Y-76947316D01*
X147794450Y-76913834D01*
X147820808Y-76911000D01*
X156473519Y-76911000D01*
X156488121Y-76915287D01*
G37*
%TD.AperFunction*%
%TA.AperFunction,Conductor*%
G36*
X156601702Y-69430685D02*
G01*
X156641528Y-69474706D01*
X156642408Y-69474168D01*
X156644944Y-69478307D01*
X156644949Y-69478316D01*
X156644952Y-69478320D01*
X156644956Y-69478326D01*
X156769890Y-69650286D01*
X156920213Y-69800609D01*
X157092182Y-69925550D01*
X157100946Y-69930016D01*
X157151742Y-69977991D01*
X157168536Y-70045812D01*
X157145998Y-70111947D01*
X157100946Y-70150984D01*
X157092182Y-70155449D01*
X156920213Y-70280390D01*
X156769890Y-70430713D01*
X156642085Y-70606625D01*
X156640740Y-70605648D01*
X156594295Y-70647666D01*
X156540382Y-70660000D01*
X149765929Y-70660000D01*
X149640261Y-70684997D01*
X149640255Y-70684999D01*
X149521874Y-70734034D01*
X149415326Y-70805226D01*
X149415325Y-70805227D01*
X143065372Y-77155181D01*
X143004049Y-77188666D01*
X142977691Y-77191500D01*
X142835632Y-77191500D01*
X142649236Y-77221022D01*
X142469741Y-77279344D01*
X142301586Y-77365023D01*
X142225080Y-77420609D01*
X142148904Y-77475954D01*
X142148902Y-77475956D01*
X142148901Y-77475956D01*
X142015456Y-77609401D01*
X142015456Y-77609402D01*
X142015454Y-77609404D01*
X142004751Y-77624136D01*
X141904523Y-77762086D01*
X141818844Y-77930241D01*
X141760522Y-78109736D01*
X141731000Y-78296131D01*
X141731000Y-78484868D01*
X141760522Y-78671263D01*
X141760523Y-78671267D01*
X141818843Y-78850756D01*
X141904523Y-79018913D01*
X142015454Y-79171596D01*
X142148904Y-79305046D01*
X142231483Y-79365043D01*
X142259890Y-79385682D01*
X142302555Y-79441012D01*
X142308534Y-79510626D01*
X142275928Y-79572421D01*
X142215089Y-79606778D01*
X142187004Y-79610000D01*
X140492996Y-79610000D01*
X140425957Y-79590315D01*
X140380202Y-79537511D01*
X140370258Y-79468353D01*
X140399283Y-79404797D01*
X140420110Y-79385682D01*
X140531096Y-79305046D01*
X140664546Y-79171596D01*
X140775477Y-79018913D01*
X140861157Y-78850756D01*
X140919477Y-78671267D01*
X140939337Y-78545873D01*
X140949000Y-78484868D01*
X140949000Y-78296139D01*
X140948999Y-78296131D01*
X140933630Y-78199098D01*
X140942584Y-78129808D01*
X140968419Y-78092025D01*
X149613127Y-69447319D01*
X149674450Y-69413834D01*
X149700808Y-69411000D01*
X156534663Y-69411000D01*
X156601702Y-69430685D01*
G37*
%TD.AperFunction*%
%TA.AperFunction,Conductor*%
G36*
X156607421Y-74520685D02*
G01*
X156641099Y-74555091D01*
X156642085Y-74554375D01*
X156769890Y-74730286D01*
X156920213Y-74880609D01*
X157092182Y-75005550D01*
X157100946Y-75010016D01*
X157151742Y-75057991D01*
X157168536Y-75125812D01*
X157145998Y-75191947D01*
X157100946Y-75230984D01*
X157092182Y-75235449D01*
X156920213Y-75360390D01*
X156769897Y-75510706D01*
X156769892Y-75510712D01*
X156734893Y-75558885D01*
X156679563Y-75601551D01*
X156634575Y-75610000D01*
X148619808Y-75610000D01*
X148552769Y-75590315D01*
X148507014Y-75537511D01*
X148497070Y-75468353D01*
X148526095Y-75404797D01*
X148532127Y-75398319D01*
X149393127Y-74537319D01*
X149454450Y-74503834D01*
X149480808Y-74501000D01*
X156540382Y-74501000D01*
X156607421Y-74520685D01*
G37*
%TD.AperFunction*%
%TA.AperFunction,Conductor*%
G36*
X156607421Y-71980685D02*
G01*
X156641099Y-72015091D01*
X156642085Y-72014375D01*
X156769890Y-72190286D01*
X156920213Y-72340609D01*
X157092182Y-72465550D01*
X157100946Y-72470016D01*
X157151742Y-72517991D01*
X157168536Y-72585812D01*
X157145998Y-72651947D01*
X157100946Y-72690984D01*
X157092182Y-72695449D01*
X156920213Y-72820390D01*
X156769890Y-72970713D01*
X156642085Y-73146625D01*
X156640740Y-73145648D01*
X156594295Y-73187666D01*
X156540382Y-73200000D01*
X149159808Y-73200000D01*
X149092769Y-73180315D01*
X149047014Y-73127511D01*
X149037070Y-73058353D01*
X149066095Y-72994797D01*
X149072127Y-72988319D01*
X150063127Y-71997319D01*
X150124450Y-71963834D01*
X150150808Y-71961000D01*
X156540382Y-71961000D01*
X156607421Y-71980685D01*
G37*
%TD.AperFunction*%
%TD*%
M02*
