M48
; DRILL file {KiCad 9.0.7} date 2026-04-17T11:03:05-0700
; FORMAT={-:-/ absolute / metric / decimal}
; #@! TF.CreationDate,2026-04-17T11:03:05-07:00
; #@! TF.GenerationSoftware,Kicad,Pcbnew,9.0.7
; #@! TF.FileFunction,Plated,1,2,PTH
FMAT,2
METRIC
; #@! TA.AperFunction,Plated,PTH,ViaDrill
T1C0.300
; #@! TA.AperFunction,Plated,PTH,ComponentDrill
T2C0.800
; #@! TA.AperFunction,Plated,PTH,ComponentDrill
T3C0.813
; #@! TA.AperFunction,Plated,PTH,ComponentDrill
T4C0.889
; #@! TA.AperFunction,Plated,PTH,ComponentDrill
T5C1.000
; #@! TA.AperFunction,Plated,PTH,ComponentDrill
T6C1.220
; #@! TA.AperFunction,Plated,PTH,ComponentDrill
T7C1.400
; #@! TA.AperFunction,Plated,PTH,ComponentDrill
T8C1.420
; #@! TA.AperFunction,Plated,PTH,ComponentDrill
T9C1.430
; #@! TA.AperFunction,Plated,PTH,ComponentDrill
T10C2.057
%
G90
G05
T1
X135.4Y-120.15
X135.625Y-107.635
X135.686Y-106.599
X136.899Y-119.611
X137.75Y-125.51
X138.0Y-128.011
X139.25Y-98.51
X141.0Y-111.01
X142.0Y-98.51
X151.25Y-70.01
X151.25Y-72.51
X151.25Y-75.01
X154.0Y-78.76
T2
X140.17Y-89.641
X140.17Y-104.88
X142.71Y-89.641
X142.71Y-104.88
X145.25Y-89.641
X145.25Y-104.88
X147.79Y-89.641
X147.79Y-104.88
X150.33Y-89.641
X150.33Y-104.88
T3
X132.5Y-87.141
X132.5Y-94.76
X133.25Y-50.94
X133.25Y-58.56
X135.705Y-116.512
X135.705Y-124.132
X136.25Y-87.141
X136.25Y-94.76
X139.75Y-78.391
X139.75Y-86.01
X142.93Y-78.391
X142.93Y-86.01
X147.53Y-78.45
X147.53Y-86.07
X150.63Y-125.51
X150.68Y-78.45
X150.68Y-86.07
X154.0Y-88.76
X154.0Y-96.38
X155.0Y-112.95
X155.0Y-120.57
X157.5Y-93.2
X157.5Y-100.82
X158.0Y-108.39
X158.0Y-116.01
X158.25Y-125.51
T4
X142.71Y-109.507
X142.71Y-124.01
X145.25Y-109.507
X147.79Y-109.507
X147.79Y-124.01
T5
X132.8Y-100.51
X132.8Y-103.05
X132.8Y-105.59
X132.8Y-108.13
X132.8Y-110.67
X132.8Y-113.21
X132.8Y-115.75
X132.8Y-118.29
X132.8Y-120.831
X132.8Y-123.37
X157.8Y-61.15
X157.8Y-63.691
X157.8Y-66.23
X157.8Y-68.77
X157.8Y-71.31
X157.8Y-73.85
X157.8Y-76.391
X157.8Y-78.93
X157.8Y-81.471
X157.8Y-84.01
T6
X145.25Y-131.981
X145.25Y-131.981
X145.25Y-142.761
X145.25Y-142.761
T7
X136.75Y-58.7
X136.75Y-61.24
X136.75Y-63.78
X136.75Y-66.32
T8
X142.15Y-131.981
X142.15Y-142.761
X148.35Y-131.981
X148.35Y-142.761
T9
X133.85Y-131.981
X133.85Y-142.761
X156.65Y-131.981
X156.65Y-142.761
T10
X139.0Y-117.0
X151.5Y-117.0
M30
