%TF.GenerationSoftware,KiCad,Pcbnew,9.0.7*%
%TF.CreationDate,2026-04-17T10:56:10-07:00*%
%TF.ProjectId,MotionMod-BottomPanel,4d6f7469-6f6e-44d6-9f64-2d426f74746f,rev?*%
%TF.SameCoordinates,Original*%
%TF.FileFunction,Copper,L2,Bot*%
%TF.FilePolarity,Positive*%
%FSLAX46Y46*%
G04 Gerber Fmt 4.6, Leading zero omitted, Abs format (unit mm)*
G04 Created by KiCad (PCBNEW 9.0.7) date 2026-04-17 10:56:10*
%MOMM*%
%LPD*%
G01*
G04 APERTURE LIST*
G04 Aperture macros list*
%AMRoundRect*
0 Rectangle with rounded corners*
0 $1 Rounding radius*
0 $2 $3 $4 $5 $6 $7 $8 $9 X,Y pos of 4 corners*
0 Add a 4 corners polygon primitive as box body*
4,1,4,$2,$3,$4,$5,$6,$7,$8,$9,$2,$3,0*
0 Add four circle primitives for the rounded corners*
1,1,$1+$1,$2,$3*
1,1,$1+$1,$4,$5*
1,1,$1+$1,$6,$7*
1,1,$1+$1,$8,$9*
0 Add four rect primitives between the rounded corners*
20,1,$1+$1,$2,$3,$4,$5,0*
20,1,$1+$1,$4,$5,$6,$7,0*
20,1,$1+$1,$6,$7,$8,$9,0*
20,1,$1+$1,$8,$9,$2,$3,0*%
G04 Aperture macros list end*
%TA.AperFunction,ComponentPad*%
%ADD10C,1.397000*%
%TD*%
%TA.AperFunction,ComponentPad*%
%ADD11RoundRect,0.250000X0.550000X-0.950000X0.550000X0.950000X-0.550000X0.950000X-0.550000X-0.950000X0*%
%TD*%
%TA.AperFunction,ComponentPad*%
%ADD12O,1.600000X2.400000*%
%TD*%
%TA.AperFunction,ComponentPad*%
%ADD13R,1.700000X1.700000*%
%TD*%
%TA.AperFunction,ComponentPad*%
%ADD14C,1.700000*%
%TD*%
%TA.AperFunction,ComponentPad*%
%ADD15C,1.651000*%
%TD*%
%TA.AperFunction,ViaPad*%
%ADD16C,0.600000*%
%TD*%
%TA.AperFunction,Conductor*%
%ADD17C,0.300000*%
%TD*%
%TA.AperFunction,Conductor*%
%ADD18C,0.500000*%
%TD*%
G04 APERTURE END LIST*
D10*
%TO.P,R10,1*%
%TO.N,DAC OUT C*%
X109550000Y-128070500D03*
%TO.P,R10,2*%
%TO.N,Net-(U1A--)*%
X109550000Y-120450500D03*
%TD*%
%TO.P,R8,1*%
%TO.N,Net-(U1D--)*%
X106550000Y-99450500D03*
%TO.P,R8,2*%
%TO.N,Net-(J4-Pin_7)*%
X106550000Y-107070500D03*
%TD*%
%TO.P,R22,1*%
%TO.N,DAC OUT B*%
X109300000Y-99450500D03*
%TO.P,R22,2*%
%TO.N,Net-(U1D--)*%
X109300000Y-107070500D03*
%TD*%
%TO.P,R2,1*%
%TO.N,Net-(U1A--)*%
X106800000Y-128070500D03*
%TO.P,R2,2*%
%TO.N,Net-(J4-Pin_4)*%
X106800000Y-120450500D03*
%TD*%
%TO.P,R20,1*%
%TO.N,DAC OUT D*%
X119550000Y-128070500D03*
%TO.P,R20,2*%
%TO.N,Net-(U1B--)*%
X119550000Y-120450500D03*
%TD*%
D11*
%TO.P,U1,1*%
%TO.N,Net-(J4-Pin_4)*%
X106890000Y-117780500D03*
D12*
%TO.P,U1,2,-*%
%TO.N,Net-(U1A--)*%
X109430000Y-117780500D03*
%TO.P,U1,3,+*%
%TO.N,Vref*%
X111970000Y-117780500D03*
%TO.P,U1,4,V+*%
%TO.N,+12V*%
X114510000Y-117780500D03*
%TO.P,U1,5,+*%
%TO.N,Vref*%
X117050000Y-117780500D03*
%TO.P,U1,6,-*%
%TO.N,Net-(U1B--)*%
X119590000Y-117780500D03*
%TO.P,U1,7*%
%TO.N,Net-(J4-Pin_5)*%
X122130000Y-117780500D03*
%TO.P,U1,8*%
%TO.N,Net-(J4-Pin_6)*%
X122130000Y-110160500D03*
%TO.P,U1,9,-*%
%TO.N,Net-(U1C--)*%
X119590000Y-110160500D03*
%TO.P,U1,10,+*%
%TO.N,Vref*%
X117050000Y-110160500D03*
%TO.P,U1,11,V-*%
%TO.N,-12V*%
X114510000Y-110160500D03*
%TO.P,U1,12,+*%
%TO.N,Vref*%
X111970000Y-110160500D03*
%TO.P,U1,13,-*%
%TO.N,Net-(U1D--)*%
X109430000Y-110160500D03*
%TO.P,U1,14*%
%TO.N,Net-(J4-Pin_7)*%
X106890000Y-110160500D03*
%TD*%
D13*
%TO.P,J4,1,Pin_1*%
%TO.N,EncA_s*%
X101800000Y-100510500D03*
D14*
%TO.P,J4,2,Pin_2*%
%TO.N,EncB_s*%
X101800000Y-103050500D03*
%TO.P,J4,3,Pin_3*%
%TO.N,EncSw_s*%
X101800000Y-105590500D03*
%TO.P,J4,4,Pin_4*%
%TO.N,Net-(J4-Pin_4)*%
X101800000Y-108130500D03*
%TO.P,J4,5,Pin_5*%
%TO.N,Net-(J4-Pin_5)*%
X101800000Y-110670500D03*
%TO.P,J4,6,Pin_6*%
%TO.N,Net-(J4-Pin_6)*%
X101800000Y-113210500D03*
%TO.P,J4,7,Pin_7*%
%TO.N,Net-(J4-Pin_7)*%
X101800000Y-115750500D03*
%TO.P,J4,8,Pin_8*%
%TO.N,unconnected-(J4-Pin_8-Pad8)*%
X101800000Y-118290500D03*
%TO.P,J4,9,Pin_9*%
%TO.N,GND*%
X101800000Y-120830500D03*
%TO.P,J4,10,Pin_10*%
%TO.N,+5V*%
X101800000Y-123370500D03*
%TD*%
D10*
%TO.P,R21,1*%
%TO.N,DAC OUT A*%
X119550000Y-99450500D03*
%TO.P,R21,2*%
%TO.N,Net-(U1C--)*%
X119550000Y-107070500D03*
%TD*%
%TO.P,R12,1*%
%TO.N,GND*%
X113050000Y-99450500D03*
%TO.P,R12,2*%
%TO.N,Vref*%
X113050000Y-107070500D03*
%TD*%
%TO.P,R11,1*%
%TO.N,+5V*%
X116050000Y-99450500D03*
%TO.P,R11,2*%
%TO.N,Vref*%
X116050000Y-107070500D03*
%TD*%
D13*
%TO.P,J13,1,Pin_1*%
%TO.N,Net-(A1-GPIO16)*%
X126800000Y-84010500D03*
D14*
%TO.P,J13,2,Pin_2*%
%TO.N,Net-(A1-GPIO17)*%
X126800000Y-81470500D03*
%TO.P,J13,3,Pin_3*%
%TO.N,Net-(A1-GPIO18)*%
X126800000Y-78930500D03*
%TO.P,J13,4,Pin_4*%
%TO.N,Net-(A1-GPIO19)*%
X126800000Y-76390500D03*
%TO.P,J13,5,Pin_5*%
%TO.N,Net-(A1-GPIO20)*%
X126800000Y-73850500D03*
%TO.P,J13,6,Pin_6*%
%TO.N,Net-(A1-GPIO21)*%
X126800000Y-71310500D03*
%TO.P,J13,7,Pin_7*%
%TO.N,Net-(A1-GPIO22)*%
X126800000Y-68770500D03*
%TO.P,J13,8,Pin_8*%
%TO.N,Net-(A1-GPIO26_ADC0)*%
X126800000Y-66230500D03*
%TO.P,J13,9,Pin_9*%
%TO.N,Net-(A1-GPIO27_ADC1)*%
X126800000Y-63690500D03*
%TO.P,J13,10,Pin_10*%
%TO.N,Net-(A1-GPIO28_ADC2)*%
X126800000Y-61150500D03*
%TD*%
D10*
%TO.P,R4,1*%
%TO.N,Net-(U1B--)*%
X122300000Y-128070500D03*
%TO.P,R4,2*%
%TO.N,Net-(J4-Pin_5)*%
X122300000Y-120450500D03*
%TD*%
%TO.P,R6,1*%
%TO.N,Net-(U1C--)*%
X122300000Y-99450500D03*
%TO.P,R6,2*%
%TO.N,Net-(J4-Pin_6)*%
X122300000Y-107070500D03*
%TD*%
D13*
%TO.P,J3,1,Vcc*%
%TO.N,+5V*%
X126800000Y-100510500D03*
D14*
%TO.P,J3,2,GND*%
%TO.N,GND*%
X126800000Y-103050500D03*
%TO.P,J3,3,SLC*%
%TO.N,Net-(A1-GPIO5)*%
X126800000Y-105590500D03*
%TO.P,J3,4,SDA*%
%TO.N,Net-(A1-GPIO4)*%
X126800000Y-108130500D03*
%TO.P,J3,5,LDACn*%
%TO.N,unconnected-(J3-LDACn-Pad5)*%
X126800000Y-110670500D03*
%TO.P,J3,6,RDY/BSYn*%
%TO.N,unconnected-(J3-RDY{slash}BSYn-Pad6)*%
X126800000Y-113210500D03*
%TO.P,J3,7,DACA*%
%TO.N,DAC OUT A*%
X126800000Y-115750500D03*
%TO.P,J3,8,DACB*%
%TO.N,DAC OUT B*%
X126800000Y-118290500D03*
%TO.P,J3,9,DACC*%
%TO.N,DAC OUT C*%
X126800000Y-120830500D03*
%TO.P,J3,10,DACD*%
%TO.N,DAC OUT D*%
X126800000Y-123370500D03*
%TD*%
D15*
%TO.P,J2,1,P1*%
%TO.N,unconnected-(J2-P1-Pad1)*%
X123880000Y-146010500D03*
%TO.P,J2,2,P2*%
%TO.N,unconnected-(J2-P2-Pad2)*%
X123880000Y-143470500D03*
%TO.P,J2,3,P3*%
%TO.N,unconnected-(J2-P3-Pad3)*%
X121340000Y-146010500D03*
%TO.P,J2,4,P4*%
%TO.N,unconnected-(J2-P4-Pad4)*%
X121340000Y-143470500D03*
%TO.P,J2,5,+12V*%
%TO.N,+5V*%
X118800000Y-146010500D03*
%TO.P,J2,6,P6*%
X118800000Y-143470500D03*
%TO.P,J2,7,12V*%
%TO.N,+12V*%
X116260000Y-146010500D03*
%TO.P,J2,8,+12V*%
X116260000Y-143470500D03*
%TO.P,J2,9,GND*%
%TO.N,GND*%
X113720000Y-146010500D03*
%TO.P,J2,10,GND*%
X113720000Y-143470500D03*
%TO.P,J2,11,GND*%
X111180000Y-146010500D03*
%TO.P,J2,12,GND*%
X111180000Y-143470500D03*
%TO.P,J2,13,-12*%
X108640000Y-146010500D03*
%TO.P,J2,14,-12V*%
X108640000Y-143470500D03*
%TO.P,J2,15,-12V*%
%TO.N,-12V*%
X106100000Y-146010500D03*
%TO.P,J2,16,P16*%
X106100000Y-143470500D03*
%TD*%
D16*
%TO.N,Net-(A1-GPIO5)*%
X115372500Y-60438000D03*
%TO.N,Net-(A1-GPIO16)*%
X124550000Y-89760500D03*
%TO.N,GND*%
X115800000Y-115010500D03*
X113300000Y-113760500D03*
X104945000Y-47510500D03*
X118800000Y-113760500D03*
X121800000Y-112760500D03*
X116000000Y-125110500D03*
X126400000Y-126810500D03*
X126200000Y-48410500D03*
X102350483Y-47430876D03*
X116500000Y-121810500D03*
X116300000Y-130310500D03*
X126200000Y-136710500D03*
X121800000Y-85510500D03*
X119800000Y-115010500D03*
X109050000Y-113760500D03*
%TO.N,Net-(A1-GPIO17)*%
X124300000Y-87510500D03*
%TO.N,Net-(A1-GPIO4)*%
X113622500Y-57438000D03*
%TO.N,+5V*%
X121550000Y-45010500D03*
%TO.N,-12V*%
X105884620Y-115425880D03*
X114550000Y-113510500D03*
%TO.N,DAC OUT B*%
X123300000Y-102510500D03*
%TO.N,DAC OUT A*%
X123384620Y-101595120D03*
%TO.N,Net-(J4-Pin_5)*%
X118300000Y-112010500D03*
%TO.N,EncB_s*%
X102080000Y-44890500D03*
%TO.N,EncSw_s*%
X102330000Y-49970500D03*
%TO.N,EncA_s*%
X102330000Y-42350500D03*
%TO.N,Net-(J4-Pin_4)*%
X103800000Y-114760500D03*
%TD*%
D17*
%TO.N,Net-(A1-GPIO5)*%
X115625897Y-60691397D02*
X115625897Y-90236397D01*
X115625897Y-90236397D02*
X125200000Y-99810500D01*
X115372500Y-60438000D02*
X115625897Y-60691397D01*
X125200000Y-103990500D02*
X126800000Y-105590500D01*
X125200000Y-99810500D02*
X125200000Y-103990500D01*
%TO.N,Net-(A1-GPIO16)*%
X124550000Y-89760500D02*
X126800000Y-87510500D01*
X126800000Y-87510500D02*
X126800000Y-84010500D01*
D18*
%TO.N,GND*%
X111180000Y-146010500D02*
X111180000Y-143470500D01*
X108640000Y-146010500D02*
X108640000Y-143470500D01*
X113720000Y-146010500D02*
X113720000Y-143470500D01*
D17*
%TO.N,Net-(A1-GPIO17)*%
X126800000Y-81470500D02*
X125050000Y-83220500D01*
X125050000Y-83220500D02*
X125050000Y-86760500D01*
X125050000Y-86760500D02*
X124300000Y-87510500D01*
%TO.N,Net-(A1-GPIO4)*%
X124600000Y-105930500D02*
X126800000Y-108130500D01*
X113622500Y-57438000D02*
X114678890Y-58494390D01*
X114678890Y-90089390D02*
X124600000Y-100010500D01*
X114678890Y-58494390D02*
X114678890Y-90089390D01*
X124600000Y-100010500D02*
X124600000Y-105930500D01*
D18*
%TO.N,+5V*%
X128141874Y-137418626D02*
X128141874Y-101852374D01*
X126800000Y-99910500D02*
X126800000Y-100510500D01*
X101800000Y-122995500D02*
X101825000Y-122970500D01*
X121550000Y-45010500D02*
X121450000Y-44910500D01*
X118800000Y-143470500D02*
X118800000Y-140910500D01*
X126050000Y-139510500D02*
X128141874Y-137418626D01*
X117700000Y-90810500D02*
X126800000Y-99910500D01*
X128141874Y-101852374D02*
X126800000Y-100510500D01*
X120100000Y-44910500D02*
X117700000Y-47310500D01*
X117700000Y-47310500D02*
X117700000Y-90810500D01*
X118800000Y-146010500D02*
X118800000Y-143470500D01*
X118800000Y-140910500D02*
X120200000Y-139510500D01*
X121450000Y-44910500D02*
X120100000Y-44910500D01*
X120200000Y-139510500D02*
X126050000Y-139510500D01*
X126600000Y-100310500D02*
X126800000Y-100510500D01*
D17*
%TO.N,Net-(U1A--)*%
X106800000Y-128070500D02*
X109550000Y-125320500D01*
X109550000Y-120450500D02*
X109550000Y-117900500D01*
D18*
X109050000Y-118160500D02*
X109430000Y-117780500D01*
D17*
X109550000Y-117900500D02*
X109430000Y-117780500D01*
X109550000Y-125320500D02*
X109550000Y-120450500D01*
%TO.N,Net-(U1D--)*%
X106550000Y-104320500D02*
X109300000Y-107070500D01*
X109430000Y-107200500D02*
X109300000Y-107070500D01*
X109430000Y-110160500D02*
X109430000Y-107200500D01*
X106550000Y-99450500D02*
X106550000Y-104320500D01*
%TO.N,Net-(U1B--)*%
X122300000Y-128070500D02*
X122300000Y-123260500D01*
X119550000Y-120450500D02*
X119550000Y-117820500D01*
X122300000Y-123260500D02*
X119550000Y-120510500D01*
X119550000Y-117820500D02*
X119590000Y-117780500D01*
X119550000Y-120510500D02*
X119550000Y-120450500D01*
%TO.N,Net-(U1C--)*%
X119550000Y-102200500D02*
X119550000Y-107070500D01*
X122300000Y-99450500D02*
X119550000Y-102200500D01*
X119590000Y-107110500D02*
X119550000Y-107070500D01*
X119550000Y-110120500D02*
X119590000Y-110160500D01*
X119550000Y-107070500D02*
X119550000Y-110120500D01*
D18*
%TO.N,Vref*%
X112300000Y-109830500D02*
X111970000Y-110160500D01*
X112300000Y-107820500D02*
X112300000Y-109830500D01*
X116550000Y-107570500D02*
X116550000Y-109660500D01*
X117050000Y-110160500D02*
X117050000Y-117780500D01*
X113050000Y-107070500D02*
X112300000Y-107820500D01*
X111970000Y-110160500D02*
X111970000Y-117780500D01*
X116550000Y-109660500D02*
X117050000Y-110160500D01*
X116050000Y-107070500D02*
X116550000Y-107570500D01*
%TO.N,+12V*%
X114550000Y-139760500D02*
X114405000Y-139615500D01*
X116260000Y-146010500D02*
X116260000Y-141470500D01*
X116260000Y-141470500D02*
X114550000Y-139760500D01*
X114405000Y-117885500D02*
X114510000Y-117780500D01*
X114405000Y-139615500D02*
X114405000Y-117885500D01*
%TO.N,-12V*%
X106100000Y-141560500D02*
X106100000Y-146010500D01*
X114510000Y-111010500D02*
X114510000Y-110160500D01*
X104550000Y-140010500D02*
X106100000Y-141560500D01*
X114550000Y-111050500D02*
X114510000Y-111010500D01*
X105884620Y-115425880D02*
X104550000Y-116760500D01*
X114550000Y-113510500D02*
X114550000Y-111050500D01*
X104550000Y-116760500D02*
X104550000Y-140010500D01*
D17*
%TO.N,DAC OUT B*%
X123550000Y-102760500D02*
X123550000Y-115040500D01*
X123550000Y-115040500D02*
X126800000Y-118290500D01*
X123300000Y-102510500D02*
X123550000Y-102760500D01*
%TO.N,DAC OUT A*%
X123384620Y-101595120D02*
X124051000Y-102261500D01*
X124051000Y-113001500D02*
X126800000Y-115750500D01*
X124051000Y-102261500D02*
X124051000Y-113001500D01*
%TO.N,Net-(J4-Pin_7)*%
X106890000Y-107410500D02*
X106550000Y-107070500D01*
X106890000Y-112670500D02*
X106890000Y-110160500D01*
X101800000Y-115750500D02*
X103810000Y-115750500D01*
X106890000Y-110160500D02*
X106890000Y-107410500D01*
X103810000Y-115750500D02*
X106890000Y-112670500D01*
%TO.N,Net-(J4-Pin_6)*%
X122130000Y-107490500D02*
X122550000Y-107070500D01*
X122300000Y-107070500D02*
X122300000Y-109990500D01*
X122300000Y-109990500D02*
X122130000Y-110160500D01*
%TO.N,Net-(J4-Pin_5)*%
X122300000Y-117950500D02*
X122130000Y-117780500D01*
X122050000Y-117700500D02*
X122130000Y-117780500D01*
X122300000Y-120450500D02*
X122300000Y-117950500D01*
X119050000Y-112010500D02*
X122050000Y-115010500D01*
X122050000Y-115010500D02*
X122050000Y-117700500D01*
X118300000Y-112010500D02*
X119050000Y-112010500D01*
%TO.N,EncB_s*%
X101710000Y-45260500D02*
X102080000Y-44890500D01*
X101825000Y-102650500D02*
X102160000Y-102650500D01*
X103026000Y-101784500D02*
X103026000Y-94611500D01*
X103026000Y-94611500D02*
X101445000Y-93030500D01*
X101445000Y-45510500D02*
X101695000Y-45260500D01*
X101445000Y-93030500D02*
X101445000Y-45510500D01*
X102160000Y-102650500D02*
X103026000Y-101784500D01*
X101695000Y-45260500D02*
X101710000Y-45260500D01*
%TO.N,EncSw_s*%
X103550000Y-103465500D02*
X103550000Y-94010500D01*
X101825000Y-105190500D02*
X103550000Y-103465500D01*
X103550000Y-94010500D02*
X101946000Y-92406500D01*
X101946000Y-92406500D02*
X101946000Y-91364500D01*
X101946000Y-91364500D02*
X101964000Y-91346500D01*
X101964000Y-50241500D02*
X102235000Y-49970500D01*
X102235000Y-49970500D02*
X102330000Y-49970500D01*
X101964000Y-91346500D02*
X101964000Y-50241500D01*
%TO.N,EncA_s*%
X100800000Y-43880500D02*
X100800000Y-93510500D01*
X102330000Y-42350500D02*
X100800000Y-43880500D01*
X101825000Y-94535500D02*
X101825000Y-100110500D01*
X100800000Y-93510500D02*
X101825000Y-94535500D01*
%TO.N,Net-(J4-Pin_4)*%
X103800000Y-114760500D02*
X103300000Y-114260500D01*
D18*
X106550000Y-118120500D02*
X106890000Y-117780500D01*
D17*
X106800000Y-117870500D02*
X106890000Y-117780500D01*
X103300000Y-114260500D02*
X103300000Y-109630500D01*
X103300000Y-109630500D02*
X101800000Y-108130500D01*
X106800000Y-120450500D02*
X106800000Y-117870500D01*
%TD*%
%TA.AperFunction,Conductor*%
%TO.N,GND*%
G36*
X103772251Y-116420685D02*
G01*
X103818006Y-116473489D01*
X103827950Y-116542647D01*
X103826829Y-116549192D01*
X103799500Y-116686579D01*
X103799500Y-116686582D01*
X103799500Y-140084418D01*
X103799500Y-140084420D01*
X103799499Y-140084420D01*
X103828340Y-140229407D01*
X103828343Y-140229417D01*
X103884914Y-140365992D01*
X103917812Y-140415227D01*
X103917813Y-140415230D01*
X103967046Y-140488914D01*
X103967052Y-140488921D01*
X105313181Y-141835049D01*
X105346666Y-141896372D01*
X105349500Y-141922730D01*
X105349500Y-142313563D01*
X105329815Y-142380602D01*
X105298387Y-142413879D01*
X105236169Y-142459084D01*
X105236167Y-142459086D01*
X105236166Y-142459086D01*
X105088586Y-142606666D01*
X104965903Y-142775524D01*
X104871149Y-142961488D01*
X104806650Y-143159993D01*
X104774000Y-143366142D01*
X104774000Y-143574857D01*
X104806650Y-143781006D01*
X104871149Y-143979511D01*
X104940485Y-144115589D01*
X104965903Y-144165475D01*
X105088584Y-144334331D01*
X105088586Y-144334333D01*
X105236172Y-144481919D01*
X105277686Y-144512079D01*
X105298384Y-144527117D01*
X105301725Y-144531449D01*
X105306703Y-144533723D01*
X105322834Y-144558823D01*
X105341050Y-144582446D01*
X105342303Y-144589118D01*
X105344477Y-144592501D01*
X105349500Y-144627436D01*
X105349500Y-144853563D01*
X105329815Y-144920602D01*
X105298387Y-144953879D01*
X105236169Y-144999084D01*
X105236167Y-144999086D01*
X105236166Y-144999086D01*
X105088586Y-145146666D01*
X104965903Y-145315524D01*
X104871149Y-145501488D01*
X104806650Y-145699993D01*
X104774000Y-145906142D01*
X104774000Y-146114857D01*
X104806650Y-146321006D01*
X104871149Y-146519511D01*
X104940485Y-146655589D01*
X104965903Y-146705475D01*
X105088584Y-146874331D01*
X105236169Y-147021916D01*
X105405025Y-147144597D01*
X105492888Y-147189365D01*
X105590988Y-147239350D01*
X105590990Y-147239350D01*
X105590993Y-147239352D01*
X105697394Y-147273924D01*
X105789493Y-147303849D01*
X105892568Y-147320174D01*
X105995642Y-147336500D01*
X105995643Y-147336500D01*
X106204357Y-147336500D01*
X106204358Y-147336500D01*
X106410506Y-147303849D01*
X106609007Y-147239352D01*
X106794975Y-147144597D01*
X106963831Y-147021916D01*
X107111416Y-146874331D01*
X107234097Y-146705475D01*
X107259795Y-146655040D01*
X107307769Y-146604243D01*
X107375590Y-146587448D01*
X107441725Y-146609985D01*
X107480765Y-146655040D01*
X107506328Y-146705211D01*
X107506328Y-146705212D01*
X107542268Y-146754676D01*
X108197861Y-146099084D01*
X108220667Y-146184194D01*
X108279910Y-146286806D01*
X108363694Y-146370590D01*
X108466306Y-146429833D01*
X108551415Y-146452638D01*
X107895822Y-147108230D01*
X107895822Y-147108231D01*
X107945285Y-147144169D01*
X108131179Y-147238887D01*
X108329610Y-147303362D01*
X108535676Y-147336000D01*
X108744324Y-147336000D01*
X108950389Y-147303362D01*
X109148820Y-147238887D01*
X109334709Y-147144172D01*
X109384176Y-147108230D01*
X108728584Y-146452638D01*
X108813694Y-146429833D01*
X108916306Y-146370590D01*
X109000090Y-146286806D01*
X109059333Y-146184194D01*
X109082138Y-146099084D01*
X109737730Y-146754676D01*
X109773672Y-146705208D01*
X109773674Y-146705205D01*
X109799515Y-146654490D01*
X109847489Y-146603694D01*
X109915310Y-146586898D01*
X109981445Y-146609435D01*
X110020485Y-146654490D01*
X110046328Y-146705211D01*
X110046328Y-146705212D01*
X110082268Y-146754676D01*
X110737861Y-146099084D01*
X110760667Y-146184194D01*
X110819910Y-146286806D01*
X110903694Y-146370590D01*
X111006306Y-146429833D01*
X111091415Y-146452638D01*
X110435822Y-147108230D01*
X110435822Y-147108231D01*
X110485285Y-147144169D01*
X110671179Y-147238887D01*
X110869610Y-147303362D01*
X111075676Y-147336000D01*
X111284324Y-147336000D01*
X111490389Y-147303362D01*
X111688820Y-147238887D01*
X111874709Y-147144172D01*
X111924176Y-147108230D01*
X111268584Y-146452638D01*
X111353694Y-146429833D01*
X111456306Y-146370590D01*
X111540090Y-146286806D01*
X111599333Y-146184194D01*
X111622138Y-146099084D01*
X112277730Y-146754676D01*
X112313672Y-146705208D01*
X112313674Y-146705205D01*
X112339515Y-146654490D01*
X112387489Y-146603694D01*
X112455310Y-146586898D01*
X112521445Y-146609435D01*
X112560485Y-146654490D01*
X112586328Y-146705211D01*
X112586328Y-146705212D01*
X112622268Y-146754676D01*
X113277861Y-146099084D01*
X113300667Y-146184194D01*
X113359910Y-146286806D01*
X113443694Y-146370590D01*
X113546306Y-146429833D01*
X113631415Y-146452638D01*
X112975822Y-147108230D01*
X112975822Y-147108231D01*
X113025285Y-147144169D01*
X113211179Y-147238887D01*
X113409610Y-147303362D01*
X113615676Y-147336000D01*
X113824324Y-147336000D01*
X114030389Y-147303362D01*
X114228820Y-147238887D01*
X114414709Y-147144172D01*
X114464176Y-147108230D01*
X113808584Y-146452638D01*
X113893694Y-146429833D01*
X113996306Y-146370590D01*
X114080090Y-146286806D01*
X114139333Y-146184194D01*
X114162138Y-146099084D01*
X114817730Y-146754676D01*
X114853671Y-146705209D01*
X114879233Y-146655041D01*
X114927207Y-146604244D01*
X114995027Y-146587448D01*
X115061163Y-146609984D01*
X115100203Y-146655038D01*
X115125767Y-146705209D01*
X115125903Y-146705475D01*
X115248584Y-146874331D01*
X115396169Y-147021916D01*
X115565025Y-147144597D01*
X115652888Y-147189365D01*
X115750988Y-147239350D01*
X115750990Y-147239350D01*
X115750993Y-147239352D01*
X115857394Y-147273924D01*
X115949493Y-147303849D01*
X116052568Y-147320174D01*
X116155642Y-147336500D01*
X116155643Y-147336500D01*
X116364357Y-147336500D01*
X116364358Y-147336500D01*
X116570506Y-147303849D01*
X116769007Y-147239352D01*
X116954975Y-147144597D01*
X117123831Y-147021916D01*
X117271416Y-146874331D01*
X117394097Y-146705475D01*
X117419515Y-146655588D01*
X117467489Y-146604793D01*
X117535310Y-146587998D01*
X117601445Y-146610535D01*
X117640484Y-146655588D01*
X117665903Y-146705475D01*
X117788584Y-146874331D01*
X117936169Y-147021916D01*
X118105025Y-147144597D01*
X118192888Y-147189365D01*
X118290988Y-147239350D01*
X118290990Y-147239350D01*
X118290993Y-147239352D01*
X118397394Y-147273924D01*
X118489493Y-147303849D01*
X118592568Y-147320174D01*
X118695642Y-147336500D01*
X118695643Y-147336500D01*
X118904357Y-147336500D01*
X118904358Y-147336500D01*
X119110506Y-147303849D01*
X119309007Y-147239352D01*
X119494975Y-147144597D01*
X119663831Y-147021916D01*
X119811416Y-146874331D01*
X119934097Y-146705475D01*
X119959515Y-146655588D01*
X120007489Y-146604793D01*
X120075310Y-146587998D01*
X120141445Y-146610535D01*
X120180484Y-146655588D01*
X120205903Y-146705475D01*
X120328584Y-146874331D01*
X120476169Y-147021916D01*
X120645025Y-147144597D01*
X120732888Y-147189365D01*
X120830988Y-147239350D01*
X120830990Y-147239350D01*
X120830993Y-147239352D01*
X120937394Y-147273924D01*
X121029493Y-147303849D01*
X121132568Y-147320174D01*
X121235642Y-147336500D01*
X121235643Y-147336500D01*
X121444357Y-147336500D01*
X121444358Y-147336500D01*
X121650506Y-147303849D01*
X121849007Y-147239352D01*
X122034975Y-147144597D01*
X122203831Y-147021916D01*
X122351416Y-146874331D01*
X122474097Y-146705475D01*
X122499515Y-146655588D01*
X122547489Y-146604793D01*
X122615310Y-146587998D01*
X122681445Y-146610535D01*
X122720484Y-146655588D01*
X122745903Y-146705475D01*
X122868584Y-146874331D01*
X123016169Y-147021916D01*
X123185025Y-147144597D01*
X123272888Y-147189365D01*
X123370988Y-147239350D01*
X123370990Y-147239350D01*
X123370993Y-147239352D01*
X123477394Y-147273924D01*
X123569493Y-147303849D01*
X123672568Y-147320174D01*
X123775642Y-147336500D01*
X123775643Y-147336500D01*
X123984357Y-147336500D01*
X123984358Y-147336500D01*
X124190506Y-147303849D01*
X124389007Y-147239352D01*
X124574975Y-147144597D01*
X124743831Y-147021916D01*
X124891416Y-146874331D01*
X125014097Y-146705475D01*
X125108852Y-146519507D01*
X125173349Y-146321006D01*
X125206000Y-146114858D01*
X125206000Y-145906142D01*
X125173349Y-145699994D01*
X125108852Y-145501493D01*
X125108850Y-145501490D01*
X125108850Y-145501488D01*
X125014229Y-145315785D01*
X125014097Y-145315525D01*
X124891416Y-145146669D01*
X124743831Y-144999084D01*
X124574975Y-144876403D01*
X124525088Y-144850984D01*
X124474293Y-144803011D01*
X124457498Y-144735190D01*
X124480035Y-144669055D01*
X124525089Y-144630015D01*
X124574975Y-144604597D01*
X124743831Y-144481916D01*
X124891416Y-144334331D01*
X125014097Y-144165475D01*
X125108852Y-143979507D01*
X125173349Y-143781006D01*
X125206000Y-143574858D01*
X125206000Y-143366142D01*
X125173349Y-143159994D01*
X125108852Y-142961493D01*
X125108850Y-142961490D01*
X125108850Y-142961488D01*
X125014229Y-142775785D01*
X125014097Y-142775525D01*
X124891416Y-142606669D01*
X124743831Y-142459084D01*
X124574975Y-142336403D01*
X124530149Y-142313563D01*
X124389011Y-142241649D01*
X124190506Y-142177150D01*
X124012543Y-142148964D01*
X123984358Y-142144500D01*
X123775642Y-142144500D01*
X123750846Y-142148427D01*
X123569493Y-142177150D01*
X123370988Y-142241649D01*
X123185024Y-142336403D01*
X123016166Y-142459086D01*
X122868586Y-142606666D01*
X122745901Y-142775526D01*
X122720484Y-142825411D01*
X122672510Y-142876206D01*
X122604689Y-142893001D01*
X122538554Y-142870463D01*
X122499516Y-142825411D01*
X122474098Y-142775526D01*
X122438348Y-142726321D01*
X122351416Y-142606669D01*
X122203831Y-142459084D01*
X122034975Y-142336403D01*
X121990149Y-142313563D01*
X121849011Y-142241649D01*
X121650506Y-142177150D01*
X121472543Y-142148964D01*
X121444358Y-142144500D01*
X121235642Y-142144500D01*
X121210846Y-142148427D01*
X121029493Y-142177150D01*
X120830988Y-142241649D01*
X120645024Y-142336403D01*
X120476166Y-142459086D01*
X120328586Y-142606666D01*
X120205901Y-142775526D01*
X120180484Y-142825411D01*
X120132510Y-142876206D01*
X120064689Y-142893001D01*
X119998554Y-142870463D01*
X119959516Y-142825411D01*
X119934098Y-142775526D01*
X119898348Y-142726321D01*
X119811416Y-142606669D01*
X119663831Y-142459084D01*
X119601613Y-142413880D01*
X119558949Y-142358551D01*
X119550500Y-142313563D01*
X119550500Y-141272730D01*
X119570185Y-141205691D01*
X119586819Y-141185049D01*
X120474549Y-140297319D01*
X120535872Y-140263834D01*
X120562230Y-140261000D01*
X126123920Y-140261000D01*
X126234944Y-140238915D01*
X126268913Y-140232158D01*
X126405495Y-140175584D01*
X126454729Y-140142686D01*
X126528416Y-140093452D01*
X128287819Y-138334047D01*
X128349142Y-138300563D01*
X128418834Y-138305547D01*
X128474767Y-138347419D01*
X128499184Y-138412883D01*
X128499500Y-138421729D01*
X128499500Y-148886000D01*
X128479815Y-148953039D01*
X128427011Y-148998794D01*
X128375500Y-149010000D01*
X100624500Y-149010000D01*
X100557461Y-148990315D01*
X100511706Y-148937511D01*
X100500500Y-148886000D01*
X100500500Y-124261133D01*
X100520185Y-124194094D01*
X100572989Y-124148339D01*
X100642147Y-124138395D01*
X100705703Y-124167420D01*
X100724819Y-124188248D01*
X100769896Y-124250292D01*
X100920213Y-124400609D01*
X101092179Y-124525548D01*
X101092181Y-124525549D01*
X101092184Y-124525551D01*
X101281588Y-124622057D01*
X101483757Y-124687746D01*
X101693713Y-124721000D01*
X101693714Y-124721000D01*
X101906286Y-124721000D01*
X101906287Y-124721000D01*
X102116243Y-124687746D01*
X102318412Y-124622057D01*
X102507816Y-124525551D01*
X102529789Y-124509586D01*
X102679786Y-124400609D01*
X102679788Y-124400606D01*
X102679792Y-124400604D01*
X102830104Y-124250292D01*
X102830106Y-124250288D01*
X102830109Y-124250286D01*
X102955048Y-124078320D01*
X102955047Y-124078320D01*
X102955051Y-124078316D01*
X103051557Y-123888912D01*
X103117246Y-123686743D01*
X103150500Y-123476787D01*
X103150500Y-123264213D01*
X103117246Y-123054257D01*
X103051557Y-122852088D01*
X102955051Y-122662684D01*
X102955049Y-122662681D01*
X102955048Y-122662679D01*
X102830109Y-122490713D01*
X102679786Y-122340390D01*
X102507817Y-122215449D01*
X102498504Y-122210704D01*
X102447707Y-122162730D01*
X102430912Y-122094909D01*
X102453449Y-122028774D01*
X102498507Y-121989732D01*
X102507555Y-121985122D01*
X102561716Y-121945770D01*
X102561717Y-121945770D01*
X101929408Y-121313462D01*
X101992993Y-121296425D01*
X102107007Y-121230599D01*
X102200099Y-121137507D01*
X102265925Y-121023493D01*
X102282962Y-120959909D01*
X102915270Y-121592217D01*
X102915270Y-121592216D01*
X102954622Y-121538054D01*
X103051095Y-121348717D01*
X103116757Y-121146630D01*
X103116757Y-121146627D01*
X103150000Y-120936746D01*
X103150000Y-120724253D01*
X103116757Y-120514372D01*
X103116757Y-120514369D01*
X103051095Y-120312282D01*
X102954624Y-120122949D01*
X102915270Y-120068782D01*
X102915269Y-120068782D01*
X102282962Y-120701090D01*
X102265925Y-120637507D01*
X102200099Y-120523493D01*
X102107007Y-120430401D01*
X101992993Y-120364575D01*
X101929409Y-120347537D01*
X102561716Y-119715228D01*
X102507547Y-119675873D01*
X102507547Y-119675872D01*
X102498500Y-119671263D01*
X102447706Y-119623288D01*
X102430912Y-119555466D01*
X102453451Y-119489332D01*
X102498508Y-119450293D01*
X102507816Y-119445551D01*
X102600947Y-119377888D01*
X102679786Y-119320609D01*
X102679788Y-119320606D01*
X102679792Y-119320604D01*
X102830104Y-119170292D01*
X102830106Y-119170288D01*
X102830109Y-119170286D01*
X102955048Y-118998320D01*
X102955047Y-118998320D01*
X102955051Y-118998316D01*
X103051557Y-118808912D01*
X103117246Y-118606743D01*
X103150500Y-118396787D01*
X103150500Y-118184213D01*
X103117246Y-117974257D01*
X103051557Y-117772088D01*
X102955051Y-117582684D01*
X102955049Y-117582681D01*
X102955048Y-117582679D01*
X102830109Y-117410713D01*
X102679786Y-117260390D01*
X102507820Y-117135451D01*
X102507115Y-117135091D01*
X102499054Y-117130985D01*
X102448259Y-117083012D01*
X102431463Y-117015192D01*
X102453999Y-116949056D01*
X102499054Y-116910015D01*
X102507816Y-116905551D01*
X102602673Y-116836634D01*
X102679786Y-116780609D01*
X102679788Y-116780606D01*
X102679792Y-116780604D01*
X102830104Y-116630292D01*
X102830106Y-116630288D01*
X102830109Y-116630286D01*
X102957915Y-116454375D01*
X102959259Y-116455351D01*
X103005705Y-116413334D01*
X103059618Y-116401000D01*
X103705212Y-116401000D01*
X103772251Y-116420685D01*
G37*
%TD.AperFunction*%
%TA.AperFunction,Conductor*%
G36*
X108220667Y-143644194D02*
G01*
X108279910Y-143746806D01*
X108363694Y-143830590D01*
X108466306Y-143889833D01*
X108551415Y-143912638D01*
X107895822Y-144568230D01*
X107895822Y-144568231D01*
X107945285Y-144604169D01*
X107996010Y-144630015D01*
X108046806Y-144677990D01*
X108063601Y-144745810D01*
X108041064Y-144811945D01*
X107996010Y-144850985D01*
X107945285Y-144876830D01*
X107895822Y-144912768D01*
X107895821Y-144912768D01*
X108551415Y-145568361D01*
X108466306Y-145591167D01*
X108363694Y-145650410D01*
X108279910Y-145734194D01*
X108220667Y-145836806D01*
X108197861Y-145921914D01*
X107542268Y-145266321D01*
X107542268Y-145266322D01*
X107506330Y-145315785D01*
X107480765Y-145365960D01*
X107432790Y-145416756D01*
X107364969Y-145433551D01*
X107298834Y-145411013D01*
X107259795Y-145365960D01*
X107234229Y-145315785D01*
X107234097Y-145315525D01*
X107111416Y-145146669D01*
X106963831Y-144999084D01*
X106897861Y-144951154D01*
X106894334Y-144948165D01*
X106877567Y-144922695D01*
X106858949Y-144898551D01*
X106857862Y-144892763D01*
X106855915Y-144889806D01*
X106855828Y-144881934D01*
X106850500Y-144853563D01*
X106850500Y-144627436D01*
X106870185Y-144560397D01*
X106901614Y-144527118D01*
X106963831Y-144481916D01*
X107111416Y-144334331D01*
X107234097Y-144165475D01*
X107259795Y-144115040D01*
X107307769Y-144064243D01*
X107375590Y-144047448D01*
X107441725Y-144069985D01*
X107480765Y-144115040D01*
X107506328Y-144165211D01*
X107506328Y-144165212D01*
X107542268Y-144214676D01*
X108197861Y-143559084D01*
X108220667Y-143644194D01*
G37*
%TD.AperFunction*%
%TA.AperFunction,Conductor*%
G36*
X110760667Y-143644194D02*
G01*
X110819910Y-143746806D01*
X110903694Y-143830590D01*
X111006306Y-143889833D01*
X111091415Y-143912638D01*
X110435822Y-144568230D01*
X110435822Y-144568231D01*
X110485285Y-144604169D01*
X110536010Y-144630015D01*
X110586806Y-144677990D01*
X110603601Y-144745810D01*
X110581064Y-144811945D01*
X110536010Y-144850985D01*
X110485285Y-144876830D01*
X110435822Y-144912768D01*
X110435821Y-144912768D01*
X111091415Y-145568361D01*
X111006306Y-145591167D01*
X110903694Y-145650410D01*
X110819910Y-145734194D01*
X110760667Y-145836806D01*
X110737861Y-145921914D01*
X110082268Y-145266321D01*
X110082268Y-145266322D01*
X110046330Y-145315785D01*
X110020485Y-145366510D01*
X109972510Y-145417306D01*
X109904690Y-145434101D01*
X109838555Y-145411564D01*
X109799515Y-145366510D01*
X109773669Y-145315785D01*
X109737730Y-145266322D01*
X109082138Y-145921914D01*
X109059333Y-145836806D01*
X109000090Y-145734194D01*
X108916306Y-145650410D01*
X108813694Y-145591167D01*
X108728584Y-145568361D01*
X109384176Y-144912768D01*
X109384176Y-144912767D01*
X109334711Y-144876828D01*
X109283990Y-144850985D01*
X109233194Y-144803011D01*
X109216398Y-144735190D01*
X109238935Y-144669055D01*
X109283990Y-144630015D01*
X109334705Y-144604174D01*
X109334708Y-144604172D01*
X109384176Y-144568230D01*
X108728584Y-143912638D01*
X108813694Y-143889833D01*
X108916306Y-143830590D01*
X109000090Y-143746806D01*
X109059333Y-143644194D01*
X109082138Y-143559084D01*
X109737730Y-144214676D01*
X109773672Y-144165208D01*
X109773674Y-144165205D01*
X109799515Y-144114490D01*
X109847489Y-144063694D01*
X109915310Y-144046898D01*
X109981445Y-144069435D01*
X110020485Y-144114490D01*
X110046328Y-144165211D01*
X110046328Y-144165212D01*
X110082268Y-144214676D01*
X110737861Y-143559084D01*
X110760667Y-143644194D01*
G37*
%TD.AperFunction*%
%TA.AperFunction,Conductor*%
G36*
X113300667Y-143644194D02*
G01*
X113359910Y-143746806D01*
X113443694Y-143830590D01*
X113546306Y-143889833D01*
X113631415Y-143912638D01*
X112975822Y-144568230D01*
X112975822Y-144568231D01*
X113025285Y-144604169D01*
X113076010Y-144630015D01*
X113126806Y-144677990D01*
X113143601Y-144745810D01*
X113121064Y-144811945D01*
X113076010Y-144850985D01*
X113025285Y-144876830D01*
X112975822Y-144912768D01*
X112975821Y-144912768D01*
X113631415Y-145568361D01*
X113546306Y-145591167D01*
X113443694Y-145650410D01*
X113359910Y-145734194D01*
X113300667Y-145836806D01*
X113277861Y-145921914D01*
X112622268Y-145266321D01*
X112622268Y-145266322D01*
X112586330Y-145315785D01*
X112560485Y-145366510D01*
X112512510Y-145417306D01*
X112444690Y-145434101D01*
X112378555Y-145411564D01*
X112339515Y-145366510D01*
X112313669Y-145315785D01*
X112277730Y-145266322D01*
X111622138Y-145921914D01*
X111599333Y-145836806D01*
X111540090Y-145734194D01*
X111456306Y-145650410D01*
X111353694Y-145591167D01*
X111268584Y-145568361D01*
X111924176Y-144912768D01*
X111924176Y-144912767D01*
X111874711Y-144876828D01*
X111823990Y-144850985D01*
X111773194Y-144803011D01*
X111756398Y-144735190D01*
X111778935Y-144669055D01*
X111823990Y-144630015D01*
X111874705Y-144604174D01*
X111874708Y-144604172D01*
X111924176Y-144568230D01*
X111268584Y-143912638D01*
X111353694Y-143889833D01*
X111456306Y-143830590D01*
X111540090Y-143746806D01*
X111599333Y-143644194D01*
X111622138Y-143559084D01*
X112277730Y-144214676D01*
X112313672Y-144165208D01*
X112313674Y-144165205D01*
X112339515Y-144114490D01*
X112387489Y-144063694D01*
X112455310Y-144046898D01*
X112521445Y-144069435D01*
X112560485Y-144114490D01*
X112586328Y-144165211D01*
X112586328Y-144165212D01*
X112622268Y-144214676D01*
X113277861Y-143559084D01*
X113300667Y-143644194D01*
G37*
%TD.AperFunction*%
%TA.AperFunction,Conductor*%
G36*
X114817730Y-144214676D02*
G01*
X114853671Y-144165209D01*
X114879233Y-144115041D01*
X114927207Y-144064244D01*
X114995027Y-144047448D01*
X115061163Y-144069984D01*
X115100203Y-144115038D01*
X115125767Y-144165209D01*
X115125903Y-144165475D01*
X115248584Y-144334331D01*
X115248586Y-144334333D01*
X115396172Y-144481919D01*
X115437686Y-144512079D01*
X115458384Y-144527117D01*
X115461725Y-144531449D01*
X115466703Y-144533723D01*
X115482834Y-144558823D01*
X115501050Y-144582446D01*
X115502303Y-144589118D01*
X115504477Y-144592501D01*
X115509500Y-144627436D01*
X115509500Y-144853563D01*
X115489815Y-144920602D01*
X115458387Y-144953879D01*
X115396169Y-144999084D01*
X115396167Y-144999086D01*
X115396166Y-144999086D01*
X115248586Y-145146666D01*
X115125903Y-145315524D01*
X115100203Y-145365962D01*
X115052228Y-145416757D01*
X114984406Y-145433551D01*
X114918272Y-145411012D01*
X114879234Y-145365959D01*
X114853671Y-145315788D01*
X114853671Y-145315787D01*
X114817730Y-145266322D01*
X114162138Y-145921914D01*
X114139333Y-145836806D01*
X114080090Y-145734194D01*
X113996306Y-145650410D01*
X113893694Y-145591167D01*
X113808584Y-145568361D01*
X114464176Y-144912768D01*
X114464176Y-144912767D01*
X114414711Y-144876828D01*
X114363990Y-144850985D01*
X114313194Y-144803011D01*
X114296398Y-144735190D01*
X114318935Y-144669055D01*
X114363990Y-144630015D01*
X114414705Y-144604174D01*
X114414708Y-144604172D01*
X114464176Y-144568230D01*
X113808584Y-143912638D01*
X113893694Y-143889833D01*
X113996306Y-143830590D01*
X114080090Y-143746806D01*
X114139333Y-143644194D01*
X114162138Y-143559084D01*
X114817730Y-144214676D01*
G37*
%TD.AperFunction*%
%TA.AperFunction,Conductor*%
G36*
X105508834Y-116965547D02*
G01*
X105564767Y-117007419D01*
X105589184Y-117072883D01*
X105589500Y-117081729D01*
X105589500Y-118780501D01*
X105589501Y-118780518D01*
X105600000Y-118883296D01*
X105600001Y-118883299D01*
X105638116Y-118998320D01*
X105655186Y-119049834D01*
X105747288Y-119199156D01*
X105871344Y-119323212D01*
X105960717Y-119378337D01*
X106007441Y-119430283D01*
X106018664Y-119499246D01*
X105990821Y-119563328D01*
X105983302Y-119571556D01*
X105885453Y-119669405D01*
X105774523Y-119822086D01*
X105688844Y-119990241D01*
X105630522Y-120169736D01*
X105601000Y-120356131D01*
X105601000Y-120544868D01*
X105630522Y-120731263D01*
X105630522Y-120731265D01*
X105630523Y-120731267D01*
X105688843Y-120910756D01*
X105774523Y-121078913D01*
X105885454Y-121231596D01*
X106018904Y-121365046D01*
X106171587Y-121475977D01*
X106339744Y-121561657D01*
X106519233Y-121619977D01*
X106589134Y-121631048D01*
X106705632Y-121649500D01*
X106705637Y-121649500D01*
X106894368Y-121649500D01*
X107002008Y-121632451D01*
X107080767Y-121619977D01*
X107260256Y-121561657D01*
X107428413Y-121475977D01*
X107581096Y-121365046D01*
X107714546Y-121231596D01*
X107825477Y-121078913D01*
X107911157Y-120910756D01*
X107969477Y-120731267D01*
X107984327Y-120637507D01*
X107999000Y-120544868D01*
X107999000Y-120356131D01*
X107969477Y-120169736D01*
X107969477Y-120169733D01*
X107911157Y-119990244D01*
X107825477Y-119822087D01*
X107714546Y-119669404D01*
X107676996Y-119631854D01*
X107643511Y-119570531D01*
X107648495Y-119500839D01*
X107690367Y-119444906D01*
X107725667Y-119426470D01*
X107759334Y-119415314D01*
X107908656Y-119323212D01*
X108032712Y-119199156D01*
X108124814Y-119049834D01*
X108151955Y-118967927D01*
X108191726Y-118910484D01*
X108256242Y-118883661D01*
X108325018Y-118895976D01*
X108369977Y-118934047D01*
X108416672Y-118998316D01*
X108438034Y-119027719D01*
X108582786Y-119172471D01*
X108748385Y-119292784D01*
X108748387Y-119292785D01*
X108748390Y-119292787D01*
X108776878Y-119307302D01*
X108827674Y-119355275D01*
X108844470Y-119423095D01*
X108821934Y-119489231D01*
X108793473Y-119518103D01*
X108781841Y-119526554D01*
X108768904Y-119535954D01*
X108768902Y-119535956D01*
X108768901Y-119535956D01*
X108635456Y-119669401D01*
X108635456Y-119669402D01*
X108635454Y-119669404D01*
X108630755Y-119675872D01*
X108524523Y-119822086D01*
X108438844Y-119990241D01*
X108380522Y-120169736D01*
X108351000Y-120356131D01*
X108351000Y-120544868D01*
X108380522Y-120731263D01*
X108380522Y-120731265D01*
X108380523Y-120731267D01*
X108438843Y-120910756D01*
X108524523Y-121078913D01*
X108635454Y-121231596D01*
X108635456Y-121231598D01*
X108768907Y-121365049D01*
X108848384Y-121422791D01*
X108891051Y-121478121D01*
X108899500Y-121523110D01*
X108899500Y-124999691D01*
X108879815Y-125066730D01*
X108863181Y-125087372D01*
X107098476Y-126852076D01*
X107037153Y-126885561D01*
X106991397Y-126886868D01*
X106894368Y-126871500D01*
X106894363Y-126871500D01*
X106705637Y-126871500D01*
X106705632Y-126871500D01*
X106519236Y-126901022D01*
X106339741Y-126959344D01*
X106171586Y-127045023D01*
X106098388Y-127098205D01*
X106018904Y-127155954D01*
X106018902Y-127155956D01*
X106018901Y-127155956D01*
X105885456Y-127289401D01*
X105885456Y-127289402D01*
X105885454Y-127289404D01*
X105837813Y-127354975D01*
X105774523Y-127442086D01*
X105688844Y-127610241D01*
X105630522Y-127789736D01*
X105601000Y-127976131D01*
X105601000Y-128164868D01*
X105630522Y-128351263D01*
X105630523Y-128351267D01*
X105688843Y-128530756D01*
X105774523Y-128698913D01*
X105885454Y-128851596D01*
X106018904Y-128985046D01*
X106171587Y-129095977D01*
X106339744Y-129181657D01*
X106519233Y-129239977D01*
X106589134Y-129251048D01*
X106705632Y-129269500D01*
X106705637Y-129269500D01*
X106894368Y-129269500D01*
X106997920Y-129253098D01*
X107080767Y-129239977D01*
X107260256Y-129181657D01*
X107428413Y-129095977D01*
X107581096Y-128985046D01*
X107714546Y-128851596D01*
X107825477Y-128698913D01*
X107911157Y-128530756D01*
X107969477Y-128351267D01*
X107982598Y-128268420D01*
X107999000Y-128164868D01*
X107999000Y-127976139D01*
X107998999Y-127976131D01*
X107983630Y-127879098D01*
X107992584Y-127809808D01*
X108018419Y-127772025D01*
X108198112Y-127592332D01*
X108259433Y-127558849D01*
X108329125Y-127563833D01*
X108385058Y-127605705D01*
X108409475Y-127671169D01*
X108403722Y-127718332D01*
X108380523Y-127789731D01*
X108380522Y-127789736D01*
X108351000Y-127976131D01*
X108351000Y-128164868D01*
X108380522Y-128351263D01*
X108380523Y-128351267D01*
X108438843Y-128530756D01*
X108524523Y-128698913D01*
X108635454Y-128851596D01*
X108768904Y-128985046D01*
X108921587Y-129095977D01*
X109089744Y-129181657D01*
X109269233Y-129239977D01*
X109339134Y-129251048D01*
X109455632Y-129269500D01*
X109455637Y-129269500D01*
X109644368Y-129269500D01*
X109747920Y-129253098D01*
X109830767Y-129239977D01*
X110010256Y-129181657D01*
X110178413Y-129095977D01*
X110331096Y-128985046D01*
X110464546Y-128851596D01*
X110575477Y-128698913D01*
X110661157Y-128530756D01*
X110719477Y-128351267D01*
X110732598Y-128268420D01*
X110749000Y-128164868D01*
X110749000Y-127976131D01*
X110729318Y-127851867D01*
X110719477Y-127789733D01*
X110661157Y-127610244D01*
X110575477Y-127442087D01*
X110464546Y-127289404D01*
X110331096Y-127155954D01*
X110178413Y-127045023D01*
X110010256Y-126959343D01*
X109830767Y-126901023D01*
X109830765Y-126901022D01*
X109830763Y-126901022D01*
X109644368Y-126871500D01*
X109644363Y-126871500D01*
X109455637Y-126871500D01*
X109455632Y-126871500D01*
X109269236Y-126901022D01*
X109269235Y-126901022D01*
X109197834Y-126924222D01*
X109127993Y-126926217D01*
X109068160Y-126890136D01*
X109037332Y-126827435D01*
X109045297Y-126758021D01*
X109071833Y-126718611D01*
X110055276Y-125735170D01*
X110126465Y-125628627D01*
X110175501Y-125510244D01*
X110200500Y-125384569D01*
X110200500Y-121523110D01*
X110220185Y-121456071D01*
X110251616Y-121422791D01*
X110331092Y-121365049D01*
X110331092Y-121365048D01*
X110331096Y-121365046D01*
X110464546Y-121231596D01*
X110575477Y-121078913D01*
X110661157Y-120910756D01*
X110719477Y-120731267D01*
X110734327Y-120637507D01*
X110749000Y-120544868D01*
X110749000Y-120356131D01*
X110719477Y-120169736D01*
X110719477Y-120169733D01*
X110661157Y-119990244D01*
X110575477Y-119822087D01*
X110464546Y-119669404D01*
X110331096Y-119535954D01*
X110327131Y-119533073D01*
X110251613Y-119478205D01*
X110248272Y-119473873D01*
X110243297Y-119471601D01*
X110227167Y-119446503D01*
X110208948Y-119422875D01*
X110207695Y-119416202D01*
X110205523Y-119412823D01*
X110200500Y-119377888D01*
X110200500Y-119291386D01*
X110220185Y-119224347D01*
X110251618Y-119191066D01*
X110277219Y-119172466D01*
X110421966Y-119027719D01*
X110421968Y-119027715D01*
X110421971Y-119027713D01*
X110542284Y-118862114D01*
X110542285Y-118862113D01*
X110542287Y-118862110D01*
X110589516Y-118769417D01*
X110637489Y-118718623D01*
X110705310Y-118701828D01*
X110771445Y-118724365D01*
X110810483Y-118769417D01*
X110854348Y-118855506D01*
X110857715Y-118862114D01*
X110978028Y-119027713D01*
X111122786Y-119172471D01*
X111272022Y-119280895D01*
X111288390Y-119292787D01*
X111399713Y-119349509D01*
X111470776Y-119385718D01*
X111470778Y-119385718D01*
X111470781Y-119385720D01*
X111561856Y-119415312D01*
X111665465Y-119448977D01*
X111766557Y-119464988D01*
X111867648Y-119481000D01*
X111867649Y-119481000D01*
X112072351Y-119481000D01*
X112072352Y-119481000D01*
X112274534Y-119448977D01*
X112469219Y-119385720D01*
X112651610Y-119292787D01*
X112780482Y-119199157D01*
X112817213Y-119172471D01*
X112817215Y-119172468D01*
X112817219Y-119172466D01*
X112961966Y-119027719D01*
X112961968Y-119027715D01*
X112961971Y-119027713D01*
X113082284Y-118862114D01*
X113082285Y-118862113D01*
X113082287Y-118862110D01*
X113129516Y-118769417D01*
X113177489Y-118718623D01*
X113245310Y-118701828D01*
X113311445Y-118724365D01*
X113350483Y-118769417D01*
X113394348Y-118855506D01*
X113397715Y-118862114D01*
X113518028Y-119027713D01*
X113618181Y-119127866D01*
X113651666Y-119189189D01*
X113654500Y-119215547D01*
X113654500Y-139689418D01*
X113654500Y-139689420D01*
X113654499Y-139689420D01*
X113683340Y-139834407D01*
X113683343Y-139834417D01*
X113739914Y-139970992D01*
X113772812Y-140020227D01*
X113772813Y-140020230D01*
X113822046Y-140093914D01*
X113822047Y-140093915D01*
X113822048Y-140093916D01*
X113967048Y-140238916D01*
X114720217Y-140992085D01*
X115473181Y-141745048D01*
X115506666Y-141806371D01*
X115509500Y-141832729D01*
X115509500Y-142313563D01*
X115489815Y-142380602D01*
X115458387Y-142413879D01*
X115396169Y-142459084D01*
X115396167Y-142459086D01*
X115396166Y-142459086D01*
X115248586Y-142606666D01*
X115125903Y-142775524D01*
X115100203Y-142825962D01*
X115052228Y-142876757D01*
X114984406Y-142893551D01*
X114918272Y-142871012D01*
X114879234Y-142825959D01*
X114853671Y-142775788D01*
X114853671Y-142775787D01*
X114817730Y-142726322D01*
X114162138Y-143381914D01*
X114139333Y-143296806D01*
X114080090Y-143194194D01*
X113996306Y-143110410D01*
X113893694Y-143051167D01*
X113808584Y-143028361D01*
X114464176Y-142372768D01*
X114464176Y-142372767D01*
X114414714Y-142336830D01*
X114228820Y-142242112D01*
X114030389Y-142177637D01*
X113824324Y-142145000D01*
X113615676Y-142145000D01*
X113409610Y-142177637D01*
X113211179Y-142242112D01*
X113025285Y-142336830D01*
X112975822Y-142372768D01*
X112975821Y-142372768D01*
X113631415Y-143028361D01*
X113546306Y-143051167D01*
X113443694Y-143110410D01*
X113359910Y-143194194D01*
X113300667Y-143296806D01*
X113277861Y-143381914D01*
X112622268Y-142726321D01*
X112622268Y-142726322D01*
X112586330Y-142775785D01*
X112560485Y-142826510D01*
X112512510Y-142877306D01*
X112444690Y-142894101D01*
X112378555Y-142871564D01*
X112339515Y-142826510D01*
X112313669Y-142775785D01*
X112277730Y-142726322D01*
X111622138Y-143381914D01*
X111599333Y-143296806D01*
X111540090Y-143194194D01*
X111456306Y-143110410D01*
X111353694Y-143051167D01*
X111268584Y-143028361D01*
X111924176Y-142372768D01*
X111924176Y-142372767D01*
X111874714Y-142336830D01*
X111688820Y-142242112D01*
X111490389Y-142177637D01*
X111284324Y-142145000D01*
X111075676Y-142145000D01*
X110869610Y-142177637D01*
X110671179Y-142242112D01*
X110485285Y-142336830D01*
X110435822Y-142372768D01*
X110435821Y-142372768D01*
X111091415Y-143028361D01*
X111006306Y-143051167D01*
X110903694Y-143110410D01*
X110819910Y-143194194D01*
X110760667Y-143296806D01*
X110737861Y-143381914D01*
X110082268Y-142726321D01*
X110082268Y-142726322D01*
X110046330Y-142775785D01*
X110020485Y-142826510D01*
X109972510Y-142877306D01*
X109904690Y-142894101D01*
X109838555Y-142871564D01*
X109799515Y-142826510D01*
X109773669Y-142775785D01*
X109737730Y-142726322D01*
X109082138Y-143381914D01*
X109059333Y-143296806D01*
X109000090Y-143194194D01*
X108916306Y-143110410D01*
X108813694Y-143051167D01*
X108728584Y-143028361D01*
X109384176Y-142372768D01*
X109384176Y-142372767D01*
X109334714Y-142336830D01*
X109148820Y-142242112D01*
X108950389Y-142177637D01*
X108744324Y-142145000D01*
X108535676Y-142145000D01*
X108329610Y-142177637D01*
X108131179Y-142242112D01*
X107945285Y-142336830D01*
X107895822Y-142372768D01*
X107895821Y-142372768D01*
X108551415Y-143028361D01*
X108466306Y-143051167D01*
X108363694Y-143110410D01*
X108279910Y-143194194D01*
X108220667Y-143296806D01*
X108197861Y-143381914D01*
X107542268Y-142726321D01*
X107542268Y-142726322D01*
X107506330Y-142775785D01*
X107480765Y-142825960D01*
X107432790Y-142876756D01*
X107364969Y-142893551D01*
X107298834Y-142871013D01*
X107259795Y-142825960D01*
X107234229Y-142775785D01*
X107234097Y-142775525D01*
X107111416Y-142606669D01*
X106963831Y-142459084D01*
X106897861Y-142411154D01*
X106894334Y-142408165D01*
X106877567Y-142382695D01*
X106858949Y-142358551D01*
X106857862Y-142352763D01*
X106855915Y-142349806D01*
X106855828Y-142341934D01*
X106850500Y-142313563D01*
X106850500Y-141486579D01*
X106821659Y-141341592D01*
X106821658Y-141341591D01*
X106821658Y-141341587D01*
X106765084Y-141205005D01*
X106732186Y-141155770D01*
X106732185Y-141155768D01*
X106682956Y-141082089D01*
X106682952Y-141082084D01*
X105336819Y-139735951D01*
X105303334Y-139674628D01*
X105300500Y-139648270D01*
X105300500Y-117122729D01*
X105309144Y-117093288D01*
X105315668Y-117063302D01*
X105319422Y-117058286D01*
X105320185Y-117055690D01*
X105336815Y-117035052D01*
X105377820Y-116994047D01*
X105439142Y-116960563D01*
X105508834Y-116965547D01*
G37*
%TD.AperFunction*%
%TA.AperFunction,Conductor*%
G36*
X122852398Y-115194795D02*
G01*
X122863660Y-115195198D01*
X122883609Y-115209049D01*
X122905703Y-115219139D01*
X122913284Y-115229652D01*
X122921052Y-115235046D01*
X122939061Y-115265400D01*
X122973532Y-115348623D01*
X123044726Y-115455173D01*
X123044727Y-115455174D01*
X125449342Y-117859788D01*
X125482827Y-117921111D01*
X125482319Y-117969255D01*
X125483516Y-117969445D01*
X125449500Y-118184213D01*
X125449500Y-118396787D01*
X125482754Y-118606743D01*
X125539217Y-118780518D01*
X125548444Y-118808914D01*
X125644951Y-118998320D01*
X125769890Y-119170286D01*
X125920213Y-119320609D01*
X126092182Y-119445550D01*
X126100946Y-119450016D01*
X126151742Y-119497991D01*
X126168536Y-119565812D01*
X126145998Y-119631947D01*
X126100946Y-119670984D01*
X126092182Y-119675449D01*
X125920213Y-119800390D01*
X125769890Y-119950713D01*
X125644951Y-120122679D01*
X125548444Y-120312085D01*
X125548443Y-120312087D01*
X125548443Y-120312088D01*
X125534131Y-120356137D01*
X125482753Y-120514260D01*
X125449500Y-120724213D01*
X125449500Y-120936786D01*
X125482735Y-121146627D01*
X125482754Y-121146743D01*
X125510325Y-121231598D01*
X125548444Y-121348914D01*
X125644951Y-121538320D01*
X125769890Y-121710286D01*
X125920213Y-121860609D01*
X126092182Y-121985550D01*
X126100946Y-121990016D01*
X126151742Y-122037991D01*
X126168536Y-122105812D01*
X126145998Y-122171947D01*
X126100946Y-122210984D01*
X126092182Y-122215449D01*
X125920213Y-122340390D01*
X125769890Y-122490713D01*
X125644951Y-122662679D01*
X125548444Y-122852085D01*
X125482753Y-123054260D01*
X125449500Y-123264213D01*
X125449500Y-123476786D01*
X125482753Y-123686739D01*
X125548444Y-123888914D01*
X125644951Y-124078320D01*
X125769890Y-124250286D01*
X125920213Y-124400609D01*
X126092179Y-124525548D01*
X126092181Y-124525549D01*
X126092184Y-124525551D01*
X126281588Y-124622057D01*
X126483757Y-124687746D01*
X126693713Y-124721000D01*
X126693714Y-124721000D01*
X126906286Y-124721000D01*
X126906287Y-124721000D01*
X127116243Y-124687746D01*
X127229058Y-124651089D01*
X127298897Y-124649095D01*
X127358730Y-124685175D01*
X127389558Y-124747876D01*
X127391374Y-124769021D01*
X127391374Y-137056396D01*
X127371689Y-137123435D01*
X127355055Y-137144077D01*
X125775451Y-138723681D01*
X125714128Y-138757166D01*
X125687770Y-138760000D01*
X120126080Y-138760000D01*
X119981092Y-138788840D01*
X119981086Y-138788842D01*
X119844508Y-138845414D01*
X119844496Y-138845421D01*
X119795269Y-138878313D01*
X119721588Y-138927544D01*
X119721580Y-138927550D01*
X118217050Y-140432081D01*
X118217044Y-140432089D01*
X118179074Y-140488915D01*
X118179075Y-140488916D01*
X118134913Y-140555008D01*
X118078343Y-140691582D01*
X118078340Y-140691592D01*
X118049500Y-140836579D01*
X118049500Y-142313563D01*
X118029815Y-142380602D01*
X117998387Y-142413879D01*
X117936169Y-142459084D01*
X117936167Y-142459086D01*
X117936166Y-142459086D01*
X117788586Y-142606666D01*
X117665901Y-142775526D01*
X117640484Y-142825411D01*
X117592510Y-142876206D01*
X117524689Y-142893001D01*
X117458554Y-142870463D01*
X117419516Y-142825411D01*
X117394098Y-142775526D01*
X117358348Y-142726321D01*
X117271416Y-142606669D01*
X117123831Y-142459084D01*
X117061613Y-142413880D01*
X117018949Y-142358551D01*
X117010500Y-142313563D01*
X117010500Y-141396579D01*
X116981659Y-141251592D01*
X116981658Y-141251591D01*
X116981658Y-141251587D01*
X116969141Y-141221368D01*
X116925087Y-141115011D01*
X116925080Y-141114998D01*
X116842952Y-140992085D01*
X116842951Y-140992084D01*
X116738416Y-140887549D01*
X115191819Y-139340951D01*
X115158334Y-139279628D01*
X115155500Y-139253270D01*
X115155500Y-127976131D01*
X118351000Y-127976131D01*
X118351000Y-128164868D01*
X118380522Y-128351263D01*
X118380523Y-128351267D01*
X118438843Y-128530756D01*
X118524523Y-128698913D01*
X118635454Y-128851596D01*
X118768904Y-128985046D01*
X118921587Y-129095977D01*
X119089744Y-129181657D01*
X119269233Y-129239977D01*
X119339134Y-129251048D01*
X119455632Y-129269500D01*
X119455637Y-129269500D01*
X119644368Y-129269500D01*
X119747920Y-129253098D01*
X119830767Y-129239977D01*
X120010256Y-129181657D01*
X120178413Y-129095977D01*
X120331096Y-128985046D01*
X120464546Y-128851596D01*
X120575477Y-128698913D01*
X120661157Y-128530756D01*
X120719477Y-128351267D01*
X120732598Y-128268420D01*
X120749000Y-128164868D01*
X120749000Y-127976131D01*
X120729318Y-127851867D01*
X120719477Y-127789733D01*
X120661157Y-127610244D01*
X120575477Y-127442087D01*
X120464546Y-127289404D01*
X120331096Y-127155954D01*
X120178413Y-127045023D01*
X120010256Y-126959343D01*
X119830767Y-126901023D01*
X119830765Y-126901022D01*
X119830763Y-126901022D01*
X119644368Y-126871500D01*
X119644363Y-126871500D01*
X119455637Y-126871500D01*
X119455632Y-126871500D01*
X119269236Y-126901022D01*
X119089741Y-126959344D01*
X118921586Y-127045023D01*
X118848388Y-127098205D01*
X118768904Y-127155954D01*
X118768902Y-127155956D01*
X118768901Y-127155956D01*
X118635456Y-127289401D01*
X118635456Y-127289402D01*
X118635454Y-127289404D01*
X118587813Y-127354975D01*
X118524523Y-127442086D01*
X118438844Y-127610241D01*
X118380522Y-127789736D01*
X118351000Y-127976131D01*
X115155500Y-127976131D01*
X115155500Y-119382203D01*
X115175185Y-119315164D01*
X115206614Y-119281885D01*
X115357219Y-119172466D01*
X115501966Y-119027719D01*
X115501968Y-119027715D01*
X115501971Y-119027713D01*
X115622284Y-118862114D01*
X115622285Y-118862113D01*
X115622287Y-118862110D01*
X115669516Y-118769417D01*
X115717489Y-118718623D01*
X115785310Y-118701828D01*
X115851445Y-118724365D01*
X115890483Y-118769417D01*
X115934348Y-118855506D01*
X115937715Y-118862114D01*
X116058028Y-119027713D01*
X116202786Y-119172471D01*
X116352022Y-119280895D01*
X116368390Y-119292787D01*
X116479713Y-119349509D01*
X116550776Y-119385718D01*
X116550778Y-119385718D01*
X116550781Y-119385720D01*
X116641856Y-119415312D01*
X116745465Y-119448977D01*
X116846557Y-119464988D01*
X116947648Y-119481000D01*
X116947649Y-119481000D01*
X117152351Y-119481000D01*
X117152352Y-119481000D01*
X117354534Y-119448977D01*
X117549219Y-119385720D01*
X117731610Y-119292787D01*
X117860482Y-119199157D01*
X117897213Y-119172471D01*
X117897215Y-119172468D01*
X117897219Y-119172466D01*
X118041966Y-119027719D01*
X118041968Y-119027715D01*
X118041971Y-119027713D01*
X118162284Y-118862114D01*
X118162285Y-118862113D01*
X118162287Y-118862110D01*
X118209516Y-118769417D01*
X118257489Y-118718623D01*
X118325310Y-118701828D01*
X118391445Y-118724365D01*
X118430483Y-118769417D01*
X118474348Y-118855506D01*
X118477715Y-118862114D01*
X118598028Y-119027713D01*
X118742784Y-119172469D01*
X118779518Y-119199157D01*
X118848384Y-119249190D01*
X118851725Y-119253522D01*
X118856703Y-119255796D01*
X118872833Y-119280895D01*
X118891051Y-119304520D01*
X118892304Y-119311193D01*
X118894477Y-119314574D01*
X118899500Y-119349509D01*
X118899500Y-119377888D01*
X118879815Y-119444927D01*
X118848387Y-119478205D01*
X118768904Y-119535953D01*
X118635456Y-119669401D01*
X118635456Y-119669402D01*
X118635454Y-119669404D01*
X118630755Y-119675872D01*
X118524523Y-119822086D01*
X118438844Y-119990241D01*
X118380522Y-120169736D01*
X118351000Y-120356131D01*
X118351000Y-120544868D01*
X118380522Y-120731263D01*
X118380522Y-120731265D01*
X118380523Y-120731267D01*
X118438843Y-120910756D01*
X118524523Y-121078913D01*
X118635454Y-121231596D01*
X118768904Y-121365046D01*
X118921587Y-121475977D01*
X119089744Y-121561657D01*
X119269233Y-121619977D01*
X119339134Y-121631048D01*
X119455632Y-121649500D01*
X119455637Y-121649500D01*
X119644360Y-121649500D01*
X119644363Y-121649500D01*
X119689603Y-121642334D01*
X119758893Y-121651288D01*
X119796680Y-121677126D01*
X121613181Y-123493627D01*
X121646666Y-123554950D01*
X121649500Y-123581308D01*
X121649500Y-126997888D01*
X121629815Y-127064927D01*
X121598387Y-127098205D01*
X121518904Y-127155953D01*
X121385456Y-127289401D01*
X121385456Y-127289402D01*
X121385454Y-127289404D01*
X121337813Y-127354975D01*
X121274523Y-127442086D01*
X121188844Y-127610241D01*
X121130522Y-127789736D01*
X121101000Y-127976131D01*
X121101000Y-128164868D01*
X121130522Y-128351263D01*
X121130523Y-128351267D01*
X121188843Y-128530756D01*
X121274523Y-128698913D01*
X121385454Y-128851596D01*
X121518904Y-128985046D01*
X121671587Y-129095977D01*
X121839744Y-129181657D01*
X122019233Y-129239977D01*
X122089134Y-129251048D01*
X122205632Y-129269500D01*
X122205637Y-129269500D01*
X122394368Y-129269500D01*
X122497920Y-129253098D01*
X122580767Y-129239977D01*
X122760256Y-129181657D01*
X122928413Y-129095977D01*
X123081096Y-128985046D01*
X123214546Y-128851596D01*
X123325477Y-128698913D01*
X123411157Y-128530756D01*
X123469477Y-128351267D01*
X123482598Y-128268420D01*
X123499000Y-128164868D01*
X123499000Y-127976131D01*
X123479318Y-127851867D01*
X123469477Y-127789733D01*
X123411157Y-127610244D01*
X123325477Y-127442087D01*
X123214546Y-127289404D01*
X123081096Y-127155954D01*
X123081095Y-127155953D01*
X123001613Y-127098205D01*
X122958948Y-127042875D01*
X122950500Y-126997888D01*
X122950500Y-123196428D01*
X122925502Y-123070761D01*
X122925501Y-123070760D01*
X122925501Y-123070756D01*
X122876465Y-122952373D01*
X122855892Y-122921583D01*
X122855892Y-122921582D01*
X122805274Y-122845827D01*
X122805271Y-122845824D01*
X121732957Y-121773511D01*
X121699472Y-121712188D01*
X121704456Y-121642496D01*
X121746328Y-121586563D01*
X121811792Y-121562146D01*
X121858953Y-121567898D01*
X122019233Y-121619977D01*
X122089134Y-121631048D01*
X122205632Y-121649500D01*
X122205637Y-121649500D01*
X122394368Y-121649500D01*
X122502008Y-121632451D01*
X122580767Y-121619977D01*
X122760256Y-121561657D01*
X122928413Y-121475977D01*
X123081096Y-121365046D01*
X123214546Y-121231596D01*
X123325477Y-121078913D01*
X123411157Y-120910756D01*
X123469477Y-120731267D01*
X123484327Y-120637507D01*
X123499000Y-120544868D01*
X123499000Y-120356131D01*
X123469477Y-120169736D01*
X123469477Y-120169733D01*
X123411157Y-119990244D01*
X123325477Y-119822087D01*
X123214546Y-119669404D01*
X123081096Y-119535954D01*
X123077131Y-119533073D01*
X123001613Y-119478205D01*
X122998272Y-119473873D01*
X122993297Y-119471601D01*
X122977167Y-119446503D01*
X122958948Y-119422875D01*
X122957695Y-119416202D01*
X122955523Y-119412823D01*
X122950500Y-119377888D01*
X122950500Y-119250547D01*
X122970185Y-119183508D01*
X122986819Y-119162866D01*
X123041437Y-119108248D01*
X123121966Y-119027719D01*
X123121968Y-119027715D01*
X123121971Y-119027713D01*
X123190021Y-118934048D01*
X123242287Y-118862110D01*
X123335220Y-118679719D01*
X123398477Y-118485034D01*
X123430500Y-118282852D01*
X123430500Y-117278148D01*
X123407898Y-117135449D01*
X123398477Y-117075965D01*
X123360980Y-116960563D01*
X123335220Y-116881281D01*
X123335218Y-116881278D01*
X123335218Y-116881276D01*
X123289515Y-116791580D01*
X123242287Y-116698890D01*
X123201674Y-116642990D01*
X123121971Y-116533286D01*
X122977213Y-116388528D01*
X122811613Y-116268214D01*
X122768203Y-116246095D01*
X122717408Y-116198119D01*
X122700500Y-116135611D01*
X122700500Y-115312852D01*
X122703674Y-115302040D01*
X122702470Y-115290835D01*
X122713343Y-115269113D01*
X122720185Y-115245813D01*
X122728699Y-115238434D01*
X122733745Y-115228356D01*
X122754636Y-115215960D01*
X122772989Y-115200058D01*
X122784142Y-115198454D01*
X122793834Y-115192704D01*
X122818105Y-115193570D01*
X122842147Y-115190114D01*
X122852398Y-115194795D01*
G37*
%TD.AperFunction*%
%TA.AperFunction,Conductor*%
G36*
X101334075Y-121023493D02*
G01*
X101399901Y-121137507D01*
X101492993Y-121230599D01*
X101607007Y-121296425D01*
X101670590Y-121313462D01*
X101038282Y-121945769D01*
X101038282Y-121945770D01*
X101092452Y-121985126D01*
X101092451Y-121985126D01*
X101101495Y-121989734D01*
X101152292Y-122037708D01*
X101169087Y-122105529D01*
X101146550Y-122171664D01*
X101101499Y-122210702D01*
X101092182Y-122215449D01*
X100920213Y-122340390D01*
X100769894Y-122490709D01*
X100769890Y-122490714D01*
X100724818Y-122552751D01*
X100669488Y-122595417D01*
X100599875Y-122601396D01*
X100538080Y-122568790D01*
X100503722Y-122507951D01*
X100500500Y-122479866D01*
X100500500Y-121711859D01*
X100520185Y-121644820D01*
X100572989Y-121599065D01*
X100634231Y-121588241D01*
X100684729Y-121592216D01*
X101317037Y-120959908D01*
X101334075Y-121023493D01*
G37*
%TD.AperFunction*%
%TA.AperFunction,Conductor*%
G36*
X100705703Y-119087420D02*
G01*
X100724819Y-119108248D01*
X100769896Y-119170292D01*
X100920213Y-119320609D01*
X101092179Y-119445548D01*
X101092181Y-119445549D01*
X101092184Y-119445551D01*
X101101493Y-119450294D01*
X101152290Y-119498266D01*
X101169087Y-119566087D01*
X101146552Y-119632222D01*
X101101505Y-119671260D01*
X101092446Y-119675876D01*
X101092440Y-119675880D01*
X101038282Y-119715227D01*
X101038282Y-119715228D01*
X101670591Y-120347537D01*
X101607007Y-120364575D01*
X101492993Y-120430401D01*
X101399901Y-120523493D01*
X101334075Y-120637507D01*
X101317037Y-120701091D01*
X100684728Y-120068782D01*
X100634230Y-120072757D01*
X100565852Y-120058393D01*
X100516095Y-120009342D01*
X100500500Y-119949139D01*
X100500500Y-119181133D01*
X100520185Y-119114094D01*
X100572989Y-119068339D01*
X100642147Y-119058395D01*
X100705703Y-119087420D01*
G37*
%TD.AperFunction*%
%TA.AperFunction,Conductor*%
G36*
X110717227Y-111085889D02*
G01*
X110729808Y-111085350D01*
X110749673Y-111096945D01*
X110771445Y-111104365D01*
X110780719Y-111115068D01*
X110790150Y-111120573D01*
X110810483Y-111149416D01*
X110841352Y-111210000D01*
X110857715Y-111242114D01*
X110978028Y-111407713D01*
X110978034Y-111407719D01*
X111122781Y-111552466D01*
X111168384Y-111585598D01*
X111211050Y-111640925D01*
X111219500Y-111685916D01*
X111219500Y-116255082D01*
X111199815Y-116322121D01*
X111168385Y-116355400D01*
X111122787Y-116388528D01*
X111122782Y-116388532D01*
X110978028Y-116533286D01*
X110857715Y-116698886D01*
X110810485Y-116791580D01*
X110762510Y-116842376D01*
X110694689Y-116859171D01*
X110628554Y-116836634D01*
X110589515Y-116791580D01*
X110583865Y-116780492D01*
X110542287Y-116698890D01*
X110501674Y-116642990D01*
X110421971Y-116533286D01*
X110277213Y-116388528D01*
X110111613Y-116268215D01*
X110111612Y-116268214D01*
X110111610Y-116268213D01*
X110051898Y-116237788D01*
X109929223Y-116175281D01*
X109734534Y-116112022D01*
X109559995Y-116084378D01*
X109532352Y-116080000D01*
X109327648Y-116080000D01*
X109303329Y-116083851D01*
X109125465Y-116112022D01*
X108930776Y-116175281D01*
X108748386Y-116268215D01*
X108582786Y-116388528D01*
X108438032Y-116533282D01*
X108438028Y-116533287D01*
X108369978Y-116626951D01*
X108314648Y-116669617D01*
X108245035Y-116675596D01*
X108183240Y-116642990D01*
X108151954Y-116593070D01*
X108143729Y-116568248D01*
X108124814Y-116511166D01*
X108032712Y-116361844D01*
X107908656Y-116237788D01*
X107759334Y-116145686D01*
X107592797Y-116090501D01*
X107592795Y-116090500D01*
X107490016Y-116080000D01*
X107490009Y-116080000D01*
X106642292Y-116080000D01*
X106575253Y-116060315D01*
X106529498Y-116007511D01*
X106519554Y-115938353D01*
X106539190Y-115887109D01*
X106594010Y-115805065D01*
X106594010Y-115805064D01*
X106594014Y-115805059D01*
X106654357Y-115659377D01*
X106685120Y-115504722D01*
X106685120Y-115347038D01*
X106685120Y-115347035D01*
X106685119Y-115347033D01*
X106671774Y-115279946D01*
X106654357Y-115192383D01*
X106616091Y-115100000D01*
X106594017Y-115046707D01*
X106594010Y-115046694D01*
X106506409Y-114915591D01*
X106506406Y-114915587D01*
X106394912Y-114804093D01*
X106394908Y-114804090D01*
X106263805Y-114716489D01*
X106263792Y-114716482D01*
X106118121Y-114656144D01*
X106118111Y-114656141D01*
X106100579Y-114652654D01*
X106038668Y-114620269D01*
X106004094Y-114559553D01*
X106007835Y-114489783D01*
X106037090Y-114443356D01*
X107395273Y-113085173D01*
X107395277Y-113085169D01*
X107466465Y-112978627D01*
X107501412Y-112894257D01*
X107515501Y-112860244D01*
X107538855Y-112742840D01*
X107540500Y-112734571D01*
X107540500Y-111758570D01*
X107560185Y-111691531D01*
X107591613Y-111658253D01*
X107737219Y-111552466D01*
X107881966Y-111407719D01*
X107881968Y-111407715D01*
X107881971Y-111407713D01*
X108002284Y-111242114D01*
X108002285Y-111242113D01*
X108002287Y-111242110D01*
X108049516Y-111149417D01*
X108097489Y-111098623D01*
X108165310Y-111081828D01*
X108231445Y-111104365D01*
X108270483Y-111149417D01*
X108301352Y-111210000D01*
X108317715Y-111242114D01*
X108438028Y-111407713D01*
X108582786Y-111552471D01*
X108726461Y-111656855D01*
X108748390Y-111672787D01*
X108846177Y-111722612D01*
X108930776Y-111765718D01*
X108930778Y-111765718D01*
X108930781Y-111765720D01*
X109006600Y-111790355D01*
X109125465Y-111828977D01*
X109217064Y-111843485D01*
X109327648Y-111861000D01*
X109327649Y-111861000D01*
X109532351Y-111861000D01*
X109532352Y-111861000D01*
X109734534Y-111828977D01*
X109929219Y-111765720D01*
X110111610Y-111672787D01*
X110231619Y-111585596D01*
X110277213Y-111552471D01*
X110277215Y-111552468D01*
X110277219Y-111552466D01*
X110421966Y-111407719D01*
X110421968Y-111407715D01*
X110421971Y-111407713D01*
X110542284Y-111242114D01*
X110542285Y-111242113D01*
X110542287Y-111242110D01*
X110589516Y-111149417D01*
X110598161Y-111140264D01*
X110602896Y-111128599D01*
X110621693Y-111115347D01*
X110637489Y-111098623D01*
X110649711Y-111095596D01*
X110660002Y-111088342D01*
X110682982Y-111087356D01*
X110705310Y-111081828D01*
X110717227Y-111085889D01*
G37*
%TD.AperFunction*%
%TA.AperFunction,Conductor*%
G36*
X115851445Y-111104365D02*
G01*
X115890483Y-111149417D01*
X115921352Y-111210000D01*
X115937715Y-111242114D01*
X116058028Y-111407713D01*
X116058034Y-111407719D01*
X116202781Y-111552466D01*
X116248384Y-111585598D01*
X116291050Y-111640925D01*
X116299500Y-111685916D01*
X116299500Y-116255082D01*
X116279815Y-116322121D01*
X116248385Y-116355400D01*
X116202787Y-116388528D01*
X116202782Y-116388532D01*
X116058028Y-116533286D01*
X115937715Y-116698886D01*
X115890485Y-116791580D01*
X115842510Y-116842376D01*
X115774689Y-116859171D01*
X115708554Y-116836634D01*
X115669515Y-116791580D01*
X115663865Y-116780492D01*
X115622287Y-116698890D01*
X115581674Y-116642990D01*
X115501971Y-116533286D01*
X115357213Y-116388528D01*
X115191613Y-116268215D01*
X115191612Y-116268214D01*
X115191610Y-116268213D01*
X115131898Y-116237788D01*
X115009223Y-116175281D01*
X114814534Y-116112022D01*
X114639995Y-116084378D01*
X114612352Y-116080000D01*
X114407648Y-116080000D01*
X114383329Y-116083851D01*
X114205465Y-116112022D01*
X114010776Y-116175281D01*
X113828386Y-116268215D01*
X113662786Y-116388528D01*
X113518028Y-116533286D01*
X113397715Y-116698886D01*
X113350485Y-116791580D01*
X113302510Y-116842376D01*
X113234689Y-116859171D01*
X113168554Y-116836634D01*
X113129515Y-116791580D01*
X113123865Y-116780492D01*
X113082287Y-116698890D01*
X113041674Y-116642990D01*
X112961971Y-116533286D01*
X112817217Y-116388532D01*
X112817212Y-116388528D01*
X112771615Y-116355400D01*
X112728949Y-116300071D01*
X112720500Y-116255082D01*
X112720500Y-111685916D01*
X112740185Y-111618877D01*
X112771613Y-111585599D01*
X112817219Y-111552466D01*
X112961966Y-111407719D01*
X112961968Y-111407715D01*
X112961971Y-111407713D01*
X113082284Y-111242114D01*
X113082285Y-111242113D01*
X113082287Y-111242110D01*
X113129516Y-111149417D01*
X113177489Y-111098623D01*
X113245310Y-111081828D01*
X113311445Y-111104365D01*
X113350483Y-111149417D01*
X113381352Y-111210000D01*
X113397715Y-111242114D01*
X113518028Y-111407713D01*
X113518034Y-111407719D01*
X113662781Y-111552466D01*
X113748384Y-111614660D01*
X113791051Y-111669989D01*
X113799500Y-111714978D01*
X113799500Y-113205896D01*
X113790062Y-113253344D01*
X113783838Y-113268373D01*
X113780262Y-113277006D01*
X113780260Y-113277011D01*
X113749500Y-113431653D01*
X113749500Y-113589346D01*
X113780261Y-113743989D01*
X113780264Y-113744001D01*
X113840602Y-113889672D01*
X113840609Y-113889685D01*
X113928210Y-114020788D01*
X113928213Y-114020792D01*
X114039707Y-114132286D01*
X114039711Y-114132289D01*
X114170814Y-114219890D01*
X114170827Y-114219897D01*
X114237637Y-114247570D01*
X114316503Y-114280237D01*
X114432292Y-114303269D01*
X114471153Y-114310999D01*
X114471156Y-114311000D01*
X114471158Y-114311000D01*
X114628844Y-114311000D01*
X114628845Y-114310999D01*
X114783497Y-114280237D01*
X114929179Y-114219894D01*
X115060289Y-114132289D01*
X115171789Y-114020789D01*
X115259394Y-113889679D01*
X115319737Y-113743997D01*
X115350500Y-113589342D01*
X115350500Y-113431658D01*
X115350500Y-113431655D01*
X115350499Y-113431653D01*
X115319739Y-113277011D01*
X115319738Y-113277008D01*
X115319737Y-113277003D01*
X115309937Y-113253344D01*
X115300500Y-113205896D01*
X115300500Y-111656855D01*
X115320185Y-111589816D01*
X115351617Y-111556535D01*
X115357219Y-111552466D01*
X115501966Y-111407719D01*
X115501968Y-111407715D01*
X115501971Y-111407713D01*
X115622284Y-111242114D01*
X115622285Y-111242113D01*
X115622287Y-111242110D01*
X115669516Y-111149417D01*
X115717489Y-111098623D01*
X115785310Y-111081828D01*
X115851445Y-111104365D01*
G37*
%TD.AperFunction*%
%TA.AperFunction,Conductor*%
G36*
X118824691Y-112709839D02*
G01*
X118847211Y-112727657D01*
X121363181Y-115243627D01*
X121396666Y-115304950D01*
X121399500Y-115331308D01*
X121399500Y-116240551D01*
X121379815Y-116307590D01*
X121348385Y-116340869D01*
X121282787Y-116388528D01*
X121282782Y-116388532D01*
X121138028Y-116533286D01*
X121017715Y-116698886D01*
X120970485Y-116791580D01*
X120922510Y-116842376D01*
X120854689Y-116859171D01*
X120788554Y-116836634D01*
X120749515Y-116791580D01*
X120743865Y-116780492D01*
X120702287Y-116698890D01*
X120661674Y-116642990D01*
X120581971Y-116533286D01*
X120437213Y-116388528D01*
X120271613Y-116268215D01*
X120271612Y-116268214D01*
X120271610Y-116268213D01*
X120211898Y-116237788D01*
X120089223Y-116175281D01*
X119894534Y-116112022D01*
X119719995Y-116084378D01*
X119692352Y-116080000D01*
X119487648Y-116080000D01*
X119463329Y-116083851D01*
X119285465Y-116112022D01*
X119090776Y-116175281D01*
X118908386Y-116268215D01*
X118742786Y-116388528D01*
X118598028Y-116533286D01*
X118477715Y-116698886D01*
X118430485Y-116791580D01*
X118382510Y-116842376D01*
X118314689Y-116859171D01*
X118248554Y-116836634D01*
X118209515Y-116791580D01*
X118203865Y-116780492D01*
X118162287Y-116698890D01*
X118121674Y-116642990D01*
X118041971Y-116533286D01*
X117897217Y-116388532D01*
X117897212Y-116388528D01*
X117851615Y-116355400D01*
X117808949Y-116300071D01*
X117800500Y-116255082D01*
X117800500Y-112855634D01*
X117820185Y-112788595D01*
X117872989Y-112742840D01*
X117942147Y-112732896D01*
X117971950Y-112741072D01*
X118066503Y-112780237D01*
X118221153Y-112810999D01*
X118221156Y-112811000D01*
X118221158Y-112811000D01*
X118378844Y-112811000D01*
X118378845Y-112810999D01*
X118533497Y-112780237D01*
X118679179Y-112719894D01*
X118690634Y-112712239D01*
X118757310Y-112691358D01*
X118824691Y-112709839D01*
G37*
%TD.AperFunction*%
%TA.AperFunction,Conductor*%
G36*
X120877227Y-111085889D02*
G01*
X120889808Y-111085350D01*
X120909673Y-111096945D01*
X120931445Y-111104365D01*
X120940719Y-111115068D01*
X120950150Y-111120573D01*
X120970483Y-111149416D01*
X121001352Y-111210000D01*
X121017715Y-111242114D01*
X121138028Y-111407713D01*
X121282786Y-111552471D01*
X121426461Y-111656855D01*
X121448390Y-111672787D01*
X121546177Y-111722612D01*
X121630776Y-111765718D01*
X121630778Y-111765718D01*
X121630781Y-111765720D01*
X121706600Y-111790355D01*
X121825465Y-111828977D01*
X121917064Y-111843485D01*
X122027648Y-111861000D01*
X122027649Y-111861000D01*
X122232351Y-111861000D01*
X122232352Y-111861000D01*
X122434534Y-111828977D01*
X122629219Y-111765720D01*
X122719204Y-111719869D01*
X122787873Y-111706973D01*
X122852614Y-111733249D01*
X122892871Y-111790355D01*
X122899500Y-111830354D01*
X122899500Y-114738147D01*
X122897374Y-114745387D01*
X122898628Y-114752829D01*
X122887664Y-114778452D01*
X122879815Y-114805186D01*
X122874112Y-114810126D01*
X122871144Y-114817066D01*
X122848067Y-114832695D01*
X122827011Y-114850941D01*
X122819542Y-114852014D01*
X122813294Y-114856247D01*
X122785435Y-114856919D01*
X122757853Y-114860885D01*
X122750988Y-114857750D01*
X122743445Y-114857932D01*
X122719648Y-114843437D01*
X122694297Y-114831860D01*
X122688727Y-114824603D01*
X122683773Y-114821586D01*
X122671192Y-114801758D01*
X122663981Y-114792364D01*
X122662356Y-114789023D01*
X122626465Y-114702373D01*
X122608288Y-114675169D01*
X122603575Y-114668116D01*
X122603573Y-114668111D01*
X122555278Y-114595832D01*
X122555272Y-114595825D01*
X119957528Y-111998081D01*
X119924043Y-111936758D01*
X119929027Y-111867066D01*
X119970899Y-111811133D01*
X120006888Y-111792470D01*
X120089219Y-111765720D01*
X120271610Y-111672787D01*
X120391619Y-111585596D01*
X120437213Y-111552471D01*
X120437215Y-111552468D01*
X120437219Y-111552466D01*
X120581966Y-111407719D01*
X120581968Y-111407715D01*
X120581971Y-111407713D01*
X120702284Y-111242114D01*
X120702285Y-111242113D01*
X120702287Y-111242110D01*
X120749516Y-111149417D01*
X120758161Y-111140264D01*
X120762896Y-111128599D01*
X120781693Y-111115347D01*
X120797489Y-111098623D01*
X120809711Y-111095596D01*
X120820002Y-111088342D01*
X120842982Y-111087356D01*
X120865310Y-111081828D01*
X120877227Y-111085889D01*
G37*
%TD.AperFunction*%
%TA.AperFunction,Conductor*%
G36*
X128442539Y-40030685D02*
G01*
X128488294Y-40083489D01*
X128499500Y-40135000D01*
X128499500Y-100849270D01*
X128479815Y-100916309D01*
X128427011Y-100962064D01*
X128357853Y-100972008D01*
X128294297Y-100942983D01*
X128287819Y-100936951D01*
X128186818Y-100835950D01*
X128153333Y-100774627D01*
X128150499Y-100748269D01*
X128150499Y-99612629D01*
X128150498Y-99612623D01*
X128144091Y-99553016D01*
X128093797Y-99418171D01*
X128093793Y-99418164D01*
X128007547Y-99302955D01*
X128007544Y-99302952D01*
X127892335Y-99216706D01*
X127892328Y-99216702D01*
X127757482Y-99166408D01*
X127757483Y-99166408D01*
X127697883Y-99160001D01*
X127697881Y-99160000D01*
X127697873Y-99160000D01*
X127697865Y-99160000D01*
X127162229Y-99160000D01*
X127095190Y-99140315D01*
X127074548Y-99123681D01*
X118486819Y-90535951D01*
X118453334Y-90474628D01*
X118450500Y-90448270D01*
X118450500Y-87431653D01*
X123499500Y-87431653D01*
X123499500Y-87589346D01*
X123530261Y-87743989D01*
X123530264Y-87744001D01*
X123590602Y-87889672D01*
X123590609Y-87889685D01*
X123678210Y-88020788D01*
X123678213Y-88020792D01*
X123789707Y-88132286D01*
X123789711Y-88132289D01*
X123920814Y-88219890D01*
X123920827Y-88219897D01*
X124066498Y-88280235D01*
X124066503Y-88280237D01*
X124221153Y-88310999D01*
X124221156Y-88311000D01*
X124221158Y-88311000D01*
X124378844Y-88311000D01*
X124378845Y-88310999D01*
X124533497Y-88280237D01*
X124679179Y-88219894D01*
X124810289Y-88132289D01*
X124921789Y-88020789D01*
X125009394Y-87889679D01*
X125069737Y-87743997D01*
X125083079Y-87676917D01*
X125115462Y-87615008D01*
X125116900Y-87613543D01*
X125555276Y-87175169D01*
X125626465Y-87068627D01*
X125675501Y-86950244D01*
X125683259Y-86911238D01*
X125688479Y-86885001D01*
X125688479Y-86884999D01*
X125700500Y-86824570D01*
X125700500Y-85477368D01*
X125703714Y-85466422D01*
X125702520Y-85455077D01*
X125713381Y-85433500D01*
X125720185Y-85410329D01*
X125728804Y-85402860D01*
X125733935Y-85392668D01*
X125754739Y-85380387D01*
X125772989Y-85364574D01*
X125785831Y-85362034D01*
X125794104Y-85357151D01*
X125819596Y-85355356D01*
X125829204Y-85353457D01*
X125840640Y-85353891D01*
X125842517Y-85354591D01*
X125902127Y-85361000D01*
X126027872Y-85360999D01*
X126030204Y-85361088D01*
X126061186Y-85371477D01*
X126092539Y-85380683D01*
X126094136Y-85382526D01*
X126096449Y-85383302D01*
X126116893Y-85408789D01*
X126138294Y-85433487D01*
X126138885Y-85436206D01*
X126140167Y-85437804D01*
X126141042Y-85446120D01*
X126149500Y-85484999D01*
X126149500Y-87189691D01*
X126129815Y-87256730D01*
X126113181Y-87277372D01*
X124447068Y-88943484D01*
X124385745Y-88976969D01*
X124383579Y-88977420D01*
X124316508Y-88990761D01*
X124316498Y-88990764D01*
X124170827Y-89051102D01*
X124170814Y-89051109D01*
X124039711Y-89138710D01*
X124039707Y-89138713D01*
X123928213Y-89250207D01*
X123928210Y-89250211D01*
X123840609Y-89381314D01*
X123840602Y-89381327D01*
X123780264Y-89526998D01*
X123780261Y-89527010D01*
X123749500Y-89681653D01*
X123749500Y-89839346D01*
X123780261Y-89993989D01*
X123780264Y-89994001D01*
X123840602Y-90139672D01*
X123840609Y-90139685D01*
X123928210Y-90270788D01*
X123928213Y-90270792D01*
X124039707Y-90382286D01*
X124039711Y-90382289D01*
X124170814Y-90469890D01*
X124170827Y-90469897D01*
X124253315Y-90504064D01*
X124316503Y-90530237D01*
X124471153Y-90560999D01*
X124471156Y-90561000D01*
X124471158Y-90561000D01*
X124628844Y-90561000D01*
X124628845Y-90560999D01*
X124783497Y-90530237D01*
X124929179Y-90469894D01*
X125060289Y-90382289D01*
X125171789Y-90270789D01*
X125259394Y-90139679D01*
X125319737Y-89993997D01*
X125333079Y-89926916D01*
X125365463Y-89865009D01*
X125366958Y-89863486D01*
X127305277Y-87925169D01*
X127376466Y-87818626D01*
X127425501Y-87700243D01*
X127442770Y-87613427D01*
X127450500Y-87574570D01*
X127450500Y-85484999D01*
X127470185Y-85417960D01*
X127522989Y-85372205D01*
X127574500Y-85360999D01*
X127697871Y-85360999D01*
X127697872Y-85360999D01*
X127757483Y-85354591D01*
X127892331Y-85304296D01*
X128007546Y-85218046D01*
X128093796Y-85102831D01*
X128144091Y-84967983D01*
X128150500Y-84908373D01*
X128150499Y-83112628D01*
X128144091Y-83053017D01*
X128135788Y-83030756D01*
X128093797Y-82918171D01*
X128093793Y-82918164D01*
X128007547Y-82802955D01*
X128007544Y-82802952D01*
X127892335Y-82716706D01*
X127892328Y-82716702D01*
X127760917Y-82667689D01*
X127704983Y-82625818D01*
X127680566Y-82560353D01*
X127695418Y-82492080D01*
X127716563Y-82463832D01*
X127830104Y-82350292D01*
X127955051Y-82178316D01*
X128051557Y-81988912D01*
X128117246Y-81786743D01*
X128150500Y-81576787D01*
X128150500Y-81364213D01*
X128117246Y-81154257D01*
X128051557Y-80952088D01*
X127955051Y-80762684D01*
X127955049Y-80762681D01*
X127955048Y-80762679D01*
X127830109Y-80590713D01*
X127679786Y-80440390D01*
X127507820Y-80315451D01*
X127507115Y-80315091D01*
X127499054Y-80310985D01*
X127448259Y-80263012D01*
X127431463Y-80195192D01*
X127453999Y-80129056D01*
X127499054Y-80090015D01*
X127507816Y-80085551D01*
X127529789Y-80069586D01*
X127679786Y-79960609D01*
X127679788Y-79960606D01*
X127679792Y-79960604D01*
X127830104Y-79810292D01*
X127830106Y-79810288D01*
X127830109Y-79810286D01*
X127955048Y-79638320D01*
X127955047Y-79638320D01*
X127955051Y-79638316D01*
X128051557Y-79448912D01*
X128117246Y-79246743D01*
X128150500Y-79036787D01*
X128150500Y-78824213D01*
X128117246Y-78614257D01*
X128051557Y-78412088D01*
X127955051Y-78222684D01*
X127955049Y-78222681D01*
X127955048Y-78222679D01*
X127830109Y-78050713D01*
X127679786Y-77900390D01*
X127507820Y-77775451D01*
X127507115Y-77775091D01*
X127499054Y-77770985D01*
X127448259Y-77723012D01*
X127431463Y-77655192D01*
X127453999Y-77589056D01*
X127499054Y-77550015D01*
X127507816Y-77545551D01*
X127529789Y-77529586D01*
X127679786Y-77420609D01*
X127679788Y-77420606D01*
X127679792Y-77420604D01*
X127830104Y-77270292D01*
X127830106Y-77270288D01*
X127830109Y-77270286D01*
X127955048Y-77098320D01*
X127955047Y-77098320D01*
X127955051Y-77098316D01*
X128051557Y-76908912D01*
X128117246Y-76706743D01*
X128150500Y-76496787D01*
X128150500Y-76284213D01*
X128117246Y-76074257D01*
X128051557Y-75872088D01*
X127955051Y-75682684D01*
X127955049Y-75682681D01*
X127955048Y-75682679D01*
X127830109Y-75510713D01*
X127679786Y-75360390D01*
X127507820Y-75235451D01*
X127507115Y-75235091D01*
X127499054Y-75230985D01*
X127448259Y-75183012D01*
X127431463Y-75115192D01*
X127453999Y-75049056D01*
X127499054Y-75010015D01*
X127507816Y-75005551D01*
X127529789Y-74989586D01*
X127679786Y-74880609D01*
X127679788Y-74880606D01*
X127679792Y-74880604D01*
X127830104Y-74730292D01*
X127830106Y-74730288D01*
X127830109Y-74730286D01*
X127955048Y-74558320D01*
X127955047Y-74558320D01*
X127955051Y-74558316D01*
X128051557Y-74368912D01*
X128117246Y-74166743D01*
X128150500Y-73956787D01*
X128150500Y-73744213D01*
X128117246Y-73534257D01*
X128051557Y-73332088D01*
X127955051Y-73142684D01*
X127955049Y-73142681D01*
X127955048Y-73142679D01*
X127830109Y-72970713D01*
X127679786Y-72820390D01*
X127507820Y-72695451D01*
X127507115Y-72695091D01*
X127499054Y-72690985D01*
X127448259Y-72643012D01*
X127431463Y-72575192D01*
X127453999Y-72509056D01*
X127499054Y-72470015D01*
X127507816Y-72465551D01*
X127529789Y-72449586D01*
X127679786Y-72340609D01*
X127679788Y-72340606D01*
X127679792Y-72340604D01*
X127830104Y-72190292D01*
X127830106Y-72190288D01*
X127830109Y-72190286D01*
X127955048Y-72018320D01*
X127955047Y-72018320D01*
X127955051Y-72018316D01*
X128051557Y-71828912D01*
X128117246Y-71626743D01*
X128150500Y-71416787D01*
X128150500Y-71204213D01*
X128117246Y-70994257D01*
X128051557Y-70792088D01*
X127955051Y-70602684D01*
X127955049Y-70602681D01*
X127955048Y-70602679D01*
X127830109Y-70430713D01*
X127679786Y-70280390D01*
X127507820Y-70155451D01*
X127507115Y-70155091D01*
X127499054Y-70150985D01*
X127448259Y-70103012D01*
X127431463Y-70035192D01*
X127453999Y-69969056D01*
X127499054Y-69930015D01*
X127507816Y-69925551D01*
X127529789Y-69909586D01*
X127679786Y-69800609D01*
X127679788Y-69800606D01*
X127679792Y-69800604D01*
X127830104Y-69650292D01*
X127830106Y-69650288D01*
X127830109Y-69650286D01*
X127955048Y-69478320D01*
X127955047Y-69478320D01*
X127955051Y-69478316D01*
X128051557Y-69288912D01*
X128117246Y-69086743D01*
X128150500Y-68876787D01*
X128150500Y-68664213D01*
X128117246Y-68454257D01*
X128051557Y-68252088D01*
X127955051Y-68062684D01*
X127955049Y-68062681D01*
X127955048Y-68062679D01*
X127830109Y-67890713D01*
X127679786Y-67740390D01*
X127507820Y-67615451D01*
X127507115Y-67615091D01*
X127499054Y-67610985D01*
X127448259Y-67563012D01*
X127431463Y-67495192D01*
X127453999Y-67429056D01*
X127499054Y-67390015D01*
X127507816Y-67385551D01*
X127529789Y-67369586D01*
X127679786Y-67260609D01*
X127679788Y-67260606D01*
X127679792Y-67260604D01*
X127830104Y-67110292D01*
X127830106Y-67110288D01*
X127830109Y-67110286D01*
X127955048Y-66938320D01*
X127955047Y-66938320D01*
X127955051Y-66938316D01*
X128051557Y-66748912D01*
X128117246Y-66546743D01*
X128150500Y-66336787D01*
X128150500Y-66124213D01*
X128117246Y-65914257D01*
X128051557Y-65712088D01*
X127955051Y-65522684D01*
X127955049Y-65522681D01*
X127955048Y-65522679D01*
X127830109Y-65350713D01*
X127679786Y-65200390D01*
X127507820Y-65075451D01*
X127507115Y-65075091D01*
X127499054Y-65070985D01*
X127448259Y-65023012D01*
X127431463Y-64955192D01*
X127453999Y-64889056D01*
X127499054Y-64850015D01*
X127507816Y-64845551D01*
X127529789Y-64829586D01*
X127679786Y-64720609D01*
X127679788Y-64720606D01*
X127679792Y-64720604D01*
X127830104Y-64570292D01*
X127830106Y-64570288D01*
X127830109Y-64570286D01*
X127955048Y-64398320D01*
X127955047Y-64398320D01*
X127955051Y-64398316D01*
X128051557Y-64208912D01*
X128117246Y-64006743D01*
X128150500Y-63796787D01*
X128150500Y-63584213D01*
X128117246Y-63374257D01*
X128051557Y-63172088D01*
X127955051Y-62982684D01*
X127955049Y-62982681D01*
X127955048Y-62982679D01*
X127830109Y-62810713D01*
X127679786Y-62660390D01*
X127507820Y-62535451D01*
X127507115Y-62535091D01*
X127499054Y-62530985D01*
X127448259Y-62483012D01*
X127431463Y-62415192D01*
X127453999Y-62349056D01*
X127499054Y-62310015D01*
X127507816Y-62305551D01*
X127529789Y-62289586D01*
X127679786Y-62180609D01*
X127679788Y-62180606D01*
X127679792Y-62180604D01*
X127830104Y-62030292D01*
X127830106Y-62030288D01*
X127830109Y-62030286D01*
X127955048Y-61858320D01*
X127955047Y-61858320D01*
X127955051Y-61858316D01*
X128051557Y-61668912D01*
X128117246Y-61466743D01*
X128150500Y-61256787D01*
X128150500Y-61044213D01*
X128117246Y-60834257D01*
X128051557Y-60632088D01*
X127955051Y-60442684D01*
X127955049Y-60442681D01*
X127955048Y-60442679D01*
X127830109Y-60270713D01*
X127679786Y-60120390D01*
X127507820Y-59995451D01*
X127318414Y-59898944D01*
X127318413Y-59898943D01*
X127318412Y-59898943D01*
X127116243Y-59833254D01*
X127116241Y-59833253D01*
X127116240Y-59833253D01*
X126954957Y-59807708D01*
X126906287Y-59800000D01*
X126693713Y-59800000D01*
X126645042Y-59807708D01*
X126483760Y-59833253D01*
X126281585Y-59898944D01*
X126092179Y-59995451D01*
X125920213Y-60120390D01*
X125769890Y-60270713D01*
X125644951Y-60442679D01*
X125548444Y-60632085D01*
X125482753Y-60834260D01*
X125449500Y-61044213D01*
X125449500Y-61256786D01*
X125482753Y-61466739D01*
X125548444Y-61668914D01*
X125644951Y-61858320D01*
X125769890Y-62030286D01*
X125920213Y-62180609D01*
X126092182Y-62305550D01*
X126100946Y-62310016D01*
X126151742Y-62357991D01*
X126168536Y-62425812D01*
X126145998Y-62491947D01*
X126100946Y-62530984D01*
X126092182Y-62535449D01*
X125920213Y-62660390D01*
X125769890Y-62810713D01*
X125644951Y-62982679D01*
X125548444Y-63172085D01*
X125482753Y-63374260D01*
X125449500Y-63584213D01*
X125449500Y-63796786D01*
X125482753Y-64006739D01*
X125548444Y-64208914D01*
X125644951Y-64398320D01*
X125769890Y-64570286D01*
X125920213Y-64720609D01*
X126092182Y-64845550D01*
X126100946Y-64850016D01*
X126151742Y-64897991D01*
X126168536Y-64965812D01*
X126145998Y-65031947D01*
X126100946Y-65070984D01*
X126092182Y-65075449D01*
X125920213Y-65200390D01*
X125769890Y-65350713D01*
X125644951Y-65522679D01*
X125548444Y-65712085D01*
X125482753Y-65914260D01*
X125449500Y-66124213D01*
X125449500Y-66336786D01*
X125482753Y-66546739D01*
X125548444Y-66748914D01*
X125644951Y-66938320D01*
X125769890Y-67110286D01*
X125920213Y-67260609D01*
X126092182Y-67385550D01*
X126100946Y-67390016D01*
X126151742Y-67437991D01*
X126168536Y-67505812D01*
X126145998Y-67571947D01*
X126100946Y-67610984D01*
X126092182Y-67615449D01*
X125920213Y-67740390D01*
X125769890Y-67890713D01*
X125644951Y-68062679D01*
X125548444Y-68252085D01*
X125482753Y-68454260D01*
X125449500Y-68664213D01*
X125449500Y-68876786D01*
X125482753Y-69086739D01*
X125548444Y-69288914D01*
X125644951Y-69478320D01*
X125769890Y-69650286D01*
X125920213Y-69800609D01*
X126092182Y-69925550D01*
X126100946Y-69930016D01*
X126151742Y-69977991D01*
X126168536Y-70045812D01*
X126145998Y-70111947D01*
X126100946Y-70150984D01*
X126092182Y-70155449D01*
X125920213Y-70280390D01*
X125769890Y-70430713D01*
X125644951Y-70602679D01*
X125548444Y-70792085D01*
X125482753Y-70994260D01*
X125449500Y-71204213D01*
X125449500Y-71416786D01*
X125482753Y-71626739D01*
X125548444Y-71828914D01*
X125644951Y-72018320D01*
X125769890Y-72190286D01*
X125920213Y-72340609D01*
X126092182Y-72465550D01*
X126100946Y-72470016D01*
X126151742Y-72517991D01*
X126168536Y-72585812D01*
X126145998Y-72651947D01*
X126100946Y-72690984D01*
X126092182Y-72695449D01*
X125920213Y-72820390D01*
X125769890Y-72970713D01*
X125644951Y-73142679D01*
X125548444Y-73332085D01*
X125482753Y-73534260D01*
X125449500Y-73744213D01*
X125449500Y-73956786D01*
X125482753Y-74166739D01*
X125548444Y-74368914D01*
X125644951Y-74558320D01*
X125769890Y-74730286D01*
X125920213Y-74880609D01*
X126092182Y-75005550D01*
X126100946Y-75010016D01*
X126151742Y-75057991D01*
X126168536Y-75125812D01*
X126145998Y-75191947D01*
X126100946Y-75230984D01*
X126092182Y-75235449D01*
X125920213Y-75360390D01*
X125769890Y-75510713D01*
X125644951Y-75682679D01*
X125548444Y-75872085D01*
X125482753Y-76074260D01*
X125449500Y-76284213D01*
X125449500Y-76496786D01*
X125482753Y-76706739D01*
X125548444Y-76908914D01*
X125644951Y-77098320D01*
X125769890Y-77270286D01*
X125920213Y-77420609D01*
X126092182Y-77545550D01*
X126100946Y-77550016D01*
X126151742Y-77597991D01*
X126168536Y-77665812D01*
X126145998Y-77731947D01*
X126100946Y-77770984D01*
X126092182Y-77775449D01*
X125920213Y-77900390D01*
X125769890Y-78050713D01*
X125644951Y-78222679D01*
X125548444Y-78412085D01*
X125482753Y-78614260D01*
X125449500Y-78824213D01*
X125449500Y-79036786D01*
X125482753Y-79246739D01*
X125548444Y-79448914D01*
X125644951Y-79638320D01*
X125769890Y-79810286D01*
X125920213Y-79960609D01*
X126092182Y-80085550D01*
X126100946Y-80090016D01*
X126151742Y-80137991D01*
X126168536Y-80205812D01*
X126145998Y-80271947D01*
X126100946Y-80310984D01*
X126092182Y-80315449D01*
X125920213Y-80440390D01*
X125769890Y-80590713D01*
X125644951Y-80762679D01*
X125548444Y-80952085D01*
X125482753Y-81154260D01*
X125449500Y-81364213D01*
X125449500Y-81576786D01*
X125483516Y-81791555D01*
X125481877Y-81791814D01*
X125478738Y-81854383D01*
X125449342Y-81901210D01*
X124544725Y-82805828D01*
X124544723Y-82805831D01*
X124534588Y-82821000D01*
X124534586Y-82821001D01*
X124534586Y-82821002D01*
X124473535Y-82912370D01*
X124424499Y-83030755D01*
X124424497Y-83030761D01*
X124399500Y-83156428D01*
X124399500Y-86439692D01*
X124390855Y-86469132D01*
X124384332Y-86499119D01*
X124380577Y-86504134D01*
X124379815Y-86506731D01*
X124363185Y-86527368D01*
X124197069Y-86693485D01*
X124135746Y-86726969D01*
X124133580Y-86727420D01*
X124066508Y-86740761D01*
X124066498Y-86740764D01*
X123920827Y-86801102D01*
X123920814Y-86801109D01*
X123789711Y-86888710D01*
X123789707Y-86888713D01*
X123678213Y-87000207D01*
X123678210Y-87000211D01*
X123590609Y-87131314D01*
X123590602Y-87131327D01*
X123530264Y-87276998D01*
X123530261Y-87277010D01*
X123499500Y-87431653D01*
X118450500Y-87431653D01*
X118450500Y-47672729D01*
X118470185Y-47605690D01*
X118486819Y-47585048D01*
X120374548Y-45697319D01*
X120435871Y-45663834D01*
X120462229Y-45661000D01*
X121045065Y-45661000D01*
X121112104Y-45680685D01*
X121113909Y-45681866D01*
X121170821Y-45719894D01*
X121170823Y-45719895D01*
X121170827Y-45719897D01*
X121281593Y-45765777D01*
X121316503Y-45780237D01*
X121471153Y-45810999D01*
X121471156Y-45811000D01*
X121471158Y-45811000D01*
X121628844Y-45811000D01*
X121628845Y-45810999D01*
X121783497Y-45780237D01*
X121929179Y-45719894D01*
X122060289Y-45632289D01*
X122171789Y-45520789D01*
X122259394Y-45389679D01*
X122319737Y-45243997D01*
X122350500Y-45089342D01*
X122350500Y-44931658D01*
X122350500Y-44931655D01*
X122350499Y-44931653D01*
X122326630Y-44811658D01*
X122319737Y-44777003D01*
X122270030Y-44656998D01*
X122259397Y-44631327D01*
X122259390Y-44631314D01*
X122171789Y-44500211D01*
X122171786Y-44500207D01*
X122060292Y-44388713D01*
X122060288Y-44388710D01*
X121929185Y-44301109D01*
X121929175Y-44301104D01*
X121834333Y-44261819D01*
X121812896Y-44250361D01*
X121805498Y-44245417D01*
X121805494Y-44245415D01*
X121668913Y-44188842D01*
X121668907Y-44188840D01*
X121523920Y-44160000D01*
X121523918Y-44160000D01*
X120026082Y-44160000D01*
X120026076Y-44160000D01*
X119997242Y-44165734D01*
X119997243Y-44165735D01*
X119881093Y-44188839D01*
X119881083Y-44188842D01*
X119801081Y-44221979D01*
X119801082Y-44221980D01*
X119744505Y-44245415D01*
X119709643Y-44268710D01*
X119670044Y-44295169D01*
X119670043Y-44295170D01*
X119621586Y-44327546D01*
X119621581Y-44327550D01*
X117117050Y-46832080D01*
X117117044Y-46832088D01*
X117067812Y-46905768D01*
X117067813Y-46905769D01*
X117034921Y-46954996D01*
X117034914Y-46955008D01*
X116978342Y-47091586D01*
X116978340Y-47091592D01*
X116949500Y-47236579D01*
X116949500Y-90340692D01*
X116929815Y-90407731D01*
X116877011Y-90453486D01*
X116807853Y-90463430D01*
X116744297Y-90434405D01*
X116737819Y-90428373D01*
X116312716Y-90003270D01*
X116279231Y-89941947D01*
X116276397Y-89915589D01*
X116276397Y-60627325D01*
X116251399Y-60501658D01*
X116251398Y-60501657D01*
X116251398Y-60501653D01*
X116202362Y-60383270D01*
X116202362Y-60383269D01*
X116186252Y-60359160D01*
X116186247Y-60359152D01*
X116181082Y-60351421D01*
X116162571Y-60306728D01*
X116142238Y-60204510D01*
X116142237Y-60204503D01*
X116107397Y-60120390D01*
X116081897Y-60058827D01*
X116081890Y-60058814D01*
X115994289Y-59927711D01*
X115994286Y-59927707D01*
X115882792Y-59816213D01*
X115882788Y-59816210D01*
X115751685Y-59728609D01*
X115751672Y-59728602D01*
X115606001Y-59668264D01*
X115605989Y-59668261D01*
X115451346Y-59637500D01*
X115445282Y-59636903D01*
X115445452Y-59635169D01*
X115386351Y-59617815D01*
X115340596Y-59565011D01*
X115329390Y-59513500D01*
X115329390Y-58430318D01*
X115304392Y-58304651D01*
X115304391Y-58304650D01*
X115304391Y-58304646D01*
X115255355Y-58186263D01*
X115229384Y-58147394D01*
X115229381Y-58147390D01*
X115184165Y-58079718D01*
X115184162Y-58079715D01*
X114439514Y-57335068D01*
X114406029Y-57273745D01*
X114405605Y-57271714D01*
X114392237Y-57204503D01*
X114368099Y-57146230D01*
X114331897Y-57058827D01*
X114331890Y-57058814D01*
X114244289Y-56927711D01*
X114244286Y-56927707D01*
X114132792Y-56816213D01*
X114132788Y-56816210D01*
X114001685Y-56728609D01*
X114001672Y-56728602D01*
X113856001Y-56668264D01*
X113855989Y-56668261D01*
X113701345Y-56637500D01*
X113701342Y-56637500D01*
X113543658Y-56637500D01*
X113543655Y-56637500D01*
X113389010Y-56668261D01*
X113388998Y-56668264D01*
X113243327Y-56728602D01*
X113243314Y-56728609D01*
X113112211Y-56816210D01*
X113112207Y-56816213D01*
X113000713Y-56927707D01*
X113000710Y-56927711D01*
X112913109Y-57058814D01*
X112913102Y-57058827D01*
X112852764Y-57204498D01*
X112852761Y-57204510D01*
X112822000Y-57359153D01*
X112822000Y-57516846D01*
X112852761Y-57671489D01*
X112852764Y-57671501D01*
X112913102Y-57817172D01*
X112913109Y-57817185D01*
X113000710Y-57948288D01*
X113000713Y-57948292D01*
X113112207Y-58059786D01*
X113112211Y-58059789D01*
X113243314Y-58147390D01*
X113243327Y-58147397D01*
X113330730Y-58183599D01*
X113389003Y-58207737D01*
X113456080Y-58221079D01*
X113517990Y-58253463D01*
X113519569Y-58255015D01*
X113992071Y-58727517D01*
X114025556Y-58788840D01*
X114028390Y-58815198D01*
X114028390Y-90153460D01*
X114032707Y-90175167D01*
X114032709Y-90175172D01*
X114053387Y-90279126D01*
X114053389Y-90279134D01*
X114102425Y-90397517D01*
X114150785Y-90469894D01*
X114173616Y-90504063D01*
X114173617Y-90504064D01*
X121831117Y-98161563D01*
X121864602Y-98222886D01*
X121859618Y-98292578D01*
X121817746Y-98348511D01*
X121799732Y-98359728D01*
X121671589Y-98425021D01*
X121595245Y-98480488D01*
X121518904Y-98535954D01*
X121518902Y-98535956D01*
X121518901Y-98535956D01*
X121385456Y-98669401D01*
X121385456Y-98669402D01*
X121385454Y-98669404D01*
X121337813Y-98734975D01*
X121274523Y-98822086D01*
X121188844Y-98990241D01*
X121130522Y-99169736D01*
X121101000Y-99356131D01*
X121101000Y-99544868D01*
X121116368Y-99641897D01*
X121107414Y-99711190D01*
X121081576Y-99748976D01*
X120901890Y-99928662D01*
X120840567Y-99962147D01*
X120770875Y-99957163D01*
X120714942Y-99915291D01*
X120690525Y-99849827D01*
X120696277Y-99802667D01*
X120719477Y-99731267D01*
X120747709Y-99553016D01*
X120749000Y-99544868D01*
X120749000Y-99356131D01*
X120724423Y-99200964D01*
X120719477Y-99169733D01*
X120661157Y-98990244D01*
X120575477Y-98822087D01*
X120464546Y-98669404D01*
X120331096Y-98535954D01*
X120178413Y-98425023D01*
X120010256Y-98339343D01*
X119830767Y-98281023D01*
X119830765Y-98281022D01*
X119830763Y-98281022D01*
X119644368Y-98251500D01*
X119644363Y-98251500D01*
X119455637Y-98251500D01*
X119455632Y-98251500D01*
X119269236Y-98281022D01*
X119089741Y-98339344D01*
X118921586Y-98425023D01*
X118834475Y-98488313D01*
X118768904Y-98535954D01*
X118768902Y-98535956D01*
X118768901Y-98535956D01*
X118635456Y-98669401D01*
X118635456Y-98669402D01*
X118635454Y-98669404D01*
X118587813Y-98734975D01*
X118524523Y-98822086D01*
X118438844Y-98990241D01*
X118380522Y-99169736D01*
X118351000Y-99356131D01*
X118351000Y-99544868D01*
X118376252Y-99704301D01*
X118380523Y-99731267D01*
X118438843Y-99910756D01*
X118524523Y-100078913D01*
X118635454Y-100231596D01*
X118768904Y-100365046D01*
X118921587Y-100475977D01*
X119089744Y-100561657D01*
X119269233Y-100619977D01*
X119337966Y-100630863D01*
X119455632Y-100649500D01*
X119455637Y-100649500D01*
X119644368Y-100649500D01*
X119733155Y-100635437D01*
X119830767Y-100619977D01*
X119902165Y-100596777D01*
X119972003Y-100594783D01*
X120031836Y-100630863D01*
X120062665Y-100693563D01*
X120054701Y-100762978D01*
X120028162Y-100802390D01*
X119044724Y-101785828D01*
X118978461Y-101885000D01*
X118973539Y-101892366D01*
X118973533Y-101892377D01*
X118924499Y-102010755D01*
X118924497Y-102010761D01*
X118899500Y-102136428D01*
X118899500Y-105997888D01*
X118879815Y-106064927D01*
X118848387Y-106098205D01*
X118768904Y-106155953D01*
X118635456Y-106289401D01*
X118635456Y-106289402D01*
X118635454Y-106289404D01*
X118587813Y-106354975D01*
X118524523Y-106442086D01*
X118438844Y-106610241D01*
X118380522Y-106789736D01*
X118351000Y-106976131D01*
X118351000Y-107164868D01*
X118379069Y-107342088D01*
X118380523Y-107351267D01*
X118438843Y-107530756D01*
X118524523Y-107698913D01*
X118635454Y-107851596D01*
X118635456Y-107851598D01*
X118768907Y-107985049D01*
X118822813Y-108024213D01*
X118840418Y-108037004D01*
X118848384Y-108042791D01*
X118891051Y-108098121D01*
X118899500Y-108143110D01*
X118899500Y-108591490D01*
X118879815Y-108658529D01*
X118848385Y-108691808D01*
X118742784Y-108768531D01*
X118742778Y-108768536D01*
X118598028Y-108913286D01*
X118477715Y-109078886D01*
X118430485Y-109171580D01*
X118382510Y-109222376D01*
X118314689Y-109239171D01*
X118248554Y-109216634D01*
X118209515Y-109171580D01*
X118203922Y-109160604D01*
X118162287Y-109078890D01*
X118124968Y-109027524D01*
X118041971Y-108913286D01*
X117897213Y-108768528D01*
X117731613Y-108648215D01*
X117731612Y-108648214D01*
X117731610Y-108648213D01*
X117549219Y-108555280D01*
X117403463Y-108507921D01*
X117386182Y-108502306D01*
X117328506Y-108462868D01*
X117301308Y-108398510D01*
X117300500Y-108384375D01*
X117300500Y-107496579D01*
X117271659Y-107351592D01*
X117271658Y-107351591D01*
X117271658Y-107351587D01*
X117247256Y-107292676D01*
X117239344Y-107225824D01*
X117249000Y-107164863D01*
X117249000Y-106976137D01*
X117249000Y-106976131D01*
X117226384Y-106833345D01*
X117219477Y-106789733D01*
X117161157Y-106610244D01*
X117075477Y-106442087D01*
X116964546Y-106289404D01*
X116831096Y-106155954D01*
X116678413Y-106045023D01*
X116510256Y-105959343D01*
X116330767Y-105901023D01*
X116330765Y-105901022D01*
X116330763Y-105901022D01*
X116144368Y-105871500D01*
X116144363Y-105871500D01*
X115955637Y-105871500D01*
X115955632Y-105871500D01*
X115769236Y-105901022D01*
X115589741Y-105959344D01*
X115421586Y-106045023D01*
X115348388Y-106098205D01*
X115268904Y-106155954D01*
X115268902Y-106155956D01*
X115268901Y-106155956D01*
X115135456Y-106289401D01*
X115135456Y-106289402D01*
X115135454Y-106289404D01*
X115087813Y-106354975D01*
X115024523Y-106442086D01*
X114938844Y-106610241D01*
X114880522Y-106789736D01*
X114851000Y-106976131D01*
X114851000Y-107164868D01*
X114879069Y-107342088D01*
X114880523Y-107351267D01*
X114938843Y-107530756D01*
X115024523Y-107698913D01*
X115135454Y-107851596D01*
X115268904Y-107985046D01*
X115421587Y-108095977D01*
X115589744Y-108181657D01*
X115713819Y-108221971D01*
X115771494Y-108261409D01*
X115798692Y-108325767D01*
X115799500Y-108339902D01*
X115799500Y-108941168D01*
X115779815Y-109008207D01*
X115727011Y-109053962D01*
X115657853Y-109063906D01*
X115594297Y-109034881D01*
X115575182Y-109014053D01*
X115501971Y-108913287D01*
X115501967Y-108913282D01*
X115357213Y-108768528D01*
X115191613Y-108648215D01*
X115191612Y-108648214D01*
X115191610Y-108648213D01*
X115111542Y-108607416D01*
X115009223Y-108555281D01*
X114814534Y-108492022D01*
X114639995Y-108464378D01*
X114612352Y-108460000D01*
X114407648Y-108460000D01*
X114383329Y-108463851D01*
X114205465Y-108492022D01*
X114010776Y-108555281D01*
X113828386Y-108648215D01*
X113662786Y-108768528D01*
X113518028Y-108913286D01*
X113397715Y-109078886D01*
X113350485Y-109171580D01*
X113342978Y-109179527D01*
X113339142Y-109189762D01*
X113319411Y-109204480D01*
X113302510Y-109222376D01*
X113291900Y-109225003D01*
X113283138Y-109231540D01*
X113258579Y-109233254D01*
X113234689Y-109239171D01*
X113224343Y-109235645D01*
X113213438Y-109236407D01*
X113191855Y-109224574D01*
X113168554Y-109216634D01*
X113160146Y-109207190D01*
X113152171Y-109202818D01*
X113134228Y-109178078D01*
X113131068Y-109174529D01*
X113130269Y-109173060D01*
X113082287Y-109078890D01*
X113069428Y-109061191D01*
X113065568Y-109054093D01*
X113059835Y-109027524D01*
X113050702Y-109001926D01*
X113050500Y-108994849D01*
X113050500Y-108390272D01*
X113070185Y-108323233D01*
X113122989Y-108277478D01*
X113155103Y-108267799D01*
X113330762Y-108239978D01*
X113330762Y-108239977D01*
X113330767Y-108239977D01*
X113510256Y-108181657D01*
X113678413Y-108095977D01*
X113831096Y-107985046D01*
X113964546Y-107851596D01*
X114075477Y-107698913D01*
X114161157Y-107530756D01*
X114219477Y-107351267D01*
X114239345Y-107225824D01*
X114249000Y-107164868D01*
X114249000Y-106976131D01*
X114226384Y-106833345D01*
X114219477Y-106789733D01*
X114161157Y-106610244D01*
X114075477Y-106442087D01*
X113964546Y-106289404D01*
X113831096Y-106155954D01*
X113678413Y-106045023D01*
X113510256Y-105959343D01*
X113330767Y-105901023D01*
X113330765Y-105901022D01*
X113330763Y-105901022D01*
X113144368Y-105871500D01*
X113144363Y-105871500D01*
X112955637Y-105871500D01*
X112955632Y-105871500D01*
X112769236Y-105901022D01*
X112589741Y-105959344D01*
X112421586Y-106045023D01*
X112348388Y-106098205D01*
X112268904Y-106155954D01*
X112268902Y-106155956D01*
X112268901Y-106155956D01*
X112135456Y-106289401D01*
X112135456Y-106289402D01*
X112135454Y-106289404D01*
X112087813Y-106354975D01*
X112024523Y-106442086D01*
X111938844Y-106610241D01*
X111880522Y-106789736D01*
X111851000Y-106976131D01*
X111851000Y-107156769D01*
X111831315Y-107223808D01*
X111814681Y-107244450D01*
X111717050Y-107342080D01*
X111717044Y-107342088D01*
X111667812Y-107415768D01*
X111667813Y-107415769D01*
X111634921Y-107464996D01*
X111634914Y-107465008D01*
X111578342Y-107601586D01*
X111578340Y-107601592D01*
X111549500Y-107746579D01*
X111549500Y-108439819D01*
X111529815Y-108506858D01*
X111477011Y-108552613D01*
X111472952Y-108554380D01*
X111470787Y-108555276D01*
X111288386Y-108648215D01*
X111122786Y-108768528D01*
X110978028Y-108913286D01*
X110857715Y-109078886D01*
X110810485Y-109171580D01*
X110762510Y-109222376D01*
X110694689Y-109239171D01*
X110628554Y-109216634D01*
X110589515Y-109171580D01*
X110583922Y-109160604D01*
X110542287Y-109078890D01*
X110504968Y-109027524D01*
X110421971Y-108913286D01*
X110277217Y-108768532D01*
X110277212Y-108768528D01*
X110131615Y-108662746D01*
X110088949Y-108607416D01*
X110080500Y-108562428D01*
X110080500Y-108037004D01*
X110100185Y-107969965D01*
X110116819Y-107949323D01*
X110214546Y-107851596D01*
X110325477Y-107698913D01*
X110411157Y-107530756D01*
X110469477Y-107351267D01*
X110489345Y-107225824D01*
X110499000Y-107164868D01*
X110499000Y-106976131D01*
X110476384Y-106833345D01*
X110469477Y-106789733D01*
X110411157Y-106610244D01*
X110325477Y-106442087D01*
X110214546Y-106289404D01*
X110081096Y-106155954D01*
X109928413Y-106045023D01*
X109760256Y-105959343D01*
X109580767Y-105901023D01*
X109580765Y-105901022D01*
X109580763Y-105901022D01*
X109394368Y-105871500D01*
X109394363Y-105871500D01*
X109205637Y-105871500D01*
X109205632Y-105871500D01*
X109108601Y-105886868D01*
X109039307Y-105877913D01*
X109001522Y-105852076D01*
X107236819Y-104087373D01*
X107203334Y-104026050D01*
X107200500Y-103999692D01*
X107200500Y-100523110D01*
X107220185Y-100456071D01*
X107251616Y-100422791D01*
X107331092Y-100365049D01*
X107331092Y-100365048D01*
X107331096Y-100365046D01*
X107464546Y-100231596D01*
X107575477Y-100078913D01*
X107661157Y-99910756D01*
X107719477Y-99731267D01*
X107738267Y-99612629D01*
X107749000Y-99544868D01*
X107749000Y-99356131D01*
X108101000Y-99356131D01*
X108101000Y-99544868D01*
X108126252Y-99704301D01*
X108130523Y-99731267D01*
X108188843Y-99910756D01*
X108274523Y-100078913D01*
X108385454Y-100231596D01*
X108518904Y-100365046D01*
X108671587Y-100475977D01*
X108839744Y-100561657D01*
X109019233Y-100619977D01*
X109087966Y-100630863D01*
X109205632Y-100649500D01*
X109205637Y-100649500D01*
X109394368Y-100649500D01*
X109512034Y-100630863D01*
X109580767Y-100619977D01*
X109760256Y-100561657D01*
X109928413Y-100475977D01*
X110081096Y-100365046D01*
X110214546Y-100231596D01*
X110325477Y-100078913D01*
X110411157Y-99910756D01*
X110469477Y-99731267D01*
X110488267Y-99612629D01*
X110499000Y-99544868D01*
X110499000Y-99356176D01*
X111851500Y-99356176D01*
X111851500Y-99544823D01*
X111881011Y-99731150D01*
X111939304Y-99910561D01*
X111939305Y-99910563D01*
X112024952Y-100078653D01*
X112043189Y-100103755D01*
X112043190Y-100103755D01*
X112643600Y-99503345D01*
X112643600Y-99504004D01*
X112671295Y-99607365D01*
X112724799Y-99700036D01*
X112800464Y-99775701D01*
X112893135Y-99829205D01*
X112996496Y-99856900D01*
X112997153Y-99856900D01*
X112396743Y-100457308D01*
X112396743Y-100457309D01*
X112421844Y-100475546D01*
X112589935Y-100561194D01*
X112589938Y-100561195D01*
X112769349Y-100619488D01*
X112955677Y-100649000D01*
X113144323Y-100649000D01*
X113330650Y-100619488D01*
X113510061Y-100561195D01*
X113510064Y-100561194D01*
X113678151Y-100475548D01*
X113703255Y-100457308D01*
X113703256Y-100457308D01*
X113102848Y-99856900D01*
X113103504Y-99856900D01*
X113206865Y-99829205D01*
X113299536Y-99775701D01*
X113375201Y-99700036D01*
X113428705Y-99607365D01*
X113456400Y-99504004D01*
X113456400Y-99503347D01*
X114056808Y-100103756D01*
X114056808Y-100103755D01*
X114075048Y-100078651D01*
X114160694Y-99910564D01*
X114160695Y-99910561D01*
X114218988Y-99731150D01*
X114248500Y-99544823D01*
X114248500Y-99356176D01*
X114248493Y-99356131D01*
X114851000Y-99356131D01*
X114851000Y-99544868D01*
X114876252Y-99704301D01*
X114880523Y-99731267D01*
X114938843Y-99910756D01*
X115024523Y-100078913D01*
X115135454Y-100231596D01*
X115268904Y-100365046D01*
X115421587Y-100475977D01*
X115589744Y-100561657D01*
X115769233Y-100619977D01*
X115837966Y-100630863D01*
X115955632Y-100649500D01*
X115955637Y-100649500D01*
X116144368Y-100649500D01*
X116262034Y-100630863D01*
X116330767Y-100619977D01*
X116510256Y-100561657D01*
X116678413Y-100475977D01*
X116831096Y-100365046D01*
X116964546Y-100231596D01*
X117075477Y-100078913D01*
X117161157Y-99910756D01*
X117219477Y-99731267D01*
X117238267Y-99612629D01*
X117249000Y-99544868D01*
X117249000Y-99356131D01*
X117224423Y-99200964D01*
X117219477Y-99169733D01*
X117161157Y-98990244D01*
X117075477Y-98822087D01*
X116964546Y-98669404D01*
X116831096Y-98535954D01*
X116678413Y-98425023D01*
X116510256Y-98339343D01*
X116330767Y-98281023D01*
X116330765Y-98281022D01*
X116330763Y-98281022D01*
X116144368Y-98251500D01*
X116144363Y-98251500D01*
X115955637Y-98251500D01*
X115955632Y-98251500D01*
X115769236Y-98281022D01*
X115589741Y-98339344D01*
X115421586Y-98425023D01*
X115334475Y-98488313D01*
X115268904Y-98535954D01*
X115268902Y-98535956D01*
X115268901Y-98535956D01*
X115135456Y-98669401D01*
X115135456Y-98669402D01*
X115135454Y-98669404D01*
X115087813Y-98734975D01*
X115024523Y-98822086D01*
X114938844Y-98990241D01*
X114880522Y-99169736D01*
X114851000Y-99356131D01*
X114248493Y-99356131D01*
X114218988Y-99169849D01*
X114160695Y-98990438D01*
X114160694Y-98990435D01*
X114075046Y-98822344D01*
X114056809Y-98797243D01*
X114056808Y-98797243D01*
X113456400Y-99397651D01*
X113456400Y-99396996D01*
X113428705Y-99293635D01*
X113375201Y-99200964D01*
X113299536Y-99125299D01*
X113206865Y-99071795D01*
X113103504Y-99044100D01*
X113102847Y-99044100D01*
X113703255Y-98443690D01*
X113703255Y-98443689D01*
X113678153Y-98425452D01*
X113510063Y-98339805D01*
X113510061Y-98339804D01*
X113330650Y-98281511D01*
X113144323Y-98252000D01*
X112955677Y-98252000D01*
X112769349Y-98281511D01*
X112589938Y-98339804D01*
X112589936Y-98339805D01*
X112421844Y-98425453D01*
X112421839Y-98425457D01*
X112396743Y-98443688D01*
X112396743Y-98443691D01*
X112997154Y-99044100D01*
X112996496Y-99044100D01*
X112893135Y-99071795D01*
X112800464Y-99125299D01*
X112724799Y-99200964D01*
X112671295Y-99293635D01*
X112643600Y-99396996D01*
X112643600Y-99397652D01*
X112043191Y-98797243D01*
X112043188Y-98797243D01*
X112024957Y-98822339D01*
X112024953Y-98822344D01*
X111939305Y-98990436D01*
X111939304Y-98990438D01*
X111881011Y-99169849D01*
X111851500Y-99356176D01*
X110499000Y-99356176D01*
X110499000Y-99356131D01*
X110474423Y-99200964D01*
X110469477Y-99169733D01*
X110411157Y-98990244D01*
X110325477Y-98822087D01*
X110214546Y-98669404D01*
X110081096Y-98535954D01*
X109928413Y-98425023D01*
X109760256Y-98339343D01*
X109580767Y-98281023D01*
X109580765Y-98281022D01*
X109580763Y-98281022D01*
X109394368Y-98251500D01*
X109394363Y-98251500D01*
X109205637Y-98251500D01*
X109205632Y-98251500D01*
X109019236Y-98281022D01*
X108839741Y-98339344D01*
X108671586Y-98425023D01*
X108584475Y-98488313D01*
X108518904Y-98535954D01*
X108518902Y-98535956D01*
X108518901Y-98535956D01*
X108385456Y-98669401D01*
X108385456Y-98669402D01*
X108385454Y-98669404D01*
X108337813Y-98734975D01*
X108274523Y-98822086D01*
X108188844Y-98990241D01*
X108130522Y-99169736D01*
X108101000Y-99356131D01*
X107749000Y-99356131D01*
X107724423Y-99200964D01*
X107719477Y-99169733D01*
X107661157Y-98990244D01*
X107575477Y-98822087D01*
X107464546Y-98669404D01*
X107331096Y-98535954D01*
X107178413Y-98425023D01*
X107010256Y-98339343D01*
X106830767Y-98281023D01*
X106830765Y-98281022D01*
X106830763Y-98281022D01*
X106644368Y-98251500D01*
X106644363Y-98251500D01*
X106455637Y-98251500D01*
X106455632Y-98251500D01*
X106269236Y-98281022D01*
X106089741Y-98339344D01*
X105921586Y-98425023D01*
X105834475Y-98488313D01*
X105768904Y-98535954D01*
X105768902Y-98535956D01*
X105768901Y-98535956D01*
X105635456Y-98669401D01*
X105635456Y-98669402D01*
X105635454Y-98669404D01*
X105587813Y-98734975D01*
X105524523Y-98822086D01*
X105438844Y-98990241D01*
X105380522Y-99169736D01*
X105351000Y-99356131D01*
X105351000Y-99544868D01*
X105376252Y-99704301D01*
X105380523Y-99731267D01*
X105438843Y-99910756D01*
X105524523Y-100078913D01*
X105635454Y-100231596D01*
X105635456Y-100231598D01*
X105768907Y-100365049D01*
X105848384Y-100422791D01*
X105891051Y-100478121D01*
X105899500Y-100523110D01*
X105899500Y-104384571D01*
X105921621Y-104495776D01*
X105921622Y-104495779D01*
X105924498Y-104510243D01*
X105973534Y-104628625D01*
X106044726Y-104735173D01*
X106044727Y-104735174D01*
X107028163Y-105718609D01*
X107061648Y-105779932D01*
X107056664Y-105849623D01*
X107014792Y-105905557D01*
X106949328Y-105929974D01*
X106902165Y-105924221D01*
X106830768Y-105901023D01*
X106830763Y-105901022D01*
X106644368Y-105871500D01*
X106644363Y-105871500D01*
X106455637Y-105871500D01*
X106455632Y-105871500D01*
X106269236Y-105901022D01*
X106089741Y-105959344D01*
X105921586Y-106045023D01*
X105848388Y-106098205D01*
X105768904Y-106155954D01*
X105768902Y-106155956D01*
X105768901Y-106155956D01*
X105635456Y-106289401D01*
X105635456Y-106289402D01*
X105635454Y-106289404D01*
X105587813Y-106354975D01*
X105524523Y-106442086D01*
X105438844Y-106610241D01*
X105380522Y-106789736D01*
X105351000Y-106976131D01*
X105351000Y-107164868D01*
X105379069Y-107342088D01*
X105380523Y-107351267D01*
X105438843Y-107530756D01*
X105524523Y-107698913D01*
X105635454Y-107851596D01*
X105768904Y-107985046D01*
X105921587Y-108095977D01*
X106089744Y-108181657D01*
X106153819Y-108202476D01*
X106174217Y-108216424D01*
X106196703Y-108226693D01*
X106202556Y-108235801D01*
X106211493Y-108241912D01*
X106221114Y-108264678D01*
X106234477Y-108285471D01*
X106236836Y-108301878D01*
X106238692Y-108306270D01*
X106239500Y-108320406D01*
X106239500Y-108562428D01*
X106219815Y-108629467D01*
X106188385Y-108662746D01*
X106042787Y-108768528D01*
X106042782Y-108768532D01*
X105898028Y-108913286D01*
X105777715Y-109078886D01*
X105684781Y-109261276D01*
X105621522Y-109455965D01*
X105589500Y-109658148D01*
X105589500Y-110662851D01*
X105621522Y-110865034D01*
X105684781Y-111059723D01*
X105748691Y-111185153D01*
X105766146Y-111219409D01*
X105777715Y-111242113D01*
X105898028Y-111407713D01*
X106042784Y-111552469D01*
X106088381Y-111585596D01*
X106188385Y-111658253D01*
X106231051Y-111713581D01*
X106239500Y-111758570D01*
X106239500Y-112349692D01*
X106219815Y-112416731D01*
X106203181Y-112437373D01*
X104493747Y-114146806D01*
X104432424Y-114180291D01*
X104362732Y-114175307D01*
X104318385Y-114146806D01*
X104310292Y-114138713D01*
X104310288Y-114138710D01*
X104179185Y-114051109D01*
X104179172Y-114051102D01*
X104027870Y-113988432D01*
X104028879Y-113985994D01*
X103980008Y-113953916D01*
X103951598Y-113890083D01*
X103950500Y-113873621D01*
X103950500Y-109566428D01*
X103925502Y-109440761D01*
X103925501Y-109440760D01*
X103925501Y-109440756D01*
X103876465Y-109322373D01*
X103876464Y-109322371D01*
X103857912Y-109294605D01*
X103857912Y-109294604D01*
X103805279Y-109215834D01*
X103805273Y-109215826D01*
X103150657Y-108561211D01*
X103117172Y-108499888D01*
X103117689Y-108451745D01*
X103116484Y-108451555D01*
X103139495Y-108306270D01*
X103150500Y-108236787D01*
X103150500Y-108024213D01*
X103117246Y-107814257D01*
X103051557Y-107612088D01*
X102955051Y-107422684D01*
X102955049Y-107422681D01*
X102955048Y-107422679D01*
X102830109Y-107250713D01*
X102679786Y-107100390D01*
X102507820Y-106975451D01*
X102507115Y-106975091D01*
X102499054Y-106970985D01*
X102448259Y-106923012D01*
X102431463Y-106855192D01*
X102453999Y-106789056D01*
X102499054Y-106750015D01*
X102507816Y-106745551D01*
X102545276Y-106718335D01*
X102679786Y-106620609D01*
X102679788Y-106620606D01*
X102679792Y-106620604D01*
X102830104Y-106470292D01*
X102830106Y-106470288D01*
X102830109Y-106470286D01*
X102955048Y-106298320D01*
X102955047Y-106298320D01*
X102955051Y-106298316D01*
X103051557Y-106108912D01*
X103117246Y-105906743D01*
X103150500Y-105696787D01*
X103150500Y-105484213D01*
X103117246Y-105274257D01*
X103051557Y-105072088D01*
X103028931Y-105027683D01*
X103016036Y-104959015D01*
X103042312Y-104894274D01*
X103051727Y-104883717D01*
X104055276Y-103880170D01*
X104126465Y-103773627D01*
X104175501Y-103655244D01*
X104192674Y-103568912D01*
X104200500Y-103529571D01*
X104200500Y-93946428D01*
X104175502Y-93820760D01*
X104175500Y-93820754D01*
X104155189Y-93771721D01*
X104155187Y-93771716D01*
X104126468Y-93702378D01*
X104126462Y-93702368D01*
X104055278Y-93595832D01*
X104055272Y-93595825D01*
X102632819Y-92173372D01*
X102599334Y-92112049D01*
X102596500Y-92085691D01*
X102596500Y-91513269D01*
X102598881Y-91489085D01*
X102610919Y-91428569D01*
X102614500Y-91410569D01*
X102614500Y-50801965D01*
X102634185Y-50734926D01*
X102686989Y-50689171D01*
X102691039Y-50687407D01*
X102709179Y-50679894D01*
X102840289Y-50592289D01*
X102951789Y-50480789D01*
X103039394Y-50349679D01*
X103099737Y-50203997D01*
X103130500Y-50049342D01*
X103130500Y-49891658D01*
X103130500Y-49891655D01*
X103130499Y-49891653D01*
X103099738Y-49737010D01*
X103099737Y-49737003D01*
X103099735Y-49736998D01*
X103039397Y-49591327D01*
X103039390Y-49591314D01*
X102951789Y-49460211D01*
X102951786Y-49460207D01*
X102840292Y-49348713D01*
X102840288Y-49348710D01*
X102709185Y-49261109D01*
X102709172Y-49261102D01*
X102563501Y-49200764D01*
X102563489Y-49200761D01*
X102408845Y-49170000D01*
X102408842Y-49170000D01*
X102251158Y-49170000D01*
X102251150Y-49170000D01*
X102243686Y-49171485D01*
X102174095Y-49165255D01*
X102118919Y-49122390D01*
X102095677Y-49056499D01*
X102095500Y-49049867D01*
X102095500Y-45846308D01*
X102104143Y-45816871D01*
X102110667Y-45786882D01*
X102114422Y-45781865D01*
X102115185Y-45779269D01*
X102131818Y-45758628D01*
X102182929Y-45707516D01*
X102244252Y-45674030D01*
X102246338Y-45673595D01*
X102313497Y-45660237D01*
X102459179Y-45599894D01*
X102590289Y-45512289D01*
X102684592Y-45417986D01*
X108619500Y-45417986D01*
X108619500Y-45603013D01*
X108648445Y-45785765D01*
X108705619Y-45961732D01*
X108705620Y-45961735D01*
X108789622Y-46126596D01*
X108898379Y-46276287D01*
X109029213Y-46407121D01*
X109178904Y-46515878D01*
X109259763Y-46557077D01*
X109343764Y-46599879D01*
X109343767Y-46599880D01*
X109431750Y-46628467D01*
X109519736Y-46657055D01*
X109702486Y-46686000D01*
X109702487Y-46686000D01*
X109887513Y-46686000D01*
X109887514Y-46686000D01*
X110070264Y-46657055D01*
X110246235Y-46599879D01*
X110411096Y-46515878D01*
X110560787Y-46407121D01*
X110691621Y-46276287D01*
X110800378Y-46126596D01*
X110884379Y-45961735D01*
X110941555Y-45785764D01*
X110970500Y-45603014D01*
X110970500Y-45417986D01*
X113469500Y-45417986D01*
X113469500Y-45603013D01*
X113498445Y-45785765D01*
X113555619Y-45961732D01*
X113555620Y-45961735D01*
X113639622Y-46126596D01*
X113748379Y-46276287D01*
X113879213Y-46407121D01*
X114028904Y-46515878D01*
X114109763Y-46557077D01*
X114193764Y-46599879D01*
X114193767Y-46599880D01*
X114281750Y-46628467D01*
X114369736Y-46657055D01*
X114552486Y-46686000D01*
X114552487Y-46686000D01*
X114737513Y-46686000D01*
X114737514Y-46686000D01*
X114920264Y-46657055D01*
X115096235Y-46599879D01*
X115261096Y-46515878D01*
X115410787Y-46407121D01*
X115541621Y-46276287D01*
X115650378Y-46126596D01*
X115734379Y-45961735D01*
X115791555Y-45785764D01*
X115820500Y-45603014D01*
X115820500Y-45417986D01*
X115791555Y-45235236D01*
X115734379Y-45059265D01*
X115734379Y-45059264D01*
X115650377Y-44894403D01*
X115541621Y-44744713D01*
X115410787Y-44613879D01*
X115261096Y-44505122D01*
X115251450Y-44500207D01*
X115096235Y-44421120D01*
X115096232Y-44421119D01*
X114920265Y-44363945D01*
X114828889Y-44349472D01*
X114737514Y-44335000D01*
X114552486Y-44335000D01*
X114491569Y-44344648D01*
X114369734Y-44363945D01*
X114193767Y-44421119D01*
X114193764Y-44421120D01*
X114028903Y-44505122D01*
X113943499Y-44567172D01*
X113879213Y-44613879D01*
X113879211Y-44613881D01*
X113879210Y-44613881D01*
X113748381Y-44744710D01*
X113748381Y-44744711D01*
X113748379Y-44744713D01*
X113724923Y-44776998D01*
X113639622Y-44894403D01*
X113555620Y-45059264D01*
X113555619Y-45059267D01*
X113498445Y-45235234D01*
X113469500Y-45417986D01*
X110970500Y-45417986D01*
X110941555Y-45235236D01*
X110884379Y-45059265D01*
X110884379Y-45059264D01*
X110800377Y-44894403D01*
X110691621Y-44744713D01*
X110560787Y-44613879D01*
X110411096Y-44505122D01*
X110401450Y-44500207D01*
X110246235Y-44421120D01*
X110246232Y-44421119D01*
X110070265Y-44363945D01*
X109978889Y-44349472D01*
X109887514Y-44335000D01*
X109702486Y-44335000D01*
X109641569Y-44344648D01*
X109519734Y-44363945D01*
X109343767Y-44421119D01*
X109343764Y-44421120D01*
X109178903Y-44505122D01*
X109093499Y-44567172D01*
X109029213Y-44613879D01*
X109029211Y-44613881D01*
X109029210Y-44613881D01*
X108898381Y-44744710D01*
X108898381Y-44744711D01*
X108898379Y-44744713D01*
X108874923Y-44776998D01*
X108789622Y-44894403D01*
X108705620Y-45059264D01*
X108705619Y-45059267D01*
X108648445Y-45235234D01*
X108619500Y-45417986D01*
X102684592Y-45417986D01*
X102701789Y-45400789D01*
X102719416Y-45374407D01*
X102739586Y-45344223D01*
X102789390Y-45269685D01*
X102789390Y-45269684D01*
X102789394Y-45269679D01*
X102849737Y-45123997D01*
X102880500Y-44969342D01*
X102880500Y-44811658D01*
X102880500Y-44811655D01*
X102880499Y-44811653D01*
X102849738Y-44657010D01*
X102849737Y-44657003D01*
X102839096Y-44631314D01*
X102789397Y-44511327D01*
X102789390Y-44511314D01*
X102701789Y-44380211D01*
X102701786Y-44380207D01*
X102590292Y-44268713D01*
X102590288Y-44268710D01*
X102459185Y-44181109D01*
X102459172Y-44181102D01*
X102313501Y-44120764D01*
X102313489Y-44120761D01*
X102158845Y-44090000D01*
X102158842Y-44090000D01*
X102001158Y-44090000D01*
X102001155Y-44090000D01*
X101846510Y-44120761D01*
X101846507Y-44120762D01*
X101846506Y-44120762D01*
X101846503Y-44120763D01*
X101796236Y-44141584D01*
X101726767Y-44149052D01*
X101664288Y-44117776D01*
X101628636Y-44057687D01*
X101631131Y-43987862D01*
X101661102Y-43939343D01*
X102432931Y-43167513D01*
X102494252Y-43134030D01*
X102496317Y-43133599D01*
X102563497Y-43120237D01*
X102709179Y-43059894D01*
X102840289Y-42972289D01*
X102951789Y-42860789D01*
X103039394Y-42729679D01*
X103099737Y-42583997D01*
X103130500Y-42429342D01*
X103130500Y-42374213D01*
X108144500Y-42374213D01*
X108144500Y-42586787D01*
X108177754Y-42796743D01*
X108233898Y-42969537D01*
X108243444Y-42998914D01*
X108339951Y-43188320D01*
X108464890Y-43360286D01*
X108615213Y-43510609D01*
X108787179Y-43635548D01*
X108787181Y-43635549D01*
X108787184Y-43635551D01*
X108976588Y-43732057D01*
X109178757Y-43797746D01*
X109388713Y-43831000D01*
X109388714Y-43831000D01*
X109601286Y-43831000D01*
X109601287Y-43831000D01*
X109811243Y-43797746D01*
X110013412Y-43732057D01*
X110202816Y-43635551D01*
X110224789Y-43619586D01*
X110374786Y-43510609D01*
X110374788Y-43510606D01*
X110374792Y-43510604D01*
X110525104Y-43360292D01*
X110525106Y-43360288D01*
X110525109Y-43360286D01*
X110650048Y-43188320D01*
X110650047Y-43188320D01*
X110650051Y-43188316D01*
X110746557Y-42998912D01*
X110812246Y-42796743D01*
X110845500Y-42586787D01*
X110845500Y-42374213D01*
X113594500Y-42374213D01*
X113594500Y-42586787D01*
X113627754Y-42796743D01*
X113683898Y-42969537D01*
X113693444Y-42998914D01*
X113789951Y-43188320D01*
X113914890Y-43360286D01*
X114065213Y-43510609D01*
X114237179Y-43635548D01*
X114237181Y-43635549D01*
X114237184Y-43635551D01*
X114426588Y-43732057D01*
X114628757Y-43797746D01*
X114838713Y-43831000D01*
X114838714Y-43831000D01*
X115051286Y-43831000D01*
X115051287Y-43831000D01*
X115261243Y-43797746D01*
X115463412Y-43732057D01*
X115652816Y-43635551D01*
X115674789Y-43619586D01*
X115824786Y-43510609D01*
X115824788Y-43510606D01*
X115824792Y-43510604D01*
X115975104Y-43360292D01*
X115975106Y-43360288D01*
X115975109Y-43360286D01*
X116100048Y-43188320D01*
X116100047Y-43188320D01*
X116100051Y-43188316D01*
X116196557Y-42998912D01*
X116262246Y-42796743D01*
X116295500Y-42586787D01*
X116295500Y-42374213D01*
X116262246Y-42164257D01*
X116196557Y-41962088D01*
X116100051Y-41772684D01*
X116100049Y-41772681D01*
X116100048Y-41772679D01*
X115975109Y-41600713D01*
X115824786Y-41450390D01*
X115652820Y-41325451D01*
X115463414Y-41228944D01*
X115463413Y-41228943D01*
X115463412Y-41228943D01*
X115261243Y-41163254D01*
X115261241Y-41163253D01*
X115261240Y-41163253D01*
X115099957Y-41137708D01*
X115051287Y-41130000D01*
X114838713Y-41130000D01*
X114790042Y-41137708D01*
X114628760Y-41163253D01*
X114426585Y-41228944D01*
X114237179Y-41325451D01*
X114065213Y-41450390D01*
X113914890Y-41600713D01*
X113789951Y-41772679D01*
X113693444Y-41962085D01*
X113627753Y-42164260D01*
X113610743Y-42271658D01*
X113594500Y-42374213D01*
X110845500Y-42374213D01*
X110812246Y-42164257D01*
X110746557Y-41962088D01*
X110650051Y-41772684D01*
X110650049Y-41772681D01*
X110650048Y-41772679D01*
X110525109Y-41600713D01*
X110374786Y-41450390D01*
X110202820Y-41325451D01*
X110013414Y-41228944D01*
X110013413Y-41228943D01*
X110013412Y-41228943D01*
X109811243Y-41163254D01*
X109811241Y-41163253D01*
X109811240Y-41163253D01*
X109649957Y-41137708D01*
X109601287Y-41130000D01*
X109388713Y-41130000D01*
X109340042Y-41137708D01*
X109178760Y-41163253D01*
X108976585Y-41228944D01*
X108787179Y-41325451D01*
X108615213Y-41450390D01*
X108464890Y-41600713D01*
X108339951Y-41772679D01*
X108243444Y-41962085D01*
X108177753Y-42164260D01*
X108160743Y-42271658D01*
X108144500Y-42374213D01*
X103130500Y-42374213D01*
X103130500Y-42271658D01*
X103130500Y-42271655D01*
X103130499Y-42271653D01*
X103099738Y-42117010D01*
X103099738Y-42117008D01*
X103099737Y-42117003D01*
X103099735Y-42116998D01*
X103039397Y-41971327D01*
X103039390Y-41971314D01*
X102951789Y-41840211D01*
X102951786Y-41840207D01*
X102840292Y-41728713D01*
X102840288Y-41728710D01*
X102709185Y-41641109D01*
X102709172Y-41641102D01*
X102563501Y-41580764D01*
X102563489Y-41580761D01*
X102408845Y-41550000D01*
X102408842Y-41550000D01*
X102251158Y-41550000D01*
X102251155Y-41550000D01*
X102096510Y-41580761D01*
X102096498Y-41580764D01*
X101950827Y-41641102D01*
X101950814Y-41641109D01*
X101819711Y-41728710D01*
X101819707Y-41728713D01*
X101708213Y-41840207D01*
X101708210Y-41840211D01*
X101620609Y-41971314D01*
X101620602Y-41971327D01*
X101560264Y-42116998D01*
X101560261Y-42117008D01*
X101546920Y-42184079D01*
X101514535Y-42245990D01*
X101512984Y-42247568D01*
X100712181Y-43048372D01*
X100650858Y-43081857D01*
X100581167Y-43076873D01*
X100525233Y-43035001D01*
X100500816Y-42969537D01*
X100500500Y-42960691D01*
X100500500Y-40135000D01*
X100520185Y-40067961D01*
X100572989Y-40022206D01*
X100624500Y-40011000D01*
X128375500Y-40011000D01*
X128442539Y-40030685D01*
G37*
%TD.AperFunction*%
%TD*%
M02*
