%TF.GenerationSoftware,KiCad,Pcbnew,9.0.7*%
%TF.CreationDate,2026-04-17T10:56:10-07:00*%
%TF.ProjectId,MotionMod-BottomPanel,4d6f7469-6f6e-44d6-9f64-2d426f74746f,rev?*%
%TF.SameCoordinates,Original*%
%TF.FileFunction,Copper,L1,Top*%
%TF.FilePolarity,Positive*%
%FSLAX46Y46*%
G04 Gerber Fmt 4.6, Leading zero omitted, Abs format (unit mm)*
G04 Created by KiCad (PCBNEW 9.0.7) date 2026-04-17 10:56:10*
%MOMM*%
%LPD*%
G01*
G04 APERTURE LIST*
G04 Aperture macros list*
%AMRoundRect*
0 Rectangle with rounded corners*
0 $1 Rounding radius*
0 $2 $3 $4 $5 $6 $7 $8 $9 X,Y pos of 4 corners*
0 Add a 4 corners polygon primitive as box body*
4,1,4,$2,$3,$4,$5,$6,$7,$8,$9,$2,$3,0*
0 Add four circle primitives for the rounded corners*
1,1,$1+$1,$2,$3*
1,1,$1+$1,$4,$5*
1,1,$1+$1,$6,$7*
1,1,$1+$1,$8,$9*
0 Add four rect primitives between the rounded corners*
20,1,$1+$1,$2,$3,$4,$5,0*
20,1,$1+$1,$4,$5,$6,$7,0*
20,1,$1+$1,$6,$7,$8,$9,0*
20,1,$1+$1,$8,$9,$2,$3,0*%
%AMFreePoly0*
4,1,37,0.800000,0.796148,0.878414,0.796148,1.032228,0.765552,1.177117,0.705537,1.307515,0.618408,1.418408,0.507515,1.505537,0.377117,1.565552,0.232228,1.596148,0.078414,1.596148,-0.078414,1.565552,-0.232228,1.505537,-0.377117,1.418408,-0.507515,1.307515,-0.618408,1.177117,-0.705537,1.032228,-0.765552,0.878414,-0.796148,0.800000,-0.796148,0.800000,-0.800000,-1.400000,-0.800000,
-1.403843,-0.796157,-1.439018,-0.796157,-1.511114,-0.766294,-1.566294,-0.711114,-1.596157,-0.639018,-1.596157,-0.603843,-1.600000,-0.600000,-1.600000,0.600000,-1.596157,0.603843,-1.596157,0.639018,-1.566294,0.711114,-1.511114,0.766294,-1.439018,0.796157,-1.403843,0.796157,-1.400000,0.800000,0.800000,0.800000,0.800000,0.796148,0.800000,0.796148,$1*%
%AMFreePoly1*
4,1,37,1.403843,0.796157,1.439018,0.796157,1.511114,0.766294,1.566294,0.711114,1.596157,0.639018,1.596157,0.603843,1.600000,0.600000,1.600000,-0.600000,1.596157,-0.603843,1.596157,-0.639018,1.566294,-0.711114,1.511114,-0.766294,1.439018,-0.796157,1.403843,-0.796157,1.400000,-0.800000,-0.800000,-0.800000,-0.800000,-0.796148,-0.878414,-0.796148,-1.032228,-0.765552,-1.177117,-0.705537,
-1.307515,-0.618408,-1.418408,-0.507515,-1.505537,-0.377117,-1.565552,-0.232228,-1.596148,-0.078414,-1.596148,0.078414,-1.565552,0.232228,-1.505537,0.377117,-1.418408,0.507515,-1.307515,0.618408,-1.177117,0.705537,-1.032228,0.765552,-0.878414,0.796148,-0.800000,0.796148,-0.800000,0.800000,1.400000,0.800000,1.403843,0.796157,1.403843,0.796157,$1*%
%AMFreePoly2*
4,1,37,1.600000,0.796148,1.678414,0.796148,1.832228,0.765552,1.977117,0.705537,2.107515,0.618408,2.218408,0.507515,2.305537,0.377117,2.365552,0.232228,2.396148,0.078414,2.396148,-0.078414,2.365552,-0.232228,2.305537,-0.377117,2.218408,-0.507515,2.107515,-0.618408,1.977117,-0.705537,1.832228,-0.765552,1.678414,-0.796148,1.600000,-0.796148,1.600000,-0.800000,-0.600000,-0.800000,
-0.603843,-0.796157,-0.639018,-0.796157,-0.711114,-0.766294,-0.766294,-0.711114,-0.796157,-0.639018,-0.796157,-0.603843,-0.800000,-0.600000,-0.800000,0.600000,-0.796157,0.603843,-0.796157,0.639018,-0.766294,0.711114,-0.711114,0.766294,-0.639018,0.796157,-0.603843,0.796157,-0.600000,0.800000,1.600000,0.800000,1.600000,0.796148,1.600000,0.796148,$1*%
G04 Aperture macros list end*
%TA.AperFunction,ComponentPad*%
%ADD10C,1.397000*%
%TD*%
%TA.AperFunction,ComponentPad*%
%ADD11RoundRect,0.250000X0.550000X-0.950000X0.550000X0.950000X-0.550000X0.950000X-0.550000X-0.950000X0*%
%TD*%
%TA.AperFunction,ComponentPad*%
%ADD12O,1.600000X2.400000*%
%TD*%
%TA.AperFunction,ComponentPad*%
%ADD13R,1.700000X1.700000*%
%TD*%
%TA.AperFunction,ComponentPad*%
%ADD14C,1.700000*%
%TD*%
%TA.AperFunction,SMDPad,CuDef*%
%ADD15FreePoly0,0.000000*%
%TD*%
%TA.AperFunction,SMDPad,CuDef*%
%ADD16RoundRect,0.800000X-0.800000X-0.000010X0.800000X-0.000010X0.800000X0.000010X-0.800000X0.000010X0*%
%TD*%
%TA.AperFunction,SMDPad,CuDef*%
%ADD17FreePoly1,0.000000*%
%TD*%
%TA.AperFunction,SMDPad,CuDef*%
%ADD18RoundRect,0.800000X0.000010X-0.800000X0.000010X0.800000X-0.000010X0.800000X-0.000010X-0.800000X0*%
%TD*%
%TA.AperFunction,SMDPad,CuDef*%
%ADD19FreePoly2,270.000000*%
%TD*%
%TA.AperFunction,ComponentPad*%
%ADD20C,1.651000*%
%TD*%
%TA.AperFunction,ViaPad*%
%ADD21C,0.600000*%
%TD*%
%TA.AperFunction,Conductor*%
%ADD22C,0.300000*%
%TD*%
%TA.AperFunction,Conductor*%
%ADD23C,0.500000*%
%TD*%
G04 APERTURE END LIST*
D10*
%TO.P,R10,1*%
%TO.N,DAC OUT C*%
X109550000Y-128070500D03*
%TO.P,R10,2*%
%TO.N,Net-(U1A--)*%
X109550000Y-120450500D03*
%TD*%
%TO.P,R8,1*%
%TO.N,Net-(U1D--)*%
X106550000Y-99450500D03*
%TO.P,R8,2*%
%TO.N,Net-(J4-Pin_7)*%
X106550000Y-107070500D03*
%TD*%
%TO.P,R22,1*%
%TO.N,DAC OUT B*%
X109300000Y-99450500D03*
%TO.P,R22,2*%
%TO.N,Net-(U1D--)*%
X109300000Y-107070500D03*
%TD*%
%TO.P,R2,1*%
%TO.N,Net-(U1A--)*%
X106800000Y-128070500D03*
%TO.P,R2,2*%
%TO.N,Net-(J4-Pin_4)*%
X106800000Y-120450500D03*
%TD*%
%TO.P,R20,1*%
%TO.N,DAC OUT D*%
X119550000Y-128070500D03*
%TO.P,R20,2*%
%TO.N,Net-(U1B--)*%
X119550000Y-120450500D03*
%TD*%
D11*
%TO.P,U1,1*%
%TO.N,Net-(J4-Pin_4)*%
X106890000Y-117780500D03*
D12*
%TO.P,U1,2,-*%
%TO.N,Net-(U1A--)*%
X109430000Y-117780500D03*
%TO.P,U1,3,+*%
%TO.N,Vref*%
X111970000Y-117780500D03*
%TO.P,U1,4,V+*%
%TO.N,+12V*%
X114510000Y-117780500D03*
%TO.P,U1,5,+*%
%TO.N,Vref*%
X117050000Y-117780500D03*
%TO.P,U1,6,-*%
%TO.N,Net-(U1B--)*%
X119590000Y-117780500D03*
%TO.P,U1,7*%
%TO.N,Net-(J4-Pin_5)*%
X122130000Y-117780500D03*
%TO.P,U1,8*%
%TO.N,Net-(J4-Pin_6)*%
X122130000Y-110160500D03*
%TO.P,U1,9,-*%
%TO.N,Net-(U1C--)*%
X119590000Y-110160500D03*
%TO.P,U1,10,+*%
%TO.N,Vref*%
X117050000Y-110160500D03*
%TO.P,U1,11,V-*%
%TO.N,-12V*%
X114510000Y-110160500D03*
%TO.P,U1,12,+*%
%TO.N,Vref*%
X111970000Y-110160500D03*
%TO.P,U1,13,-*%
%TO.N,Net-(U1D--)*%
X109430000Y-110160500D03*
%TO.P,U1,14*%
%TO.N,Net-(J4-Pin_7)*%
X106890000Y-110160500D03*
%TD*%
D13*
%TO.P,J4,1,Pin_1*%
%TO.N,EncA_s*%
X101800000Y-100510500D03*
D14*
%TO.P,J4,2,Pin_2*%
%TO.N,EncB_s*%
X101800000Y-103050500D03*
%TO.P,J4,3,Pin_3*%
%TO.N,EncSw_s*%
X101800000Y-105590500D03*
%TO.P,J4,4,Pin_4*%
%TO.N,Net-(J4-Pin_4)*%
X101800000Y-108130500D03*
%TO.P,J4,5,Pin_5*%
%TO.N,Net-(J4-Pin_5)*%
X101800000Y-110670500D03*
%TO.P,J4,6,Pin_6*%
%TO.N,Net-(J4-Pin_6)*%
X101800000Y-113210500D03*
%TO.P,J4,7,Pin_7*%
%TO.N,Net-(J4-Pin_7)*%
X101800000Y-115750500D03*
%TO.P,J4,8,Pin_8*%
%TO.N,unconnected-(J4-Pin_8-Pad8)*%
X101800000Y-118290500D03*
%TO.P,J4,9,Pin_9*%
%TO.N,GND*%
X101800000Y-120830500D03*
%TO.P,J4,10,Pin_10*%
%TO.N,+5V*%
X101800000Y-123370500D03*
%TD*%
D10*
%TO.P,R21,1*%
%TO.N,DAC OUT A*%
X119550000Y-99450500D03*
%TO.P,R21,2*%
%TO.N,Net-(U1C--)*%
X119550000Y-107070500D03*
%TD*%
%TO.P,R12,1*%
%TO.N,GND*%
X113050000Y-99450500D03*
%TO.P,R12,2*%
%TO.N,Vref*%
X113050000Y-107070500D03*
%TD*%
D15*
%TO.P,A1,1,GPIO0*%
%TO.N,EncA_s*%
X102530000Y-42350500D03*
D16*
%TO.P,A1,2,GPIO1*%
%TO.N,EncB_s*%
X102530000Y-44890500D03*
D17*
%TO.P,A1,3,GND*%
%TO.N,GND*%
X102530000Y-47430500D03*
D16*
%TO.P,A1,4,GPIO2*%
%TO.N,EncSw_s*%
X102530000Y-49970500D03*
%TO.P,A1,5,GPIO3*%
%TO.N,unconnected-(A1-GPIO3-Pad5)*%
X102530000Y-52510500D03*
%TO.P,A1,6,GPIO4*%
%TO.N,Net-(A1-GPIO4)*%
X102530000Y-55050500D03*
%TO.P,A1,7,GPIO5*%
%TO.N,Net-(A1-GPIO5)*%
X102530000Y-57590500D03*
D17*
%TO.P,A1,8,GND*%
%TO.N,GND*%
X102530000Y-60130500D03*
D16*
%TO.P,A1,9,GPIO6*%
%TO.N,unconnected-(A1-GPIO6-Pad9)*%
X102530000Y-62670500D03*
%TO.P,A1,10,GPIO7*%
%TO.N,unconnected-(A1-GPIO7-Pad10)*%
X102530000Y-65210500D03*
%TO.P,A1,11,GPIO8*%
%TO.N,unconnected-(A1-GPIO8-Pad11)*%
X102530000Y-67750500D03*
%TO.P,A1,12,GPIO9*%
%TO.N,unconnected-(A1-GPIO9-Pad12)*%
X102530000Y-70290500D03*
D17*
%TO.P,A1,13,GND*%
%TO.N,GND*%
X102530000Y-72830500D03*
D16*
%TO.P,A1,14,GPIO10*%
%TO.N,unconnected-(A1-GPIO10-Pad14)*%
X102530000Y-75370500D03*
%TO.P,A1,15,GPIO11*%
%TO.N,unconnected-(A1-GPIO11-Pad15)*%
X102530000Y-77910500D03*
%TO.P,A1,16,GPIO12*%
%TO.N,unconnected-(A1-GPIO12-Pad16)*%
X102530000Y-80450500D03*
%TO.P,A1,17,GPIO13*%
%TO.N,unconnected-(A1-GPIO13-Pad17)*%
X102530000Y-82990500D03*
D17*
%TO.P,A1,18,GND*%
%TO.N,GND*%
X102530000Y-85530500D03*
D16*
%TO.P,A1,19,GPIO14*%
%TO.N,unconnected-(A1-GPIO14-Pad19)*%
X102530000Y-88070500D03*
%TO.P,A1,20,GPIO15*%
%TO.N,unconnected-(A1-GPIO15-Pad20)*%
X102530000Y-90610500D03*
%TO.P,A1,21,GPIO16*%
%TO.N,Net-(A1-GPIO16)*%
X121910000Y-90610500D03*
%TO.P,A1,22,GPIO17*%
%TO.N,Net-(A1-GPIO17)*%
X121910000Y-88070500D03*
D15*
%TO.P,A1,23,GND*%
%TO.N,GND*%
X121910000Y-85530500D03*
D16*
%TO.P,A1,24,GPIO18*%
%TO.N,Net-(A1-GPIO18)*%
X121910000Y-82990500D03*
%TO.P,A1,25,GPIO19*%
%TO.N,Net-(A1-GPIO19)*%
X121910000Y-80450500D03*
%TO.P,A1,26,GPIO20*%
%TO.N,Net-(A1-GPIO20)*%
X121910000Y-77910500D03*
%TO.P,A1,27,GPIO21*%
%TO.N,Net-(A1-GPIO21)*%
X121910000Y-75370500D03*
D15*
%TO.P,A1,28,GND*%
%TO.N,GND*%
X121910000Y-72830500D03*
D16*
%TO.P,A1,29,GPIO22*%
%TO.N,Net-(A1-GPIO22)*%
X121910000Y-70290500D03*
%TO.P,A1,30,RUN*%
%TO.N,unconnected-(A1-RUN-Pad30)*%
X121910000Y-67750500D03*
%TO.P,A1,31,GPIO26_ADC0*%
%TO.N,Net-(A1-GPIO26_ADC0)*%
X121910000Y-65210500D03*
%TO.P,A1,32,GPIO27_ADC1*%
%TO.N,Net-(A1-GPIO27_ADC1)*%
X121910000Y-62670500D03*
D15*
%TO.P,A1,33,AGND*%
%TO.N,unconnected-(A1-AGND-Pad33)*%
X121910000Y-60130500D03*
D16*
%TO.P,A1,34,GPIO28_ADC2*%
%TO.N,Net-(A1-GPIO28_ADC2)*%
X121910000Y-57590500D03*
%TO.P,A1,35,ADC_VREF*%
%TO.N,unconnected-(A1-ADC_VREF-Pad35)*%
X121910000Y-55050500D03*
%TO.P,A1,36,3V3*%
%TO.N,+3.3VA*%
X121910000Y-52510500D03*
%TO.P,A1,37,3V3_EN*%
%TO.N,unconnected-(A1-3V3_EN-Pad37)*%
X121910000Y-49970500D03*
D15*
%TO.P,A1,38,GND*%
%TO.N,GND*%
X121910000Y-47430500D03*
D16*
%TO.P,A1,39,VSYS*%
%TO.N,+5V*%
X121910000Y-44890500D03*
%TO.P,A1,40,VBUS*%
%TO.N,unconnected-(A1-VBUS-Pad40)*%
X121910000Y-42350500D03*
D18*
%TO.P,A1,D1*%
%TO.N,N/C*%
X109680000Y-91180500D03*
D19*
%TO.P,A1,D2*%
X112220000Y-90380500D03*
D18*
%TO.P,A1,D3*%
X114760000Y-91180500D03*
%TD*%
D10*
%TO.P,R11,1*%
%TO.N,+5V*%
X116050000Y-99450500D03*
%TO.P,R11,2*%
%TO.N,Vref*%
X116050000Y-107070500D03*
%TD*%
D13*
%TO.P,J13,1,Pin_1*%
%TO.N,Net-(A1-GPIO16)*%
X126800000Y-84010500D03*
D14*
%TO.P,J13,2,Pin_2*%
%TO.N,Net-(A1-GPIO17)*%
X126800000Y-81470500D03*
%TO.P,J13,3,Pin_3*%
%TO.N,Net-(A1-GPIO18)*%
X126800000Y-78930500D03*
%TO.P,J13,4,Pin_4*%
%TO.N,Net-(A1-GPIO19)*%
X126800000Y-76390500D03*
%TO.P,J13,5,Pin_5*%
%TO.N,Net-(A1-GPIO20)*%
X126800000Y-73850500D03*
%TO.P,J13,6,Pin_6*%
%TO.N,Net-(A1-GPIO21)*%
X126800000Y-71310500D03*
%TO.P,J13,7,Pin_7*%
%TO.N,Net-(A1-GPIO22)*%
X126800000Y-68770500D03*
%TO.P,J13,8,Pin_8*%
%TO.N,Net-(A1-GPIO26_ADC0)*%
X126800000Y-66230500D03*
%TO.P,J13,9,Pin_9*%
%TO.N,Net-(A1-GPIO27_ADC1)*%
X126800000Y-63690500D03*
%TO.P,J13,10,Pin_10*%
%TO.N,Net-(A1-GPIO28_ADC2)*%
X126800000Y-61150500D03*
%TD*%
D10*
%TO.P,R4,1*%
%TO.N,Net-(U1B--)*%
X122300000Y-128070500D03*
%TO.P,R4,2*%
%TO.N,Net-(J4-Pin_5)*%
X122300000Y-120450500D03*
%TD*%
%TO.P,R6,1*%
%TO.N,Net-(U1C--)*%
X122300000Y-99450500D03*
%TO.P,R6,2*%
%TO.N,Net-(J4-Pin_6)*%
X122300000Y-107070500D03*
%TD*%
D13*
%TO.P,J3,1,Vcc*%
%TO.N,+5V*%
X126800000Y-100510500D03*
D14*
%TO.P,J3,2,GND*%
%TO.N,GND*%
X126800000Y-103050500D03*
%TO.P,J3,3,SLC*%
%TO.N,Net-(A1-GPIO5)*%
X126800000Y-105590500D03*
%TO.P,J3,4,SDA*%
%TO.N,Net-(A1-GPIO4)*%
X126800000Y-108130500D03*
%TO.P,J3,5,LDACn*%
%TO.N,unconnected-(J3-LDACn-Pad5)*%
X126800000Y-110670500D03*
%TO.P,J3,6,RDY/BSYn*%
%TO.N,unconnected-(J3-RDY{slash}BSYn-Pad6)*%
X126800000Y-113210500D03*
%TO.P,J3,7,DACA*%
%TO.N,DAC OUT A*%
X126800000Y-115750500D03*
%TO.P,J3,8,DACB*%
%TO.N,DAC OUT B*%
X126800000Y-118290500D03*
%TO.P,J3,9,DACC*%
%TO.N,DAC OUT C*%
X126800000Y-120830500D03*
%TO.P,J3,10,DACD*%
%TO.N,DAC OUT D*%
X126800000Y-123370500D03*
%TD*%
D20*
%TO.P,J2,1,P1*%
%TO.N,unconnected-(J2-P1-Pad1)*%
X123880000Y-146010500D03*
%TO.P,J2,2,P2*%
%TO.N,unconnected-(J2-P2-Pad2)*%
X123880000Y-143470500D03*
%TO.P,J2,3,P3*%
%TO.N,unconnected-(J2-P3-Pad3)*%
X121340000Y-146010500D03*
%TO.P,J2,4,P4*%
%TO.N,unconnected-(J2-P4-Pad4)*%
X121340000Y-143470500D03*
%TO.P,J2,5,+12V*%
%TO.N,+5V*%
X118800000Y-146010500D03*
%TO.P,J2,6,P6*%
X118800000Y-143470500D03*
%TO.P,J2,7,12V*%
%TO.N,+12V*%
X116260000Y-146010500D03*
%TO.P,J2,8,+12V*%
X116260000Y-143470500D03*
%TO.P,J2,9,GND*%
%TO.N,GND*%
X113720000Y-146010500D03*
%TO.P,J2,10,GND*%
X113720000Y-143470500D03*
%TO.P,J2,11,GND*%
X111180000Y-146010500D03*
%TO.P,J2,12,GND*%
X111180000Y-143470500D03*
%TO.P,J2,13,-12*%
X108640000Y-146010500D03*
%TO.P,J2,14,-12V*%
X108640000Y-143470500D03*
%TO.P,J2,15,-12V*%
%TO.N,-12V*%
X106100000Y-146010500D03*
%TO.P,J2,16,P16*%
X106100000Y-143470500D03*
%TD*%
D21*
%TO.N,Net-(A1-GPIO5)*%
X115372500Y-60438000D03*
%TO.N,Net-(A1-GPIO16)*%
X124550000Y-89760500D03*
%TO.N,GND*%
X115800000Y-115010500D03*
X113300000Y-113760500D03*
X104945000Y-47510500D03*
X118800000Y-113760500D03*
X121800000Y-112760500D03*
X116000000Y-125110500D03*
X126400000Y-126810500D03*
X126200000Y-48410500D03*
X102350483Y-47430876D03*
X116500000Y-121810500D03*
X116300000Y-130310500D03*
X126200000Y-136710500D03*
X121800000Y-85510500D03*
X119800000Y-115010500D03*
X109050000Y-113760500D03*
%TO.N,Net-(A1-GPIO17)*%
X124300000Y-87510500D03*
%TO.N,Net-(A1-GPIO4)*%
X113622500Y-57438000D03*
%TO.N,+5V*%
X121550000Y-45010500D03*
%TO.N,-12V*%
X105884620Y-115425880D03*
X114550000Y-113510500D03*
%TO.N,DAC OUT B*%
X123300000Y-102510500D03*
%TO.N,DAC OUT A*%
X123384620Y-101595120D03*
%TO.N,Net-(J4-Pin_5)*%
X118300000Y-112010500D03*
%TO.N,EncB_s*%
X102080000Y-44890500D03*
%TO.N,EncSw_s*%
X102330000Y-49970500D03*
%TO.N,EncA_s*%
X102330000Y-42350500D03*
%TO.N,Net-(J4-Pin_4)*%
X103800000Y-114760500D03*
%TD*%
D22*
%TO.N,Net-(A1-GPIO19)*%
X126800000Y-76390500D02*
X122740000Y-80450500D01*
X122740000Y-80450500D02*
X121710000Y-80450500D01*
%TO.N,Net-(A1-GPIO5)*%
X112525000Y-57590500D02*
X102330000Y-57590500D01*
X115372500Y-60438000D02*
X112525000Y-57590500D01*
%TO.N,Net-(A1-GPIO16)*%
X124550000Y-89760500D02*
X123700000Y-90610500D01*
X123700000Y-90610500D02*
X121710000Y-90610500D01*
%TO.N,Net-(A1-GPIO22)*%
X125280000Y-70290500D02*
X121710000Y-70290500D01*
X126800000Y-68770500D02*
X125280000Y-70290500D01*
%TO.N,GND*%
X103275000Y-47430500D02*
X103445000Y-47260500D01*
D23*
X102530000Y-60130500D02*
X105180500Y-60130500D01*
D22*
X121710000Y-85530500D02*
X121780000Y-85530500D01*
X121780000Y-85530500D02*
X121800000Y-85510500D01*
D23*
X102530000Y-72830500D02*
X105319500Y-72830500D01*
D22*
X126800000Y-103190500D02*
X126020000Y-103190500D01*
X102350107Y-47430500D02*
X102350483Y-47430876D01*
D23*
X102530000Y-85530500D02*
X105380500Y-85530500D01*
D22*
X104865376Y-47430876D02*
X104945000Y-47510500D01*
X102330000Y-47430500D02*
X102350107Y-47430500D01*
X102330000Y-47430500D02*
X103275000Y-47430500D01*
%TO.N,Net-(A1-GPIO28_ADC2)*%
X126800000Y-61150500D02*
X123240000Y-57590500D01*
X123240000Y-57590500D02*
X121710000Y-57590500D01*
%TO.N,Net-(A1-GPIO21)*%
X122740000Y-75370500D02*
X121710000Y-75370500D01*
X126800000Y-71310500D02*
X122740000Y-75370500D01*
%TO.N,Net-(A1-GPIO20)*%
X126800000Y-73850500D02*
X122740000Y-77910500D01*
X122740000Y-77910500D02*
X121710000Y-77910500D01*
%TO.N,Net-(A1-GPIO18)*%
X122740000Y-82990500D02*
X121710000Y-82990500D01*
X126800000Y-78930500D02*
X122740000Y-82990500D01*
%TO.N,Net-(A1-GPIO17)*%
X124300000Y-87510500D02*
X123740000Y-88070500D01*
X123740000Y-88070500D02*
X121710000Y-88070500D01*
%TO.N,Net-(A1-GPIO4)*%
X102782500Y-55050500D02*
X102330000Y-55050500D01*
X113300000Y-57010500D02*
X104742500Y-57010500D01*
X113622500Y-57438000D02*
X113622500Y-57333000D01*
X113622500Y-57333000D02*
X113300000Y-57010500D01*
X104742500Y-57010500D02*
X102782500Y-55050500D01*
%TO.N,Net-(A1-GPIO27_ADC1)*%
X126800000Y-63690500D02*
X125780000Y-62670500D01*
X125780000Y-62670500D02*
X121710000Y-62670500D01*
D23*
%TO.N,+5V*%
X103800000Y-139510500D02*
X101800000Y-137510500D01*
X118800000Y-140833000D02*
X117477500Y-139510500D01*
X126800000Y-99910500D02*
X124900000Y-98010500D01*
X117477500Y-139510500D02*
X103800000Y-139510500D01*
X121710000Y-44890500D02*
X121670000Y-44890500D01*
X101800000Y-137510500D02*
X101800000Y-123370500D01*
X121670000Y-44890500D02*
X121550000Y-45010500D01*
X124900000Y-98010500D02*
X117490000Y-98010500D01*
X117490000Y-98010500D02*
X116050000Y-99450500D01*
X118800000Y-143470500D02*
X118800000Y-140833000D01*
X126800000Y-100510500D02*
X126800000Y-99910500D01*
D22*
%TO.N,Net-(U1D--)*%
X109300000Y-110030500D02*
X109430000Y-110160500D01*
%TO.N,Net-(U1B--)*%
X119590000Y-120410500D02*
X119550000Y-120450500D01*
%TO.N,Vref*%
X116050000Y-107070500D02*
X113050000Y-107070500D01*
D23*
%TO.N,+12V*%
X116260000Y-146010500D02*
X116260000Y-143470500D01*
%TO.N,-12V*%
X106300000Y-115010500D02*
X105884620Y-115425880D01*
X113840000Y-115010500D02*
X106300000Y-115010500D01*
X114550000Y-114300500D02*
X113840000Y-115010500D01*
X114550000Y-113510500D02*
X114550000Y-114300500D01*
D22*
%TO.N,DAC OUT B*%
X122550000Y-101760500D02*
X123300000Y-102510500D01*
X111610000Y-101760500D02*
X122550000Y-101760500D01*
X109300000Y-99450500D02*
X111610000Y-101760500D01*
%TO.N,DAC OUT D*%
X124190000Y-123370500D02*
X126800000Y-123370500D01*
X119550000Y-128010500D02*
X124190000Y-123370500D01*
X119550000Y-128070500D02*
X119550000Y-128010500D01*
%TO.N,DAC OUT C*%
X117115000Y-128070500D02*
X124355000Y-120830500D01*
X109550000Y-128070500D02*
X117115000Y-128070500D01*
X124355000Y-120830500D02*
X126800000Y-120830500D01*
%TO.N,DAC OUT A*%
X122800000Y-101010500D02*
X121110000Y-101010500D01*
X123384620Y-101595120D02*
X122800000Y-101010500D01*
X121110000Y-101010500D02*
X119550000Y-99450500D01*
%TO.N,Net-(J4-Pin_7)*%
X101825000Y-115195500D02*
X101825000Y-115350500D01*
X106890000Y-110160500D02*
X106860000Y-110160500D01*
%TO.N,Net-(J4-Pin_6)*%
X102250000Y-112760500D02*
X119530000Y-112760500D01*
X119530000Y-112760500D02*
X122130000Y-110160500D01*
X101800000Y-113210500D02*
X102250000Y-112760500D01*
%TO.N,Net-(J4-Pin_5)*%
X103140000Y-112010500D02*
X101800000Y-110670500D01*
X122130000Y-120280500D02*
X122300000Y-120450500D01*
X118300000Y-112010500D02*
X103140000Y-112010500D01*
%TO.N,Net-(A1-GPIO26_ADC0)*%
X126800000Y-66230500D02*
X125780000Y-65210500D01*
X125780000Y-65210500D02*
X121710000Y-65210500D01*
%TO.N,Net-(J4-Pin_4)*%
X103800000Y-114760500D02*
X106820000Y-117780500D01*
X106820000Y-117780500D02*
X106890000Y-117780500D01*
%TD*%
%TA.AperFunction,Conductor*%
%TO.N,GND*%
G36*
X128442539Y-40030685D02*
G01*
X128488294Y-40083489D01*
X128499500Y-40135000D01*
X128499500Y-148886000D01*
X128479815Y-148953039D01*
X128427011Y-148998794D01*
X128375500Y-149010000D01*
X100624500Y-149010000D01*
X100557461Y-148990315D01*
X100511706Y-148937511D01*
X100500500Y-148886000D01*
X100500500Y-124261133D01*
X100520185Y-124194094D01*
X100572989Y-124148339D01*
X100642147Y-124138395D01*
X100705703Y-124167420D01*
X100724817Y-124188246D01*
X100769896Y-124250292D01*
X100920208Y-124400604D01*
X100998384Y-124457402D01*
X101041051Y-124512731D01*
X101049500Y-124557720D01*
X101049500Y-137584418D01*
X101049500Y-137584420D01*
X101049499Y-137584420D01*
X101078340Y-137729407D01*
X101078343Y-137729417D01*
X101134914Y-137865992D01*
X101167812Y-137915227D01*
X101167813Y-137915230D01*
X101217046Y-137988914D01*
X101217052Y-137988921D01*
X103217049Y-139988916D01*
X103321584Y-140093451D01*
X103321585Y-140093452D01*
X103444498Y-140175580D01*
X103444511Y-140175587D01*
X103581082Y-140232156D01*
X103581087Y-140232158D01*
X103581091Y-140232158D01*
X103581092Y-140232159D01*
X103726079Y-140261000D01*
X103726082Y-140261000D01*
X103726083Y-140261000D01*
X103873917Y-140261000D01*
X117115270Y-140261000D01*
X117182309Y-140280685D01*
X117202951Y-140297319D01*
X118013181Y-141107548D01*
X118046666Y-141168871D01*
X118049500Y-141195229D01*
X118049500Y-142313563D01*
X118029815Y-142380602D01*
X117998387Y-142413879D01*
X117936169Y-142459084D01*
X117936167Y-142459086D01*
X117936166Y-142459086D01*
X117788586Y-142606666D01*
X117665901Y-142775526D01*
X117640484Y-142825411D01*
X117592510Y-142876206D01*
X117524689Y-142893001D01*
X117458554Y-142870463D01*
X117419516Y-142825411D01*
X117394098Y-142775526D01*
X117358348Y-142726321D01*
X117271416Y-142606669D01*
X117123831Y-142459084D01*
X116954975Y-142336403D01*
X116910149Y-142313563D01*
X116769011Y-142241649D01*
X116570506Y-142177150D01*
X116392543Y-142148964D01*
X116364358Y-142144500D01*
X116155642Y-142144500D01*
X116130846Y-142148427D01*
X115949493Y-142177150D01*
X115750988Y-142241649D01*
X115565024Y-142336403D01*
X115396166Y-142459086D01*
X115248586Y-142606666D01*
X115125903Y-142775524D01*
X115100203Y-142825962D01*
X115052228Y-142876757D01*
X114984406Y-142893551D01*
X114918272Y-142871012D01*
X114879234Y-142825959D01*
X114853671Y-142775788D01*
X114853671Y-142775787D01*
X114817730Y-142726322D01*
X114162138Y-143381914D01*
X114139333Y-143296806D01*
X114080090Y-143194194D01*
X113996306Y-143110410D01*
X113893694Y-143051167D01*
X113808584Y-143028361D01*
X114464176Y-142372768D01*
X114464176Y-142372767D01*
X114414714Y-142336830D01*
X114228820Y-142242112D01*
X114030389Y-142177637D01*
X113824324Y-142145000D01*
X113615676Y-142145000D01*
X113409610Y-142177637D01*
X113211179Y-142242112D01*
X113025285Y-142336830D01*
X112975822Y-142372768D01*
X112975821Y-142372768D01*
X113631415Y-143028361D01*
X113546306Y-143051167D01*
X113443694Y-143110410D01*
X113359910Y-143194194D01*
X113300667Y-143296806D01*
X113277861Y-143381914D01*
X112622268Y-142726321D01*
X112622268Y-142726322D01*
X112586330Y-142775785D01*
X112560485Y-142826510D01*
X112512510Y-142877306D01*
X112444690Y-142894101D01*
X112378555Y-142871564D01*
X112339515Y-142826510D01*
X112313669Y-142775785D01*
X112277730Y-142726322D01*
X111622138Y-143381914D01*
X111599333Y-143296806D01*
X111540090Y-143194194D01*
X111456306Y-143110410D01*
X111353694Y-143051167D01*
X111268584Y-143028361D01*
X111924176Y-142372768D01*
X111924176Y-142372767D01*
X111874714Y-142336830D01*
X111688820Y-142242112D01*
X111490389Y-142177637D01*
X111284324Y-142145000D01*
X111075676Y-142145000D01*
X110869610Y-142177637D01*
X110671179Y-142242112D01*
X110485285Y-142336830D01*
X110435822Y-142372768D01*
X110435821Y-142372768D01*
X111091415Y-143028361D01*
X111006306Y-143051167D01*
X110903694Y-143110410D01*
X110819910Y-143194194D01*
X110760667Y-143296806D01*
X110737861Y-143381914D01*
X110082268Y-142726321D01*
X110082268Y-142726322D01*
X110046330Y-142775785D01*
X110020485Y-142826510D01*
X109972510Y-142877306D01*
X109904690Y-142894101D01*
X109838555Y-142871564D01*
X109799515Y-142826510D01*
X109773669Y-142775785D01*
X109737730Y-142726322D01*
X109082138Y-143381914D01*
X109059333Y-143296806D01*
X109000090Y-143194194D01*
X108916306Y-143110410D01*
X108813694Y-143051167D01*
X108728584Y-143028361D01*
X109384176Y-142372768D01*
X109384176Y-142372767D01*
X109334714Y-142336830D01*
X109148820Y-142242112D01*
X108950389Y-142177637D01*
X108744324Y-142145000D01*
X108535676Y-142145000D01*
X108329610Y-142177637D01*
X108131179Y-142242112D01*
X107945285Y-142336830D01*
X107895822Y-142372768D01*
X107895821Y-142372768D01*
X108551415Y-143028361D01*
X108466306Y-143051167D01*
X108363694Y-143110410D01*
X108279910Y-143194194D01*
X108220667Y-143296806D01*
X108197861Y-143381914D01*
X107542268Y-142726321D01*
X107542268Y-142726322D01*
X107506330Y-142775785D01*
X107480765Y-142825960D01*
X107432790Y-142876756D01*
X107364969Y-142893551D01*
X107298834Y-142871013D01*
X107259795Y-142825960D01*
X107234229Y-142775785D01*
X107234097Y-142775525D01*
X107111416Y-142606669D01*
X106963831Y-142459084D01*
X106794975Y-142336403D01*
X106750149Y-142313563D01*
X106609011Y-142241649D01*
X106410506Y-142177150D01*
X106232543Y-142148964D01*
X106204358Y-142144500D01*
X105995642Y-142144500D01*
X105970846Y-142148427D01*
X105789493Y-142177150D01*
X105590988Y-142241649D01*
X105405024Y-142336403D01*
X105236166Y-142459086D01*
X105088586Y-142606666D01*
X104965903Y-142775524D01*
X104871149Y-142961488D01*
X104806650Y-143159993D01*
X104774000Y-143366142D01*
X104774000Y-143574857D01*
X104806650Y-143781006D01*
X104871149Y-143979511D01*
X104940485Y-144115589D01*
X104965903Y-144165475D01*
X105088584Y-144334331D01*
X105236169Y-144481916D01*
X105362811Y-144573926D01*
X105405026Y-144604598D01*
X105454911Y-144630016D01*
X105505706Y-144677990D01*
X105522501Y-144745811D01*
X105499963Y-144811946D01*
X105454911Y-144850984D01*
X105405026Y-144876401D01*
X105236166Y-144999086D01*
X105088586Y-145146666D01*
X104965903Y-145315524D01*
X104871149Y-145501488D01*
X104806650Y-145699993D01*
X104774000Y-145906142D01*
X104774000Y-146114857D01*
X104806650Y-146321006D01*
X104871149Y-146519511D01*
X104940485Y-146655589D01*
X104965903Y-146705475D01*
X105088584Y-146874331D01*
X105236169Y-147021916D01*
X105405025Y-147144597D01*
X105492888Y-147189365D01*
X105590988Y-147239350D01*
X105590990Y-147239350D01*
X105590993Y-147239352D01*
X105697394Y-147273924D01*
X105789493Y-147303849D01*
X105892568Y-147320174D01*
X105995642Y-147336500D01*
X105995643Y-147336500D01*
X106204357Y-147336500D01*
X106204358Y-147336500D01*
X106410506Y-147303849D01*
X106609007Y-147239352D01*
X106794975Y-147144597D01*
X106963831Y-147021916D01*
X107111416Y-146874331D01*
X107234097Y-146705475D01*
X107259795Y-146655040D01*
X107307769Y-146604243D01*
X107375590Y-146587448D01*
X107441725Y-146609985D01*
X107480765Y-146655040D01*
X107506328Y-146705211D01*
X107506328Y-146705212D01*
X107542268Y-146754676D01*
X108197861Y-146099084D01*
X108220667Y-146184194D01*
X108279910Y-146286806D01*
X108363694Y-146370590D01*
X108466306Y-146429833D01*
X108551415Y-146452638D01*
X107895822Y-147108230D01*
X107895822Y-147108231D01*
X107945285Y-147144169D01*
X108131179Y-147238887D01*
X108329610Y-147303362D01*
X108535676Y-147336000D01*
X108744324Y-147336000D01*
X108950389Y-147303362D01*
X109148820Y-147238887D01*
X109334709Y-147144172D01*
X109384176Y-147108230D01*
X108728584Y-146452638D01*
X108813694Y-146429833D01*
X108916306Y-146370590D01*
X109000090Y-146286806D01*
X109059333Y-146184194D01*
X109082138Y-146099084D01*
X109737730Y-146754676D01*
X109773672Y-146705208D01*
X109773674Y-146705205D01*
X109799515Y-146654490D01*
X109847489Y-146603694D01*
X109915310Y-146586898D01*
X109981445Y-146609435D01*
X110020485Y-146654490D01*
X110046328Y-146705211D01*
X110046328Y-146705212D01*
X110082268Y-146754676D01*
X110737861Y-146099084D01*
X110760667Y-146184194D01*
X110819910Y-146286806D01*
X110903694Y-146370590D01*
X111006306Y-146429833D01*
X111091415Y-146452638D01*
X110435822Y-147108230D01*
X110435822Y-147108231D01*
X110485285Y-147144169D01*
X110671179Y-147238887D01*
X110869610Y-147303362D01*
X111075676Y-147336000D01*
X111284324Y-147336000D01*
X111490389Y-147303362D01*
X111688820Y-147238887D01*
X111874709Y-147144172D01*
X111924176Y-147108230D01*
X111268584Y-146452638D01*
X111353694Y-146429833D01*
X111456306Y-146370590D01*
X111540090Y-146286806D01*
X111599333Y-146184194D01*
X111622138Y-146099084D01*
X112277730Y-146754676D01*
X112313672Y-146705208D01*
X112313674Y-146705205D01*
X112339515Y-146654490D01*
X112387489Y-146603694D01*
X112455310Y-146586898D01*
X112521445Y-146609435D01*
X112560485Y-146654490D01*
X112586328Y-146705211D01*
X112586328Y-146705212D01*
X112622268Y-146754676D01*
X113277861Y-146099084D01*
X113300667Y-146184194D01*
X113359910Y-146286806D01*
X113443694Y-146370590D01*
X113546306Y-146429833D01*
X113631415Y-146452638D01*
X112975822Y-147108230D01*
X112975822Y-147108231D01*
X113025285Y-147144169D01*
X113211179Y-147238887D01*
X113409610Y-147303362D01*
X113615676Y-147336000D01*
X113824324Y-147336000D01*
X114030389Y-147303362D01*
X114228820Y-147238887D01*
X114414709Y-147144172D01*
X114464176Y-147108230D01*
X113808584Y-146452638D01*
X113893694Y-146429833D01*
X113996306Y-146370590D01*
X114080090Y-146286806D01*
X114139333Y-146184194D01*
X114162138Y-146099084D01*
X114817730Y-146754676D01*
X114853671Y-146705209D01*
X114879233Y-146655041D01*
X114927207Y-146604244D01*
X114995027Y-146587448D01*
X115061163Y-146609984D01*
X115100203Y-146655038D01*
X115125767Y-146705209D01*
X115125903Y-146705475D01*
X115248584Y-146874331D01*
X115396169Y-147021916D01*
X115565025Y-147144597D01*
X115652888Y-147189365D01*
X115750988Y-147239350D01*
X115750990Y-147239350D01*
X115750993Y-147239352D01*
X115857394Y-147273924D01*
X115949493Y-147303849D01*
X116052568Y-147320174D01*
X116155642Y-147336500D01*
X116155643Y-147336500D01*
X116364357Y-147336500D01*
X116364358Y-147336500D01*
X116570506Y-147303849D01*
X116769007Y-147239352D01*
X116954975Y-147144597D01*
X117123831Y-147021916D01*
X117271416Y-146874331D01*
X117394097Y-146705475D01*
X117419515Y-146655588D01*
X117467489Y-146604793D01*
X117535310Y-146587998D01*
X117601445Y-146610535D01*
X117640484Y-146655588D01*
X117665903Y-146705475D01*
X117788584Y-146874331D01*
X117936169Y-147021916D01*
X118105025Y-147144597D01*
X118192888Y-147189365D01*
X118290988Y-147239350D01*
X118290990Y-147239350D01*
X118290993Y-147239352D01*
X118397394Y-147273924D01*
X118489493Y-147303849D01*
X118592568Y-147320174D01*
X118695642Y-147336500D01*
X118695643Y-147336500D01*
X118904357Y-147336500D01*
X118904358Y-147336500D01*
X119110506Y-147303849D01*
X119309007Y-147239352D01*
X119494975Y-147144597D01*
X119663831Y-147021916D01*
X119811416Y-146874331D01*
X119934097Y-146705475D01*
X119959515Y-146655588D01*
X120007489Y-146604793D01*
X120075310Y-146587998D01*
X120141445Y-146610535D01*
X120180484Y-146655588D01*
X120205903Y-146705475D01*
X120328584Y-146874331D01*
X120476169Y-147021916D01*
X120645025Y-147144597D01*
X120732888Y-147189365D01*
X120830988Y-147239350D01*
X120830990Y-147239350D01*
X120830993Y-147239352D01*
X120937394Y-147273924D01*
X121029493Y-147303849D01*
X121132568Y-147320174D01*
X121235642Y-147336500D01*
X121235643Y-147336500D01*
X121444357Y-147336500D01*
X121444358Y-147336500D01*
X121650506Y-147303849D01*
X121849007Y-147239352D01*
X122034975Y-147144597D01*
X122203831Y-147021916D01*
X122351416Y-146874331D01*
X122474097Y-146705475D01*
X122499515Y-146655588D01*
X122547489Y-146604793D01*
X122615310Y-146587998D01*
X122681445Y-146610535D01*
X122720484Y-146655588D01*
X122745903Y-146705475D01*
X122868584Y-146874331D01*
X123016169Y-147021916D01*
X123185025Y-147144597D01*
X123272888Y-147189365D01*
X123370988Y-147239350D01*
X123370990Y-147239350D01*
X123370993Y-147239352D01*
X123477394Y-147273924D01*
X123569493Y-147303849D01*
X123672568Y-147320174D01*
X123775642Y-147336500D01*
X123775643Y-147336500D01*
X123984357Y-147336500D01*
X123984358Y-147336500D01*
X124190506Y-147303849D01*
X124389007Y-147239352D01*
X124574975Y-147144597D01*
X124743831Y-147021916D01*
X124891416Y-146874331D01*
X125014097Y-146705475D01*
X125108852Y-146519507D01*
X125173349Y-146321006D01*
X125206000Y-146114858D01*
X125206000Y-145906142D01*
X125173349Y-145699994D01*
X125108852Y-145501493D01*
X125108850Y-145501490D01*
X125108850Y-145501488D01*
X125014229Y-145315785D01*
X125014097Y-145315525D01*
X124891416Y-145146669D01*
X124743831Y-144999084D01*
X124574975Y-144876403D01*
X124525088Y-144850984D01*
X124474293Y-144803011D01*
X124457498Y-144735190D01*
X124480035Y-144669055D01*
X124525089Y-144630015D01*
X124574975Y-144604597D01*
X124743831Y-144481916D01*
X124891416Y-144334331D01*
X125014097Y-144165475D01*
X125108852Y-143979507D01*
X125173349Y-143781006D01*
X125206000Y-143574858D01*
X125206000Y-143366142D01*
X125173349Y-143159994D01*
X125108852Y-142961493D01*
X125108850Y-142961490D01*
X125108850Y-142961488D01*
X125014229Y-142775785D01*
X125014097Y-142775525D01*
X124891416Y-142606669D01*
X124743831Y-142459084D01*
X124574975Y-142336403D01*
X124530149Y-142313563D01*
X124389011Y-142241649D01*
X124190506Y-142177150D01*
X124012543Y-142148964D01*
X123984358Y-142144500D01*
X123775642Y-142144500D01*
X123750846Y-142148427D01*
X123569493Y-142177150D01*
X123370988Y-142241649D01*
X123185024Y-142336403D01*
X123016166Y-142459086D01*
X122868586Y-142606666D01*
X122745901Y-142775526D01*
X122720484Y-142825411D01*
X122672510Y-142876206D01*
X122604689Y-142893001D01*
X122538554Y-142870463D01*
X122499516Y-142825411D01*
X122474098Y-142775526D01*
X122438348Y-142726321D01*
X122351416Y-142606669D01*
X122203831Y-142459084D01*
X122034975Y-142336403D01*
X121990149Y-142313563D01*
X121849011Y-142241649D01*
X121650506Y-142177150D01*
X121472543Y-142148964D01*
X121444358Y-142144500D01*
X121235642Y-142144500D01*
X121210846Y-142148427D01*
X121029493Y-142177150D01*
X120830988Y-142241649D01*
X120645024Y-142336403D01*
X120476166Y-142459086D01*
X120328586Y-142606666D01*
X120205901Y-142775526D01*
X120180484Y-142825411D01*
X120132510Y-142876206D01*
X120064689Y-142893001D01*
X119998554Y-142870463D01*
X119959516Y-142825411D01*
X119934098Y-142775526D01*
X119898348Y-142726321D01*
X119811416Y-142606669D01*
X119663831Y-142459084D01*
X119601613Y-142413880D01*
X119558949Y-142358551D01*
X119550500Y-142313563D01*
X119550500Y-140759079D01*
X119521659Y-140614092D01*
X119521658Y-140614091D01*
X119521658Y-140614087D01*
X119521656Y-140614082D01*
X119465087Y-140477511D01*
X119465080Y-140477498D01*
X119382952Y-140354585D01*
X119382951Y-140354584D01*
X119278416Y-140250049D01*
X119017283Y-139988916D01*
X117955921Y-138927552D01*
X117955914Y-138927546D01*
X117882229Y-138878312D01*
X117882229Y-138878313D01*
X117832991Y-138845413D01*
X117696417Y-138788843D01*
X117696407Y-138788840D01*
X117551420Y-138760000D01*
X117551418Y-138760000D01*
X104162229Y-138760000D01*
X104095190Y-138740315D01*
X104074548Y-138723681D01*
X102586819Y-137235951D01*
X102553334Y-137174628D01*
X102550500Y-137148270D01*
X102550500Y-127976131D01*
X105601000Y-127976131D01*
X105601000Y-128164868D01*
X105630522Y-128351263D01*
X105630523Y-128351267D01*
X105688843Y-128530756D01*
X105774523Y-128698913D01*
X105885454Y-128851596D01*
X106018904Y-128985046D01*
X106171587Y-129095977D01*
X106339744Y-129181657D01*
X106519233Y-129239977D01*
X106589134Y-129251048D01*
X106705632Y-129269500D01*
X106705637Y-129269500D01*
X106894368Y-129269500D01*
X106997920Y-129253098D01*
X107080767Y-129239977D01*
X107260256Y-129181657D01*
X107428413Y-129095977D01*
X107581096Y-128985046D01*
X107714546Y-128851596D01*
X107825477Y-128698913D01*
X107911157Y-128530756D01*
X107969477Y-128351267D01*
X107982598Y-128268420D01*
X107999000Y-128164868D01*
X107999000Y-127976131D01*
X107969477Y-127789736D01*
X107969477Y-127789735D01*
X107969477Y-127789733D01*
X107911157Y-127610244D01*
X107825477Y-127442087D01*
X107714546Y-127289404D01*
X107581096Y-127155954D01*
X107428413Y-127045023D01*
X107260256Y-126959343D01*
X107080767Y-126901023D01*
X107080765Y-126901022D01*
X107080763Y-126901022D01*
X106894368Y-126871500D01*
X106894363Y-126871500D01*
X106705637Y-126871500D01*
X106705632Y-126871500D01*
X106519236Y-126901022D01*
X106339741Y-126959344D01*
X106171586Y-127045023D01*
X106084475Y-127108313D01*
X106018904Y-127155954D01*
X106018902Y-127155956D01*
X106018901Y-127155956D01*
X105885456Y-127289401D01*
X105885456Y-127289402D01*
X105885454Y-127289404D01*
X105837813Y-127354975D01*
X105774523Y-127442086D01*
X105688844Y-127610241D01*
X105630522Y-127789736D01*
X105601000Y-127976131D01*
X102550500Y-127976131D01*
X102550500Y-124557720D01*
X102570185Y-124490681D01*
X102601614Y-124457402D01*
X102679792Y-124400604D01*
X102830104Y-124250292D01*
X102830106Y-124250288D01*
X102830109Y-124250286D01*
X102955048Y-124078320D01*
X102955047Y-124078320D01*
X102955051Y-124078316D01*
X103051557Y-123888912D01*
X103117246Y-123686743D01*
X103150500Y-123476787D01*
X103150500Y-123264213D01*
X103117246Y-123054257D01*
X103051557Y-122852088D01*
X102955051Y-122662684D01*
X102955049Y-122662681D01*
X102955048Y-122662679D01*
X102830109Y-122490713D01*
X102679786Y-122340390D01*
X102507817Y-122215449D01*
X102498504Y-122210704D01*
X102447707Y-122162730D01*
X102430912Y-122094909D01*
X102453449Y-122028774D01*
X102498507Y-121989732D01*
X102507555Y-121985122D01*
X102561716Y-121945770D01*
X102561717Y-121945770D01*
X101929408Y-121313462D01*
X101992993Y-121296425D01*
X102107007Y-121230599D01*
X102200099Y-121137507D01*
X102265925Y-121023493D01*
X102282962Y-120959909D01*
X102915270Y-121592217D01*
X102915270Y-121592216D01*
X102954622Y-121538054D01*
X103051095Y-121348717D01*
X103116757Y-121146630D01*
X103116757Y-121146627D01*
X103150000Y-120936746D01*
X103150000Y-120724253D01*
X103116757Y-120514372D01*
X103116757Y-120514369D01*
X103051095Y-120312282D01*
X102954624Y-120122949D01*
X102915270Y-120068782D01*
X102915269Y-120068782D01*
X102282962Y-120701090D01*
X102265925Y-120637507D01*
X102200099Y-120523493D01*
X102107007Y-120430401D01*
X101992993Y-120364575D01*
X101929409Y-120347537D01*
X102561716Y-119715228D01*
X102507547Y-119675873D01*
X102507547Y-119675872D01*
X102498500Y-119671263D01*
X102447706Y-119623288D01*
X102430912Y-119555466D01*
X102453451Y-119489332D01*
X102498508Y-119450293D01*
X102507816Y-119445551D01*
X102610648Y-119370840D01*
X102679786Y-119320609D01*
X102679788Y-119320606D01*
X102679792Y-119320604D01*
X102830104Y-119170292D01*
X102830106Y-119170288D01*
X102830109Y-119170286D01*
X102955048Y-118998320D01*
X102955047Y-118998320D01*
X102955051Y-118998316D01*
X103051557Y-118808912D01*
X103117246Y-118606743D01*
X103150500Y-118396787D01*
X103150500Y-118184213D01*
X103117246Y-117974257D01*
X103051557Y-117772088D01*
X102955051Y-117582684D01*
X102955049Y-117582681D01*
X102955048Y-117582679D01*
X102830109Y-117410713D01*
X102679786Y-117260390D01*
X102507820Y-117135451D01*
X102507115Y-117135091D01*
X102499054Y-117130985D01*
X102448259Y-117083012D01*
X102431463Y-117015192D01*
X102453999Y-116949056D01*
X102499054Y-116910015D01*
X102507816Y-116905551D01*
X102602673Y-116836634D01*
X102679786Y-116780609D01*
X102679788Y-116780606D01*
X102679792Y-116780604D01*
X102830104Y-116630292D01*
X102830106Y-116630288D01*
X102830109Y-116630286D01*
X102955048Y-116458320D01*
X102955047Y-116458320D01*
X102955051Y-116458316D01*
X103051557Y-116268912D01*
X103117246Y-116066743D01*
X103150500Y-115856787D01*
X103150500Y-115644213D01*
X103131976Y-115527258D01*
X103140931Y-115457966D01*
X103185927Y-115404514D01*
X103252678Y-115383874D01*
X103319992Y-115402599D01*
X103323331Y-115404753D01*
X103420821Y-115469894D01*
X103420823Y-115469895D01*
X103420827Y-115469897D01*
X103508230Y-115506099D01*
X103566503Y-115530237D01*
X103633580Y-115543579D01*
X103695490Y-115575963D01*
X103697069Y-115577515D01*
X105553181Y-117433627D01*
X105586666Y-117494950D01*
X105589500Y-117521308D01*
X105589500Y-118780501D01*
X105589501Y-118780518D01*
X105600000Y-118883296D01*
X105600001Y-118883299D01*
X105638116Y-118998320D01*
X105655186Y-119049834D01*
X105747288Y-119199156D01*
X105871344Y-119323212D01*
X105960717Y-119378337D01*
X106007441Y-119430283D01*
X106018664Y-119499246D01*
X105990821Y-119563328D01*
X105983302Y-119571556D01*
X105885453Y-119669405D01*
X105774523Y-119822086D01*
X105688844Y-119990241D01*
X105630522Y-120169736D01*
X105601000Y-120356131D01*
X105601000Y-120544868D01*
X105629412Y-120724253D01*
X105630523Y-120731267D01*
X105688843Y-120910756D01*
X105774523Y-121078913D01*
X105885454Y-121231596D01*
X106018904Y-121365046D01*
X106171587Y-121475977D01*
X106339744Y-121561657D01*
X106519233Y-121619977D01*
X106589134Y-121631048D01*
X106705632Y-121649500D01*
X106705637Y-121649500D01*
X106894368Y-121649500D01*
X106997920Y-121633098D01*
X107080767Y-121619977D01*
X107260256Y-121561657D01*
X107428413Y-121475977D01*
X107581096Y-121365046D01*
X107714546Y-121231596D01*
X107825477Y-121078913D01*
X107911157Y-120910756D01*
X107969477Y-120731267D01*
X107984327Y-120637507D01*
X107999000Y-120544868D01*
X107999000Y-120356131D01*
X107969477Y-120169736D01*
X107969477Y-120169733D01*
X107911157Y-119990244D01*
X107825477Y-119822087D01*
X107714546Y-119669404D01*
X107676996Y-119631854D01*
X107643511Y-119570531D01*
X107648495Y-119500839D01*
X107690367Y-119444906D01*
X107725667Y-119426470D01*
X107759334Y-119415314D01*
X107908656Y-119323212D01*
X108032712Y-119199156D01*
X108124814Y-119049834D01*
X108151955Y-118967927D01*
X108191726Y-118910484D01*
X108256242Y-118883661D01*
X108325018Y-118895976D01*
X108369977Y-118934047D01*
X108416672Y-118998316D01*
X108438034Y-119027719D01*
X108582786Y-119172471D01*
X108748388Y-119292786D01*
X108776880Y-119307304D01*
X108827675Y-119355278D01*
X108844470Y-119423099D01*
X108821932Y-119489234D01*
X108793470Y-119518105D01*
X108768910Y-119535949D01*
X108768901Y-119535956D01*
X108635456Y-119669401D01*
X108635456Y-119669402D01*
X108635454Y-119669404D01*
X108631061Y-119675451D01*
X108524523Y-119822086D01*
X108438844Y-119990241D01*
X108380522Y-120169736D01*
X108351000Y-120356131D01*
X108351000Y-120544868D01*
X108379412Y-120724253D01*
X108380523Y-120731267D01*
X108438843Y-120910756D01*
X108524523Y-121078913D01*
X108635454Y-121231596D01*
X108768904Y-121365046D01*
X108921587Y-121475977D01*
X109089744Y-121561657D01*
X109269233Y-121619977D01*
X109339134Y-121631048D01*
X109455632Y-121649500D01*
X109455637Y-121649500D01*
X109644368Y-121649500D01*
X109747920Y-121633098D01*
X109830767Y-121619977D01*
X110010256Y-121561657D01*
X110178413Y-121475977D01*
X110331096Y-121365046D01*
X110464546Y-121231596D01*
X110575477Y-121078913D01*
X110661157Y-120910756D01*
X110719477Y-120731267D01*
X110734327Y-120637507D01*
X110749000Y-120544868D01*
X110749000Y-120356131D01*
X110719477Y-120169736D01*
X110719477Y-120169733D01*
X110661157Y-119990244D01*
X110575477Y-119822087D01*
X110464546Y-119669404D01*
X110331096Y-119535954D01*
X110192082Y-119434954D01*
X110149418Y-119379625D01*
X110143439Y-119310011D01*
X110176045Y-119248216D01*
X110192078Y-119234323D01*
X110277219Y-119172466D01*
X110421966Y-119027719D01*
X110421968Y-119027715D01*
X110421971Y-119027713D01*
X110542284Y-118862114D01*
X110542285Y-118862113D01*
X110542287Y-118862110D01*
X110589516Y-118769417D01*
X110637489Y-118718623D01*
X110705310Y-118701828D01*
X110771445Y-118724365D01*
X110810483Y-118769417D01*
X110854348Y-118855506D01*
X110857715Y-118862114D01*
X110978028Y-119027713D01*
X111122786Y-119172471D01*
X111247914Y-119263380D01*
X111288390Y-119292787D01*
X111384752Y-119341886D01*
X111470776Y-119385718D01*
X111470778Y-119385718D01*
X111470781Y-119385720D01*
X111542796Y-119409119D01*
X111665465Y-119448977D01*
X111760423Y-119464017D01*
X111867648Y-119481000D01*
X111867649Y-119481000D01*
X112072351Y-119481000D01*
X112072352Y-119481000D01*
X112274534Y-119448977D01*
X112469219Y-119385720D01*
X112651610Y-119292787D01*
X112780482Y-119199157D01*
X112817213Y-119172471D01*
X112817215Y-119172468D01*
X112817219Y-119172466D01*
X112961966Y-119027719D01*
X112961968Y-119027715D01*
X112961971Y-119027713D01*
X113082284Y-118862114D01*
X113082285Y-118862113D01*
X113082287Y-118862110D01*
X113129516Y-118769417D01*
X113177489Y-118718623D01*
X113245310Y-118701828D01*
X113311445Y-118724365D01*
X113350483Y-118769417D01*
X113394348Y-118855506D01*
X113397715Y-118862114D01*
X113518028Y-119027713D01*
X113662786Y-119172471D01*
X113787914Y-119263380D01*
X113828390Y-119292787D01*
X113924752Y-119341886D01*
X114010776Y-119385718D01*
X114010778Y-119385718D01*
X114010781Y-119385720D01*
X114082796Y-119409119D01*
X114205465Y-119448977D01*
X114300423Y-119464017D01*
X114407648Y-119481000D01*
X114407649Y-119481000D01*
X114612351Y-119481000D01*
X114612352Y-119481000D01*
X114814534Y-119448977D01*
X115009219Y-119385720D01*
X115191610Y-119292787D01*
X115320482Y-119199157D01*
X115357213Y-119172471D01*
X115357215Y-119172468D01*
X115357219Y-119172466D01*
X115501966Y-119027719D01*
X115501968Y-119027715D01*
X115501971Y-119027713D01*
X115622284Y-118862114D01*
X115622285Y-118862113D01*
X115622287Y-118862110D01*
X115669516Y-118769417D01*
X115717489Y-118718623D01*
X115785310Y-118701828D01*
X115851445Y-118724365D01*
X115890483Y-118769417D01*
X115934348Y-118855506D01*
X115937715Y-118862114D01*
X116058028Y-119027713D01*
X116202786Y-119172471D01*
X116327914Y-119263380D01*
X116368390Y-119292787D01*
X116464752Y-119341886D01*
X116550776Y-119385718D01*
X116550778Y-119385718D01*
X116550781Y-119385720D01*
X116622796Y-119409119D01*
X116745465Y-119448977D01*
X116840423Y-119464017D01*
X116947648Y-119481000D01*
X116947649Y-119481000D01*
X117152351Y-119481000D01*
X117152352Y-119481000D01*
X117354534Y-119448977D01*
X117549219Y-119385720D01*
X117731610Y-119292787D01*
X117860482Y-119199157D01*
X117897213Y-119172471D01*
X117897215Y-119172468D01*
X117897219Y-119172466D01*
X118041966Y-119027719D01*
X118041968Y-119027715D01*
X118041971Y-119027713D01*
X118162284Y-118862114D01*
X118162285Y-118862113D01*
X118162287Y-118862110D01*
X118209516Y-118769417D01*
X118257489Y-118718623D01*
X118325310Y-118701828D01*
X118391445Y-118724365D01*
X118430483Y-118769417D01*
X118474348Y-118855506D01*
X118477715Y-118862114D01*
X118598028Y-119027713D01*
X118598034Y-119027719D01*
X118742781Y-119172466D01*
X118867915Y-119263380D01*
X118910581Y-119318710D01*
X118916560Y-119388323D01*
X118883955Y-119450119D01*
X118867916Y-119464017D01*
X118768902Y-119535955D01*
X118635456Y-119669401D01*
X118635456Y-119669402D01*
X118635454Y-119669404D01*
X118631061Y-119675451D01*
X118524523Y-119822086D01*
X118438844Y-119990241D01*
X118380522Y-120169736D01*
X118351000Y-120356131D01*
X118351000Y-120544868D01*
X118379412Y-120724253D01*
X118380523Y-120731267D01*
X118438843Y-120910756D01*
X118524523Y-121078913D01*
X118635454Y-121231596D01*
X118768904Y-121365046D01*
X118921587Y-121475977D01*
X119089744Y-121561657D01*
X119269233Y-121619977D01*
X119339134Y-121631048D01*
X119455632Y-121649500D01*
X119455637Y-121649500D01*
X119644368Y-121649500D01*
X119747920Y-121633098D01*
X119830767Y-121619977D01*
X120010256Y-121561657D01*
X120178413Y-121475977D01*
X120331096Y-121365046D01*
X120464546Y-121231596D01*
X120575477Y-121078913D01*
X120661157Y-120910756D01*
X120719477Y-120731267D01*
X120734327Y-120637507D01*
X120749000Y-120544868D01*
X120749000Y-120356131D01*
X120719477Y-120169736D01*
X120719477Y-120169733D01*
X120661157Y-119990244D01*
X120575477Y-119822087D01*
X120464546Y-119669404D01*
X120331096Y-119535954D01*
X120272081Y-119493077D01*
X120229418Y-119437749D01*
X120223439Y-119368135D01*
X120256045Y-119306341D01*
X120272079Y-119292445D01*
X120437219Y-119172466D01*
X120581966Y-119027719D01*
X120581968Y-119027715D01*
X120581971Y-119027713D01*
X120702284Y-118862114D01*
X120702285Y-118862113D01*
X120702287Y-118862110D01*
X120749516Y-118769417D01*
X120797489Y-118718623D01*
X120865310Y-118701828D01*
X120931445Y-118724365D01*
X120970483Y-118769417D01*
X121014348Y-118855506D01*
X121017715Y-118862114D01*
X121138028Y-119027713D01*
X121282786Y-119172471D01*
X121448385Y-119292784D01*
X121448387Y-119292785D01*
X121448390Y-119292787D01*
X121506268Y-119322277D01*
X121557064Y-119370251D01*
X121573859Y-119438072D01*
X121551322Y-119504207D01*
X121522869Y-119533073D01*
X121518904Y-119535953D01*
X121385456Y-119669401D01*
X121385456Y-119669402D01*
X121385454Y-119669404D01*
X121381061Y-119675451D01*
X121274523Y-119822086D01*
X121188844Y-119990241D01*
X121130522Y-120169736D01*
X121101000Y-120356131D01*
X121101000Y-120544868D01*
X121129412Y-120724253D01*
X121130523Y-120731267D01*
X121188843Y-120910756D01*
X121274523Y-121078913D01*
X121385454Y-121231596D01*
X121518904Y-121365046D01*
X121671587Y-121475977D01*
X121839744Y-121561657D01*
X122019233Y-121619977D01*
X122089134Y-121631048D01*
X122205632Y-121649500D01*
X122316692Y-121649500D01*
X122383731Y-121669185D01*
X122429486Y-121721989D01*
X122439430Y-121791147D01*
X122410405Y-121854703D01*
X122404373Y-121861181D01*
X116881873Y-127383681D01*
X116820550Y-127417166D01*
X116794192Y-127420000D01*
X110622611Y-127420000D01*
X110555572Y-127400315D01*
X110522293Y-127368886D01*
X110464546Y-127289404D01*
X110331096Y-127155954D01*
X110178413Y-127045023D01*
X110010256Y-126959343D01*
X109830767Y-126901023D01*
X109830765Y-126901022D01*
X109830763Y-126901022D01*
X109644368Y-126871500D01*
X109644363Y-126871500D01*
X109455637Y-126871500D01*
X109455632Y-126871500D01*
X109269236Y-126901022D01*
X109089741Y-126959344D01*
X108921586Y-127045023D01*
X108834475Y-127108313D01*
X108768904Y-127155954D01*
X108768902Y-127155956D01*
X108768901Y-127155956D01*
X108635456Y-127289401D01*
X108635456Y-127289402D01*
X108635454Y-127289404D01*
X108587813Y-127354975D01*
X108524523Y-127442086D01*
X108438844Y-127610241D01*
X108380522Y-127789736D01*
X108351000Y-127976131D01*
X108351000Y-128164868D01*
X108380522Y-128351263D01*
X108380523Y-128351267D01*
X108438843Y-128530756D01*
X108524523Y-128698913D01*
X108635454Y-128851596D01*
X108768904Y-128985046D01*
X108921587Y-129095977D01*
X109089744Y-129181657D01*
X109269233Y-129239977D01*
X109339134Y-129251048D01*
X109455632Y-129269500D01*
X109455637Y-129269500D01*
X109644368Y-129269500D01*
X109747920Y-129253098D01*
X109830767Y-129239977D01*
X110010256Y-129181657D01*
X110178413Y-129095977D01*
X110331096Y-128985046D01*
X110464546Y-128851596D01*
X110522293Y-128772113D01*
X110577623Y-128729449D01*
X110622611Y-128721000D01*
X117179071Y-128721000D01*
X117263615Y-128704182D01*
X117304744Y-128696001D01*
X117423127Y-128646965D01*
X117439536Y-128636001D01*
X117529669Y-128575777D01*
X118139319Y-127966125D01*
X118200642Y-127932641D01*
X118270333Y-127937625D01*
X118326267Y-127979496D01*
X118350684Y-128044961D01*
X118351000Y-128053807D01*
X118351000Y-128164868D01*
X118380522Y-128351263D01*
X118380523Y-128351267D01*
X118438843Y-128530756D01*
X118524523Y-128698913D01*
X118635454Y-128851596D01*
X118768904Y-128985046D01*
X118921587Y-129095977D01*
X119089744Y-129181657D01*
X119269233Y-129239977D01*
X119339134Y-129251048D01*
X119455632Y-129269500D01*
X119455637Y-129269500D01*
X119644368Y-129269500D01*
X119747920Y-129253098D01*
X119830767Y-129239977D01*
X120010256Y-129181657D01*
X120178413Y-129095977D01*
X120331096Y-128985046D01*
X120464546Y-128851596D01*
X120575477Y-128698913D01*
X120661157Y-128530756D01*
X120719477Y-128351267D01*
X120732598Y-128268420D01*
X120749000Y-128164868D01*
X120749000Y-127976132D01*
X120736659Y-127898219D01*
X120725427Y-127827302D01*
X120734381Y-127758011D01*
X120760216Y-127720228D01*
X120976991Y-127503453D01*
X121038312Y-127469970D01*
X121108004Y-127474954D01*
X121163937Y-127516826D01*
X121188354Y-127582290D01*
X121182601Y-127629454D01*
X121130522Y-127789735D01*
X121130522Y-127789736D01*
X121101000Y-127976131D01*
X121101000Y-128164868D01*
X121130522Y-128351263D01*
X121130523Y-128351267D01*
X121188843Y-128530756D01*
X121274523Y-128698913D01*
X121385454Y-128851596D01*
X121518904Y-128985046D01*
X121671587Y-129095977D01*
X121839744Y-129181657D01*
X122019233Y-129239977D01*
X122089134Y-129251048D01*
X122205632Y-129269500D01*
X122205637Y-129269500D01*
X122394368Y-129269500D01*
X122497920Y-129253098D01*
X122580767Y-129239977D01*
X122760256Y-129181657D01*
X122928413Y-129095977D01*
X123081096Y-128985046D01*
X123214546Y-128851596D01*
X123325477Y-128698913D01*
X123411157Y-128530756D01*
X123469477Y-128351267D01*
X123482598Y-128268420D01*
X123499000Y-128164868D01*
X123499000Y-127976131D01*
X123469477Y-127789736D01*
X123469477Y-127789735D01*
X123469477Y-127789733D01*
X123411157Y-127610244D01*
X123325477Y-127442087D01*
X123214546Y-127289404D01*
X123081096Y-127155954D01*
X122928413Y-127045023D01*
X122760256Y-126959343D01*
X122580767Y-126901023D01*
X122580765Y-126901022D01*
X122580763Y-126901022D01*
X122394368Y-126871500D01*
X122394363Y-126871500D01*
X122205637Y-126871500D01*
X122205632Y-126871500D01*
X122019236Y-126901022D01*
X121858955Y-126953101D01*
X121789114Y-126955096D01*
X121729281Y-126919016D01*
X121698453Y-126856315D01*
X121706418Y-126786901D01*
X121732956Y-126747489D01*
X124423127Y-124057319D01*
X124484450Y-124023834D01*
X124510808Y-124021000D01*
X125540382Y-124021000D01*
X125607421Y-124040685D01*
X125641099Y-124075091D01*
X125642085Y-124074375D01*
X125769890Y-124250286D01*
X125920213Y-124400609D01*
X126092179Y-124525548D01*
X126092181Y-124525549D01*
X126092184Y-124525551D01*
X126281588Y-124622057D01*
X126483757Y-124687746D01*
X126693713Y-124721000D01*
X126693714Y-124721000D01*
X126906286Y-124721000D01*
X126906287Y-124721000D01*
X127116243Y-124687746D01*
X127318412Y-124622057D01*
X127507816Y-124525551D01*
X127555811Y-124490681D01*
X127679786Y-124400609D01*
X127679788Y-124400606D01*
X127679792Y-124400604D01*
X127830104Y-124250292D01*
X127830106Y-124250288D01*
X127830109Y-124250286D01*
X127955048Y-124078320D01*
X127955047Y-124078320D01*
X127955051Y-124078316D01*
X128051557Y-123888912D01*
X128117246Y-123686743D01*
X128150500Y-123476787D01*
X128150500Y-123264213D01*
X128117246Y-123054257D01*
X128051557Y-122852088D01*
X127955051Y-122662684D01*
X127955049Y-122662681D01*
X127955048Y-122662679D01*
X127830109Y-122490713D01*
X127679786Y-122340390D01*
X127507820Y-122215451D01*
X127507115Y-122215091D01*
X127499054Y-122210985D01*
X127448259Y-122163012D01*
X127431463Y-122095192D01*
X127453999Y-122029056D01*
X127499054Y-121990015D01*
X127507816Y-121985551D01*
X127562572Y-121945769D01*
X127679786Y-121860609D01*
X127679788Y-121860606D01*
X127679792Y-121860604D01*
X127830104Y-121710292D01*
X127830106Y-121710288D01*
X127830109Y-121710286D01*
X127955048Y-121538320D01*
X127955047Y-121538320D01*
X127955051Y-121538316D01*
X128051557Y-121348912D01*
X128117246Y-121146743D01*
X128150500Y-120936787D01*
X128150500Y-120724213D01*
X128117246Y-120514257D01*
X128051557Y-120312088D01*
X127955051Y-120122684D01*
X127955049Y-120122681D01*
X127955048Y-120122679D01*
X127830109Y-119950713D01*
X127679786Y-119800390D01*
X127507820Y-119675451D01*
X127499600Y-119671263D01*
X127499054Y-119670985D01*
X127448259Y-119623012D01*
X127431463Y-119555192D01*
X127453999Y-119489056D01*
X127499054Y-119450015D01*
X127507816Y-119445551D01*
X127590170Y-119385718D01*
X127679786Y-119320609D01*
X127679788Y-119320606D01*
X127679792Y-119320604D01*
X127830104Y-119170292D01*
X127830106Y-119170288D01*
X127830109Y-119170286D01*
X127955048Y-118998320D01*
X127955047Y-118998320D01*
X127955051Y-118998316D01*
X128051557Y-118808912D01*
X128117246Y-118606743D01*
X128150500Y-118396787D01*
X128150500Y-118184213D01*
X128117246Y-117974257D01*
X128051557Y-117772088D01*
X127955051Y-117582684D01*
X127955049Y-117582681D01*
X127955048Y-117582679D01*
X127830109Y-117410713D01*
X127679786Y-117260390D01*
X127507820Y-117135451D01*
X127507115Y-117135091D01*
X127499054Y-117130985D01*
X127448259Y-117083012D01*
X127431463Y-117015192D01*
X127453999Y-116949056D01*
X127499054Y-116910015D01*
X127507816Y-116905551D01*
X127602673Y-116836634D01*
X127679786Y-116780609D01*
X127679788Y-116780606D01*
X127679792Y-116780604D01*
X127830104Y-116630292D01*
X127830106Y-116630288D01*
X127830109Y-116630286D01*
X127955048Y-116458320D01*
X127955047Y-116458320D01*
X127955051Y-116458316D01*
X128051557Y-116268912D01*
X128117246Y-116066743D01*
X128150500Y-115856787D01*
X128150500Y-115644213D01*
X128117246Y-115434257D01*
X128051557Y-115232088D01*
X127955051Y-115042684D01*
X127955049Y-115042681D01*
X127955048Y-115042679D01*
X127830109Y-114870713D01*
X127679786Y-114720390D01*
X127507820Y-114595451D01*
X127505125Y-114594078D01*
X127499054Y-114590985D01*
X127448259Y-114543012D01*
X127431463Y-114475192D01*
X127453999Y-114409056D01*
X127499054Y-114370015D01*
X127507816Y-114365551D01*
X127535535Y-114345412D01*
X127679786Y-114240609D01*
X127679788Y-114240606D01*
X127679792Y-114240604D01*
X127830104Y-114090292D01*
X127830106Y-114090288D01*
X127830109Y-114090286D01*
X127955048Y-113918320D01*
X127955047Y-113918320D01*
X127955051Y-113918316D01*
X128051557Y-113728912D01*
X128117246Y-113526743D01*
X128150500Y-113316787D01*
X128150500Y-113104213D01*
X128117246Y-112894257D01*
X128051557Y-112692088D01*
X127955051Y-112502684D01*
X127955049Y-112502681D01*
X127955048Y-112502679D01*
X127830109Y-112330713D01*
X127679786Y-112180390D01*
X127507820Y-112055451D01*
X127507115Y-112055091D01*
X127499054Y-112050985D01*
X127448259Y-112003012D01*
X127431463Y-111935192D01*
X127453999Y-111869056D01*
X127499054Y-111830015D01*
X127507816Y-111825551D01*
X127574637Y-111777003D01*
X127679786Y-111700609D01*
X127679788Y-111700606D01*
X127679792Y-111700604D01*
X127830104Y-111550292D01*
X127830106Y-111550288D01*
X127830109Y-111550286D01*
X127955048Y-111378320D01*
X127955047Y-111378320D01*
X127955051Y-111378316D01*
X128051557Y-111188912D01*
X128117246Y-110986743D01*
X128150500Y-110776787D01*
X128150500Y-110564213D01*
X128117246Y-110354257D01*
X128051557Y-110152088D01*
X127955051Y-109962684D01*
X127955049Y-109962681D01*
X127955048Y-109962679D01*
X127830109Y-109790713D01*
X127679786Y-109640390D01*
X127507820Y-109515451D01*
X127507115Y-109515091D01*
X127499054Y-109510985D01*
X127448259Y-109463012D01*
X127431463Y-109395192D01*
X127453999Y-109329056D01*
X127499054Y-109290015D01*
X127507816Y-109285551D01*
X127602673Y-109216634D01*
X127679786Y-109160609D01*
X127679788Y-109160606D01*
X127679792Y-109160604D01*
X127830104Y-109010292D01*
X127830106Y-109010288D01*
X127830109Y-109010286D01*
X127955048Y-108838320D01*
X127955047Y-108838320D01*
X127955051Y-108838316D01*
X128051557Y-108648912D01*
X128117246Y-108446743D01*
X128150500Y-108236787D01*
X128150500Y-108024213D01*
X128117246Y-107814257D01*
X128051557Y-107612088D01*
X127955051Y-107422684D01*
X127955049Y-107422681D01*
X127955048Y-107422679D01*
X127830109Y-107250713D01*
X127679786Y-107100390D01*
X127507820Y-106975451D01*
X127507115Y-106975091D01*
X127499054Y-106970985D01*
X127448259Y-106923012D01*
X127431463Y-106855192D01*
X127453999Y-106789056D01*
X127499054Y-106750015D01*
X127507816Y-106745551D01*
X127529789Y-106729586D01*
X127679786Y-106620609D01*
X127679788Y-106620606D01*
X127679792Y-106620604D01*
X127830104Y-106470292D01*
X127830106Y-106470288D01*
X127830109Y-106470286D01*
X127955048Y-106298320D01*
X127955047Y-106298320D01*
X127955051Y-106298316D01*
X128051557Y-106108912D01*
X128117246Y-105906743D01*
X128150500Y-105696787D01*
X128150500Y-105484213D01*
X128117246Y-105274257D01*
X128051557Y-105072088D01*
X127955051Y-104882684D01*
X127955049Y-104882681D01*
X127955048Y-104882679D01*
X127830109Y-104710713D01*
X127679786Y-104560390D01*
X127507817Y-104435449D01*
X127498504Y-104430704D01*
X127447707Y-104382730D01*
X127430912Y-104314909D01*
X127453449Y-104248774D01*
X127498507Y-104209732D01*
X127507555Y-104205122D01*
X127561716Y-104165770D01*
X127561717Y-104165770D01*
X126929408Y-103533462D01*
X126992993Y-103516425D01*
X127107007Y-103450599D01*
X127200099Y-103357507D01*
X127265925Y-103243493D01*
X127282962Y-103179909D01*
X127915270Y-103812217D01*
X127915270Y-103812216D01*
X127954622Y-103758054D01*
X128051095Y-103568717D01*
X128116757Y-103366630D01*
X128116757Y-103366627D01*
X128150000Y-103156746D01*
X128150000Y-102944253D01*
X128116757Y-102734372D01*
X128116757Y-102734369D01*
X128051095Y-102532282D01*
X127954624Y-102342949D01*
X127915270Y-102288782D01*
X127915269Y-102288782D01*
X127282962Y-102921090D01*
X127265925Y-102857507D01*
X127200099Y-102743493D01*
X127107007Y-102650401D01*
X126992993Y-102584575D01*
X126929409Y-102567537D01*
X127599627Y-101897318D01*
X127660950Y-101863833D01*
X127687307Y-101860999D01*
X127697872Y-101860999D01*
X127757483Y-101854591D01*
X127892331Y-101804296D01*
X128007546Y-101718046D01*
X128093796Y-101602831D01*
X128144091Y-101467983D01*
X128150500Y-101408373D01*
X128150499Y-99612628D01*
X128144091Y-99553017D01*
X128125810Y-99504004D01*
X128093797Y-99418171D01*
X128093793Y-99418164D01*
X128007547Y-99302955D01*
X128007544Y-99302952D01*
X127892335Y-99216706D01*
X127892328Y-99216702D01*
X127757482Y-99166408D01*
X127757483Y-99166408D01*
X127697883Y-99160001D01*
X127697881Y-99160000D01*
X127697873Y-99160000D01*
X127697865Y-99160000D01*
X127162230Y-99160000D01*
X127095191Y-99140315D01*
X127074549Y-99123681D01*
X125378421Y-97427552D01*
X125378414Y-97427546D01*
X125304729Y-97378312D01*
X125304729Y-97378313D01*
X125255491Y-97345413D01*
X125118917Y-97288843D01*
X125118907Y-97288840D01*
X124973920Y-97260000D01*
X124973918Y-97260000D01*
X117416082Y-97260000D01*
X117416076Y-97260000D01*
X117387242Y-97265734D01*
X117387243Y-97265735D01*
X117271093Y-97288839D01*
X117271083Y-97288842D01*
X117191081Y-97321979D01*
X117191082Y-97321980D01*
X117134505Y-97345415D01*
X117052372Y-97400295D01*
X117011585Y-97427547D01*
X117011581Y-97427550D01*
X116223951Y-98215181D01*
X116162628Y-98248666D01*
X116136270Y-98251500D01*
X115955632Y-98251500D01*
X115769236Y-98281022D01*
X115589741Y-98339344D01*
X115421586Y-98425023D01*
X115334475Y-98488313D01*
X115268904Y-98535954D01*
X115268902Y-98535956D01*
X115268901Y-98535956D01*
X115135456Y-98669401D01*
X115135456Y-98669402D01*
X115135454Y-98669404D01*
X115087813Y-98734975D01*
X115024523Y-98822086D01*
X114938844Y-98990241D01*
X114880522Y-99169736D01*
X114851000Y-99356131D01*
X114851000Y-99544868D01*
X114880522Y-99731263D01*
X114880522Y-99731265D01*
X114880523Y-99731267D01*
X114938843Y-99910756D01*
X115024523Y-100078913D01*
X115135454Y-100231596D01*
X115268904Y-100365046D01*
X115421587Y-100475977D01*
X115589744Y-100561657D01*
X115769233Y-100619977D01*
X115839134Y-100631048D01*
X115955632Y-100649500D01*
X115955637Y-100649500D01*
X116144368Y-100649500D01*
X116247920Y-100633098D01*
X116330767Y-100619977D01*
X116510256Y-100561657D01*
X116678413Y-100475977D01*
X116831096Y-100365046D01*
X116964546Y-100231596D01*
X117075477Y-100078913D01*
X117161157Y-99910756D01*
X117219477Y-99731267D01*
X117238267Y-99612629D01*
X117249000Y-99544868D01*
X117249000Y-99364228D01*
X117268685Y-99297189D01*
X117285319Y-99276547D01*
X117764548Y-98797319D01*
X117825871Y-98763834D01*
X117852229Y-98761000D01*
X118353299Y-98761000D01*
X118420338Y-98780685D01*
X118466093Y-98833489D01*
X118476037Y-98902647D01*
X118463783Y-98941295D01*
X118438846Y-98990235D01*
X118438845Y-98990237D01*
X118380522Y-99169736D01*
X118351000Y-99356131D01*
X118351000Y-99544868D01*
X118380522Y-99731263D01*
X118380522Y-99731265D01*
X118380523Y-99731267D01*
X118438843Y-99910756D01*
X118524523Y-100078913D01*
X118635454Y-100231596D01*
X118768904Y-100365046D01*
X118921587Y-100475977D01*
X119089744Y-100561657D01*
X119269233Y-100619977D01*
X119339134Y-100631048D01*
X119455632Y-100649500D01*
X119455637Y-100649500D01*
X119644361Y-100649500D01*
X119644363Y-100649500D01*
X119741400Y-100634130D01*
X119810690Y-100643084D01*
X119848477Y-100668922D01*
X120077874Y-100898319D01*
X120111359Y-100959642D01*
X120106375Y-101029334D01*
X120064503Y-101085267D01*
X119999039Y-101109684D01*
X119990193Y-101110000D01*
X111930808Y-101110000D01*
X111863769Y-101090315D01*
X111843127Y-101073681D01*
X110518422Y-99748976D01*
X110484937Y-99687653D01*
X110483630Y-99641902D01*
X110499000Y-99544863D01*
X110499000Y-99356176D01*
X111851500Y-99356176D01*
X111851500Y-99544823D01*
X111881011Y-99731150D01*
X111939304Y-99910561D01*
X111939305Y-99910563D01*
X112024952Y-100078653D01*
X112043189Y-100103755D01*
X112043190Y-100103755D01*
X112643600Y-99503345D01*
X112643600Y-99504004D01*
X112671295Y-99607365D01*
X112724799Y-99700036D01*
X112800464Y-99775701D01*
X112893135Y-99829205D01*
X112996496Y-99856900D01*
X112997153Y-99856900D01*
X112396743Y-100457308D01*
X112396743Y-100457309D01*
X112421844Y-100475546D01*
X112589935Y-100561194D01*
X112589938Y-100561195D01*
X112769349Y-100619488D01*
X112955677Y-100649000D01*
X113144323Y-100649000D01*
X113330650Y-100619488D01*
X113510061Y-100561195D01*
X113510064Y-100561194D01*
X113678151Y-100475548D01*
X113703255Y-100457308D01*
X113703256Y-100457308D01*
X113102848Y-99856900D01*
X113103504Y-99856900D01*
X113206865Y-99829205D01*
X113299536Y-99775701D01*
X113375201Y-99700036D01*
X113428705Y-99607365D01*
X113456400Y-99504004D01*
X113456400Y-99503347D01*
X114056808Y-100103756D01*
X114056808Y-100103755D01*
X114075048Y-100078651D01*
X114160694Y-99910564D01*
X114160695Y-99910561D01*
X114218988Y-99731150D01*
X114248500Y-99544823D01*
X114248500Y-99356176D01*
X114218988Y-99169849D01*
X114160695Y-98990438D01*
X114160694Y-98990435D01*
X114075046Y-98822344D01*
X114056809Y-98797243D01*
X114056808Y-98797243D01*
X113456400Y-99397651D01*
X113456400Y-99396996D01*
X113428705Y-99293635D01*
X113375201Y-99200964D01*
X113299536Y-99125299D01*
X113206865Y-99071795D01*
X113103504Y-99044100D01*
X113102847Y-99044100D01*
X113703255Y-98443690D01*
X113703255Y-98443689D01*
X113678153Y-98425452D01*
X113510063Y-98339805D01*
X113510061Y-98339804D01*
X113330650Y-98281511D01*
X113144323Y-98252000D01*
X112955677Y-98252000D01*
X112769349Y-98281511D01*
X112589938Y-98339804D01*
X112589936Y-98339805D01*
X112421844Y-98425453D01*
X112421839Y-98425457D01*
X112396743Y-98443688D01*
X112396743Y-98443691D01*
X112997154Y-99044100D01*
X112996496Y-99044100D01*
X112893135Y-99071795D01*
X112800464Y-99125299D01*
X112724799Y-99200964D01*
X112671295Y-99293635D01*
X112643600Y-99396996D01*
X112643600Y-99397652D01*
X112043191Y-98797243D01*
X112043188Y-98797243D01*
X112024957Y-98822339D01*
X112024953Y-98822344D01*
X111939305Y-98990436D01*
X111939304Y-98990438D01*
X111881011Y-99169849D01*
X111851500Y-99356176D01*
X110499000Y-99356176D01*
X110499000Y-99356137D01*
X110499000Y-99356131D01*
X110474423Y-99200964D01*
X110469477Y-99169733D01*
X110411157Y-98990244D01*
X110325477Y-98822087D01*
X110214546Y-98669404D01*
X110081096Y-98535954D01*
X109928413Y-98425023D01*
X109760256Y-98339343D01*
X109580767Y-98281023D01*
X109580765Y-98281022D01*
X109580763Y-98281022D01*
X109394368Y-98251500D01*
X109394363Y-98251500D01*
X109205637Y-98251500D01*
X109205632Y-98251500D01*
X109019236Y-98281022D01*
X108839741Y-98339344D01*
X108671586Y-98425023D01*
X108584475Y-98488313D01*
X108518904Y-98535954D01*
X108518902Y-98535956D01*
X108518901Y-98535956D01*
X108385456Y-98669401D01*
X108385456Y-98669402D01*
X108385454Y-98669404D01*
X108337813Y-98734975D01*
X108274523Y-98822086D01*
X108188844Y-98990241D01*
X108130522Y-99169736D01*
X108101000Y-99356131D01*
X108101000Y-99544868D01*
X108130522Y-99731263D01*
X108130522Y-99731265D01*
X108130523Y-99731267D01*
X108188843Y-99910756D01*
X108274523Y-100078913D01*
X108385454Y-100231596D01*
X108518904Y-100365046D01*
X108671587Y-100475977D01*
X108839744Y-100561657D01*
X109019233Y-100619977D01*
X109089134Y-100631048D01*
X109205632Y-100649500D01*
X109205637Y-100649500D01*
X109394361Y-100649500D01*
X109394363Y-100649500D01*
X109491400Y-100634130D01*
X109560689Y-100643084D01*
X109598476Y-100668922D01*
X111195326Y-102265773D01*
X111195334Y-102265779D01*
X111277613Y-102320756D01*
X111301871Y-102336964D01*
X111301872Y-102336964D01*
X111301873Y-102336965D01*
X111420256Y-102386001D01*
X111420260Y-102386001D01*
X111420261Y-102386002D01*
X111545928Y-102411000D01*
X111545931Y-102411000D01*
X122229192Y-102411000D01*
X122258632Y-102419644D01*
X122288619Y-102426168D01*
X122293634Y-102429922D01*
X122296231Y-102430685D01*
X122316868Y-102447314D01*
X122482985Y-102613430D01*
X122516469Y-102674752D01*
X122516920Y-102676919D01*
X122530261Y-102743989D01*
X122530264Y-102744001D01*
X122590602Y-102889672D01*
X122590609Y-102889685D01*
X122678210Y-103020788D01*
X122678213Y-103020792D01*
X122789707Y-103132286D01*
X122789711Y-103132289D01*
X122920814Y-103219890D01*
X122920827Y-103219897D01*
X122977794Y-103243493D01*
X123066503Y-103280237D01*
X123221153Y-103310999D01*
X123221156Y-103311000D01*
X123221158Y-103311000D01*
X123378844Y-103311000D01*
X123378845Y-103310999D01*
X123533497Y-103280237D01*
X123679179Y-103219894D01*
X123810289Y-103132289D01*
X123921789Y-103020789D01*
X124009394Y-102889679D01*
X124069737Y-102743997D01*
X124100500Y-102589342D01*
X124100500Y-102431658D01*
X124100500Y-102431655D01*
X124100499Y-102431653D01*
X124091418Y-102386000D01*
X124069737Y-102277003D01*
X124065087Y-102265776D01*
X124026990Y-102173800D01*
X124019521Y-102104331D01*
X124038447Y-102057460D01*
X124094014Y-101974299D01*
X124154357Y-101828617D01*
X124185120Y-101673962D01*
X124185120Y-101516278D01*
X124185120Y-101516275D01*
X124185119Y-101516273D01*
X124163656Y-101408372D01*
X124154357Y-101361623D01*
X124154355Y-101361618D01*
X124094017Y-101215947D01*
X124094010Y-101215934D01*
X124006409Y-101084831D01*
X124006406Y-101084827D01*
X123894912Y-100973333D01*
X123894908Y-100973330D01*
X123763805Y-100885729D01*
X123763792Y-100885722D01*
X123618121Y-100825384D01*
X123618109Y-100825381D01*
X123551040Y-100812040D01*
X123489129Y-100779655D01*
X123487550Y-100778104D01*
X123214674Y-100505227D01*
X123214671Y-100505224D01*
X123176197Y-100479517D01*
X123131392Y-100425905D01*
X123122685Y-100356580D01*
X123152840Y-100293552D01*
X123157370Y-100288771D01*
X123214546Y-100231596D01*
X123325477Y-100078913D01*
X123411157Y-99910756D01*
X123469477Y-99731267D01*
X123488267Y-99612629D01*
X123499000Y-99544868D01*
X123499000Y-99356131D01*
X123474423Y-99200964D01*
X123469477Y-99169733D01*
X123411157Y-98990244D01*
X123411154Y-98990240D01*
X123411154Y-98990237D01*
X123411153Y-98990235D01*
X123386217Y-98941295D01*
X123373320Y-98872626D01*
X123399596Y-98807886D01*
X123456702Y-98767628D01*
X123496701Y-98761000D01*
X124537770Y-98761000D01*
X124604809Y-98780685D01*
X124625451Y-98797319D01*
X125413181Y-99585049D01*
X125446666Y-99646372D01*
X125449500Y-99672730D01*
X125449500Y-101408370D01*
X125449501Y-101408376D01*
X125455908Y-101467983D01*
X125506202Y-101602828D01*
X125506206Y-101602835D01*
X125592452Y-101718044D01*
X125592455Y-101718047D01*
X125707664Y-101804293D01*
X125707671Y-101804297D01*
X125752618Y-101821061D01*
X125842517Y-101854591D01*
X125902127Y-101861000D01*
X125912685Y-101860999D01*
X125979723Y-101880679D01*
X126000372Y-101897318D01*
X126670591Y-102567537D01*
X126607007Y-102584575D01*
X126492993Y-102650401D01*
X126399901Y-102743493D01*
X126334075Y-102857507D01*
X126317037Y-102921091D01*
X125684728Y-102288782D01*
X125684727Y-102288782D01*
X125645380Y-102342939D01*
X125548904Y-102532282D01*
X125483242Y-102734369D01*
X125483242Y-102734372D01*
X125450000Y-102944253D01*
X125450000Y-103156746D01*
X125483242Y-103366627D01*
X125483242Y-103366630D01*
X125548904Y-103568717D01*
X125645375Y-103758050D01*
X125684728Y-103812216D01*
X126317037Y-103179908D01*
X126334075Y-103243493D01*
X126399901Y-103357507D01*
X126492993Y-103450599D01*
X126607007Y-103516425D01*
X126670590Y-103533462D01*
X126038282Y-104165769D01*
X126038282Y-104165770D01*
X126092452Y-104205126D01*
X126092451Y-104205126D01*
X126101495Y-104209734D01*
X126152292Y-104257708D01*
X126169087Y-104325529D01*
X126146550Y-104391664D01*
X126101499Y-104430702D01*
X126092182Y-104435449D01*
X125920213Y-104560390D01*
X125769890Y-104710713D01*
X125644951Y-104882679D01*
X125548444Y-105072085D01*
X125482753Y-105274260D01*
X125449500Y-105484213D01*
X125449500Y-105696786D01*
X125482753Y-105906739D01*
X125548444Y-106108914D01*
X125644951Y-106298320D01*
X125769890Y-106470286D01*
X125920213Y-106620609D01*
X126092182Y-106745550D01*
X126100946Y-106750016D01*
X126151742Y-106797991D01*
X126168536Y-106865812D01*
X126145998Y-106931947D01*
X126100946Y-106970984D01*
X126092182Y-106975449D01*
X125920213Y-107100390D01*
X125769890Y-107250713D01*
X125644951Y-107422679D01*
X125548444Y-107612085D01*
X125482753Y-107814260D01*
X125455704Y-107985043D01*
X125449500Y-108024213D01*
X125449500Y-108236787D01*
X125454542Y-108268622D01*
X125482306Y-108443918D01*
X125482754Y-108446743D01*
X125518020Y-108555281D01*
X125548444Y-108648914D01*
X125644951Y-108838320D01*
X125769890Y-109010286D01*
X125920213Y-109160609D01*
X126092182Y-109285550D01*
X126100946Y-109290016D01*
X126151742Y-109337991D01*
X126168536Y-109405812D01*
X126145998Y-109471947D01*
X126100946Y-109510984D01*
X126092182Y-109515449D01*
X125920213Y-109640390D01*
X125769890Y-109790713D01*
X125644951Y-109962679D01*
X125548444Y-110152085D01*
X125482753Y-110354260D01*
X125449500Y-110564213D01*
X125449500Y-110776787D01*
X125482754Y-110986743D01*
X125545451Y-111179705D01*
X125548444Y-111188914D01*
X125644951Y-111378320D01*
X125769890Y-111550286D01*
X125920213Y-111700609D01*
X126092182Y-111825550D01*
X126100946Y-111830016D01*
X126151742Y-111877991D01*
X126168536Y-111945812D01*
X126145998Y-112011947D01*
X126100946Y-112050984D01*
X126092182Y-112055449D01*
X125920213Y-112180390D01*
X125769890Y-112330713D01*
X125644951Y-112502679D01*
X125548444Y-112692085D01*
X125482753Y-112894260D01*
X125449500Y-113104213D01*
X125449500Y-113316786D01*
X125478528Y-113500065D01*
X125482754Y-113526743D01*
X125503094Y-113589344D01*
X125548444Y-113728914D01*
X125644951Y-113918320D01*
X125769890Y-114090286D01*
X125920213Y-114240609D01*
X126092182Y-114365550D01*
X126100946Y-114370016D01*
X126151742Y-114417991D01*
X126168536Y-114485812D01*
X126145998Y-114551947D01*
X126100946Y-114590984D01*
X126092182Y-114595449D01*
X125920213Y-114720390D01*
X125769890Y-114870713D01*
X125644951Y-115042679D01*
X125548444Y-115232085D01*
X125482753Y-115434260D01*
X125449500Y-115644213D01*
X125449500Y-115856786D01*
X125479824Y-116048248D01*
X125482754Y-116066743D01*
X125538330Y-116237789D01*
X125548444Y-116268914D01*
X125644951Y-116458320D01*
X125769890Y-116630286D01*
X125920213Y-116780609D01*
X126092182Y-116905550D01*
X126100946Y-116910016D01*
X126151742Y-116957991D01*
X126168536Y-117025812D01*
X126145998Y-117091947D01*
X126100946Y-117130984D01*
X126092182Y-117135449D01*
X125920213Y-117260390D01*
X125769890Y-117410713D01*
X125644951Y-117582679D01*
X125548444Y-117772085D01*
X125482753Y-117974260D01*
X125449500Y-118184213D01*
X125449500Y-118396787D01*
X125482754Y-118606743D01*
X125539217Y-118780518D01*
X125548444Y-118808914D01*
X125644951Y-118998320D01*
X125769890Y-119170286D01*
X125920213Y-119320609D01*
X126092182Y-119445550D01*
X126100946Y-119450016D01*
X126151742Y-119497991D01*
X126168536Y-119565812D01*
X126145998Y-119631947D01*
X126100946Y-119670984D01*
X126092182Y-119675449D01*
X125920213Y-119800390D01*
X125769890Y-119950713D01*
X125642085Y-120126625D01*
X125640740Y-120125648D01*
X125594295Y-120167666D01*
X125540382Y-120180000D01*
X124290929Y-120180000D01*
X124165261Y-120204997D01*
X124165255Y-120204999D01*
X124046875Y-120254033D01*
X124046866Y-120254038D01*
X123940331Y-120325223D01*
X123940327Y-120325226D01*
X123710681Y-120554873D01*
X123649358Y-120588358D01*
X123579666Y-120583374D01*
X123523733Y-120541502D01*
X123499316Y-120476038D01*
X123499000Y-120467192D01*
X123499000Y-120356131D01*
X123469477Y-120169736D01*
X123469477Y-120169733D01*
X123411157Y-119990244D01*
X123325477Y-119822087D01*
X123214546Y-119669404D01*
X123081096Y-119535954D01*
X122928413Y-119425023D01*
X122928409Y-119425020D01*
X122924548Y-119422654D01*
X122877675Y-119370840D01*
X122866255Y-119301910D01*
X122893914Y-119237749D01*
X122916452Y-119216615D01*
X122977219Y-119172466D01*
X123121966Y-119027719D01*
X123121968Y-119027715D01*
X123121971Y-119027713D01*
X123190021Y-118934048D01*
X123242287Y-118862110D01*
X123335220Y-118679719D01*
X123398477Y-118485034D01*
X123430500Y-118282852D01*
X123430500Y-117278148D01*
X123407898Y-117135449D01*
X123398477Y-117075965D01*
X123369127Y-116985637D01*
X123335220Y-116881281D01*
X123335218Y-116881278D01*
X123335218Y-116881276D01*
X123283865Y-116780492D01*
X123242287Y-116698890D01*
X123201674Y-116642990D01*
X123121971Y-116533286D01*
X122977213Y-116388528D01*
X122811613Y-116268215D01*
X122811612Y-116268214D01*
X122811610Y-116268213D01*
X122751898Y-116237788D01*
X122629223Y-116175281D01*
X122434534Y-116112022D01*
X122259995Y-116084378D01*
X122232352Y-116080000D01*
X122027648Y-116080000D01*
X122003329Y-116083851D01*
X121825465Y-116112022D01*
X121630776Y-116175281D01*
X121448386Y-116268215D01*
X121282786Y-116388528D01*
X121138028Y-116533286D01*
X121017715Y-116698886D01*
X120970485Y-116791580D01*
X120922510Y-116842376D01*
X120854689Y-116859171D01*
X120788554Y-116836634D01*
X120749515Y-116791580D01*
X120743865Y-116780492D01*
X120702287Y-116698890D01*
X120661674Y-116642990D01*
X120581971Y-116533286D01*
X120437213Y-116388528D01*
X120271613Y-116268215D01*
X120271612Y-116268214D01*
X120271610Y-116268213D01*
X120211898Y-116237788D01*
X120089223Y-116175281D01*
X119894534Y-116112022D01*
X119719995Y-116084378D01*
X119692352Y-116080000D01*
X119487648Y-116080000D01*
X119463329Y-116083851D01*
X119285465Y-116112022D01*
X119090776Y-116175281D01*
X118908386Y-116268215D01*
X118742786Y-116388528D01*
X118598028Y-116533286D01*
X118477715Y-116698886D01*
X118430485Y-116791580D01*
X118382510Y-116842376D01*
X118314689Y-116859171D01*
X118248554Y-116836634D01*
X118209515Y-116791580D01*
X118203865Y-116780492D01*
X118162287Y-116698890D01*
X118121674Y-116642990D01*
X118041971Y-116533286D01*
X117897213Y-116388528D01*
X117731613Y-116268215D01*
X117731612Y-116268214D01*
X117731610Y-116268213D01*
X117671898Y-116237788D01*
X117549223Y-116175281D01*
X117354534Y-116112022D01*
X117179995Y-116084378D01*
X117152352Y-116080000D01*
X116947648Y-116080000D01*
X116923329Y-116083851D01*
X116745465Y-116112022D01*
X116550776Y-116175281D01*
X116368386Y-116268215D01*
X116202786Y-116388528D01*
X116058028Y-116533286D01*
X115937715Y-116698886D01*
X115890485Y-116791580D01*
X115842510Y-116842376D01*
X115774689Y-116859171D01*
X115708554Y-116836634D01*
X115669515Y-116791580D01*
X115663865Y-116780492D01*
X115622287Y-116698890D01*
X115581674Y-116642990D01*
X115501971Y-116533286D01*
X115357213Y-116388528D01*
X115191613Y-116268215D01*
X115191612Y-116268214D01*
X115191610Y-116268213D01*
X115131898Y-116237788D01*
X115009223Y-116175281D01*
X114814534Y-116112022D01*
X114639995Y-116084378D01*
X114612352Y-116080000D01*
X114407648Y-116080000D01*
X114383329Y-116083851D01*
X114205465Y-116112022D01*
X114010776Y-116175281D01*
X113828386Y-116268215D01*
X113662786Y-116388528D01*
X113518028Y-116533286D01*
X113397715Y-116698886D01*
X113350485Y-116791580D01*
X113302510Y-116842376D01*
X113234689Y-116859171D01*
X113168554Y-116836634D01*
X113129515Y-116791580D01*
X113123865Y-116780492D01*
X113082287Y-116698890D01*
X113041674Y-116642990D01*
X112961971Y-116533286D01*
X112817213Y-116388528D01*
X112651613Y-116268215D01*
X112651612Y-116268214D01*
X112651610Y-116268213D01*
X112591898Y-116237788D01*
X112469223Y-116175281D01*
X112274534Y-116112022D01*
X112099995Y-116084378D01*
X112072352Y-116080000D01*
X111867648Y-116080000D01*
X111843329Y-116083851D01*
X111665465Y-116112022D01*
X111470776Y-116175281D01*
X111288386Y-116268215D01*
X111122786Y-116388528D01*
X110978028Y-116533286D01*
X110857715Y-116698886D01*
X110810485Y-116791580D01*
X110762510Y-116842376D01*
X110694689Y-116859171D01*
X110628554Y-116836634D01*
X110589515Y-116791580D01*
X110583865Y-116780492D01*
X110542287Y-116698890D01*
X110501674Y-116642990D01*
X110421971Y-116533286D01*
X110277213Y-116388528D01*
X110111613Y-116268215D01*
X110111612Y-116268214D01*
X110111610Y-116268213D01*
X110051898Y-116237788D01*
X109929223Y-116175281D01*
X109734534Y-116112022D01*
X109559995Y-116084378D01*
X109532352Y-116080000D01*
X109327648Y-116080000D01*
X109303329Y-116083851D01*
X109125465Y-116112022D01*
X108930776Y-116175281D01*
X108748386Y-116268215D01*
X108582786Y-116388528D01*
X108438032Y-116533282D01*
X108438028Y-116533287D01*
X108369978Y-116626951D01*
X108314648Y-116669617D01*
X108245035Y-116675596D01*
X108183240Y-116642990D01*
X108151954Y-116593070D01*
X108132144Y-116533287D01*
X108124814Y-116511166D01*
X108032712Y-116361844D01*
X107908656Y-116237788D01*
X107759334Y-116145686D01*
X107592797Y-116090501D01*
X107592795Y-116090500D01*
X107490016Y-116080000D01*
X107490009Y-116080000D01*
X106642292Y-116080000D01*
X106632540Y-116077136D01*
X106622457Y-116078403D01*
X106599582Y-116067459D01*
X106575253Y-116060315D01*
X106568598Y-116052634D01*
X106559429Y-116048248D01*
X106546101Y-116026671D01*
X106529498Y-116007511D01*
X106528051Y-115997452D01*
X106522710Y-115988805D01*
X106523162Y-115963449D01*
X106519554Y-115938353D01*
X106523808Y-115927249D01*
X106523957Y-115918947D01*
X106539190Y-115887109D01*
X106586631Y-115816109D01*
X106640243Y-115771304D01*
X106689733Y-115761000D01*
X113913920Y-115761000D01*
X114011462Y-115741596D01*
X114058913Y-115732158D01*
X114195495Y-115675584D01*
X114244729Y-115642686D01*
X114318416Y-115593452D01*
X115132952Y-114778915D01*
X115174665Y-114716486D01*
X115215084Y-114655995D01*
X115266410Y-114532084D01*
X115271659Y-114519412D01*
X115300500Y-114374417D01*
X115300500Y-114226582D01*
X115300500Y-113815104D01*
X115309939Y-113767651D01*
X115319737Y-113743997D01*
X115350500Y-113589342D01*
X115350500Y-113535000D01*
X115370185Y-113467961D01*
X115422989Y-113422206D01*
X115474500Y-113411000D01*
X119594071Y-113411000D01*
X119678615Y-113394182D01*
X119719744Y-113386001D01*
X119838127Y-113336965D01*
X119868326Y-113316787D01*
X119868328Y-113316786D01*
X119893773Y-113299783D01*
X119944669Y-113265777D01*
X121443824Y-111766620D01*
X121505145Y-111733137D01*
X121574836Y-111738121D01*
X121587787Y-111743813D01*
X121630781Y-111765720D01*
X121787124Y-111816518D01*
X121825465Y-111828977D01*
X121926557Y-111844988D01*
X122027648Y-111861000D01*
X122027649Y-111861000D01*
X122232351Y-111861000D01*
X122232352Y-111861000D01*
X122434534Y-111828977D01*
X122629219Y-111765720D01*
X122811610Y-111672787D01*
X122904590Y-111605232D01*
X122977213Y-111552471D01*
X122977215Y-111552468D01*
X122977219Y-111552466D01*
X123121966Y-111407719D01*
X123121968Y-111407715D01*
X123121971Y-111407713D01*
X123190699Y-111313115D01*
X123242287Y-111242110D01*
X123335220Y-111059719D01*
X123398477Y-110865034D01*
X123430500Y-110662852D01*
X123430500Y-109658148D01*
X123407898Y-109515449D01*
X123398477Y-109455965D01*
X123369127Y-109365637D01*
X123335220Y-109261281D01*
X123335218Y-109261278D01*
X123335218Y-109261276D01*
X123283922Y-109160604D01*
X123242287Y-109078890D01*
X123234556Y-109068249D01*
X123121971Y-108913286D01*
X122977213Y-108768528D01*
X122811613Y-108648215D01*
X122811612Y-108648214D01*
X122811610Y-108648213D01*
X122754653Y-108619191D01*
X122629223Y-108555281D01*
X122452168Y-108497752D01*
X122394493Y-108458314D01*
X122367295Y-108393955D01*
X122379210Y-108325109D01*
X122426454Y-108273633D01*
X122471090Y-108257348D01*
X122580762Y-108239978D01*
X122580762Y-108239977D01*
X122580767Y-108239977D01*
X122760256Y-108181657D01*
X122928413Y-108095977D01*
X123081096Y-107985046D01*
X123214546Y-107851596D01*
X123325477Y-107698913D01*
X123411157Y-107530756D01*
X123469477Y-107351267D01*
X123487121Y-107239866D01*
X123499000Y-107164868D01*
X123499000Y-106976131D01*
X123469477Y-106789736D01*
X123469477Y-106789733D01*
X123411157Y-106610244D01*
X123325477Y-106442087D01*
X123214546Y-106289404D01*
X123081096Y-106155954D01*
X122928413Y-106045023D01*
X122760256Y-105959343D01*
X122580767Y-105901023D01*
X122580765Y-105901022D01*
X122580763Y-105901022D01*
X122394368Y-105871500D01*
X122394363Y-105871500D01*
X122205637Y-105871500D01*
X122205632Y-105871500D01*
X122019236Y-105901022D01*
X121839741Y-105959344D01*
X121671586Y-106045023D01*
X121584475Y-106108313D01*
X121518904Y-106155954D01*
X121518902Y-106155956D01*
X121518901Y-106155956D01*
X121385456Y-106289401D01*
X121385456Y-106289402D01*
X121385454Y-106289404D01*
X121337813Y-106354975D01*
X121274523Y-106442086D01*
X121188844Y-106610241D01*
X121130522Y-106789736D01*
X121101000Y-106976131D01*
X121101000Y-107164868D01*
X121126963Y-107328790D01*
X121130523Y-107351267D01*
X121188843Y-107530756D01*
X121274523Y-107698913D01*
X121385454Y-107851596D01*
X121518904Y-107985046D01*
X121671587Y-108095977D01*
X121839744Y-108181657D01*
X121986024Y-108229186D01*
X122043697Y-108268622D01*
X122070896Y-108332981D01*
X122058981Y-108401827D01*
X122011737Y-108453303D01*
X121967103Y-108469589D01*
X121825464Y-108492023D01*
X121630776Y-108555281D01*
X121448386Y-108648215D01*
X121282786Y-108768528D01*
X121138028Y-108913286D01*
X121017715Y-109078886D01*
X120970485Y-109171580D01*
X120922510Y-109222376D01*
X120854689Y-109239171D01*
X120788554Y-109216634D01*
X120749515Y-109171580D01*
X120743922Y-109160604D01*
X120702287Y-109078890D01*
X120694556Y-109068249D01*
X120581971Y-108913286D01*
X120437213Y-108768528D01*
X120271613Y-108648215D01*
X120271612Y-108648214D01*
X120271610Y-108648213D01*
X120214653Y-108619191D01*
X120089223Y-108555281D01*
X119894535Y-108492023D01*
X119839281Y-108483271D01*
X119776146Y-108453341D01*
X119739216Y-108394029D01*
X119740214Y-108324166D01*
X119778825Y-108265934D01*
X119826291Y-108241965D01*
X119826134Y-108241482D01*
X119829263Y-108240465D01*
X119829747Y-108240221D01*
X119830754Y-108239979D01*
X119830767Y-108239977D01*
X120010256Y-108181657D01*
X120178413Y-108095977D01*
X120331096Y-107985046D01*
X120464546Y-107851596D01*
X120575477Y-107698913D01*
X120661157Y-107530756D01*
X120719477Y-107351267D01*
X120737121Y-107239866D01*
X120749000Y-107164868D01*
X120749000Y-106976131D01*
X120719477Y-106789736D01*
X120719477Y-106789733D01*
X120661157Y-106610244D01*
X120575477Y-106442087D01*
X120464546Y-106289404D01*
X120331096Y-106155954D01*
X120178413Y-106045023D01*
X120010256Y-105959343D01*
X119830767Y-105901023D01*
X119830765Y-105901022D01*
X119830763Y-105901022D01*
X119644368Y-105871500D01*
X119644363Y-105871500D01*
X119455637Y-105871500D01*
X119455632Y-105871500D01*
X119269236Y-105901022D01*
X119089741Y-105959344D01*
X118921586Y-106045023D01*
X118834475Y-106108313D01*
X118768904Y-106155954D01*
X118768902Y-106155956D01*
X118768901Y-106155956D01*
X118635456Y-106289401D01*
X118635456Y-106289402D01*
X118635454Y-106289404D01*
X118587813Y-106354975D01*
X118524523Y-106442086D01*
X118438844Y-106610241D01*
X118380522Y-106789736D01*
X118351000Y-106976131D01*
X118351000Y-107164868D01*
X118376963Y-107328790D01*
X118380523Y-107351267D01*
X118438843Y-107530756D01*
X118524523Y-107698913D01*
X118635454Y-107851596D01*
X118768904Y-107985046D01*
X118921587Y-108095977D01*
X119089744Y-108181657D01*
X119269233Y-108239977D01*
X119299762Y-108244812D01*
X119362895Y-108274740D01*
X119399827Y-108334051D01*
X119398831Y-108403914D01*
X119360221Y-108462147D01*
X119299766Y-108489758D01*
X119285462Y-108492023D01*
X119090776Y-108555281D01*
X118908386Y-108648215D01*
X118742786Y-108768528D01*
X118598028Y-108913286D01*
X118477715Y-109078886D01*
X118430485Y-109171580D01*
X118382510Y-109222376D01*
X118314689Y-109239171D01*
X118248554Y-109216634D01*
X118209515Y-109171580D01*
X118203922Y-109160604D01*
X118162287Y-109078890D01*
X118154556Y-109068249D01*
X118041971Y-108913286D01*
X117897213Y-108768528D01*
X117731613Y-108648215D01*
X117731612Y-108648214D01*
X117731610Y-108648213D01*
X117674653Y-108619191D01*
X117549223Y-108555281D01*
X117354534Y-108492022D01*
X117165907Y-108462147D01*
X117152352Y-108460000D01*
X116947648Y-108460000D01*
X116934093Y-108462147D01*
X116745465Y-108492022D01*
X116550776Y-108555281D01*
X116368386Y-108648215D01*
X116202786Y-108768528D01*
X116058028Y-108913286D01*
X115937715Y-109078886D01*
X115890485Y-109171580D01*
X115842510Y-109222376D01*
X115774689Y-109239171D01*
X115708554Y-109216634D01*
X115669515Y-109171580D01*
X115663922Y-109160604D01*
X115622287Y-109078890D01*
X115614556Y-109068249D01*
X115501971Y-108913286D01*
X115357213Y-108768528D01*
X115191613Y-108648215D01*
X115191612Y-108648214D01*
X115191610Y-108648213D01*
X115134653Y-108619191D01*
X115009223Y-108555281D01*
X114814534Y-108492022D01*
X114625907Y-108462147D01*
X114612352Y-108460000D01*
X114407648Y-108460000D01*
X114394093Y-108462147D01*
X114205465Y-108492022D01*
X114010776Y-108555281D01*
X113828386Y-108648215D01*
X113662786Y-108768528D01*
X113518028Y-108913286D01*
X113397715Y-109078886D01*
X113350485Y-109171580D01*
X113302510Y-109222376D01*
X113234689Y-109239171D01*
X113168554Y-109216634D01*
X113129515Y-109171580D01*
X113123922Y-109160604D01*
X113082287Y-109078890D01*
X113074556Y-109068249D01*
X112961971Y-108913286D01*
X112817213Y-108768528D01*
X112651613Y-108648215D01*
X112651612Y-108648214D01*
X112651610Y-108648213D01*
X112594653Y-108619191D01*
X112469223Y-108555281D01*
X112274534Y-108492022D01*
X112085907Y-108462147D01*
X112072352Y-108460000D01*
X111867648Y-108460000D01*
X111854093Y-108462147D01*
X111665465Y-108492022D01*
X111470776Y-108555281D01*
X111288386Y-108648215D01*
X111122786Y-108768528D01*
X110978028Y-108913286D01*
X110857715Y-109078886D01*
X110810485Y-109171580D01*
X110762510Y-109222376D01*
X110694689Y-109239171D01*
X110628554Y-109216634D01*
X110589515Y-109171580D01*
X110583922Y-109160604D01*
X110542287Y-109078890D01*
X110534556Y-109068249D01*
X110421971Y-108913286D01*
X110277213Y-108768528D01*
X110111613Y-108648215D01*
X110111612Y-108648214D01*
X110111610Y-108648213D01*
X110054653Y-108619191D01*
X109929223Y-108555281D01*
X109734535Y-108492023D01*
X109619788Y-108473848D01*
X109556654Y-108443918D01*
X109519723Y-108384606D01*
X109520721Y-108314744D01*
X109559332Y-108256511D01*
X109600862Y-108233447D01*
X109760256Y-108181657D01*
X109928413Y-108095977D01*
X110081096Y-107985046D01*
X110214546Y-107851596D01*
X110325477Y-107698913D01*
X110411157Y-107530756D01*
X110469477Y-107351267D01*
X110487121Y-107239866D01*
X110499000Y-107164868D01*
X110499000Y-106976131D01*
X111851000Y-106976131D01*
X111851000Y-107164868D01*
X111876963Y-107328790D01*
X111880523Y-107351267D01*
X111938843Y-107530756D01*
X112024523Y-107698913D01*
X112135454Y-107851596D01*
X112268904Y-107985046D01*
X112421587Y-108095977D01*
X112589744Y-108181657D01*
X112769233Y-108239977D01*
X112839134Y-108251048D01*
X112955632Y-108269500D01*
X112955637Y-108269500D01*
X113144368Y-108269500D01*
X113247980Y-108253089D01*
X113330767Y-108239977D01*
X113510256Y-108181657D01*
X113678413Y-108095977D01*
X113831096Y-107985046D01*
X113964546Y-107851596D01*
X114022293Y-107772113D01*
X114077623Y-107729449D01*
X114122611Y-107721000D01*
X114977389Y-107721000D01*
X115044428Y-107740685D01*
X115077705Y-107772113D01*
X115135454Y-107851596D01*
X115268904Y-107985046D01*
X115421587Y-108095977D01*
X115589744Y-108181657D01*
X115769233Y-108239977D01*
X115839134Y-108251048D01*
X115955632Y-108269500D01*
X115955637Y-108269500D01*
X116144368Y-108269500D01*
X116247980Y-108253089D01*
X116330767Y-108239977D01*
X116510256Y-108181657D01*
X116678413Y-108095977D01*
X116831096Y-107985046D01*
X116964546Y-107851596D01*
X117075477Y-107698913D01*
X117161157Y-107530756D01*
X117219477Y-107351267D01*
X117237121Y-107239866D01*
X117249000Y-107164868D01*
X117249000Y-106976131D01*
X117219477Y-106789736D01*
X117219477Y-106789733D01*
X117161157Y-106610244D01*
X117075477Y-106442087D01*
X116964546Y-106289404D01*
X116831096Y-106155954D01*
X116678413Y-106045023D01*
X116510256Y-105959343D01*
X116330767Y-105901023D01*
X116330765Y-105901022D01*
X116330763Y-105901022D01*
X116144368Y-105871500D01*
X116144363Y-105871500D01*
X115955637Y-105871500D01*
X115955632Y-105871500D01*
X115769236Y-105901022D01*
X115589741Y-105959344D01*
X115421586Y-106045023D01*
X115334475Y-106108313D01*
X115268904Y-106155954D01*
X115268902Y-106155956D01*
X115268901Y-106155956D01*
X115135456Y-106289401D01*
X115135456Y-106289402D01*
X115135454Y-106289404D01*
X115081365Y-106363851D01*
X115077707Y-106368886D01*
X115022377Y-106411551D01*
X114977389Y-106420000D01*
X114122611Y-106420000D01*
X114055572Y-106400315D01*
X114022293Y-106368886D01*
X114018635Y-106363851D01*
X113964546Y-106289404D01*
X113831096Y-106155954D01*
X113678413Y-106045023D01*
X113510256Y-105959343D01*
X113330767Y-105901023D01*
X113330765Y-105901022D01*
X113330763Y-105901022D01*
X113144368Y-105871500D01*
X113144363Y-105871500D01*
X112955637Y-105871500D01*
X112955632Y-105871500D01*
X112769236Y-105901022D01*
X112589741Y-105959344D01*
X112421586Y-106045023D01*
X112334475Y-106108313D01*
X112268904Y-106155954D01*
X112268902Y-106155956D01*
X112268901Y-106155956D01*
X112135456Y-106289401D01*
X112135456Y-106289402D01*
X112135454Y-106289404D01*
X112087813Y-106354975D01*
X112024523Y-106442086D01*
X111938844Y-106610241D01*
X111880522Y-106789736D01*
X111851000Y-106976131D01*
X110499000Y-106976131D01*
X110469477Y-106789736D01*
X110469477Y-106789733D01*
X110411157Y-106610244D01*
X110325477Y-106442087D01*
X110214546Y-106289404D01*
X110081096Y-106155954D01*
X109928413Y-106045023D01*
X109760256Y-105959343D01*
X109580767Y-105901023D01*
X109580765Y-105901022D01*
X109580763Y-105901022D01*
X109394368Y-105871500D01*
X109394363Y-105871500D01*
X109205637Y-105871500D01*
X109205632Y-105871500D01*
X109019236Y-105901022D01*
X108839741Y-105959344D01*
X108671586Y-106045023D01*
X108584475Y-106108313D01*
X108518904Y-106155954D01*
X108518902Y-106155956D01*
X108518901Y-106155956D01*
X108385456Y-106289401D01*
X108385456Y-106289402D01*
X108385454Y-106289404D01*
X108337813Y-106354975D01*
X108274523Y-106442086D01*
X108188844Y-106610241D01*
X108130522Y-106789736D01*
X108101000Y-106976131D01*
X108101000Y-107164868D01*
X108126963Y-107328790D01*
X108130523Y-107351267D01*
X108188843Y-107530756D01*
X108274523Y-107698913D01*
X108385454Y-107851596D01*
X108518904Y-107985046D01*
X108671587Y-108095977D01*
X108839744Y-108181657D01*
X109019233Y-108239977D01*
X109069515Y-108247940D01*
X109102019Y-108253089D01*
X109165153Y-108283018D01*
X109202085Y-108342329D01*
X109201087Y-108412192D01*
X109162477Y-108470425D01*
X109120940Y-108493493D01*
X108930776Y-108555281D01*
X108748386Y-108648215D01*
X108582786Y-108768528D01*
X108438028Y-108913286D01*
X108317715Y-109078886D01*
X108270485Y-109171580D01*
X108222510Y-109222376D01*
X108154689Y-109239171D01*
X108088554Y-109216634D01*
X108049515Y-109171580D01*
X108043922Y-109160604D01*
X108002287Y-109078890D01*
X107994556Y-109068249D01*
X107881971Y-108913286D01*
X107737213Y-108768528D01*
X107571613Y-108648215D01*
X107571612Y-108648214D01*
X107571610Y-108648213D01*
X107514653Y-108619191D01*
X107389223Y-108555281D01*
X107194534Y-108492022D01*
X107005907Y-108462147D01*
X106992352Y-108460000D01*
X106936509Y-108460000D01*
X106869470Y-108440315D01*
X106823715Y-108387511D01*
X106813771Y-108318353D01*
X106842796Y-108254797D01*
X106898189Y-108218069D01*
X107010256Y-108181657D01*
X107178413Y-108095977D01*
X107331096Y-107985046D01*
X107464546Y-107851596D01*
X107575477Y-107698913D01*
X107661157Y-107530756D01*
X107719477Y-107351267D01*
X107737121Y-107239866D01*
X107749000Y-107164868D01*
X107749000Y-106976131D01*
X107719477Y-106789736D01*
X107719477Y-106789733D01*
X107661157Y-106610244D01*
X107575477Y-106442087D01*
X107464546Y-106289404D01*
X107331096Y-106155954D01*
X107178413Y-106045023D01*
X107010256Y-105959343D01*
X106830767Y-105901023D01*
X106830765Y-105901022D01*
X106830763Y-105901022D01*
X106644368Y-105871500D01*
X106644363Y-105871500D01*
X106455637Y-105871500D01*
X106455632Y-105871500D01*
X106269236Y-105901022D01*
X106089741Y-105959344D01*
X105921586Y-106045023D01*
X105834475Y-106108313D01*
X105768904Y-106155954D01*
X105768902Y-106155956D01*
X105768901Y-106155956D01*
X105635456Y-106289401D01*
X105635456Y-106289402D01*
X105635454Y-106289404D01*
X105587813Y-106354975D01*
X105524523Y-106442086D01*
X105438844Y-106610241D01*
X105380522Y-106789736D01*
X105351000Y-106976131D01*
X105351000Y-107164868D01*
X105376963Y-107328790D01*
X105380523Y-107351267D01*
X105438843Y-107530756D01*
X105524523Y-107698913D01*
X105635454Y-107851596D01*
X105768904Y-107985046D01*
X105921587Y-108095977D01*
X106089744Y-108181657D01*
X106269233Y-108239977D01*
X106339134Y-108251048D01*
X106455632Y-108269500D01*
X106487415Y-108269500D01*
X106554454Y-108289185D01*
X106600209Y-108341989D01*
X106610153Y-108411147D01*
X106581128Y-108474703D01*
X106525734Y-108511431D01*
X106390776Y-108555281D01*
X106208386Y-108648215D01*
X106042786Y-108768528D01*
X105898028Y-108913286D01*
X105777715Y-109078886D01*
X105684781Y-109261276D01*
X105621522Y-109455965D01*
X105589500Y-109658148D01*
X105589500Y-110662851D01*
X105621522Y-110865034D01*
X105684781Y-111059723D01*
X105745916Y-111179705D01*
X105758812Y-111248374D01*
X105732536Y-111313115D01*
X105675429Y-111353372D01*
X105635431Y-111360000D01*
X103460807Y-111360000D01*
X103393768Y-111340315D01*
X103373126Y-111323681D01*
X103150657Y-111101212D01*
X103117172Y-111039889D01*
X103117688Y-110991745D01*
X103116484Y-110991555D01*
X103150500Y-110776786D01*
X103150500Y-110564213D01*
X103117246Y-110354260D01*
X103117246Y-110354257D01*
X103051557Y-110152088D01*
X102955051Y-109962684D01*
X102955049Y-109962681D01*
X102955048Y-109962679D01*
X102830109Y-109790713D01*
X102679786Y-109640390D01*
X102507820Y-109515451D01*
X102507115Y-109515091D01*
X102499054Y-109510985D01*
X102448259Y-109463012D01*
X102431463Y-109395192D01*
X102453999Y-109329056D01*
X102499054Y-109290015D01*
X102507816Y-109285551D01*
X102602673Y-109216634D01*
X102679786Y-109160609D01*
X102679788Y-109160606D01*
X102679792Y-109160604D01*
X102830104Y-109010292D01*
X102830106Y-109010288D01*
X102830109Y-109010286D01*
X102955048Y-108838320D01*
X102955047Y-108838320D01*
X102955051Y-108838316D01*
X103051557Y-108648912D01*
X103117246Y-108446743D01*
X103150500Y-108236787D01*
X103150500Y-108024213D01*
X103117246Y-107814257D01*
X103051557Y-107612088D01*
X102955051Y-107422684D01*
X102955049Y-107422681D01*
X102955048Y-107422679D01*
X102830109Y-107250713D01*
X102679786Y-107100390D01*
X102507820Y-106975451D01*
X102507115Y-106975091D01*
X102499054Y-106970985D01*
X102448259Y-106923012D01*
X102431463Y-106855192D01*
X102453999Y-106789056D01*
X102499054Y-106750015D01*
X102507816Y-106745551D01*
X102529789Y-106729586D01*
X102679786Y-106620609D01*
X102679788Y-106620606D01*
X102679792Y-106620604D01*
X102830104Y-106470292D01*
X102830106Y-106470288D01*
X102830109Y-106470286D01*
X102955048Y-106298320D01*
X102955047Y-106298320D01*
X102955051Y-106298316D01*
X103051557Y-106108912D01*
X103117246Y-105906743D01*
X103150500Y-105696787D01*
X103150500Y-105484213D01*
X103117246Y-105274257D01*
X103051557Y-105072088D01*
X102955051Y-104882684D01*
X102955049Y-104882681D01*
X102955048Y-104882679D01*
X102830109Y-104710713D01*
X102679786Y-104560390D01*
X102507820Y-104435451D01*
X102507115Y-104435091D01*
X102499054Y-104430985D01*
X102448259Y-104383012D01*
X102431463Y-104315192D01*
X102453999Y-104249056D01*
X102499054Y-104210015D01*
X102507816Y-104205551D01*
X102562572Y-104165769D01*
X102679786Y-104080609D01*
X102679788Y-104080606D01*
X102679792Y-104080604D01*
X102830104Y-103930292D01*
X102830106Y-103930288D01*
X102830109Y-103930286D01*
X102955048Y-103758320D01*
X102955047Y-103758320D01*
X102955051Y-103758316D01*
X103051557Y-103568912D01*
X103117246Y-103366743D01*
X103150500Y-103156787D01*
X103150500Y-102944213D01*
X103117246Y-102734257D01*
X103051557Y-102532088D01*
X102955051Y-102342684D01*
X102955049Y-102342681D01*
X102955048Y-102342679D01*
X102830109Y-102170713D01*
X102716569Y-102057173D01*
X102683084Y-101995850D01*
X102688068Y-101926158D01*
X102729940Y-101870225D01*
X102760915Y-101853310D01*
X102892331Y-101804296D01*
X103007546Y-101718046D01*
X103093796Y-101602831D01*
X103144091Y-101467983D01*
X103150500Y-101408373D01*
X103150499Y-99612628D01*
X103144091Y-99553017D01*
X103093796Y-99418169D01*
X103093795Y-99418167D01*
X103093794Y-99418165D01*
X103047355Y-99356131D01*
X105351000Y-99356131D01*
X105351000Y-99544868D01*
X105380522Y-99731263D01*
X105380522Y-99731265D01*
X105380523Y-99731267D01*
X105438843Y-99910756D01*
X105524523Y-100078913D01*
X105635454Y-100231596D01*
X105768904Y-100365046D01*
X105921587Y-100475977D01*
X106089744Y-100561657D01*
X106269233Y-100619977D01*
X106339134Y-100631048D01*
X106455632Y-100649500D01*
X106455637Y-100649500D01*
X106644368Y-100649500D01*
X106747920Y-100633098D01*
X106830767Y-100619977D01*
X107010256Y-100561657D01*
X107178413Y-100475977D01*
X107331096Y-100365046D01*
X107464546Y-100231596D01*
X107575477Y-100078913D01*
X107661157Y-99910756D01*
X107719477Y-99731267D01*
X107738267Y-99612629D01*
X107749000Y-99544868D01*
X107749000Y-99356131D01*
X107724423Y-99200964D01*
X107719477Y-99169733D01*
X107661157Y-98990244D01*
X107575477Y-98822087D01*
X107464546Y-98669404D01*
X107331096Y-98535954D01*
X107178413Y-98425023D01*
X107010256Y-98339343D01*
X106830767Y-98281023D01*
X106830765Y-98281022D01*
X106830763Y-98281022D01*
X106644368Y-98251500D01*
X106644363Y-98251500D01*
X106455637Y-98251500D01*
X106455632Y-98251500D01*
X106269236Y-98281022D01*
X106089741Y-98339344D01*
X105921586Y-98425023D01*
X105834475Y-98488313D01*
X105768904Y-98535954D01*
X105768902Y-98535956D01*
X105768901Y-98535956D01*
X105635456Y-98669401D01*
X105635456Y-98669402D01*
X105635454Y-98669404D01*
X105587813Y-98734975D01*
X105524523Y-98822086D01*
X105438844Y-98990241D01*
X105380522Y-99169736D01*
X105351000Y-99356131D01*
X103047355Y-99356131D01*
X103007547Y-99302955D01*
X103007544Y-99302952D01*
X102892335Y-99216706D01*
X102892328Y-99216702D01*
X102757482Y-99166408D01*
X102757483Y-99166408D01*
X102697883Y-99160001D01*
X102697881Y-99160000D01*
X102697873Y-99160000D01*
X102697864Y-99160000D01*
X100902129Y-99160000D01*
X100902123Y-99160001D01*
X100842516Y-99166408D01*
X100707671Y-99216702D01*
X100707665Y-99216706D01*
X100698810Y-99223335D01*
X100633346Y-99247752D01*
X100565073Y-99232900D01*
X100515668Y-99183495D01*
X100500500Y-99124068D01*
X100500500Y-91515224D01*
X100520185Y-91448185D01*
X100572989Y-91402430D01*
X100642147Y-91392486D01*
X100705703Y-91421511D01*
X100726076Y-91444102D01*
X100729955Y-91449642D01*
X100890858Y-91610545D01*
X100890861Y-91610547D01*
X101077266Y-91741068D01*
X101283504Y-91837239D01*
X101503308Y-91896135D01*
X101673214Y-91910999D01*
X101673215Y-91911000D01*
X101673216Y-91911000D01*
X103386785Y-91911000D01*
X103386785Y-91910999D01*
X103556692Y-91896135D01*
X103776496Y-91837239D01*
X103982734Y-91741068D01*
X104169139Y-91610547D01*
X104330047Y-91449639D01*
X104460568Y-91263234D01*
X104556739Y-91056996D01*
X104615635Y-90837192D01*
X104630500Y-90667284D01*
X104630500Y-90553716D01*
X104615635Y-90383808D01*
X104611578Y-90368668D01*
X104607408Y-90353102D01*
X104599533Y-90323714D01*
X108379500Y-90323714D01*
X108379500Y-92037285D01*
X108394364Y-92207187D01*
X108394366Y-92207197D01*
X108453258Y-92426988D01*
X108453261Y-92426997D01*
X108549431Y-92633232D01*
X108549432Y-92633234D01*
X108679954Y-92819641D01*
X108840858Y-92980545D01*
X108840861Y-92980547D01*
X109027266Y-93111068D01*
X109233504Y-93207239D01*
X109453308Y-93266135D01*
X109623214Y-93280999D01*
X109623215Y-93281000D01*
X109623216Y-93281000D01*
X109736785Y-93281000D01*
X109736785Y-93280999D01*
X109906692Y-93266135D01*
X110126496Y-93207239D01*
X110332734Y-93111068D01*
X110519139Y-92980547D01*
X110680047Y-92819639D01*
X110810568Y-92633234D01*
X110834532Y-92581841D01*
X110880702Y-92529405D01*
X110947895Y-92510252D01*
X111014777Y-92530467D01*
X111056271Y-92575794D01*
X111090739Y-92640279D01*
X111090751Y-92640299D01*
X111178278Y-92771293D01*
X111178286Y-92771304D01*
X111178291Y-92771311D01*
X111241157Y-92847912D01*
X111352588Y-92959343D01*
X111429189Y-93022209D01*
X111429198Y-93022215D01*
X111429206Y-93022221D01*
X111560200Y-93109748D01*
X111560205Y-93109751D01*
X111560217Y-93109759D01*
X111560226Y-93109763D01*
X111560228Y-93109765D01*
X111647603Y-93156468D01*
X111647605Y-93156468D01*
X111647611Y-93156472D01*
X111793202Y-93216778D01*
X111888032Y-93245544D01*
X112042590Y-93276287D01*
X112141207Y-93286000D01*
X112141209Y-93286000D01*
X112298791Y-93286000D01*
X112298793Y-93286000D01*
X112397410Y-93276287D01*
X112551968Y-93245544D01*
X112646798Y-93216778D01*
X112792389Y-93156472D01*
X112879783Y-93109759D01*
X113010811Y-93022209D01*
X113087412Y-92959343D01*
X113198843Y-92847912D01*
X113261709Y-92771311D01*
X113349259Y-92640283D01*
X113383729Y-92575793D01*
X113432689Y-92525951D01*
X113500827Y-92510490D01*
X113566507Y-92534321D01*
X113605468Y-92581843D01*
X113629431Y-92633232D01*
X113629432Y-92633234D01*
X113759954Y-92819641D01*
X113920858Y-92980545D01*
X113920861Y-92980547D01*
X114107266Y-93111068D01*
X114313504Y-93207239D01*
X114533308Y-93266135D01*
X114703214Y-93280999D01*
X114703215Y-93281000D01*
X114703216Y-93281000D01*
X114816785Y-93281000D01*
X114816785Y-93280999D01*
X114986692Y-93266135D01*
X115206496Y-93207239D01*
X115412734Y-93111068D01*
X115599139Y-92980547D01*
X115760047Y-92819639D01*
X115890568Y-92633234D01*
X115986739Y-92426996D01*
X116045635Y-92207192D01*
X116060500Y-92037284D01*
X116060500Y-90323716D01*
X116045635Y-90153808D01*
X115986739Y-89934004D01*
X115890568Y-89727766D01*
X115760047Y-89541361D01*
X115760045Y-89541358D01*
X115599141Y-89380454D01*
X115412734Y-89249932D01*
X115412732Y-89249931D01*
X115206497Y-89153761D01*
X115206488Y-89153758D01*
X114986697Y-89094866D01*
X114986687Y-89094864D01*
X114816785Y-89080000D01*
X114816784Y-89080000D01*
X114703216Y-89080000D01*
X114703215Y-89080000D01*
X114533312Y-89094864D01*
X114533302Y-89094866D01*
X114313511Y-89153758D01*
X114313502Y-89153761D01*
X114107267Y-89249931D01*
X114107265Y-89249932D01*
X113920858Y-89380454D01*
X113759953Y-89541359D01*
X113713751Y-89607344D01*
X113659174Y-89650969D01*
X113589676Y-89658163D01*
X113527321Y-89626640D01*
X113492028Y-89566886D01*
X113487024Y-89547281D01*
X113487021Y-89547273D01*
X113484570Y-89541355D01*
X113456580Y-89473780D01*
X113456568Y-89473752D01*
X113433220Y-89424951D01*
X113433217Y-89424946D01*
X113370737Y-89341484D01*
X113346994Y-89309767D01*
X113346989Y-89309762D01*
X113346984Y-89309756D01*
X113290747Y-89253519D01*
X113290731Y-89253505D01*
X113250475Y-89217343D01*
X113250467Y-89217337D01*
X113126736Y-89143926D01*
X113126737Y-89143926D01*
X113077729Y-89123627D01*
X113053226Y-89113478D01*
X113053212Y-89113473D01*
X113053204Y-89113470D01*
X113002199Y-89095476D01*
X112954726Y-89088650D01*
X112859782Y-89075000D01*
X111580218Y-89075000D01*
X111580216Y-89075000D01*
X111526185Y-89077895D01*
X111526181Y-89077896D01*
X111386778Y-89113476D01*
X111386766Y-89113480D01*
X111313280Y-89143919D01*
X111313252Y-89143931D01*
X111264451Y-89167279D01*
X111264446Y-89167282D01*
X111149268Y-89253505D01*
X111149256Y-89253515D01*
X111093019Y-89309752D01*
X111056843Y-89350024D01*
X111056837Y-89350032D01*
X110983426Y-89473763D01*
X110952978Y-89547273D01*
X110943139Y-89575163D01*
X110902271Y-89631834D01*
X110837252Y-89657414D01*
X110768725Y-89643781D01*
X110724629Y-89605032D01*
X110680047Y-89541361D01*
X110680044Y-89541358D01*
X110680042Y-89541355D01*
X110519141Y-89380454D01*
X110332734Y-89249932D01*
X110332732Y-89249931D01*
X110126497Y-89153761D01*
X110126488Y-89153758D01*
X109906697Y-89094866D01*
X109906687Y-89094864D01*
X109736785Y-89080000D01*
X109736784Y-89080000D01*
X109623216Y-89080000D01*
X109623215Y-89080000D01*
X109453312Y-89094864D01*
X109453302Y-89094866D01*
X109233511Y-89153758D01*
X109233502Y-89153761D01*
X109027267Y-89249931D01*
X109027265Y-89249932D01*
X108840858Y-89380454D01*
X108679954Y-89541358D01*
X108549432Y-89727765D01*
X108549431Y-89727767D01*
X108453261Y-89934002D01*
X108453258Y-89934011D01*
X108394366Y-90153802D01*
X108394364Y-90153812D01*
X108379500Y-90323714D01*
X104599533Y-90323714D01*
X104556741Y-90164011D01*
X104556738Y-90164002D01*
X104545393Y-90139672D01*
X104460568Y-89957766D01*
X104330047Y-89771361D01*
X104330046Y-89771360D01*
X104330045Y-89771358D01*
X104169141Y-89610454D01*
X103982734Y-89479932D01*
X103982728Y-89479929D01*
X103924725Y-89452882D01*
X103872285Y-89406710D01*
X103853133Y-89339517D01*
X103873348Y-89272635D01*
X103924725Y-89228118D01*
X103982734Y-89201068D01*
X104169139Y-89070547D01*
X104330047Y-88909639D01*
X104460568Y-88723234D01*
X104556739Y-88516996D01*
X104615635Y-88297192D01*
X104630500Y-88127284D01*
X104630500Y-88013716D01*
X104615635Y-87843808D01*
X104556739Y-87624004D01*
X104460568Y-87417766D01*
X104330047Y-87231361D01*
X104330046Y-87231360D01*
X104330045Y-87231358D01*
X104169141Y-87070454D01*
X104102620Y-87023876D01*
X104058995Y-86969300D01*
X104051801Y-86899801D01*
X104083324Y-86837446D01*
X104143083Y-86802151D01*
X104163038Y-86797058D01*
X104163042Y-86797057D01*
X104236528Y-86766618D01*
X104236556Y-86766606D01*
X104285309Y-86743281D01*
X104285314Y-86743278D01*
X104400378Y-86657141D01*
X104400382Y-86657138D01*
X104456643Y-86600876D01*
X104456659Y-86600859D01*
X104492770Y-86560657D01*
X104566111Y-86437045D01*
X104566115Y-86437038D01*
X104596547Y-86363567D01*
X104596548Y-86363564D01*
X104614544Y-86312553D01*
X104634998Y-86170285D01*
X119805000Y-86170285D01*
X119807893Y-86224262D01*
X119807893Y-86224264D01*
X119843438Y-86363530D01*
X119843442Y-86363542D01*
X119873881Y-86437028D01*
X119873893Y-86437056D01*
X119897218Y-86485809D01*
X119897221Y-86485814D01*
X119983358Y-86600878D01*
X119983361Y-86600882D01*
X120039623Y-86657143D01*
X120039640Y-86657159D01*
X120079842Y-86693270D01*
X120203454Y-86766611D01*
X120203461Y-86766615D01*
X120276932Y-86797047D01*
X120276956Y-86797056D01*
X120305164Y-86807008D01*
X120361835Y-86847874D01*
X120387417Y-86912892D01*
X120373785Y-86981420D01*
X120335033Y-87025519D01*
X120270859Y-87070453D01*
X120109954Y-87231358D01*
X119979432Y-87417765D01*
X119979431Y-87417767D01*
X119883261Y-87624002D01*
X119883258Y-87624011D01*
X119824366Y-87843802D01*
X119824364Y-87843812D01*
X119809500Y-88013714D01*
X119809500Y-88127285D01*
X119824364Y-88297187D01*
X119824366Y-88297197D01*
X119883258Y-88516988D01*
X119883261Y-88516997D01*
X119979431Y-88723232D01*
X119979432Y-88723234D01*
X120109954Y-88909641D01*
X120270858Y-89070545D01*
X120284361Y-89080000D01*
X120457266Y-89201068D01*
X120492155Y-89217337D01*
X120515275Y-89228118D01*
X120567714Y-89274291D01*
X120586866Y-89341484D01*
X120566650Y-89408365D01*
X120515275Y-89452882D01*
X120457267Y-89479931D01*
X120457265Y-89479932D01*
X120270858Y-89610454D01*
X120109954Y-89771358D01*
X119979432Y-89957765D01*
X119979431Y-89957767D01*
X119883261Y-90164002D01*
X119883258Y-90164011D01*
X119824366Y-90383802D01*
X119824364Y-90383812D01*
X119809500Y-90553714D01*
X119809500Y-90667285D01*
X119824364Y-90837187D01*
X119824366Y-90837197D01*
X119883258Y-91056988D01*
X119883261Y-91056997D01*
X119979431Y-91263232D01*
X119979432Y-91263234D01*
X120109954Y-91449641D01*
X120270858Y-91610545D01*
X120270861Y-91610547D01*
X120457266Y-91741068D01*
X120663504Y-91837239D01*
X120883308Y-91896135D01*
X121053214Y-91910999D01*
X121053215Y-91911000D01*
X121053216Y-91911000D01*
X122766785Y-91911000D01*
X122766785Y-91910999D01*
X122936692Y-91896135D01*
X123156496Y-91837239D01*
X123362734Y-91741068D01*
X123549139Y-91610547D01*
X123710047Y-91449639D01*
X123826942Y-91282692D01*
X123881516Y-91239070D01*
X123887282Y-91237020D01*
X123889740Y-91236001D01*
X123889744Y-91236001D01*
X123971755Y-91202030D01*
X124008123Y-91186967D01*
X124008124Y-91186966D01*
X124008127Y-91186965D01*
X124114669Y-91115777D01*
X124652931Y-90577513D01*
X124714252Y-90544030D01*
X124716317Y-90543599D01*
X124783497Y-90530237D01*
X124929179Y-90469894D01*
X125060289Y-90382289D01*
X125171789Y-90270789D01*
X125259394Y-90139679D01*
X125319737Y-89993997D01*
X125350500Y-89839342D01*
X125350500Y-89681658D01*
X125350500Y-89681655D01*
X125350499Y-89681653D01*
X125345862Y-89658341D01*
X125319737Y-89527003D01*
X125300240Y-89479932D01*
X125259397Y-89381327D01*
X125259390Y-89381314D01*
X125171789Y-89250211D01*
X125171786Y-89250207D01*
X125060292Y-89138713D01*
X125060288Y-89138710D01*
X124929185Y-89051109D01*
X124929172Y-89051102D01*
X124783501Y-88990764D01*
X124783489Y-88990761D01*
X124628845Y-88960000D01*
X124628842Y-88960000D01*
X124471158Y-88960000D01*
X124471155Y-88960000D01*
X124316510Y-88990761D01*
X124316498Y-88990764D01*
X124170827Y-89051102D01*
X124170814Y-89051109D01*
X124039711Y-89138710D01*
X124039707Y-89138713D01*
X123928213Y-89250207D01*
X123928210Y-89250211D01*
X123840609Y-89381314D01*
X123840602Y-89381327D01*
X123780264Y-89526998D01*
X123780262Y-89527005D01*
X123773329Y-89561858D01*
X123740942Y-89623768D01*
X123680226Y-89658341D01*
X123610456Y-89654600D01*
X123564030Y-89625344D01*
X123549139Y-89610453D01*
X123549138Y-89610452D01*
X123549137Y-89610451D01*
X123362734Y-89479932D01*
X123362728Y-89479929D01*
X123304725Y-89452882D01*
X123252285Y-89406710D01*
X123233133Y-89339517D01*
X123253348Y-89272635D01*
X123304725Y-89228118D01*
X123362734Y-89201068D01*
X123549139Y-89070547D01*
X123710047Y-88909639D01*
X123819737Y-88752983D01*
X123874313Y-88709359D01*
X123897115Y-88702490D01*
X123929744Y-88696001D01*
X124048127Y-88646965D01*
X124154669Y-88575777D01*
X124402932Y-88327512D01*
X124464251Y-88294030D01*
X124466316Y-88293599D01*
X124533497Y-88280237D01*
X124679179Y-88219894D01*
X124810289Y-88132289D01*
X124921789Y-88020789D01*
X125009394Y-87889679D01*
X125069737Y-87743997D01*
X125100500Y-87589342D01*
X125100500Y-87431658D01*
X125100500Y-87431655D01*
X125100499Y-87431653D01*
X125071868Y-87287716D01*
X125069737Y-87277003D01*
X125069735Y-87276998D01*
X125009397Y-87131327D01*
X125009390Y-87131314D01*
X124921789Y-87000211D01*
X124921786Y-87000207D01*
X124810292Y-86888713D01*
X124810288Y-86888710D01*
X124679185Y-86801109D01*
X124679172Y-86801102D01*
X124533501Y-86740764D01*
X124533489Y-86740761D01*
X124378845Y-86710000D01*
X124378842Y-86710000D01*
X124221158Y-86710000D01*
X124221155Y-86710000D01*
X124066510Y-86740761D01*
X124066498Y-86740764D01*
X123920827Y-86801102D01*
X123920814Y-86801109D01*
X123789711Y-86888710D01*
X123789707Y-86888713D01*
X123678215Y-87000205D01*
X123678212Y-87000209D01*
X123675502Y-87004265D01*
X123669806Y-87009023D01*
X123666780Y-87015798D01*
X123643363Y-87031119D01*
X123621886Y-87049066D01*
X123614523Y-87049990D01*
X123608314Y-87054053D01*
X123580329Y-87054282D01*
X123552561Y-87057769D01*
X123544136Y-87054580D01*
X123538447Y-87054627D01*
X123515831Y-87043866D01*
X123506223Y-87040229D01*
X123503701Y-87038637D01*
X123362734Y-86939932D01*
X123303652Y-86912381D01*
X123297003Y-86908185D01*
X123278896Y-86887631D01*
X123258340Y-86869532D01*
X123256134Y-86861795D01*
X123250816Y-86855758D01*
X123246695Y-86828676D01*
X123239188Y-86802339D01*
X123241515Y-86794638D01*
X123240305Y-86786684D01*
X123251479Y-86761674D01*
X123259404Y-86735458D01*
X123265815Y-86729588D01*
X123268808Y-86722892D01*
X123283964Y-86712974D01*
X123304732Y-86693964D01*
X123369500Y-86659344D01*
X123369521Y-86659332D01*
X123500530Y-86571795D01*
X123500536Y-86571791D01*
X123577064Y-86508985D01*
X123688485Y-86397564D01*
X123751291Y-86321036D01*
X123751295Y-86321030D01*
X123838832Y-86190021D01*
X123838844Y-86190001D01*
X123885509Y-86102698D01*
X123945814Y-85957112D01*
X123974556Y-85862360D01*
X123974559Y-85862349D01*
X123990839Y-85780500D01*
X119805000Y-85780500D01*
X119805000Y-86170285D01*
X104634998Y-86170285D01*
X104634999Y-86170280D01*
X104635000Y-86170279D01*
X104635000Y-85780500D01*
X102654000Y-85780500D01*
X102586961Y-85760815D01*
X102541206Y-85708011D01*
X102530000Y-85656500D01*
X102530000Y-85404500D01*
X102549685Y-85337461D01*
X102602489Y-85291706D01*
X102654000Y-85280500D01*
X104635000Y-85280500D01*
X104635000Y-84890714D01*
X104632106Y-84836737D01*
X104632106Y-84836735D01*
X104596561Y-84697469D01*
X104596557Y-84697457D01*
X104566118Y-84623971D01*
X104566106Y-84623943D01*
X104542781Y-84575190D01*
X104542778Y-84575185D01*
X104456641Y-84460121D01*
X104456638Y-84460117D01*
X104400376Y-84403856D01*
X104400359Y-84403840D01*
X104360157Y-84367729D01*
X104236545Y-84294388D01*
X104236538Y-84294384D01*
X104163067Y-84263952D01*
X104163065Y-84263951D01*
X104134833Y-84253991D01*
X104078162Y-84213123D01*
X104052582Y-84148104D01*
X104066215Y-84079577D01*
X104104964Y-84035482D01*
X104169139Y-83990547D01*
X104330047Y-83829639D01*
X104460568Y-83643234D01*
X104556739Y-83436996D01*
X104615635Y-83217192D01*
X104630500Y-83047284D01*
X104630500Y-82933716D01*
X104615635Y-82763808D01*
X104556739Y-82544004D01*
X104460568Y-82337766D01*
X104330047Y-82151361D01*
X104330046Y-82151360D01*
X104330045Y-82151358D01*
X104169141Y-81990454D01*
X103982734Y-81859932D01*
X103982728Y-81859929D01*
X103924725Y-81832882D01*
X103872285Y-81786710D01*
X103853133Y-81719517D01*
X103873348Y-81652635D01*
X103924725Y-81608118D01*
X103982734Y-81581068D01*
X104169139Y-81450547D01*
X104330047Y-81289639D01*
X104460568Y-81103234D01*
X104556739Y-80896996D01*
X104615635Y-80677192D01*
X104630500Y-80507284D01*
X104630500Y-80393716D01*
X104615635Y-80223808D01*
X104556739Y-80004004D01*
X104460568Y-79797766D01*
X104330047Y-79611361D01*
X104330046Y-79611360D01*
X104330045Y-79611358D01*
X104169141Y-79450454D01*
X103982734Y-79319932D01*
X103982728Y-79319929D01*
X103924725Y-79292882D01*
X103872285Y-79246710D01*
X103853133Y-79179517D01*
X103873348Y-79112635D01*
X103924725Y-79068118D01*
X103982734Y-79041068D01*
X104169139Y-78910547D01*
X104330047Y-78749639D01*
X104460568Y-78563234D01*
X104556739Y-78356996D01*
X104615635Y-78137192D01*
X104630500Y-77967284D01*
X104630500Y-77853716D01*
X104615635Y-77683808D01*
X104556739Y-77464004D01*
X104460568Y-77257766D01*
X104330047Y-77071361D01*
X104330046Y-77071360D01*
X104330045Y-77071358D01*
X104169141Y-76910454D01*
X103982734Y-76779932D01*
X103982728Y-76779929D01*
X103924725Y-76752882D01*
X103872285Y-76706710D01*
X103853133Y-76639517D01*
X103873348Y-76572635D01*
X103924725Y-76528118D01*
X103982734Y-76501068D01*
X104169139Y-76370547D01*
X104330047Y-76209639D01*
X104460568Y-76023234D01*
X104556739Y-75816996D01*
X104615635Y-75597192D01*
X104630500Y-75427284D01*
X104630500Y-75313716D01*
X104615635Y-75143808D01*
X104556739Y-74924004D01*
X104460568Y-74717766D01*
X104330047Y-74531361D01*
X104330046Y-74531360D01*
X104330045Y-74531358D01*
X104169141Y-74370454D01*
X104102620Y-74323876D01*
X104058995Y-74269300D01*
X104051801Y-74199801D01*
X104083324Y-74137446D01*
X104143083Y-74102151D01*
X104163038Y-74097058D01*
X104163042Y-74097057D01*
X104236528Y-74066618D01*
X104236556Y-74066606D01*
X104285309Y-74043281D01*
X104285314Y-74043278D01*
X104400378Y-73957141D01*
X104400382Y-73957138D01*
X104456643Y-73900876D01*
X104456659Y-73900859D01*
X104492770Y-73860657D01*
X104566111Y-73737045D01*
X104566115Y-73737038D01*
X104596547Y-73663567D01*
X104596548Y-73663564D01*
X104614544Y-73612553D01*
X104634999Y-73470280D01*
X104635000Y-73470279D01*
X104635000Y-73080500D01*
X102654000Y-73080500D01*
X102586961Y-73060815D01*
X102541206Y-73008011D01*
X102530000Y-72956500D01*
X102530000Y-72704500D01*
X102549685Y-72637461D01*
X102602489Y-72591706D01*
X102654000Y-72580500D01*
X104635000Y-72580500D01*
X104635000Y-72190714D01*
X104632106Y-72136737D01*
X104632106Y-72136735D01*
X104596561Y-71997469D01*
X104596557Y-71997457D01*
X104566118Y-71923971D01*
X104566106Y-71923943D01*
X104542781Y-71875190D01*
X104542778Y-71875185D01*
X104456641Y-71760121D01*
X104456638Y-71760117D01*
X104400376Y-71703856D01*
X104400359Y-71703840D01*
X104360157Y-71667729D01*
X104236545Y-71594388D01*
X104236538Y-71594384D01*
X104163067Y-71563952D01*
X104163065Y-71563951D01*
X104134833Y-71553991D01*
X104078162Y-71513123D01*
X104052582Y-71448104D01*
X104066215Y-71379577D01*
X104104964Y-71335482D01*
X104169139Y-71290547D01*
X104330047Y-71129639D01*
X104460568Y-70943234D01*
X104556739Y-70736996D01*
X104615635Y-70517192D01*
X104630500Y-70347284D01*
X104630500Y-70233716D01*
X104615635Y-70063808D01*
X104556739Y-69844004D01*
X104460568Y-69637766D01*
X104330047Y-69451361D01*
X104330046Y-69451360D01*
X104330045Y-69451358D01*
X104169141Y-69290454D01*
X103982734Y-69159932D01*
X103982728Y-69159929D01*
X103924725Y-69132882D01*
X103872285Y-69086710D01*
X103853133Y-69019517D01*
X103873348Y-68952635D01*
X103924725Y-68908118D01*
X103982734Y-68881068D01*
X104169139Y-68750547D01*
X104330047Y-68589639D01*
X104460568Y-68403234D01*
X104556739Y-68196996D01*
X104615635Y-67977192D01*
X104630500Y-67807284D01*
X104630500Y-67693716D01*
X104615635Y-67523808D01*
X104556739Y-67304004D01*
X104460568Y-67097766D01*
X104330047Y-66911361D01*
X104330046Y-66911360D01*
X104330045Y-66911358D01*
X104169141Y-66750454D01*
X103982734Y-66619932D01*
X103982728Y-66619929D01*
X103924725Y-66592882D01*
X103872285Y-66546710D01*
X103853133Y-66479517D01*
X103873348Y-66412635D01*
X103924725Y-66368118D01*
X103982734Y-66341068D01*
X104169139Y-66210547D01*
X104330047Y-66049639D01*
X104460568Y-65863234D01*
X104556739Y-65656996D01*
X104615635Y-65437192D01*
X104630500Y-65267284D01*
X104630500Y-65153716D01*
X104615635Y-64983808D01*
X104556739Y-64764004D01*
X104460568Y-64557766D01*
X104347433Y-64396191D01*
X104330045Y-64371358D01*
X104169141Y-64210454D01*
X103982734Y-64079932D01*
X103982728Y-64079929D01*
X103924725Y-64052882D01*
X103872285Y-64006710D01*
X103853133Y-63939517D01*
X103873348Y-63872635D01*
X103924725Y-63828118D01*
X103982734Y-63801068D01*
X104169139Y-63670547D01*
X104330047Y-63509639D01*
X104460568Y-63323234D01*
X104556739Y-63116996D01*
X104615635Y-62897192D01*
X104630500Y-62727284D01*
X104630500Y-62613716D01*
X104615635Y-62443808D01*
X104556739Y-62224004D01*
X104460568Y-62017766D01*
X104347433Y-61856191D01*
X104330045Y-61831358D01*
X104169141Y-61670454D01*
X104102620Y-61623876D01*
X104058995Y-61569300D01*
X104051801Y-61499801D01*
X104083324Y-61437446D01*
X104143083Y-61402151D01*
X104163038Y-61397058D01*
X104163042Y-61397057D01*
X104236528Y-61366618D01*
X104236556Y-61366606D01*
X104285309Y-61343281D01*
X104285314Y-61343278D01*
X104400378Y-61257141D01*
X104400382Y-61257138D01*
X104456643Y-61200876D01*
X104456659Y-61200859D01*
X104492770Y-61160657D01*
X104566111Y-61037045D01*
X104566112Y-61037043D01*
X104568823Y-61030499D01*
X112270000Y-61030499D01*
X112270000Y-61930500D01*
X112272138Y-61996041D01*
X112272138Y-61996044D01*
X112272139Y-61996045D01*
X112306068Y-62122667D01*
X112371612Y-62236194D01*
X112464306Y-62328888D01*
X112577833Y-62394432D01*
X112704455Y-62428361D01*
X112770000Y-62430500D01*
X113670000Y-62430500D01*
X113735545Y-62428361D01*
X113862167Y-62394433D01*
X113975694Y-62328888D01*
X114068388Y-62236194D01*
X114133933Y-62122667D01*
X114167861Y-61996045D01*
X114170000Y-61930500D01*
X114170000Y-61030500D01*
X114167861Y-60964955D01*
X114133933Y-60838333D01*
X114068388Y-60724806D01*
X113975694Y-60632112D01*
X113862167Y-60566567D01*
X113735545Y-60532639D01*
X113670000Y-60530500D01*
X113220000Y-60530500D01*
X112770000Y-60530500D01*
X112704458Y-60532638D01*
X112577832Y-60566568D01*
X112464307Y-60632111D01*
X112464304Y-60632113D01*
X112371613Y-60724804D01*
X112371611Y-60724807D01*
X112306068Y-60838332D01*
X112272138Y-60964958D01*
X112270000Y-61030499D01*
X104568823Y-61030499D01*
X104589317Y-60981024D01*
X104589317Y-60981023D01*
X104596548Y-60963564D01*
X104614544Y-60912553D01*
X104634999Y-60770280D01*
X104635000Y-60770279D01*
X104635000Y-60380500D01*
X102654000Y-60380500D01*
X102586961Y-60360815D01*
X102541206Y-60308011D01*
X102530000Y-60256500D01*
X102530000Y-60004500D01*
X102549685Y-59937461D01*
X102602489Y-59891706D01*
X102654000Y-59880500D01*
X104635000Y-59880500D01*
X104635000Y-59490714D01*
X104632106Y-59436737D01*
X104632106Y-59436735D01*
X104596561Y-59297469D01*
X104596557Y-59297457D01*
X104566118Y-59223971D01*
X104566106Y-59223943D01*
X104542781Y-59175190D01*
X104542778Y-59175185D01*
X104456641Y-59060121D01*
X104456638Y-59060117D01*
X104400376Y-59003856D01*
X104400359Y-59003840D01*
X104360157Y-58967729D01*
X104236545Y-58894388D01*
X104236538Y-58894384D01*
X104163067Y-58863952D01*
X104163065Y-58863951D01*
X104134833Y-58853991D01*
X104078162Y-58813123D01*
X104052582Y-58748104D01*
X104066215Y-58679577D01*
X104104964Y-58635482D01*
X104169139Y-58590547D01*
X104330047Y-58429639D01*
X104425108Y-58293877D01*
X104479685Y-58250252D01*
X104526683Y-58241000D01*
X112204192Y-58241000D01*
X112271231Y-58260685D01*
X112291873Y-58277319D01*
X114555484Y-60540930D01*
X114588969Y-60602253D01*
X114589420Y-60604420D01*
X114602761Y-60671489D01*
X114602764Y-60671501D01*
X114663102Y-60817172D01*
X114663109Y-60817185D01*
X114750710Y-60948288D01*
X114750713Y-60948292D01*
X114862207Y-61059786D01*
X114862211Y-61059789D01*
X114993314Y-61147390D01*
X114993327Y-61147397D01*
X115122398Y-61200859D01*
X115139003Y-61207737D01*
X115293653Y-61238499D01*
X115293656Y-61238500D01*
X115293658Y-61238500D01*
X115451344Y-61238500D01*
X115451345Y-61238499D01*
X115605997Y-61207737D01*
X115751679Y-61147394D01*
X115882789Y-61059789D01*
X115994289Y-60948289D01*
X116081894Y-60817179D01*
X116142237Y-60671497D01*
X116173000Y-60516842D01*
X116173000Y-60359158D01*
X116173000Y-60359155D01*
X116172999Y-60359153D01*
X116152580Y-60256500D01*
X116142237Y-60204503D01*
X116107397Y-60120390D01*
X116081897Y-60058827D01*
X116081890Y-60058814D01*
X115994289Y-59927711D01*
X115994286Y-59927707D01*
X115882792Y-59816213D01*
X115882788Y-59816210D01*
X115751685Y-59728609D01*
X115751672Y-59728602D01*
X115606001Y-59668264D01*
X115605989Y-59668261D01*
X115538920Y-59654920D01*
X115522163Y-59646155D01*
X115503684Y-59642135D01*
X115478645Y-59623390D01*
X115477009Y-59622535D01*
X115475430Y-59620984D01*
X115345165Y-59490719D01*
X119804500Y-59490719D01*
X119804500Y-60770284D01*
X119807395Y-60824314D01*
X119807396Y-60824318D01*
X119842976Y-60963721D01*
X119842980Y-60963733D01*
X119873419Y-61037219D01*
X119873431Y-61037247D01*
X119896779Y-61086048D01*
X119896781Y-61086051D01*
X119983006Y-61201233D01*
X119983010Y-61201237D01*
X119983015Y-61201243D01*
X120039252Y-61257480D01*
X120039261Y-61257488D01*
X120039267Y-61257494D01*
X120041790Y-61259760D01*
X120079524Y-61293656D01*
X120079532Y-61293662D01*
X120203263Y-61367073D01*
X120203262Y-61367073D01*
X120210329Y-61370000D01*
X120276774Y-61397522D01*
X120304662Y-61407360D01*
X120361332Y-61448225D01*
X120386913Y-61513243D01*
X120373283Y-61581771D01*
X120334531Y-61625871D01*
X120270856Y-61670456D01*
X120109954Y-61831358D01*
X119979432Y-62017765D01*
X119979431Y-62017767D01*
X119883261Y-62224002D01*
X119883258Y-62224011D01*
X119824366Y-62443802D01*
X119824364Y-62443812D01*
X119809500Y-62613714D01*
X119809500Y-62727285D01*
X119824364Y-62897187D01*
X119824366Y-62897197D01*
X119883258Y-63116988D01*
X119883261Y-63116997D01*
X119979431Y-63323232D01*
X119979432Y-63323234D01*
X120109954Y-63509641D01*
X120270858Y-63670545D01*
X120270861Y-63670547D01*
X120457266Y-63801068D01*
X120515275Y-63828118D01*
X120567714Y-63874291D01*
X120586866Y-63941484D01*
X120566650Y-64008365D01*
X120515275Y-64052882D01*
X120457267Y-64079931D01*
X120457265Y-64079932D01*
X120270858Y-64210454D01*
X120109954Y-64371358D01*
X119979432Y-64557765D01*
X119979431Y-64557767D01*
X119883261Y-64764002D01*
X119883258Y-64764011D01*
X119824366Y-64983802D01*
X119824364Y-64983812D01*
X119809500Y-65153714D01*
X119809500Y-65267285D01*
X119824364Y-65437187D01*
X119824366Y-65437197D01*
X119883258Y-65656988D01*
X119883261Y-65656997D01*
X119979431Y-65863232D01*
X119979432Y-65863234D01*
X120109954Y-66049641D01*
X120270858Y-66210545D01*
X120270861Y-66210547D01*
X120457266Y-66341068D01*
X120515275Y-66368118D01*
X120567714Y-66414291D01*
X120586866Y-66481484D01*
X120566650Y-66548365D01*
X120515275Y-66592882D01*
X120457267Y-66619931D01*
X120457265Y-66619932D01*
X120270858Y-66750454D01*
X120109954Y-66911358D01*
X119979432Y-67097765D01*
X119979431Y-67097767D01*
X119883261Y-67304002D01*
X119883258Y-67304011D01*
X119824366Y-67523802D01*
X119824364Y-67523812D01*
X119809500Y-67693714D01*
X119809500Y-67807285D01*
X119824364Y-67977187D01*
X119824366Y-67977197D01*
X119883258Y-68196988D01*
X119883261Y-68196997D01*
X119979431Y-68403232D01*
X119979432Y-68403234D01*
X120109954Y-68589641D01*
X120270858Y-68750545D01*
X120270861Y-68750547D01*
X120457266Y-68881068D01*
X120515275Y-68908118D01*
X120567714Y-68954291D01*
X120586866Y-69021484D01*
X120566650Y-69088365D01*
X120515275Y-69132882D01*
X120457267Y-69159931D01*
X120457265Y-69159932D01*
X120270858Y-69290454D01*
X120109954Y-69451358D01*
X119979432Y-69637765D01*
X119979431Y-69637767D01*
X119883261Y-69844002D01*
X119883258Y-69844011D01*
X119824366Y-70063802D01*
X119824364Y-70063812D01*
X119809500Y-70233714D01*
X119809500Y-70347285D01*
X119824364Y-70517187D01*
X119824366Y-70517197D01*
X119883258Y-70736988D01*
X119883261Y-70736997D01*
X119979431Y-70943232D01*
X119979432Y-70943234D01*
X120109954Y-71129641D01*
X120270858Y-71290545D01*
X120337379Y-71337123D01*
X120381004Y-71391699D01*
X120388198Y-71461198D01*
X120356676Y-71523552D01*
X120296922Y-71558846D01*
X120276970Y-71563938D01*
X120276957Y-71563942D01*
X120203471Y-71594381D01*
X120203443Y-71594393D01*
X120154690Y-71617718D01*
X120154685Y-71617721D01*
X120039621Y-71703858D01*
X120039617Y-71703861D01*
X119983356Y-71760123D01*
X119983340Y-71760140D01*
X119947229Y-71800342D01*
X119873888Y-71923954D01*
X119873884Y-71923961D01*
X119843452Y-71997432D01*
X119843451Y-71997435D01*
X119825455Y-72048446D01*
X119805000Y-72190719D01*
X119805000Y-72580500D01*
X123990839Y-72580500D01*
X123990839Y-72580499D01*
X123974559Y-72498650D01*
X123974556Y-72498639D01*
X123945814Y-72403887D01*
X123885509Y-72258301D01*
X123838844Y-72170998D01*
X123838832Y-72170978D01*
X123751295Y-72039969D01*
X123751291Y-72039963D01*
X123688485Y-71963435D01*
X123577064Y-71852014D01*
X123500536Y-71789208D01*
X123500530Y-71789204D01*
X123369521Y-71701667D01*
X123369501Y-71701655D01*
X123304730Y-71667034D01*
X123254886Y-71618071D01*
X123239426Y-71549934D01*
X123263258Y-71484254D01*
X123310777Y-71445295D01*
X123362734Y-71421068D01*
X123549139Y-71290547D01*
X123710047Y-71129639D01*
X123774255Y-71037938D01*
X123805108Y-70993877D01*
X123859685Y-70950252D01*
X123906683Y-70941000D01*
X125346004Y-70941000D01*
X125413043Y-70960685D01*
X125458798Y-71013489D01*
X125468742Y-71082647D01*
X125468477Y-71084393D01*
X125449500Y-71204213D01*
X125449500Y-71416787D01*
X125454015Y-71445293D01*
X125483516Y-71631555D01*
X125481877Y-71631814D01*
X125478738Y-71694383D01*
X125449342Y-71741210D01*
X124141316Y-73049235D01*
X124079993Y-73082720D01*
X124048950Y-73080500D01*
X119805000Y-73080500D01*
X119805000Y-73470285D01*
X119807893Y-73524262D01*
X119807893Y-73524264D01*
X119843438Y-73663530D01*
X119843442Y-73663542D01*
X119873881Y-73737028D01*
X119873893Y-73737056D01*
X119897218Y-73785809D01*
X119897221Y-73785814D01*
X119983358Y-73900878D01*
X119983361Y-73900882D01*
X120039623Y-73957143D01*
X120039640Y-73957159D01*
X120079842Y-73993270D01*
X120203454Y-74066611D01*
X120203461Y-74066615D01*
X120276932Y-74097047D01*
X120276956Y-74097056D01*
X120305164Y-74107008D01*
X120361835Y-74147874D01*
X120387417Y-74212892D01*
X120373785Y-74281420D01*
X120335033Y-74325519D01*
X120270859Y-74370453D01*
X120109954Y-74531358D01*
X119979432Y-74717765D01*
X119979431Y-74717767D01*
X119883261Y-74924002D01*
X119883258Y-74924011D01*
X119824366Y-75143802D01*
X119824364Y-75143812D01*
X119809500Y-75313714D01*
X119809500Y-75427285D01*
X119824364Y-75597187D01*
X119824366Y-75597197D01*
X119883258Y-75816988D01*
X119883261Y-75816997D01*
X119979431Y-76023232D01*
X119979432Y-76023234D01*
X120109954Y-76209641D01*
X120270858Y-76370545D01*
X120270861Y-76370547D01*
X120457266Y-76501068D01*
X120515275Y-76528118D01*
X120567714Y-76574291D01*
X120586866Y-76641484D01*
X120566650Y-76708365D01*
X120515275Y-76752882D01*
X120457267Y-76779931D01*
X120457265Y-76779932D01*
X120270858Y-76910454D01*
X120109954Y-77071358D01*
X119979432Y-77257765D01*
X119979431Y-77257767D01*
X119883261Y-77464002D01*
X119883258Y-77464011D01*
X119824366Y-77683802D01*
X119824364Y-77683812D01*
X119809500Y-77853714D01*
X119809500Y-77967285D01*
X119824364Y-78137187D01*
X119824366Y-78137197D01*
X119883258Y-78356988D01*
X119883261Y-78356997D01*
X119979431Y-78563232D01*
X119979432Y-78563234D01*
X120109954Y-78749641D01*
X120270858Y-78910545D01*
X120270861Y-78910547D01*
X120457266Y-79041068D01*
X120515275Y-79068118D01*
X120567714Y-79114291D01*
X120586866Y-79181484D01*
X120566650Y-79248365D01*
X120515275Y-79292882D01*
X120457267Y-79319931D01*
X120457265Y-79319932D01*
X120270858Y-79450454D01*
X120109954Y-79611358D01*
X119979432Y-79797765D01*
X119979431Y-79797767D01*
X119883261Y-80004002D01*
X119883258Y-80004011D01*
X119824366Y-80223802D01*
X119824364Y-80223812D01*
X119809500Y-80393714D01*
X119809500Y-80507285D01*
X119824364Y-80677187D01*
X119824366Y-80677197D01*
X119883258Y-80896988D01*
X119883261Y-80896997D01*
X119979431Y-81103232D01*
X119979432Y-81103234D01*
X120109954Y-81289641D01*
X120270858Y-81450545D01*
X120270861Y-81450547D01*
X120457266Y-81581068D01*
X120515275Y-81608118D01*
X120567714Y-81654291D01*
X120586866Y-81721484D01*
X120566650Y-81788365D01*
X120515275Y-81832882D01*
X120457267Y-81859931D01*
X120457265Y-81859932D01*
X120270858Y-81990454D01*
X120109954Y-82151358D01*
X119979432Y-82337765D01*
X119979431Y-82337767D01*
X119883261Y-82544002D01*
X119883258Y-82544011D01*
X119824366Y-82763802D01*
X119824364Y-82763812D01*
X119809500Y-82933714D01*
X119809500Y-83047285D01*
X119824364Y-83217187D01*
X119824366Y-83217197D01*
X119883258Y-83436988D01*
X119883261Y-83436997D01*
X119979431Y-83643232D01*
X119979432Y-83643234D01*
X120109954Y-83829641D01*
X120270858Y-83990545D01*
X120337379Y-84037123D01*
X120381004Y-84091699D01*
X120388198Y-84161198D01*
X120356676Y-84223552D01*
X120296922Y-84258846D01*
X120276970Y-84263938D01*
X120276957Y-84263942D01*
X120203471Y-84294381D01*
X120203443Y-84294393D01*
X120154690Y-84317718D01*
X120154685Y-84317721D01*
X120039621Y-84403858D01*
X120039617Y-84403861D01*
X119983356Y-84460123D01*
X119983340Y-84460140D01*
X119947229Y-84500342D01*
X119873888Y-84623954D01*
X119873884Y-84623961D01*
X119843452Y-84697432D01*
X119843451Y-84697435D01*
X119825455Y-84748446D01*
X119805000Y-84890719D01*
X119805000Y-85280500D01*
X123990839Y-85280500D01*
X123990839Y-85280499D01*
X123974559Y-85198650D01*
X123974556Y-85198639D01*
X123945814Y-85103887D01*
X123885509Y-84958301D01*
X123838844Y-84870998D01*
X123838832Y-84870978D01*
X123751295Y-84739969D01*
X123751291Y-84739963D01*
X123688485Y-84663435D01*
X123577064Y-84552014D01*
X123500536Y-84489208D01*
X123500530Y-84489204D01*
X123369521Y-84401667D01*
X123369501Y-84401655D01*
X123304730Y-84367034D01*
X123254886Y-84318071D01*
X123239426Y-84249934D01*
X123263258Y-84184254D01*
X123310777Y-84145295D01*
X123362734Y-84121068D01*
X123549139Y-83990547D01*
X123710047Y-83829639D01*
X123840568Y-83643234D01*
X123936739Y-83436996D01*
X123995635Y-83217192D01*
X124010500Y-83047284D01*
X124010500Y-82933716D01*
X123995635Y-82763808D01*
X123991130Y-82746995D01*
X123992791Y-82677150D01*
X124023221Y-82627223D01*
X125237819Y-81412626D01*
X125299142Y-81379141D01*
X125368834Y-81384125D01*
X125424767Y-81425997D01*
X125449184Y-81491461D01*
X125449500Y-81500307D01*
X125449500Y-81576787D01*
X125454462Y-81608118D01*
X125482748Y-81786710D01*
X125482754Y-81786743D01*
X125506534Y-81859931D01*
X125548444Y-81988914D01*
X125644951Y-82178320D01*
X125769890Y-82350286D01*
X125883430Y-82463826D01*
X125916915Y-82525149D01*
X125911931Y-82594841D01*
X125870059Y-82650774D01*
X125839083Y-82667689D01*
X125707669Y-82716703D01*
X125707664Y-82716706D01*
X125592455Y-82802952D01*
X125592452Y-82802955D01*
X125506206Y-82918164D01*
X125506202Y-82918171D01*
X125455908Y-83053017D01*
X125449501Y-83112616D01*
X125449501Y-83112623D01*
X125449500Y-83112635D01*
X125449500Y-84908370D01*
X125449501Y-84908376D01*
X125455908Y-84967983D01*
X125506202Y-85102828D01*
X125506206Y-85102835D01*
X125592452Y-85218044D01*
X125592455Y-85218047D01*
X125707664Y-85304293D01*
X125707671Y-85304297D01*
X125842517Y-85354591D01*
X125842516Y-85354591D01*
X125849444Y-85355335D01*
X125902127Y-85361000D01*
X127697872Y-85360999D01*
X127757483Y-85354591D01*
X127892331Y-85304296D01*
X128007546Y-85218046D01*
X128093796Y-85102831D01*
X128144091Y-84967983D01*
X128150500Y-84908373D01*
X128150499Y-83112628D01*
X128144091Y-83053017D01*
X128099594Y-82933715D01*
X128093797Y-82918171D01*
X128093793Y-82918164D01*
X128007547Y-82802955D01*
X128007544Y-82802952D01*
X127892335Y-82716706D01*
X127892328Y-82716702D01*
X127760917Y-82667689D01*
X127704983Y-82625818D01*
X127680566Y-82560353D01*
X127695418Y-82492080D01*
X127716563Y-82463832D01*
X127830104Y-82350292D01*
X127839206Y-82337765D01*
X127955048Y-82178320D01*
X127955047Y-82178320D01*
X127955051Y-82178316D01*
X128051557Y-81988912D01*
X128117246Y-81786743D01*
X128150500Y-81576787D01*
X128150500Y-81364213D01*
X128117246Y-81154257D01*
X128051557Y-80952088D01*
X127955051Y-80762684D01*
X127955049Y-80762681D01*
X127955048Y-80762679D01*
X127830109Y-80590713D01*
X127679786Y-80440390D01*
X127507820Y-80315451D01*
X127507115Y-80315091D01*
X127499054Y-80310985D01*
X127448259Y-80263012D01*
X127431463Y-80195192D01*
X127453999Y-80129056D01*
X127499054Y-80090015D01*
X127507816Y-80085551D01*
X127529789Y-80069586D01*
X127679786Y-79960609D01*
X127679788Y-79960606D01*
X127679792Y-79960604D01*
X127830104Y-79810292D01*
X127830106Y-79810288D01*
X127830109Y-79810286D01*
X127955048Y-79638320D01*
X127955047Y-79638320D01*
X127955051Y-79638316D01*
X128051557Y-79448912D01*
X128117246Y-79246743D01*
X128150500Y-79036787D01*
X128150500Y-78824213D01*
X128117246Y-78614257D01*
X128051557Y-78412088D01*
X127955051Y-78222684D01*
X127955049Y-78222681D01*
X127955048Y-78222679D01*
X127830109Y-78050713D01*
X127679786Y-77900390D01*
X127507820Y-77775451D01*
X127507115Y-77775091D01*
X127499054Y-77770985D01*
X127448259Y-77723012D01*
X127431463Y-77655192D01*
X127453999Y-77589056D01*
X127499054Y-77550015D01*
X127507816Y-77545551D01*
X127529789Y-77529586D01*
X127679786Y-77420609D01*
X127679788Y-77420606D01*
X127679792Y-77420604D01*
X127830104Y-77270292D01*
X127830106Y-77270288D01*
X127830109Y-77270286D01*
X127955048Y-77098320D01*
X127955047Y-77098320D01*
X127955051Y-77098316D01*
X128051557Y-76908912D01*
X128117246Y-76706743D01*
X128150500Y-76496787D01*
X128150500Y-76284213D01*
X128117246Y-76074257D01*
X128051557Y-75872088D01*
X127955051Y-75682684D01*
X127955049Y-75682681D01*
X127955048Y-75682679D01*
X127830109Y-75510713D01*
X127679786Y-75360390D01*
X127507820Y-75235451D01*
X127507115Y-75235091D01*
X127499054Y-75230985D01*
X127448259Y-75183012D01*
X127431463Y-75115192D01*
X127453999Y-75049056D01*
X127499054Y-75010015D01*
X127507816Y-75005551D01*
X127529789Y-74989586D01*
X127679786Y-74880609D01*
X127679788Y-74880606D01*
X127679792Y-74880604D01*
X127830104Y-74730292D01*
X127830106Y-74730288D01*
X127830109Y-74730286D01*
X127955048Y-74558320D01*
X127955047Y-74558320D01*
X127955051Y-74558316D01*
X128051557Y-74368912D01*
X128117246Y-74166743D01*
X128150500Y-73956787D01*
X128150500Y-73744213D01*
X128117246Y-73534257D01*
X128051557Y-73332088D01*
X127955051Y-73142684D01*
X127955049Y-73142681D01*
X127955048Y-73142679D01*
X127830109Y-72970713D01*
X127679786Y-72820390D01*
X127507820Y-72695451D01*
X127507115Y-72695091D01*
X127499054Y-72690985D01*
X127448259Y-72643012D01*
X127431463Y-72575192D01*
X127453999Y-72509056D01*
X127499054Y-72470015D01*
X127507816Y-72465551D01*
X127592690Y-72403887D01*
X127679786Y-72340609D01*
X127679788Y-72340606D01*
X127679792Y-72340604D01*
X127830104Y-72190292D01*
X127830106Y-72190288D01*
X127830109Y-72190286D01*
X127955048Y-72018320D01*
X127955047Y-72018320D01*
X127955051Y-72018316D01*
X128051557Y-71828912D01*
X128117246Y-71626743D01*
X128150500Y-71416787D01*
X128150500Y-71204213D01*
X128117246Y-70994257D01*
X128051557Y-70792088D01*
X127955051Y-70602684D01*
X127955049Y-70602681D01*
X127955048Y-70602679D01*
X127830109Y-70430713D01*
X127679786Y-70280390D01*
X127507820Y-70155451D01*
X127507115Y-70155091D01*
X127499054Y-70150985D01*
X127448259Y-70103012D01*
X127431463Y-70035192D01*
X127453999Y-69969056D01*
X127499054Y-69930015D01*
X127507816Y-69925551D01*
X127529789Y-69909586D01*
X127679786Y-69800609D01*
X127679788Y-69800606D01*
X127679792Y-69800604D01*
X127830104Y-69650292D01*
X127830106Y-69650288D01*
X127830109Y-69650286D01*
X127955048Y-69478320D01*
X127955047Y-69478320D01*
X127955051Y-69478316D01*
X128051557Y-69288912D01*
X128117246Y-69086743D01*
X128150500Y-68876787D01*
X128150500Y-68664213D01*
X128117246Y-68454257D01*
X128051557Y-68252088D01*
X127955051Y-68062684D01*
X127955049Y-68062681D01*
X127955048Y-68062679D01*
X127830109Y-67890713D01*
X127679786Y-67740390D01*
X127507820Y-67615451D01*
X127507115Y-67615091D01*
X127499054Y-67610985D01*
X127448259Y-67563012D01*
X127431463Y-67495192D01*
X127453999Y-67429056D01*
X127499054Y-67390015D01*
X127507816Y-67385551D01*
X127529789Y-67369586D01*
X127679786Y-67260609D01*
X127679788Y-67260606D01*
X127679792Y-67260604D01*
X127830104Y-67110292D01*
X127830106Y-67110288D01*
X127830109Y-67110286D01*
X127955048Y-66938320D01*
X127955047Y-66938320D01*
X127955051Y-66938316D01*
X128051557Y-66748912D01*
X128117246Y-66546743D01*
X128150500Y-66336787D01*
X128150500Y-66124213D01*
X128117246Y-65914257D01*
X128051557Y-65712088D01*
X127955051Y-65522684D01*
X127955049Y-65522681D01*
X127955048Y-65522679D01*
X127830109Y-65350713D01*
X127679786Y-65200390D01*
X127507820Y-65075451D01*
X127507115Y-65075091D01*
X127499054Y-65070985D01*
X127448259Y-65023012D01*
X127431463Y-64955192D01*
X127453999Y-64889056D01*
X127499054Y-64850015D01*
X127507816Y-64845551D01*
X127529789Y-64829586D01*
X127679786Y-64720609D01*
X127679788Y-64720606D01*
X127679792Y-64720604D01*
X127830104Y-64570292D01*
X127830106Y-64570288D01*
X127830109Y-64570286D01*
X127955048Y-64398320D01*
X127955047Y-64398320D01*
X127955051Y-64398316D01*
X128051557Y-64208912D01*
X128117246Y-64006743D01*
X128150500Y-63796787D01*
X128150500Y-63584213D01*
X128117246Y-63374257D01*
X128051557Y-63172088D01*
X127955051Y-62982684D01*
X127955049Y-62982681D01*
X127955048Y-62982679D01*
X127830109Y-62810713D01*
X127679786Y-62660390D01*
X127507820Y-62535451D01*
X127507115Y-62535091D01*
X127499054Y-62530985D01*
X127448259Y-62483012D01*
X127431463Y-62415192D01*
X127453999Y-62349056D01*
X127499054Y-62310015D01*
X127507816Y-62305551D01*
X127603277Y-62236195D01*
X127679786Y-62180609D01*
X127679788Y-62180606D01*
X127679792Y-62180604D01*
X127830104Y-62030292D01*
X127830106Y-62030288D01*
X127830109Y-62030286D01*
X127955048Y-61858320D01*
X127955047Y-61858320D01*
X127955051Y-61858316D01*
X128051557Y-61668912D01*
X128117246Y-61466743D01*
X128150500Y-61256787D01*
X128150500Y-61044213D01*
X128117246Y-60834257D01*
X128051557Y-60632088D01*
X127955051Y-60442684D01*
X127955049Y-60442681D01*
X127955048Y-60442679D01*
X127830109Y-60270713D01*
X127679786Y-60120390D01*
X127507820Y-59995451D01*
X127318414Y-59898944D01*
X127318413Y-59898943D01*
X127318412Y-59898943D01*
X127116243Y-59833254D01*
X127116241Y-59833253D01*
X127116240Y-59833253D01*
X126954957Y-59807708D01*
X126906287Y-59800000D01*
X126693713Y-59800000D01*
X126591368Y-59816210D01*
X126478945Y-59834016D01*
X126478686Y-59832382D01*
X126416094Y-59829230D01*
X126369288Y-59799842D01*
X124033528Y-57464082D01*
X124000043Y-57402759D01*
X123997683Y-57387228D01*
X123995635Y-57363808D01*
X123936739Y-57144004D01*
X123840568Y-56937766D01*
X123710047Y-56751361D01*
X123710046Y-56751360D01*
X123710045Y-56751358D01*
X123549141Y-56590454D01*
X123362734Y-56459932D01*
X123362728Y-56459929D01*
X123307198Y-56434035D01*
X123304724Y-56432881D01*
X123252285Y-56386710D01*
X123233133Y-56319517D01*
X123253348Y-56252635D01*
X123304725Y-56208118D01*
X123362734Y-56181068D01*
X123549139Y-56050547D01*
X123710047Y-55889639D01*
X123840568Y-55703234D01*
X123936739Y-55496996D01*
X123995635Y-55277192D01*
X124010500Y-55107284D01*
X124010500Y-54993716D01*
X123995635Y-54823808D01*
X123936739Y-54604004D01*
X123840568Y-54397766D01*
X123710047Y-54211361D01*
X123710046Y-54211360D01*
X123710045Y-54211358D01*
X123549141Y-54050454D01*
X123362734Y-53919932D01*
X123362728Y-53919929D01*
X123304725Y-53892882D01*
X123252285Y-53846710D01*
X123233133Y-53779517D01*
X123253348Y-53712635D01*
X123304725Y-53668118D01*
X123362734Y-53641068D01*
X123549139Y-53510547D01*
X123710047Y-53349639D01*
X123840568Y-53163234D01*
X123936739Y-52956996D01*
X123995635Y-52737192D01*
X124010500Y-52567284D01*
X124010500Y-52453716D01*
X123995635Y-52283808D01*
X123936739Y-52064004D01*
X123840568Y-51857766D01*
X123710047Y-51671361D01*
X123710046Y-51671360D01*
X123710045Y-51671358D01*
X123549141Y-51510454D01*
X123362734Y-51379932D01*
X123362728Y-51379929D01*
X123304725Y-51352882D01*
X123252285Y-51306710D01*
X123233133Y-51239517D01*
X123253348Y-51172635D01*
X123304725Y-51128118D01*
X123362734Y-51101068D01*
X123549139Y-50970547D01*
X123710047Y-50809639D01*
X123840568Y-50623234D01*
X123936739Y-50416996D01*
X123995635Y-50197192D01*
X124010500Y-50027284D01*
X124010500Y-49913716D01*
X123995635Y-49743808D01*
X123936739Y-49524004D01*
X123840568Y-49317766D01*
X123710047Y-49131361D01*
X123710046Y-49131360D01*
X123710045Y-49131358D01*
X123549141Y-48970454D01*
X123362734Y-48839932D01*
X123362732Y-48839931D01*
X123310779Y-48815705D01*
X123258340Y-48769532D01*
X123239188Y-48702339D01*
X123259404Y-48635458D01*
X123304732Y-48593964D01*
X123369500Y-48559344D01*
X123369521Y-48559332D01*
X123500530Y-48471795D01*
X123500536Y-48471791D01*
X123577064Y-48408985D01*
X123688485Y-48297564D01*
X123751291Y-48221036D01*
X123751295Y-48221030D01*
X123838832Y-48090021D01*
X123838844Y-48090001D01*
X123885509Y-48002698D01*
X123945814Y-47857112D01*
X123974556Y-47762360D01*
X123974559Y-47762349D01*
X123990839Y-47680500D01*
X119805000Y-47680500D01*
X119805000Y-48070285D01*
X119807893Y-48124262D01*
X119807893Y-48124264D01*
X119843438Y-48263530D01*
X119843442Y-48263542D01*
X119873881Y-48337028D01*
X119873893Y-48337056D01*
X119897218Y-48385809D01*
X119897221Y-48385814D01*
X119983358Y-48500878D01*
X119983361Y-48500882D01*
X120039623Y-48557143D01*
X120039640Y-48557159D01*
X120079842Y-48593270D01*
X120203454Y-48666611D01*
X120203461Y-48666615D01*
X120276932Y-48697047D01*
X120276956Y-48697056D01*
X120305164Y-48707008D01*
X120361835Y-48747874D01*
X120387417Y-48812892D01*
X120373785Y-48881420D01*
X120335033Y-48925519D01*
X120270859Y-48970453D01*
X120109954Y-49131358D01*
X119979432Y-49317765D01*
X119979431Y-49317767D01*
X119883261Y-49524002D01*
X119883258Y-49524011D01*
X119824366Y-49743802D01*
X119824364Y-49743812D01*
X119809500Y-49913714D01*
X119809500Y-50027285D01*
X119824364Y-50197187D01*
X119824366Y-50197197D01*
X119883258Y-50416988D01*
X119883261Y-50416997D01*
X119979431Y-50623232D01*
X119979432Y-50623234D01*
X120109954Y-50809641D01*
X120270858Y-50970545D01*
X120270861Y-50970547D01*
X120457266Y-51101068D01*
X120515275Y-51128118D01*
X120567714Y-51174291D01*
X120586866Y-51241484D01*
X120566650Y-51308365D01*
X120515275Y-51352882D01*
X120457267Y-51379931D01*
X120457265Y-51379932D01*
X120270858Y-51510454D01*
X120109954Y-51671358D01*
X119979432Y-51857765D01*
X119979431Y-51857767D01*
X119883261Y-52064002D01*
X119883258Y-52064011D01*
X119824366Y-52283802D01*
X119824364Y-52283812D01*
X119809500Y-52453714D01*
X119809500Y-52567285D01*
X119824364Y-52737187D01*
X119824366Y-52737197D01*
X119883258Y-52956988D01*
X119883261Y-52956997D01*
X119979431Y-53163232D01*
X119979432Y-53163234D01*
X120109954Y-53349641D01*
X120270858Y-53510545D01*
X120270861Y-53510547D01*
X120457266Y-53641068D01*
X120515275Y-53668118D01*
X120567714Y-53714291D01*
X120586866Y-53781484D01*
X120566650Y-53848365D01*
X120515275Y-53892882D01*
X120457267Y-53919931D01*
X120457265Y-53919932D01*
X120270858Y-54050454D01*
X120109954Y-54211358D01*
X119979432Y-54397765D01*
X119979431Y-54397767D01*
X119883261Y-54604002D01*
X119883258Y-54604011D01*
X119824366Y-54823802D01*
X119824364Y-54823812D01*
X119809500Y-54993714D01*
X119809500Y-55107285D01*
X119824364Y-55277187D01*
X119824366Y-55277197D01*
X119883258Y-55496988D01*
X119883261Y-55496997D01*
X119979431Y-55703232D01*
X119979432Y-55703234D01*
X120109954Y-55889641D01*
X120270858Y-56050545D01*
X120270861Y-56050547D01*
X120457266Y-56181068D01*
X120515275Y-56208118D01*
X120567714Y-56254291D01*
X120586866Y-56321484D01*
X120566650Y-56388365D01*
X120515275Y-56432882D01*
X120457267Y-56459931D01*
X120457265Y-56459932D01*
X120270858Y-56590454D01*
X120109954Y-56751358D01*
X119979432Y-56937765D01*
X119979431Y-56937767D01*
X119883261Y-57144002D01*
X119883258Y-57144011D01*
X119824366Y-57363802D01*
X119824364Y-57363812D01*
X119809500Y-57533714D01*
X119809500Y-57647285D01*
X119824364Y-57817187D01*
X119824366Y-57817197D01*
X119883258Y-58036988D01*
X119883261Y-58036997D01*
X119979431Y-58243232D01*
X119979432Y-58243234D01*
X120109954Y-58429641D01*
X120270857Y-58590544D01*
X120270860Y-58590546D01*
X120270861Y-58590547D01*
X120336844Y-58636748D01*
X120380469Y-58691324D01*
X120387663Y-58760822D01*
X120356141Y-58823177D01*
X120296391Y-58858470D01*
X120276780Y-58863475D01*
X120276766Y-58863480D01*
X120203280Y-58893919D01*
X120203252Y-58893931D01*
X120154451Y-58917279D01*
X120154446Y-58917282D01*
X120039268Y-59003505D01*
X120039256Y-59003515D01*
X119983019Y-59059752D01*
X119946843Y-59100024D01*
X119946837Y-59100032D01*
X119873426Y-59223763D01*
X119842978Y-59297274D01*
X119842970Y-59297295D01*
X119824976Y-59348300D01*
X119804500Y-59490719D01*
X115345165Y-59490719D01*
X114108615Y-58254169D01*
X114075130Y-58192846D01*
X114080114Y-58123154D01*
X114121986Y-58067221D01*
X114127400Y-58063389D01*
X114132789Y-58059789D01*
X114244289Y-57948289D01*
X114331894Y-57817179D01*
X114392237Y-57671497D01*
X114423000Y-57516842D01*
X114423000Y-57359158D01*
X114423000Y-57359155D01*
X114422999Y-57359153D01*
X114392238Y-57204510D01*
X114392237Y-57204503D01*
X114367177Y-57144002D01*
X114331897Y-57058827D01*
X114331890Y-57058814D01*
X114244289Y-56927711D01*
X114244286Y-56927707D01*
X114132792Y-56816213D01*
X114132788Y-56816210D01*
X114001685Y-56728609D01*
X114001676Y-56728604D01*
X113915847Y-56693053D01*
X113875621Y-56666175D01*
X113714669Y-56505223D01*
X113608127Y-56434035D01*
X113605343Y-56432882D01*
X113489744Y-56384999D01*
X113489738Y-56384997D01*
X113364071Y-56360000D01*
X113364069Y-56360000D01*
X110711682Y-56360000D01*
X110644643Y-56340315D01*
X110598888Y-56287511D01*
X110588944Y-56218353D01*
X110604295Y-56174000D01*
X110633932Y-56122667D01*
X110667861Y-55996045D01*
X110670000Y-55930500D01*
X110670000Y-52230500D01*
X110670000Y-48530500D01*
X110667861Y-48464955D01*
X110633933Y-48338333D01*
X110568388Y-48224806D01*
X110475694Y-48132112D01*
X110362167Y-48066567D01*
X110235545Y-48032639D01*
X110170000Y-48030500D01*
X109270000Y-48030500D01*
X109204455Y-48032639D01*
X109077833Y-48066567D01*
X109077831Y-48066567D01*
X109077831Y-48066568D01*
X108964306Y-48132112D01*
X108964303Y-48132114D01*
X108871614Y-48224803D01*
X108871612Y-48224806D01*
X108806068Y-48338331D01*
X108772139Y-48464955D01*
X108770000Y-48530499D01*
X108770000Y-55930500D01*
X108772138Y-55996041D01*
X108806068Y-56122668D01*
X108806069Y-56122669D01*
X108835705Y-56174000D01*
X108852178Y-56241900D01*
X108829325Y-56307927D01*
X108774404Y-56351118D01*
X108728318Y-56360000D01*
X105063308Y-56360000D01*
X104996269Y-56340315D01*
X104975627Y-56323681D01*
X104488448Y-55836502D01*
X104454963Y-55775179D01*
X104459947Y-55705487D01*
X104463747Y-55696416D01*
X104556739Y-55496996D01*
X104615635Y-55277192D01*
X104630500Y-55107284D01*
X104630500Y-54993716D01*
X104615635Y-54823808D01*
X104556739Y-54604004D01*
X104460568Y-54397766D01*
X104330047Y-54211361D01*
X104330046Y-54211360D01*
X104330045Y-54211358D01*
X104169141Y-54050454D01*
X103982734Y-53919932D01*
X103982728Y-53919929D01*
X103924725Y-53892882D01*
X103872285Y-53846710D01*
X103853133Y-53779517D01*
X103873348Y-53712635D01*
X103924725Y-53668118D01*
X103982734Y-53641068D01*
X104169139Y-53510547D01*
X104330047Y-53349639D01*
X104460568Y-53163234D01*
X104556739Y-52956996D01*
X104615635Y-52737192D01*
X104630500Y-52567284D01*
X104630500Y-52453716D01*
X104615635Y-52283808D01*
X104556739Y-52064004D01*
X104460568Y-51857766D01*
X104330047Y-51671361D01*
X104330046Y-51671360D01*
X104330045Y-51671358D01*
X104169141Y-51510454D01*
X103982734Y-51379932D01*
X103982728Y-51379929D01*
X103924725Y-51352882D01*
X103872285Y-51306710D01*
X103853133Y-51239517D01*
X103873348Y-51172635D01*
X103924725Y-51128118D01*
X103982734Y-51101068D01*
X104169139Y-50970547D01*
X104330047Y-50809639D01*
X104460568Y-50623234D01*
X104556739Y-50416996D01*
X104615635Y-50197192D01*
X104630500Y-50027284D01*
X104630500Y-49913716D01*
X104615635Y-49743808D01*
X104556739Y-49524004D01*
X104460568Y-49317766D01*
X104330047Y-49131361D01*
X104330046Y-49131360D01*
X104330045Y-49131358D01*
X104169141Y-48970454D01*
X104102620Y-48923876D01*
X104058995Y-48869300D01*
X104051801Y-48799801D01*
X104083324Y-48737446D01*
X104143083Y-48702151D01*
X104163038Y-48697058D01*
X104163042Y-48697057D01*
X104236528Y-48666618D01*
X104236556Y-48666606D01*
X104285309Y-48643281D01*
X104285314Y-48643278D01*
X104400378Y-48557141D01*
X104400382Y-48557138D01*
X104456643Y-48500876D01*
X104456659Y-48500859D01*
X104492770Y-48460657D01*
X104566111Y-48337045D01*
X104566115Y-48337038D01*
X104596547Y-48263567D01*
X104596548Y-48263564D01*
X104614544Y-48212553D01*
X104634999Y-48070280D01*
X104635000Y-48070279D01*
X104635000Y-47680500D01*
X102654000Y-47680500D01*
X102586961Y-47660815D01*
X102541206Y-47608011D01*
X102530000Y-47556500D01*
X102530000Y-47304500D01*
X102549685Y-47237461D01*
X102602489Y-47191706D01*
X102654000Y-47180500D01*
X104635000Y-47180500D01*
X104635000Y-46790719D01*
X119805000Y-46790719D01*
X119805000Y-47180500D01*
X123990839Y-47180500D01*
X123990839Y-47180499D01*
X123974559Y-47098650D01*
X123974556Y-47098639D01*
X123945814Y-47003887D01*
X123885509Y-46858301D01*
X123838844Y-46770998D01*
X123838832Y-46770978D01*
X123751295Y-46639969D01*
X123751291Y-46639963D01*
X123688485Y-46563435D01*
X123577064Y-46452014D01*
X123500536Y-46389208D01*
X123500530Y-46389204D01*
X123369521Y-46301667D01*
X123369501Y-46301655D01*
X123304730Y-46267034D01*
X123254886Y-46218071D01*
X123239426Y-46149934D01*
X123263258Y-46084254D01*
X123310777Y-46045295D01*
X123362734Y-46021068D01*
X123549139Y-45890547D01*
X123710047Y-45729639D01*
X123840568Y-45543234D01*
X123936739Y-45336996D01*
X123995635Y-45117192D01*
X124010500Y-44947284D01*
X124010500Y-44833716D01*
X123995635Y-44663808D01*
X123936739Y-44444004D01*
X123840568Y-44237766D01*
X123710047Y-44051361D01*
X123710046Y-44051360D01*
X123710045Y-44051358D01*
X123549141Y-43890454D01*
X123362734Y-43759932D01*
X123362728Y-43759929D01*
X123311343Y-43735968D01*
X123304724Y-43732881D01*
X123252285Y-43686710D01*
X123233133Y-43619517D01*
X123253348Y-43552635D01*
X123304725Y-43508118D01*
X123362734Y-43481068D01*
X123549139Y-43350547D01*
X123710047Y-43189639D01*
X123840568Y-43003234D01*
X123936739Y-42796996D01*
X123995635Y-42577192D01*
X124010500Y-42407284D01*
X124010500Y-42293716D01*
X123995635Y-42123808D01*
X123936739Y-41904004D01*
X123840568Y-41697766D01*
X123710047Y-41511361D01*
X123710045Y-41511358D01*
X123549141Y-41350454D01*
X123362734Y-41219932D01*
X123362732Y-41219931D01*
X123156497Y-41123761D01*
X123156488Y-41123758D01*
X122936697Y-41064866D01*
X122936687Y-41064864D01*
X122766785Y-41050000D01*
X122766784Y-41050000D01*
X121053216Y-41050000D01*
X121053215Y-41050000D01*
X120883312Y-41064864D01*
X120883302Y-41064866D01*
X120663511Y-41123758D01*
X120663502Y-41123761D01*
X120457267Y-41219931D01*
X120457265Y-41219932D01*
X120270858Y-41350454D01*
X120109954Y-41511358D01*
X119979432Y-41697765D01*
X119979431Y-41697767D01*
X119883261Y-41904002D01*
X119883258Y-41904011D01*
X119824366Y-42123802D01*
X119824364Y-42123812D01*
X119809500Y-42293714D01*
X119809500Y-42407285D01*
X119824364Y-42577187D01*
X119824366Y-42577197D01*
X119883258Y-42796988D01*
X119883261Y-42796997D01*
X119979431Y-43003232D01*
X119979432Y-43003234D01*
X120109954Y-43189641D01*
X120270858Y-43350545D01*
X120270861Y-43350547D01*
X120457266Y-43481068D01*
X120515275Y-43508118D01*
X120567714Y-43554291D01*
X120586866Y-43621484D01*
X120566650Y-43688365D01*
X120515275Y-43732881D01*
X120508657Y-43735968D01*
X120457267Y-43759931D01*
X120457265Y-43759932D01*
X120270858Y-43890454D01*
X120109954Y-44051358D01*
X119979432Y-44237765D01*
X119979431Y-44237767D01*
X119883261Y-44444002D01*
X119883258Y-44444011D01*
X119824366Y-44663802D01*
X119824364Y-44663812D01*
X119809500Y-44833714D01*
X119809500Y-44947285D01*
X119824364Y-45117187D01*
X119824366Y-45117197D01*
X119883258Y-45336988D01*
X119883261Y-45336997D01*
X119979431Y-45543232D01*
X119979432Y-45543234D01*
X120109954Y-45729641D01*
X120270858Y-45890545D01*
X120337379Y-45937123D01*
X120381004Y-45991699D01*
X120388198Y-46061198D01*
X120356676Y-46123552D01*
X120296922Y-46158846D01*
X120276970Y-46163938D01*
X120276957Y-46163942D01*
X120203471Y-46194381D01*
X120203443Y-46194393D01*
X120154690Y-46217718D01*
X120154685Y-46217721D01*
X120039621Y-46303858D01*
X120039617Y-46303861D01*
X119983356Y-46360123D01*
X119983340Y-46360140D01*
X119947229Y-46400342D01*
X119873888Y-46523954D01*
X119873884Y-46523961D01*
X119843452Y-46597432D01*
X119843451Y-46597435D01*
X119825455Y-46648446D01*
X119805000Y-46790719D01*
X104635000Y-46790719D01*
X104635000Y-46790714D01*
X104632106Y-46736737D01*
X104632106Y-46736735D01*
X104596561Y-46597469D01*
X104596557Y-46597457D01*
X104566118Y-46523971D01*
X104566106Y-46523943D01*
X104542781Y-46475190D01*
X104542778Y-46475185D01*
X104456641Y-46360121D01*
X104456638Y-46360117D01*
X104400376Y-46303856D01*
X104400359Y-46303840D01*
X104360157Y-46267729D01*
X104236545Y-46194388D01*
X104236538Y-46194384D01*
X104163067Y-46163952D01*
X104163065Y-46163951D01*
X104134833Y-46153991D01*
X104078162Y-46113123D01*
X104052582Y-46048104D01*
X104066215Y-45979577D01*
X104104964Y-45935482D01*
X104169139Y-45890547D01*
X104330047Y-45729639D01*
X104460568Y-45543234D01*
X104518972Y-45417986D01*
X108619500Y-45417986D01*
X108619500Y-45603013D01*
X108648445Y-45785765D01*
X108705619Y-45961732D01*
X108705620Y-45961735D01*
X108771722Y-46091466D01*
X108789622Y-46126596D01*
X108898379Y-46276287D01*
X109029213Y-46407121D01*
X109178904Y-46515878D01*
X109233439Y-46543665D01*
X109343764Y-46599879D01*
X109343767Y-46599880D01*
X109363902Y-46606422D01*
X109519736Y-46657055D01*
X109702486Y-46686000D01*
X109702487Y-46686000D01*
X109887513Y-46686000D01*
X109887514Y-46686000D01*
X110070264Y-46657055D01*
X110246235Y-46599879D01*
X110411096Y-46515878D01*
X110560787Y-46407121D01*
X110691621Y-46276287D01*
X110800378Y-46126596D01*
X110884379Y-45961735D01*
X110941555Y-45785764D01*
X110970500Y-45603014D01*
X110970500Y-45417986D01*
X110941555Y-45235236D01*
X110903202Y-45117197D01*
X110886826Y-45066795D01*
X110884380Y-45059267D01*
X110884379Y-45059264D01*
X110869722Y-45030499D01*
X111270000Y-45030499D01*
X111270000Y-45930500D01*
X111272138Y-45996041D01*
X111272138Y-45996044D01*
X111272139Y-45996045D01*
X111306068Y-46122667D01*
X111371612Y-46236194D01*
X111464306Y-46328888D01*
X111577833Y-46394432D01*
X111704455Y-46428361D01*
X111770000Y-46430500D01*
X112670000Y-46430500D01*
X112735545Y-46428361D01*
X112862167Y-46394433D01*
X112975694Y-46328888D01*
X113068388Y-46236194D01*
X113133933Y-46122667D01*
X113167861Y-45996045D01*
X113170000Y-45930500D01*
X113170000Y-45417986D01*
X113469500Y-45417986D01*
X113469500Y-45603013D01*
X113498445Y-45785765D01*
X113555619Y-45961732D01*
X113555620Y-45961735D01*
X113621722Y-46091466D01*
X113639622Y-46126596D01*
X113748379Y-46276287D01*
X113879213Y-46407121D01*
X114028904Y-46515878D01*
X114083439Y-46543665D01*
X114193764Y-46599879D01*
X114193767Y-46599880D01*
X114213902Y-46606422D01*
X114369736Y-46657055D01*
X114552486Y-46686000D01*
X114552487Y-46686000D01*
X114737513Y-46686000D01*
X114737514Y-46686000D01*
X114810660Y-46674414D01*
X114877578Y-46663816D01*
X114883847Y-46662822D01*
X114920264Y-46657055D01*
X115096235Y-46599879D01*
X115261096Y-46515878D01*
X115410787Y-46407121D01*
X115541621Y-46276287D01*
X115650378Y-46126596D01*
X115734379Y-45961735D01*
X115791555Y-45785764D01*
X115820500Y-45603014D01*
X115820500Y-45417986D01*
X115791555Y-45235236D01*
X115753202Y-45117197D01*
X115734380Y-45059267D01*
X115734379Y-45059264D01*
X115677322Y-44947284D01*
X115650378Y-44894404D01*
X115541621Y-44744713D01*
X115410787Y-44613879D01*
X115261096Y-44505122D01*
X115096235Y-44421120D01*
X115096232Y-44421119D01*
X114920265Y-44363945D01*
X114828889Y-44349472D01*
X114737514Y-44335000D01*
X114552486Y-44335000D01*
X114491569Y-44344648D01*
X114369734Y-44363945D01*
X114193767Y-44421119D01*
X114193764Y-44421120D01*
X114028903Y-44505122D01*
X113991030Y-44532639D01*
X113879213Y-44613879D01*
X113879211Y-44613881D01*
X113879210Y-44613881D01*
X113748381Y-44744710D01*
X113748381Y-44744711D01*
X113748379Y-44744713D01*
X113701672Y-44808999D01*
X113639622Y-44894403D01*
X113555620Y-45059264D01*
X113555619Y-45059267D01*
X113498445Y-45235234D01*
X113469500Y-45417986D01*
X113170000Y-45417986D01*
X113170000Y-45030500D01*
X113167861Y-44964955D01*
X113133933Y-44838333D01*
X113068388Y-44724806D01*
X112975694Y-44632112D01*
X112862167Y-44566567D01*
X112735545Y-44532639D01*
X112670000Y-44530500D01*
X112220000Y-44530500D01*
X111770000Y-44530500D01*
X111704458Y-44532638D01*
X111577832Y-44566568D01*
X111464307Y-44632111D01*
X111464304Y-44632113D01*
X111371613Y-44724804D01*
X111371611Y-44724807D01*
X111306068Y-44838332D01*
X111272138Y-44964958D01*
X111270000Y-45030499D01*
X110869722Y-45030499D01*
X110827322Y-44947284D01*
X110800378Y-44894404D01*
X110691621Y-44744713D01*
X110560787Y-44613879D01*
X110411096Y-44505122D01*
X110246235Y-44421120D01*
X110246232Y-44421119D01*
X110070265Y-44363945D01*
X109978889Y-44349472D01*
X109887514Y-44335000D01*
X109702486Y-44335000D01*
X109641569Y-44344648D01*
X109519734Y-44363945D01*
X109343767Y-44421119D01*
X109343764Y-44421120D01*
X109178903Y-44505122D01*
X109141030Y-44532639D01*
X109029213Y-44613879D01*
X109029211Y-44613881D01*
X109029210Y-44613881D01*
X108898381Y-44744710D01*
X108898381Y-44744711D01*
X108898379Y-44744713D01*
X108851672Y-44808999D01*
X108789622Y-44894403D01*
X108705620Y-45059264D01*
X108705619Y-45059267D01*
X108648445Y-45235234D01*
X108619500Y-45417986D01*
X104518972Y-45417986D01*
X104556739Y-45336996D01*
X104615635Y-45117192D01*
X104630500Y-44947284D01*
X104630500Y-44833716D01*
X104615635Y-44663808D01*
X104556739Y-44444004D01*
X104460568Y-44237766D01*
X104330047Y-44051361D01*
X104330046Y-44051360D01*
X104330045Y-44051358D01*
X104169141Y-43890454D01*
X103982734Y-43759932D01*
X103982732Y-43759931D01*
X103931343Y-43735968D01*
X103878904Y-43689795D01*
X103859752Y-43622602D01*
X103879968Y-43555721D01*
X103925293Y-43514229D01*
X103989783Y-43479759D01*
X104120811Y-43392209D01*
X104197412Y-43329343D01*
X104308843Y-43217912D01*
X104371709Y-43141311D01*
X104459259Y-43010283D01*
X104505972Y-42922889D01*
X104566278Y-42777298D01*
X104595044Y-42682468D01*
X104625787Y-42527910D01*
X104635500Y-42429293D01*
X104635500Y-42374213D01*
X108144500Y-42374213D01*
X108144500Y-42586786D01*
X108159653Y-42682462D01*
X108177754Y-42796743D01*
X108227938Y-42951194D01*
X108243444Y-42998914D01*
X108339951Y-43188320D01*
X108464890Y-43360286D01*
X108615213Y-43510609D01*
X108787179Y-43635548D01*
X108787181Y-43635549D01*
X108787184Y-43635551D01*
X108976588Y-43732057D01*
X109178757Y-43797746D01*
X109388713Y-43831000D01*
X109388714Y-43831000D01*
X109601286Y-43831000D01*
X109601287Y-43831000D01*
X109811243Y-43797746D01*
X110013412Y-43732057D01*
X110202816Y-43635551D01*
X110234674Y-43612405D01*
X110374786Y-43510609D01*
X110374788Y-43510606D01*
X110374792Y-43510604D01*
X110525104Y-43360292D01*
X110650051Y-43188316D01*
X110650053Y-43188311D01*
X110652914Y-43184374D01*
X110654013Y-43185172D01*
X110701241Y-43142428D01*
X110759225Y-43130148D01*
X110770000Y-43130500D01*
X110770004Y-43130500D01*
X111670000Y-43130500D01*
X111735545Y-43128361D01*
X111862167Y-43094433D01*
X111975694Y-43028888D01*
X112068388Y-42936194D01*
X112108283Y-42867094D01*
X112158850Y-42818878D01*
X112227457Y-42805655D01*
X112292322Y-42831624D01*
X112323057Y-42867094D01*
X112371609Y-42951190D01*
X112371611Y-42951193D01*
X112371612Y-42951194D01*
X112464306Y-43043888D01*
X112577833Y-43109432D01*
X112704455Y-43143361D01*
X112770000Y-43145500D01*
X113669997Y-43145500D01*
X113670000Y-43145500D01*
X113691066Y-43144812D01*
X113758711Y-43162298D01*
X113795430Y-43195861D01*
X113914890Y-43360286D01*
X114065213Y-43510609D01*
X114237179Y-43635548D01*
X114237181Y-43635549D01*
X114237184Y-43635551D01*
X114426588Y-43732057D01*
X114628757Y-43797746D01*
X114838713Y-43831000D01*
X114838714Y-43831000D01*
X115051286Y-43831000D01*
X115051287Y-43831000D01*
X115261243Y-43797746D01*
X115463412Y-43732057D01*
X115652816Y-43635551D01*
X115684674Y-43612405D01*
X115824786Y-43510609D01*
X115824788Y-43510606D01*
X115824792Y-43510604D01*
X115975104Y-43360292D01*
X115975106Y-43360288D01*
X115975109Y-43360286D01*
X116100048Y-43188320D01*
X116100047Y-43188320D01*
X116100051Y-43188316D01*
X116196557Y-42998912D01*
X116262246Y-42796743D01*
X116295500Y-42586787D01*
X116295500Y-42374213D01*
X116262246Y-42164257D01*
X116196557Y-41962088D01*
X116100051Y-41772684D01*
X116100049Y-41772681D01*
X116100048Y-41772679D01*
X115975109Y-41600713D01*
X115824786Y-41450390D01*
X115652820Y-41325451D01*
X115463414Y-41228944D01*
X115463413Y-41228943D01*
X115463412Y-41228943D01*
X115261243Y-41163254D01*
X115261241Y-41163253D01*
X115261240Y-41163253D01*
X115097244Y-41137279D01*
X115051287Y-41130000D01*
X114838713Y-41130000D01*
X114792756Y-41137279D01*
X114628760Y-41163253D01*
X114426585Y-41228944D01*
X114237181Y-41325450D01*
X114158861Y-41382352D01*
X114093054Y-41405831D01*
X114025000Y-41390004D01*
X113998296Y-41369714D01*
X113975696Y-41347114D01*
X113975694Y-41347112D01*
X113862167Y-41281567D01*
X113735545Y-41247639D01*
X113670000Y-41245500D01*
X113220000Y-41245500D01*
X112770000Y-41245500D01*
X112704458Y-41247638D01*
X112577832Y-41281568D01*
X112464307Y-41347111D01*
X112464304Y-41347113D01*
X112371613Y-41439804D01*
X112371609Y-41439809D01*
X112331717Y-41508905D01*
X112281150Y-41557121D01*
X112212543Y-41570343D01*
X112147678Y-41544375D01*
X112116943Y-41508905D01*
X112080415Y-41445638D01*
X112068388Y-41424806D01*
X111975694Y-41332112D01*
X111862167Y-41266567D01*
X111735545Y-41232639D01*
X111670000Y-41230500D01*
X111220000Y-41230500D01*
X110770000Y-41230500D01*
X110704458Y-41232638D01*
X110577832Y-41266568D01*
X110464307Y-41332111D01*
X110464304Y-41332113D01*
X110433014Y-41363403D01*
X110371690Y-41396888D01*
X110301999Y-41391902D01*
X110272449Y-41376040D01*
X110202815Y-41325448D01*
X110013414Y-41228944D01*
X110013413Y-41228943D01*
X110013412Y-41228943D01*
X109811243Y-41163254D01*
X109811241Y-41163253D01*
X109811240Y-41163253D01*
X109647244Y-41137279D01*
X109601287Y-41130000D01*
X109388713Y-41130000D01*
X109342756Y-41137279D01*
X109178760Y-41163253D01*
X108976585Y-41228944D01*
X108787179Y-41325451D01*
X108615213Y-41450390D01*
X108464890Y-41600713D01*
X108339951Y-41772679D01*
X108243444Y-41962085D01*
X108177753Y-42164260D01*
X108144500Y-42374213D01*
X104635500Y-42374213D01*
X104635500Y-42271707D01*
X104625787Y-42173090D01*
X104595044Y-42018532D01*
X104566278Y-41923702D01*
X104505972Y-41778111D01*
X104480523Y-41730500D01*
X104459265Y-41690728D01*
X104459263Y-41690726D01*
X104459259Y-41690717D01*
X104452068Y-41679955D01*
X104371721Y-41559706D01*
X104371712Y-41559694D01*
X104371709Y-41559689D01*
X104308843Y-41483088D01*
X104197412Y-41371657D01*
X104120811Y-41308791D01*
X104120804Y-41308786D01*
X104120793Y-41308778D01*
X103989799Y-41221251D01*
X103989771Y-41221234D01*
X103902396Y-41174531D01*
X103902391Y-41174529D01*
X103756799Y-41114222D01*
X103731190Y-41106454D01*
X103661968Y-41085456D01*
X103507410Y-41054713D01*
X103507406Y-41054712D01*
X103507398Y-41054711D01*
X103427926Y-41046884D01*
X103408793Y-41045000D01*
X101090218Y-41045000D01*
X101090216Y-41045000D01*
X101036185Y-41047895D01*
X101036181Y-41047896D01*
X100896778Y-41083476D01*
X100896766Y-41083480D01*
X100823280Y-41113919D01*
X100823252Y-41113931D01*
X100774451Y-41137279D01*
X100774446Y-41137282D01*
X100698811Y-41193903D01*
X100633346Y-41218320D01*
X100565073Y-41203468D01*
X100515668Y-41154063D01*
X100500500Y-41094636D01*
X100500500Y-40135000D01*
X100520185Y-40067961D01*
X100572989Y-40022206D01*
X100624500Y-40011000D01*
X128375500Y-40011000D01*
X128442539Y-40030685D01*
G37*
%TD.AperFunction*%
%TA.AperFunction,Conductor*%
G36*
X108220667Y-143644194D02*
G01*
X108279910Y-143746806D01*
X108363694Y-143830590D01*
X108466306Y-143889833D01*
X108551415Y-143912638D01*
X107895822Y-144568230D01*
X107895822Y-144568231D01*
X107945285Y-144604169D01*
X107996010Y-144630015D01*
X108046806Y-144677990D01*
X108063601Y-144745810D01*
X108041064Y-144811945D01*
X107996010Y-144850985D01*
X107945285Y-144876830D01*
X107895822Y-144912768D01*
X107895821Y-144912768D01*
X108551415Y-145568361D01*
X108466306Y-145591167D01*
X108363694Y-145650410D01*
X108279910Y-145734194D01*
X108220667Y-145836806D01*
X108197861Y-145921914D01*
X107542268Y-145266321D01*
X107542268Y-145266322D01*
X107506330Y-145315785D01*
X107480765Y-145365960D01*
X107432790Y-145416756D01*
X107364969Y-145433551D01*
X107298834Y-145411013D01*
X107259795Y-145365960D01*
X107234229Y-145315785D01*
X107234097Y-145315525D01*
X107111416Y-145146669D01*
X106963831Y-144999084D01*
X106794975Y-144876403D01*
X106745088Y-144850984D01*
X106694293Y-144803011D01*
X106677498Y-144735190D01*
X106700035Y-144669055D01*
X106745089Y-144630015D01*
X106794975Y-144604597D01*
X106963831Y-144481916D01*
X107111416Y-144334331D01*
X107234097Y-144165475D01*
X107259795Y-144115040D01*
X107307769Y-144064243D01*
X107375590Y-144047448D01*
X107441725Y-144069985D01*
X107480765Y-144115040D01*
X107506328Y-144165211D01*
X107506328Y-144165212D01*
X107542268Y-144214676D01*
X108197861Y-143559084D01*
X108220667Y-143644194D01*
G37*
%TD.AperFunction*%
%TA.AperFunction,Conductor*%
G36*
X110760667Y-143644194D02*
G01*
X110819910Y-143746806D01*
X110903694Y-143830590D01*
X111006306Y-143889833D01*
X111091415Y-143912638D01*
X110435822Y-144568230D01*
X110435822Y-144568231D01*
X110485285Y-144604169D01*
X110536010Y-144630015D01*
X110586806Y-144677990D01*
X110603601Y-144745810D01*
X110581064Y-144811945D01*
X110536010Y-144850985D01*
X110485285Y-144876830D01*
X110435822Y-144912768D01*
X110435821Y-144912768D01*
X111091415Y-145568361D01*
X111006306Y-145591167D01*
X110903694Y-145650410D01*
X110819910Y-145734194D01*
X110760667Y-145836806D01*
X110737861Y-145921914D01*
X110082268Y-145266321D01*
X110082268Y-145266322D01*
X110046330Y-145315785D01*
X110020485Y-145366510D01*
X109972510Y-145417306D01*
X109904690Y-145434101D01*
X109838555Y-145411564D01*
X109799515Y-145366510D01*
X109773669Y-145315785D01*
X109737730Y-145266322D01*
X109082138Y-145921914D01*
X109059333Y-145836806D01*
X109000090Y-145734194D01*
X108916306Y-145650410D01*
X108813694Y-145591167D01*
X108728584Y-145568361D01*
X109384176Y-144912768D01*
X109384176Y-144912767D01*
X109334711Y-144876828D01*
X109283990Y-144850985D01*
X109233194Y-144803011D01*
X109216398Y-144735190D01*
X109238935Y-144669055D01*
X109283990Y-144630015D01*
X109334705Y-144604174D01*
X109334708Y-144604172D01*
X109384176Y-144568230D01*
X108728584Y-143912638D01*
X108813694Y-143889833D01*
X108916306Y-143830590D01*
X109000090Y-143746806D01*
X109059333Y-143644194D01*
X109082138Y-143559084D01*
X109737730Y-144214676D01*
X109773672Y-144165208D01*
X109773674Y-144165205D01*
X109799515Y-144114490D01*
X109847489Y-144063694D01*
X109915310Y-144046898D01*
X109981445Y-144069435D01*
X110020485Y-144114490D01*
X110046328Y-144165211D01*
X110046328Y-144165212D01*
X110082268Y-144214676D01*
X110737861Y-143559084D01*
X110760667Y-143644194D01*
G37*
%TD.AperFunction*%
%TA.AperFunction,Conductor*%
G36*
X113300667Y-143644194D02*
G01*
X113359910Y-143746806D01*
X113443694Y-143830590D01*
X113546306Y-143889833D01*
X113631415Y-143912638D01*
X112975822Y-144568230D01*
X112975822Y-144568231D01*
X113025285Y-144604169D01*
X113076010Y-144630015D01*
X113126806Y-144677990D01*
X113143601Y-144745810D01*
X113121064Y-144811945D01*
X113076010Y-144850985D01*
X113025285Y-144876830D01*
X112975822Y-144912768D01*
X112975821Y-144912768D01*
X113631415Y-145568361D01*
X113546306Y-145591167D01*
X113443694Y-145650410D01*
X113359910Y-145734194D01*
X113300667Y-145836806D01*
X113277861Y-145921914D01*
X112622268Y-145266321D01*
X112622268Y-145266322D01*
X112586330Y-145315785D01*
X112560485Y-145366510D01*
X112512510Y-145417306D01*
X112444690Y-145434101D01*
X112378555Y-145411564D01*
X112339515Y-145366510D01*
X112313669Y-145315785D01*
X112277730Y-145266322D01*
X111622138Y-145921914D01*
X111599333Y-145836806D01*
X111540090Y-145734194D01*
X111456306Y-145650410D01*
X111353694Y-145591167D01*
X111268584Y-145568361D01*
X111924176Y-144912768D01*
X111924176Y-144912767D01*
X111874711Y-144876828D01*
X111823990Y-144850985D01*
X111773194Y-144803011D01*
X111756398Y-144735190D01*
X111778935Y-144669055D01*
X111823990Y-144630015D01*
X111874705Y-144604174D01*
X111874708Y-144604172D01*
X111924176Y-144568230D01*
X111268584Y-143912638D01*
X111353694Y-143889833D01*
X111456306Y-143830590D01*
X111540090Y-143746806D01*
X111599333Y-143644194D01*
X111622138Y-143559084D01*
X112277730Y-144214676D01*
X112313672Y-144165208D01*
X112313674Y-144165205D01*
X112339515Y-144114490D01*
X112387489Y-144063694D01*
X112455310Y-144046898D01*
X112521445Y-144069435D01*
X112560485Y-144114490D01*
X112586328Y-144165211D01*
X112586328Y-144165212D01*
X112622268Y-144214676D01*
X113277861Y-143559084D01*
X113300667Y-143644194D01*
G37*
%TD.AperFunction*%
%TA.AperFunction,Conductor*%
G36*
X114817730Y-144214676D02*
G01*
X114853671Y-144165209D01*
X114879233Y-144115041D01*
X114927207Y-144064244D01*
X114995027Y-144047448D01*
X115061163Y-144069984D01*
X115100203Y-144115038D01*
X115125767Y-144165209D01*
X115125903Y-144165475D01*
X115248584Y-144334331D01*
X115248586Y-144334333D01*
X115396172Y-144481919D01*
X115437686Y-144512079D01*
X115458384Y-144527117D01*
X115461725Y-144531449D01*
X115466703Y-144533723D01*
X115482834Y-144558823D01*
X115501050Y-144582446D01*
X115502303Y-144589118D01*
X115504477Y-144592501D01*
X115509500Y-144627436D01*
X115509500Y-144853563D01*
X115489815Y-144920602D01*
X115458387Y-144953879D01*
X115396169Y-144999084D01*
X115396167Y-144999086D01*
X115396166Y-144999086D01*
X115248586Y-145146666D01*
X115125903Y-145315524D01*
X115100203Y-145365962D01*
X115052228Y-145416757D01*
X114984406Y-145433551D01*
X114918272Y-145411012D01*
X114879234Y-145365959D01*
X114853671Y-145315788D01*
X114853671Y-145315787D01*
X114817730Y-145266322D01*
X114162138Y-145921914D01*
X114139333Y-145836806D01*
X114080090Y-145734194D01*
X113996306Y-145650410D01*
X113893694Y-145591167D01*
X113808584Y-145568361D01*
X114464176Y-144912768D01*
X114464176Y-144912767D01*
X114414711Y-144876828D01*
X114363990Y-144850985D01*
X114313194Y-144803011D01*
X114296398Y-144735190D01*
X114318935Y-144669055D01*
X114363990Y-144630015D01*
X114414705Y-144604174D01*
X114414708Y-144604172D01*
X114464176Y-144568230D01*
X113808584Y-143912638D01*
X113893694Y-143889833D01*
X113996306Y-143830590D01*
X114080090Y-143746806D01*
X114139333Y-143644194D01*
X114162138Y-143559084D01*
X114817730Y-144214676D01*
G37*
%TD.AperFunction*%
%TA.AperFunction,Conductor*%
G36*
X101334075Y-121023493D02*
G01*
X101399901Y-121137507D01*
X101492993Y-121230599D01*
X101607007Y-121296425D01*
X101670590Y-121313462D01*
X101038282Y-121945769D01*
X101038282Y-121945770D01*
X101092452Y-121985126D01*
X101092451Y-121985126D01*
X101101495Y-121989734D01*
X101152292Y-122037708D01*
X101169087Y-122105529D01*
X101146550Y-122171664D01*
X101101499Y-122210702D01*
X101092182Y-122215449D01*
X100920213Y-122340390D01*
X100769894Y-122490709D01*
X100769890Y-122490714D01*
X100724818Y-122552751D01*
X100669488Y-122595417D01*
X100599875Y-122601396D01*
X100538080Y-122568790D01*
X100503722Y-122507951D01*
X100500500Y-122479866D01*
X100500500Y-121711859D01*
X100520185Y-121644820D01*
X100572989Y-121599065D01*
X100634231Y-121588241D01*
X100684729Y-121592216D01*
X101317037Y-120959908D01*
X101334075Y-121023493D01*
G37*
%TD.AperFunction*%
%TA.AperFunction,Conductor*%
G36*
X100705703Y-119087420D02*
G01*
X100724819Y-119108248D01*
X100769896Y-119170292D01*
X100920213Y-119320609D01*
X101092179Y-119445548D01*
X101092181Y-119445549D01*
X101092184Y-119445551D01*
X101101493Y-119450294D01*
X101152290Y-119498266D01*
X101169087Y-119566087D01*
X101146552Y-119632222D01*
X101101505Y-119671260D01*
X101092446Y-119675876D01*
X101092440Y-119675880D01*
X101038282Y-119715227D01*
X101038282Y-119715228D01*
X101670591Y-120347537D01*
X101607007Y-120364575D01*
X101492993Y-120430401D01*
X101399901Y-120523493D01*
X101334075Y-120637507D01*
X101317037Y-120701091D01*
X100684728Y-120068782D01*
X100634230Y-120072757D01*
X100565852Y-120058393D01*
X100516095Y-120009342D01*
X100500500Y-119949139D01*
X100500500Y-119181133D01*
X100520185Y-119114094D01*
X100572989Y-119068339D01*
X100642147Y-119058395D01*
X100705703Y-119087420D01*
G37*
%TD.AperFunction*%
%TA.AperFunction,Conductor*%
G36*
X113634185Y-113413550D02*
G01*
X113643147Y-113412262D01*
X113667187Y-113423240D01*
X113692539Y-113430685D01*
X113698466Y-113437525D01*
X113706703Y-113441287D01*
X113720992Y-113463521D01*
X113738294Y-113483489D01*
X113740581Y-113494003D01*
X113744477Y-113500065D01*
X113749500Y-113535000D01*
X113749500Y-113589346D01*
X113780261Y-113743989D01*
X113780263Y-113743997D01*
X113790061Y-113767651D01*
X113791687Y-113775828D01*
X113794477Y-113780169D01*
X113799500Y-113815104D01*
X113799500Y-113938270D01*
X113779815Y-114005309D01*
X113763181Y-114025951D01*
X113565451Y-114223681D01*
X113504128Y-114257166D01*
X113477770Y-114260000D01*
X106226080Y-114260000D01*
X106081092Y-114288840D01*
X106081082Y-114288843D01*
X105944511Y-114345412D01*
X105944504Y-114345416D01*
X105924462Y-114358808D01*
X105914371Y-114365551D01*
X105821584Y-114427548D01*
X105569323Y-114679808D01*
X105529100Y-114706685D01*
X105505439Y-114716486D01*
X105505438Y-114716487D01*
X105374335Y-114804087D01*
X105374327Y-114804093D01*
X105262833Y-114915587D01*
X105262830Y-114915591D01*
X105191445Y-115022426D01*
X105137832Y-115067231D01*
X105068507Y-115075938D01*
X105005480Y-115045783D01*
X105000662Y-115041216D01*
X104617015Y-114657569D01*
X104583530Y-114596246D01*
X104583093Y-114594152D01*
X104569737Y-114527003D01*
X104520882Y-114409056D01*
X104509397Y-114381327D01*
X104509390Y-114381314D01*
X104421789Y-114250211D01*
X104421786Y-114250207D01*
X104310292Y-114138713D01*
X104310288Y-114138710D01*
X104179185Y-114051109D01*
X104179172Y-114051102D01*
X104033501Y-113990764D01*
X104033489Y-113990761D01*
X103878845Y-113960000D01*
X103878842Y-113960000D01*
X103721158Y-113960000D01*
X103721155Y-113960000D01*
X103566510Y-113990761D01*
X103566498Y-113990764D01*
X103420827Y-114051102D01*
X103420814Y-114051109D01*
X103289711Y-114138710D01*
X103289707Y-114138713D01*
X103178213Y-114250207D01*
X103178210Y-114250211D01*
X103090609Y-114381314D01*
X103090602Y-114381327D01*
X103030264Y-114526998D01*
X103030261Y-114527010D01*
X102999500Y-114681653D01*
X102999500Y-114740742D01*
X102979815Y-114807781D01*
X102927011Y-114853536D01*
X102857853Y-114863480D01*
X102794297Y-114834455D01*
X102787819Y-114828423D01*
X102679786Y-114720390D01*
X102507820Y-114595451D01*
X102505125Y-114594078D01*
X102499054Y-114590985D01*
X102448259Y-114543012D01*
X102431463Y-114475192D01*
X102453999Y-114409056D01*
X102499054Y-114370015D01*
X102507816Y-114365551D01*
X102535535Y-114345412D01*
X102679786Y-114240609D01*
X102679788Y-114240606D01*
X102679792Y-114240604D01*
X102830104Y-114090292D01*
X102830106Y-114090288D01*
X102830109Y-114090286D01*
X102955048Y-113918320D01*
X102955047Y-113918320D01*
X102955051Y-113918316D01*
X103051557Y-113728912D01*
X103117246Y-113526743D01*
X103119011Y-113515600D01*
X103148942Y-113452466D01*
X103208254Y-113415536D01*
X103241484Y-113411000D01*
X113625500Y-113411000D01*
X113634185Y-113413550D01*
G37*
%TD.AperFunction*%
%TD*%
M02*
