M48
; DRILL file {KiCad 9.0.7} date 2026-04-17T10:56:06-0700
; FORMAT={-:-/ absolute / metric / decimal}
; #@! TF.CreationDate,2026-04-17T10:56:06-07:00
; #@! TF.GenerationSoftware,Kicad,Pcbnew,9.0.7
; #@! TF.FileFunction,Plated,1,2,PTH
FMAT,2
METRIC
; #@! TA.AperFunction,Plated,PTH,ViaDrill
T1C0.300
; #@! TA.AperFunction,Plated,PTH,ComponentDrill
T2C0.800
; #@! TA.AperFunction,Plated,PTH,ComponentDrill
T3C0.813
; #@! TA.AperFunction,Plated,PTH,ComponentDrill
T4C0.900
; #@! TA.AperFunction,Plated,PTH,ComponentDrill
T5C1.000
%
G90
G05
T1
X102.08Y-44.89
X102.33Y-42.35
X102.33Y-49.971
X102.35Y-47.431
X103.8Y-114.76
X104.945Y-47.511
X105.885Y-115.426
X109.05Y-113.76
X113.3Y-113.76
X113.622Y-57.438
X114.55Y-113.51
X115.372Y-60.438
X115.8Y-115.01
X116.0Y-125.11
X116.3Y-130.31
X116.5Y-121.81
X118.3Y-112.01
X118.8Y-113.76
X119.8Y-115.01
X121.55Y-45.011
X121.8Y-85.51
X121.8Y-112.76
X123.3Y-102.51
X123.385Y-101.595
X124.3Y-87.51
X124.55Y-89.76
X126.2Y-48.41
X126.2Y-136.71
X126.4Y-126.81
T2
X106.89Y-110.16
X106.89Y-117.78
X109.43Y-110.16
X109.43Y-117.78
X111.97Y-110.16
X111.97Y-117.78
X114.51Y-110.16
X114.51Y-117.78
X117.05Y-110.16
X117.05Y-117.78
X119.59Y-110.16
X119.59Y-117.78
X122.13Y-110.16
X122.13Y-117.78
T3
X106.55Y-99.45
X106.55Y-107.07
X106.8Y-120.45
X106.8Y-128.07
X109.3Y-99.45
X109.3Y-107.07
X109.55Y-120.45
X109.55Y-128.07
X113.05Y-99.45
X113.05Y-107.07
X116.05Y-99.45
X116.05Y-107.07
X119.55Y-99.45
X119.55Y-107.07
X119.55Y-120.45
X119.55Y-128.07
X122.3Y-99.45
X122.3Y-107.07
X122.3Y-120.45
X122.3Y-128.07
T4
X106.1Y-143.47
X106.1Y-146.011
X108.64Y-143.47
X108.64Y-146.011
X111.18Y-143.47
X111.18Y-146.011
X113.72Y-143.47
X113.72Y-146.011
X116.26Y-143.47
X116.26Y-146.011
X118.8Y-143.47
X118.8Y-146.011
X121.34Y-143.47
X121.34Y-146.011
X123.88Y-143.47
X123.88Y-146.011
T5
X101.8Y-100.51
X101.8Y-103.05
X101.8Y-105.59
X101.8Y-108.13
X101.8Y-110.67
X101.8Y-113.21
X101.8Y-115.75
X101.8Y-118.29
X101.8Y-120.831
X101.8Y-123.37
X126.8Y-61.15
X126.8Y-63.691
X126.8Y-66.23
X126.8Y-68.77
X126.8Y-71.31
X126.8Y-73.85
X126.8Y-76.391
X126.8Y-78.93
X126.8Y-81.471
X126.8Y-84.01
X126.8Y-100.51
X126.8Y-103.05
X126.8Y-105.59
X126.8Y-108.13
X126.8Y-110.67
X126.8Y-113.21
X126.8Y-115.75
X126.8Y-118.29
X126.8Y-120.831
X126.8Y-123.37
M30
