%TF.GenerationSoftware,KiCad,Pcbnew,9.0.7*%
%TF.CreationDate,2026-04-17T10:56:10-07:00*%
%TF.ProjectId,MotionMod-BottomPanel,4d6f7469-6f6e-44d6-9f64-2d426f74746f,rev?*%
%TF.SameCoordinates,Original*%
%TF.FileFunction,Soldermask,Top*%
%TF.FilePolarity,Negative*%
%FSLAX46Y46*%
G04 Gerber Fmt 4.6, Leading zero omitted, Abs format (unit mm)*
G04 Created by KiCad (PCBNEW 9.0.7) date 2026-04-17 10:56:10*
%MOMM*%
%LPD*%
G01*
G04 APERTURE LIST*
G04 Aperture macros list*
%AMRoundRect*
0 Rectangle with rounded corners*
0 $1 Rounding radius*
0 $2 $3 $4 $5 $6 $7 $8 $9 X,Y pos of 4 corners*
0 Add a 4 corners polygon primitive as box body*
4,1,4,$2,$3,$4,$5,$6,$7,$8,$9,$2,$3,0*
0 Add four circle primitives for the rounded corners*
1,1,$1+$1,$2,$3*
1,1,$1+$1,$4,$5*
1,1,$1+$1,$6,$7*
1,1,$1+$1,$8,$9*
0 Add four rect primitives between the rounded corners*
20,1,$1+$1,$2,$3,$4,$5,0*
20,1,$1+$1,$4,$5,$6,$7,0*
20,1,$1+$1,$6,$7,$8,$9,0*
20,1,$1+$1,$8,$9,$2,$3,0*%
%AMFreePoly0*
4,1,37,0.800000,0.796148,0.878414,0.796148,1.032228,0.765552,1.177117,0.705537,1.307515,0.618408,1.418408,0.507515,1.505537,0.377117,1.565552,0.232228,1.596148,0.078414,1.596148,-0.078414,1.565552,-0.232228,1.505537,-0.377117,1.418408,-0.507515,1.307515,-0.618408,1.177117,-0.705537,1.032228,-0.765552,0.878414,-0.796148,0.800000,-0.796148,0.800000,-0.800000,-1.400000,-0.800000,
-1.403843,-0.796157,-1.439018,-0.796157,-1.511114,-0.766294,-1.566294,-0.711114,-1.596157,-0.639018,-1.596157,-0.603843,-1.600000,-0.600000,-1.600000,0.600000,-1.596157,0.603843,-1.596157,0.639018,-1.566294,0.711114,-1.511114,0.766294,-1.439018,0.796157,-1.403843,0.796157,-1.400000,0.800000,0.800000,0.800000,0.800000,0.796148,0.800000,0.796148,$1*%
%AMFreePoly1*
4,1,37,1.403843,0.796157,1.439018,0.796157,1.511114,0.766294,1.566294,0.711114,1.596157,0.639018,1.596157,0.603843,1.600000,0.600000,1.600000,-0.600000,1.596157,-0.603843,1.596157,-0.639018,1.566294,-0.711114,1.511114,-0.766294,1.439018,-0.796157,1.403843,-0.796157,1.400000,-0.800000,-0.800000,-0.800000,-0.800000,-0.796148,-0.878414,-0.796148,-1.032228,-0.765552,-1.177117,-0.705537,
-1.307515,-0.618408,-1.418408,-0.507515,-1.505537,-0.377117,-1.565552,-0.232228,-1.596148,-0.078414,-1.596148,0.078414,-1.565552,0.232228,-1.505537,0.377117,-1.418408,0.507515,-1.307515,0.618408,-1.177117,0.705537,-1.032228,0.765552,-0.878414,0.796148,-0.800000,0.796148,-0.800000,0.800000,1.400000,0.800000,1.403843,0.796157,1.403843,0.796157,$1*%
%AMFreePoly2*
4,1,37,1.600000,0.796148,1.678414,0.796148,1.832228,0.765552,1.977117,0.705537,2.107515,0.618408,2.218408,0.507515,2.305537,0.377117,2.365552,0.232228,2.396148,0.078414,2.396148,-0.078414,2.365552,-0.232228,2.305537,-0.377117,2.218408,-0.507515,2.107515,-0.618408,1.977117,-0.705537,1.832228,-0.765552,1.678414,-0.796148,1.600000,-0.796148,1.600000,-0.800000,-0.600000,-0.800000,
-0.603843,-0.796157,-0.639018,-0.796157,-0.711114,-0.766294,-0.766294,-0.711114,-0.796157,-0.639018,-0.796157,-0.603843,-0.800000,-0.600000,-0.800000,0.600000,-0.796157,0.603843,-0.796157,0.639018,-0.766294,0.711114,-0.711114,0.766294,-0.639018,0.796157,-0.603843,0.796157,-0.600000,0.800000,1.600000,0.800000,1.600000,0.796148,1.600000,0.796148,$1*%
G04 Aperture macros list end*
%ADD10C,1.397000*%
%ADD11RoundRect,0.250000X0.550000X-0.950000X0.550000X0.950000X-0.550000X0.950000X-0.550000X-0.950000X0*%
%ADD12O,1.600000X2.400000*%
%ADD13R,1.700000X1.700000*%
%ADD14C,1.700000*%
%ADD15C,2.200000*%
%ADD16C,1.850000*%
%ADD17FreePoly0,0.000000*%
%ADD18RoundRect,0.800000X-0.800000X-0.000010X0.800000X-0.000010X0.800000X0.000010X-0.800000X0.000010X0*%
%ADD19FreePoly1,0.000000*%
%ADD20RoundRect,0.800000X0.000010X-0.800000X0.000010X0.800000X-0.000010X0.800000X-0.000010X-0.800000X0*%
%ADD21FreePoly2,270.000000*%
%ADD22C,1.651000*%
G04 APERTURE END LIST*
D10*
%TO.C,R10*%
X109550000Y-128070500D03*
X109550000Y-120450500D03*
%TD*%
%TO.C,R8*%
X106550000Y-99450500D03*
X106550000Y-107070500D03*
%TD*%
%TO.C,R22*%
X109300000Y-99450500D03*
X109300000Y-107070500D03*
%TD*%
%TO.C,R2*%
X106800000Y-128070500D03*
X106800000Y-120450500D03*
%TD*%
%TO.C,R20*%
X119550000Y-128070500D03*
X119550000Y-120450500D03*
%TD*%
D11*
%TO.C,U1*%
X106890000Y-117780500D03*
D12*
X109430000Y-117780500D03*
X111970000Y-117780500D03*
X114510000Y-117780500D03*
X117050000Y-117780500D03*
X119590000Y-117780500D03*
X122130000Y-117780500D03*
X122130000Y-110160500D03*
X119590000Y-110160500D03*
X117050000Y-110160500D03*
X114510000Y-110160500D03*
X111970000Y-110160500D03*
X109430000Y-110160500D03*
X106890000Y-110160500D03*
%TD*%
D13*
%TO.C,J4*%
X101800000Y-100510500D03*
D14*
X101800000Y-103050500D03*
X101800000Y-105590500D03*
X101800000Y-108130500D03*
X101800000Y-110670500D03*
X101800000Y-113210500D03*
X101800000Y-115750500D03*
X101800000Y-118290500D03*
X101800000Y-120830500D03*
X101800000Y-123370500D03*
%TD*%
D10*
%TO.C,R21*%
X119550000Y-99450500D03*
X119550000Y-107070500D03*
%TD*%
%TO.C,R12*%
X113050000Y-99450500D03*
X113050000Y-107070500D03*
%TD*%
D15*
%TO.C,A1*%
X109495000Y-42480500D03*
D16*
X109795000Y-45510500D03*
X114645000Y-45510500D03*
D15*
X114945000Y-42480500D03*
D17*
X102530000Y-42350500D03*
D18*
X102530000Y-44890500D03*
D19*
X102530000Y-47430500D03*
D18*
X102530000Y-49970500D03*
X102530000Y-52510500D03*
X102530000Y-55050500D03*
X102530000Y-57590500D03*
D19*
X102530000Y-60130500D03*
D18*
X102530000Y-62670500D03*
X102530000Y-65210500D03*
X102530000Y-67750500D03*
X102530000Y-70290500D03*
D19*
X102530000Y-72830500D03*
D18*
X102530000Y-75370500D03*
X102530000Y-77910500D03*
X102530000Y-80450500D03*
X102530000Y-82990500D03*
D19*
X102530000Y-85530500D03*
D18*
X102530000Y-88070500D03*
X102530000Y-90610500D03*
X121910000Y-90610500D03*
X121910000Y-88070500D03*
D17*
X121910000Y-85530500D03*
D18*
X121910000Y-82990500D03*
X121910000Y-80450500D03*
X121910000Y-77910500D03*
X121910000Y-75370500D03*
D17*
X121910000Y-72830500D03*
D18*
X121910000Y-70290500D03*
X121910000Y-67750500D03*
X121910000Y-65210500D03*
X121910000Y-62670500D03*
D17*
X121910000Y-60130500D03*
D18*
X121910000Y-57590500D03*
X121910000Y-55050500D03*
X121910000Y-52510500D03*
X121910000Y-49970500D03*
D17*
X121910000Y-47430500D03*
D18*
X121910000Y-44890500D03*
X121910000Y-42350500D03*
D20*
X109680000Y-91180500D03*
D21*
X112220000Y-90380500D03*
D20*
X114760000Y-91180500D03*
%TD*%
D10*
%TO.C,R11*%
X116050000Y-99450500D03*
X116050000Y-107070500D03*
%TD*%
D13*
%TO.C,J13*%
X126800000Y-84010500D03*
D14*
X126800000Y-81470500D03*
X126800000Y-78930500D03*
X126800000Y-76390500D03*
X126800000Y-73850500D03*
X126800000Y-71310500D03*
X126800000Y-68770500D03*
X126800000Y-66230500D03*
X126800000Y-63690500D03*
X126800000Y-61150500D03*
%TD*%
D10*
%TO.C,R4*%
X122300000Y-128070500D03*
X122300000Y-120450500D03*
%TD*%
%TO.C,R6*%
X122300000Y-99450500D03*
X122300000Y-107070500D03*
%TD*%
D13*
%TO.C,J3*%
X126800000Y-100510500D03*
D14*
X126800000Y-103050500D03*
X126800000Y-105590500D03*
X126800000Y-108130500D03*
X126800000Y-110670500D03*
X126800000Y-113210500D03*
X126800000Y-115750500D03*
X126800000Y-118290500D03*
X126800000Y-120830500D03*
X126800000Y-123370500D03*
%TD*%
D22*
%TO.C,J2*%
X123880000Y-146010500D03*
X123880000Y-143470500D03*
X121340000Y-146010500D03*
X121340000Y-143470500D03*
X118800000Y-146010500D03*
X118800000Y-143470500D03*
X116260000Y-146010500D03*
X116260000Y-143470500D03*
X113720000Y-146010500D03*
X113720000Y-143470500D03*
X111180000Y-146010500D03*
X111180000Y-143470500D03*
X108640000Y-146010500D03*
X108640000Y-143470500D03*
X106100000Y-146010500D03*
X106100000Y-143470500D03*
%TD*%
M02*
