%TF.GenerationSoftware,KiCad,Pcbnew,9.0.7*%
%TF.CreationDate,2026-04-15T10:54:32-07:00*%
%TF.ProjectId,MotionMod,4d6f7469-6f6e-44d6-9f64-2e6b69636164,rev?*%
%TF.SameCoordinates,Original*%
%TF.FileFunction,Soldermask,Bot*%
%TF.FilePolarity,Negative*%
%FSLAX46Y46*%
G04 Gerber Fmt 4.6, Leading zero omitted, Abs format (unit mm)*
G04 Created by KiCad (PCBNEW 9.0.7) date 2026-04-15 10:54:32*
%MOMM*%
%LPD*%
G01*
G04 APERTURE LIST*
G04 Aperture macros list*
%AMRoundRect*
0 Rectangle with rounded corners*
0 $1 Rounding radius*
0 $2 $3 $4 $5 $6 $7 $8 $9 X,Y pos of 4 corners*
0 Add a 4 corners polygon primitive as box body*
4,1,4,$2,$3,$4,$5,$6,$7,$8,$9,$2,$3,0*
0 Add four circle primitives for the rounded corners*
1,1,$1+$1,$2,$3*
1,1,$1+$1,$4,$5*
1,1,$1+$1,$6,$7*
1,1,$1+$1,$8,$9*
0 Add four rect primitives between the rounded corners*
20,1,$1+$1,$2,$3,$4,$5,0*
20,1,$1+$1,$4,$5,$6,$7,0*
20,1,$1+$1,$6,$7,$8,$9,0*
20,1,$1+$1,$8,$9,$2,$3,0*%
G04 Aperture macros list end*
%ADD10C,2.200000*%
%ADD11RoundRect,0.250000X-0.850000X-0.850000X0.850000X-0.850000X0.850000X0.850000X-0.850000X0.850000X0*%
%ADD12C,1.803400*%
%ADD13C,2.667000*%
%ADD14R,1.830000X1.930000*%
%ADD15C,2.130000*%
%ADD16C,1.397000*%
%ADD17R,1.700000X1.700000*%
%ADD18C,1.700000*%
%ADD19O,1.524000X2.524000*%
%ADD20R,1.524000X2.524000*%
%ADD21C,1.850000*%
%ADD22RoundRect,0.250000X0.550000X-0.950000X0.550000X0.950000X-0.550000X0.950000X-0.550000X-0.950000X0*%
%ADD23O,1.600000X2.400000*%
%ADD24C,1.651000*%
G04 APERTURE END LIST*
D10*
%TO.C,J1*%
X156500000Y-58700500D03*
X156500000Y-61240500D03*
X156500000Y-63780500D03*
D11*
X156500000Y-66320500D03*
%TD*%
D12*
%TO.C,SW2*%
X167540000Y-109507100D03*
X162460000Y-109507100D03*
X165000000Y-109507100D03*
D13*
X171250000Y-117000100D03*
X158750000Y-117000100D03*
D12*
X167540000Y-124010500D03*
X162460000Y-124010500D03*
%TD*%
D14*
%TO.C,J9*%
X165000000Y-131980500D03*
D15*
X153600000Y-131980500D03*
X161900000Y-131980500D03*
%TD*%
D14*
%TO.C,J10*%
X165000000Y-131980500D03*
D15*
X176400000Y-131980500D03*
X168100000Y-131980500D03*
%TD*%
%TO.C,J11*%
X161900000Y-142760500D03*
X153600000Y-142760500D03*
D14*
X165000000Y-142760500D03*
%TD*%
D15*
%TO.C,J12*%
X168100000Y-142760500D03*
X176400000Y-142760500D03*
D14*
X165000000Y-142760500D03*
%TD*%
D16*
%TO.C,R3*%
X177250000Y-100820500D03*
X177250000Y-93200500D03*
%TD*%
%TO.C,R26*%
X155500000Y-123260500D03*
X155500000Y-115640500D03*
%TD*%
%TO.C,R25*%
X174750000Y-120570500D03*
X174750000Y-112950500D03*
%TD*%
%TO.C,R23*%
X177750000Y-108390500D03*
X177750000Y-116010500D03*
%TD*%
%TO.C,R24*%
X178000000Y-125510500D03*
X170380000Y-125510500D03*
%TD*%
%TO.C,R15*%
X173750000Y-96380500D03*
X173750000Y-88760500D03*
%TD*%
%TO.C,R1*%
X152500000Y-58570500D03*
X152500000Y-50950500D03*
%TD*%
%TO.C,R17*%
X152250000Y-87140500D03*
X152250000Y-94760500D03*
%TD*%
%TO.C,R13*%
X167500000Y-86070500D03*
X167500000Y-78450500D03*
%TD*%
%TO.C,R16*%
X156000000Y-94760500D03*
X156000000Y-87140500D03*
%TD*%
%TO.C,R18*%
X162500000Y-86010500D03*
X162500000Y-78390500D03*
%TD*%
%TO.C,R14*%
X170250000Y-86070500D03*
X170250000Y-78450500D03*
%TD*%
%TO.C,R19*%
X159500000Y-86010500D03*
X159500000Y-78390500D03*
%TD*%
D17*
%TO.C,J14*%
X177500000Y-84010500D03*
D18*
X177500000Y-81470500D03*
X177500000Y-78930500D03*
X177500000Y-76390500D03*
X177500000Y-73850500D03*
X177500000Y-71310500D03*
X177500000Y-68770500D03*
X177500000Y-66230500D03*
X177500000Y-63690500D03*
X177500000Y-61150500D03*
%TD*%
D17*
%TO.C,J5*%
X152500000Y-100510500D03*
D18*
X152500000Y-103050500D03*
X152500000Y-105590500D03*
X152500000Y-108130500D03*
X152500000Y-110670500D03*
X152500000Y-113210500D03*
X152500000Y-115750500D03*
X152500000Y-118290500D03*
X152500000Y-120830500D03*
X152500000Y-123370500D03*
%TD*%
D19*
%TO.C,AFF1*%
X159920000Y-89640500D03*
X162460000Y-89640500D03*
X165000000Y-89640500D03*
X167540000Y-89640500D03*
X170080000Y-89640500D03*
X170080000Y-104880500D03*
X167540000Y-104880500D03*
X165000000Y-104880500D03*
X162460000Y-104880500D03*
D20*
X159920000Y-104880500D03*
%TD*%
D10*
%TO.C,A1*%
X115445000Y-42480500D03*
D21*
X115145000Y-45510500D03*
X110295000Y-45510500D03*
D10*
X109995000Y-42480500D03*
%TD*%
D17*
%TO.C,J13*%
X127500000Y-84010500D03*
D18*
X127500000Y-81470500D03*
X127500000Y-78930500D03*
X127500000Y-76390500D03*
X127500000Y-73850500D03*
X127500000Y-71310500D03*
X127500000Y-68770500D03*
X127500000Y-66230500D03*
X127500000Y-63690500D03*
X127500000Y-61150500D03*
%TD*%
D16*
%TO.C,R20*%
X120250000Y-120450500D03*
X120250000Y-128070500D03*
%TD*%
%TO.C,R6*%
X123000000Y-107070500D03*
X123000000Y-99450500D03*
%TD*%
%TO.C,R21*%
X120250000Y-107070500D03*
X120250000Y-99450500D03*
%TD*%
%TO.C,R4*%
X123000000Y-120450500D03*
X123000000Y-128070500D03*
%TD*%
%TO.C,R22*%
X110000000Y-107070500D03*
X110000000Y-99450500D03*
%TD*%
%TO.C,R12*%
X113750000Y-99450500D03*
X113750000Y-107070500D03*
%TD*%
%TO.C,R11*%
X116750000Y-99450500D03*
X116750000Y-107070500D03*
%TD*%
%TO.C,R10*%
X110250000Y-128070500D03*
X110250000Y-120450500D03*
%TD*%
%TO.C,R8*%
X107250000Y-99450500D03*
X107250000Y-107070500D03*
%TD*%
%TO.C,R2*%
X107500000Y-128070500D03*
X107500000Y-120450500D03*
%TD*%
D22*
%TO.C,U1*%
X107590000Y-117780500D03*
D23*
X110130000Y-117780500D03*
X112670000Y-117780500D03*
X115210000Y-117780500D03*
X117750000Y-117780500D03*
X120290000Y-117780500D03*
X122830000Y-117780500D03*
X122830000Y-110160500D03*
X120290000Y-110160500D03*
X117750000Y-110160500D03*
X115210000Y-110160500D03*
X112670000Y-110160500D03*
X110130000Y-110160500D03*
X107590000Y-110160500D03*
%TD*%
D24*
%TO.C,J2*%
X106800000Y-143470500D03*
X106800000Y-146010500D03*
X109340000Y-143470500D03*
X109340000Y-146010500D03*
X111880000Y-143470500D03*
X111880000Y-146010500D03*
X114420000Y-143470500D03*
X114420000Y-146010500D03*
X116960000Y-143470500D03*
X116960000Y-146010500D03*
X119500000Y-143470500D03*
X119500000Y-146010500D03*
X122040000Y-143470500D03*
X122040000Y-146010500D03*
X124580000Y-143470500D03*
X124580000Y-146010500D03*
%TD*%
D17*
%TO.C,J4*%
X102500000Y-100510500D03*
D18*
X102500000Y-103050500D03*
X102500000Y-105590500D03*
X102500000Y-108130500D03*
X102500000Y-110670500D03*
X102500000Y-113210500D03*
X102500000Y-115750500D03*
X102500000Y-118290500D03*
X102500000Y-120830500D03*
X102500000Y-123370500D03*
%TD*%
D17*
%TO.C,J3*%
X127500000Y-100510500D03*
D18*
X127500000Y-103050500D03*
X127500000Y-105590500D03*
X127500000Y-108130500D03*
X127500000Y-110670500D03*
X127500000Y-113210500D03*
X127500000Y-115750500D03*
X127500000Y-118290500D03*
X127500000Y-120830500D03*
X127500000Y-123370500D03*
%TD*%
M02*
