%TF.GenerationSoftware,KiCad,Pcbnew,9.0.7*%
%TF.CreationDate,2026-04-15T10:54:32-07:00*%
%TF.ProjectId,MotionMod,4d6f7469-6f6e-44d6-9f64-2e6b69636164,rev?*%
%TF.SameCoordinates,Original*%
%TF.FileFunction,Paste,Top*%
%TF.FilePolarity,Positive*%
%FSLAX46Y46*%
G04 Gerber Fmt 4.6, Leading zero omitted, Abs format (unit mm)*
G04 Created by KiCad (PCBNEW 9.0.7) date 2026-04-15 10:54:32*
%MOMM*%
%LPD*%
G01*
G04 APERTURE LIST*
%ADD10R,3.800000X2.200000*%
%ADD11R,2.200000X3.800000*%
G04 APERTURE END LIST*
D10*
%TO.C,A1*%
X122410000Y-90610500D03*
X122410000Y-88070500D03*
X122410000Y-85530500D03*
X122410000Y-82990500D03*
X122410000Y-80450500D03*
X122410000Y-77910500D03*
X122410000Y-75370500D03*
X122410000Y-72830500D03*
X122410000Y-70290500D03*
X122410000Y-67750500D03*
X122410000Y-65210500D03*
X122410000Y-62670500D03*
X122410000Y-60130500D03*
X122410000Y-57590500D03*
X122410000Y-55050500D03*
X122410000Y-52510500D03*
X122410000Y-49970500D03*
X122410000Y-47430500D03*
X122410000Y-44890500D03*
X122410000Y-42350500D03*
D11*
X115260000Y-91180500D03*
X112720000Y-91180500D03*
X110180000Y-91180500D03*
D10*
X103030000Y-90610500D03*
X103030000Y-88070500D03*
X103030000Y-85530500D03*
X103030000Y-82990500D03*
X103030000Y-80450500D03*
X103030000Y-77910500D03*
X103030000Y-75370500D03*
X103030000Y-72830500D03*
X103030000Y-70290500D03*
X103030000Y-67750500D03*
X103030000Y-65210500D03*
X103030000Y-62670500D03*
X103030000Y-60130500D03*
X103030000Y-57590500D03*
X103030000Y-55050500D03*
X103030000Y-52510500D03*
X103030000Y-49970500D03*
X103030000Y-47430500D03*
X103030000Y-44890500D03*
X103030000Y-42350500D03*
%TD*%
M02*
